<?xml version="1.0" encoding="UTF-8"?>
<svg id="background_bar" data-name="background bar" xmlns="http://www.w3.org/2000/svg" viewBox="0 0 142 124">
  <defs>
    <style>
      .cls-1 {
        fill: #e37839;
      }

      .cls-1, .cls-2, .cls-3, .cls-4, .cls-5 {
        stroke-width: 0px;
      }

      .cls-1, .cls-2, .cls-4, .cls-5 {
        fill-rule: evenodd;
      }

      .cls-2 {
        fill: #e6e6e6;
      }

      .cls-3 {
        fill: #000;
      }

      .cls-4 {
        fill: #666;
      }

      .cls-5 {
        fill: #fff;
      }
    </style>
  </defs>
  <g>
    <polygon class="cls-4" points="49.67 108.47 48.78 101.8 47.89 95.13 53.34 96.85 58.8 98.58 54.24 103.52 49.67 108.47 49.67 108.47"/>
    <polygon class="cls-4" points="79.03 15.53 74.46 20.48 69.9 25.42 75.36 27.15 80.81 28.87 79.92 22.2 79.03 15.53 79.03 15.53"/>
    <path class="cls-4" d="M98.43,44.28c3.92,7.55,5.1,15.79,3.88,23.6l-4.23-2.93c.55-6.2-.61-12.63-3.69-18.56-8.63-16.59-29.07-23.04-45.65-14.42-5.93,3.09-10.57,7.68-13.68,13.07l-5.15-.03c3.49-7.09,9.18-13.17,16.73-17.09,18.82-9.79,42.02-2.46,51.8,16.36h0ZM98.8,78.99c-3.49,7.09-9.18,13.17-16.73,17.09-18.82,9.79-42.02,2.46-51.8-16.36-3.92-7.55-5.1-15.79-3.88-23.6l4.23,2.93c-.55,6.2.61,12.63,3.69,18.56,8.63,16.59,29.07,23.04,45.65,14.42,5.93-3.09,10.57-7.68,13.68-13.07l5.15.03h0Z"/>
    <polygon class="cls-1" points="104.29 74.61 82.37 74.49 60.45 74.36 64.35 62 68.25 49.64 86.27 62.13 104.29 74.61 104.29 74.61"/>
    <polygon class="cls-4" points="24.41 49.39 42.43 61.87 60.45 74.36 64.35 62 68.25 49.64 46.33 49.51 24.41 49.39 24.41 49.39"/>
    <path class="cls-5" d="M68.29,63.24c-.69,2.17-3.01,3.38-5.18,2.69-2.17-.69-3.38-3.01-2.69-5.18s3.01-3.38,5.18-2.69c2.17.69,3.38,3.01,2.69,5.18h0Z"/>
    <path class="cls-2" d="M68.29,63.24c-.69,2.17-3.01,3.38-5.18,2.69-1.3-.41-2.25-1.4-2.66-2.6.5.69,1.22,1.23,2.09,1.5,2.17.69,4.49-.52,5.18-2.69.28-.87.25-1.77-.03-2.58.75,1.02,1.01,2.38.6,3.68h0Z"/>
    <path class="cls-2" d="M93.56,79.11c-3.11,5.33-7.72,9.87-13.59,12.92-16.59,8.63-37.03,2.17-45.65-14.42-3.06-5.88-4.22-12.24-3.71-18.38.88,14.17,10.31,27,24.66,31.53,14.35,4.53,29.44-.56,38.3-11.66h0Z"/>
  </g>
  <path class="cls-3" d="M123.55,74.18l-4.32,13.32-2.53-.82-4.01-10.24-2.62,8.08-3.04-.99,4.32-13.32,2.55.83,4,10.23,2.62-8.08,3.04.99Z"/>
</svg>