<?xml version="1.0" encoding="UTF-8"?>
<svg id="background_bar_copy" data-name="background bar copy" xmlns="http://www.w3.org/2000/svg" viewBox="0 0 351 50.9">
  <defs>
    <style>
      .cls-1 {
        fill: #fff;
        stroke: #000;
        stroke-miterlimit: 10;
      }
    </style>
  </defs>
  <path class="cls-1" d="M28.4,17.2c-.5-.8-1-1.4-1.8-2-.7-.6-1.5-1-2.4-1.3s-1.8-.5-2.8-.5c-1.8,0-3.3.3-4.5,1-1.2.7-2.2,1.6-3,2.8s-1.3,2.5-1.7,3.9c-.4,1.5-.5,3-.5,4.6s.2,3,.5,4.4c.4,1.4.9,2.7,1.7,3.8.8,1.1,1.8,2,3,2.7,1.2.7,2.7,1,4.5,1s4.3-.7,5.6-2.2c1.4-1.5,2.2-3.4,2.5-5.8h7.6c-.2,2.2-.7,4.2-1.5,6s-1.9,3.3-3.3,4.6c-1.4,1.3-3,2.2-4.8,2.9s-3.9,1-6,1-5.2-.5-7.4-1.4c-2.2-1-4-2.3-5.5-3.9-1.5-1.7-2.7-3.6-3.5-5.9-.8-2.2-1.2-4.7-1.2-7.3s.4-5.1,1.2-7.4c.8-2.3,2-4.3,3.5-6s3.3-3,5.5-4c2.2-1,4.6-1.5,7.4-1.5s3.8.3,5.6.9c1.8.6,3.3,1.4,4.7,2.5,1.4,1.1,2.5,2.4,3.4,4s1.5,3.4,1.7,5.5h-7.6c-.1-.9-.4-1.7-.9-2.5h0v.1Z"/>
  <path class="cls-1" d="M60.4,7.6l13.3,35.7h-8.2l-2.7-8h-13.4l-2.8,8h-7.9L52.3,7.6h8.1ZM60.8,29.5l-4.5-13.1h0l-4.7,13.1h9.2Z"/>
  <path class="cls-1" d="M87.9,7.6l8.3,24.5h0l7.9-24.5h11.1v35.7h-7.3v-25.3h0l-8.8,25.3h-6.1l-8.8-25h0v25h-7.3V7.6s11.1,0,11,0Z"/>
  <path class="cls-1" d="M138.3,7.6c2.2,0,4.1.3,5.7,1,1.6.6,2.8,1.5,3.8,2.6s1.7,2.3,2.1,3.6c.4,1.3.7,2.8.7,4.2s-.2,2.8-.7,4.2c-.4,1.4-1.2,2.6-2.1,3.7-1,1.1-2.3,1.9-3.8,2.6s-3.5,1-5.7,1h-8.2v12.8h-7.8V7.6h16.1-.1ZM136.1,24.4c.9,0,1.8,0,2.6-.2.8-.1,1.6-.4,2.2-.8.6-.4,1.1-.9,1.5-1.6s.6-1.6.6-2.8-.2-2.1-.6-2.8c-.4-.7-.9-1.2-1.5-1.6s-1.4-.6-2.2-.8-1.7-.2-2.6-.2h-6.1v10.7h6.1v.1Z"/>
  <path class="cls-1" d="M181.8,40.6c-2.7,2.3-6.4,3.5-11.2,3.5s-8.6-1.2-11.2-3.5c-2.6-2.3-4-5.9-4-10.8V7.6h7.9v22.2c0,1,0,1.9.2,2.9s.5,1.8,1.1,2.5,1.3,1.3,2.2,1.8,2.2.7,3.8.7c2.8,0,4.7-.6,5.8-1.9,1.1-1.2,1.6-3.2,1.6-5.9V7.6h7.9v22.2c0,4.8-1.4,8.4-4.1,10.8h0Z"/>
  <path class="cls-1" d="M198.6,34.5c.4.8,1,1.5,1.7,2s1.6.9,2.5,1.1,2,.4,3,.4,1.4,0,2.2-.2c.8-.1,1.6-.3,2.2-.7.7-.3,1.3-.8,1.8-1.4.5-.6.7-1.3.7-2.2s-.3-1.8-.9-2.4-1.4-1.1-2.4-1.5-2.1-.8-3.4-1c-1.3-.3-2.6-.6-3.9-1-1.3-.3-2.6-.7-3.9-1.2-1.3-.5-2.4-1.1-3.4-1.9s-1.8-1.7-2.4-2.9c-.6-1.1-.9-2.5-.9-4.2s.4-3.4,1.2-4.8,1.8-2.5,3.1-3.4c1.3-.9,2.7-1.6,4.3-2s3.2-.6,4.8-.6,3.7.2,5.4.6,3.2,1.1,4.6,2c1.3.9,2.4,2.1,3.2,3.6.8,1.4,1.2,3.2,1.2,5.3h-7.6c0-1.1-.3-1.9-.7-2.6s-.9-1.2-1.5-1.7c-.6-.4-1.4-.7-2.2-.8-.8-.2-1.7-.2-2.7-.2s-1.3,0-1.9.2c-.6.1-1.2.4-1.7.7s-.9.8-1.3,1.2c-.3.5-.5,1.1-.5,1.9s.1,1.3.4,1.7c.3.4.8.8,1.6,1.2.8.4,1.9.7,3.2,1.1,1.4.4,3.2.8,5.4,1.4.7.1,1.6.4,2.8.7,1.2.4,2.4.9,3.5,1.7,1.2.8,2.2,1.8,3,3.1.9,1.3,1.3,2.9,1.3,4.9s-.3,3.1-.9,4.5c-.6,1.4-1.6,2.6-2.8,3.6s-2.8,1.8-4.6,2.4c-1.9.6-4,.8-6.4.8s-3.9-.2-5.7-.7c-1.9-.5-3.5-1.2-4.9-2.3-1.4-1-2.5-2.4-3.4-4s-1.2-3.5-1.2-5.7h7.6c0,1.2.2,2.2.6,3h0l-.1.3Z"/>
  <path class="cls-1" d="M250,7.6l8.4,24.5h.1l7.9-24.5h11v35.7h-7.4v-25.3h-.1l-8.8,25.3h-6.1l-8.8-25h-.1v25h-7.4V7.6h11.3Z"/>
  <path class="cls-1" d="M302.1,7.6l13.4,35.7h-8.1l-2.7-8h-13.4l-2.8,8h-7.9l13.5-35.7h8.1-.1ZM302.5,29.5l-4.5-13.1h-.1l-4.6,13.1h9.2Z"/>
  <path class="cls-1" d="M334.6,7.6c2.2,0,4.1.3,5.7,1,1.6.7,2.8,1.5,3.8,2.6s1.7,2.3,2.1,3.6c.5,1.4.7,2.8.7,4.2s-.2,2.8-.7,4.2c-.5,1.4-1.2,2.6-2.1,3.7-1,1.1-2.3,1.9-3.8,2.6-1.6.6-3.5,1-5.7,1h-8.2v12.8h-7.9V7.6h16.1ZM332.5,24.4c.9,0,1.8,0,2.6-.2.8-.1,1.6-.4,2.2-.8s1.1-.9,1.5-1.6.6-1.6.6-2.8-.2-2.1-.6-2.8c-.4-.7-.9-1.2-1.5-1.6-.6-.4-1.4-.6-2.2-.8-.8-.1-1.7-.2-2.6-.2h-6.1v10.7h6.1v.1Z"/>
</svg>