<?xml version="1.0" encoding="UTF-8"?>
<svg id="map" xmlns="http://www.w3.org/2000/svg" xmlns:xlink="http://www.w3.org/1999/xlink" viewBox="0 0 96.34 80.41">
  <defs>
    <style>
      .cls-1 {
        fill: #c8af94;
      }

      .cls-1, .cls-2, .cls-3, .cls-4, .cls-5, .cls-6, .cls-7, .cls-8, .cls-9, .cls-10, .cls-11, .cls-12, .cls-13, .cls-14, .cls-15, .cls-16, .cls-17, .cls-18, .cls-19, .cls-20, .cls-21, .cls-22, .cls-23, .cls-24, .cls-25, .cls-26, .cls-27, .cls-28, .cls-29, .cls-30, .cls-31, .cls-32 {
        stroke-width: 0px;
      }

      .cls-2 {
        fill: #747577;
      }

      .cls-33, .cls-34 {
        stroke: #fff;
        stroke-width: .15px;
      }

      .cls-33, .cls-34, .cls-35 {
        stroke-miterlimit: 10;
      }

      .cls-33, .cls-31 {
        fill: #231f20;
      }

      .cls-3 {
        fill: #a5afb7;
      }

      .cls-4 {
        fill: url(#linear-gradient);
      }

      .cls-5 {
        opacity: .2;
      }

      .cls-5, .cls-15 {
        fill: #000;
      }

      .cls-6 {
        fill: url(#linear-gradient-11);
      }

      .cls-7 {
        fill: url(#linear-gradient-10);
      }

      .cls-8 {
        fill: #0b0000;
      }

      .cls-9 {
        fill: #8cb835;
      }

      .cls-10 {
        fill: #d0d1d1;
      }

      .cls-11 {
        fill: #f1f2f2;
      }

      .cls-12 {
        fill: #d88461;
      }

      .cls-13 {
        fill: #9b5b5b;
      }

      .cls-34, .cls-35 {
        fill: none;
      }

      .cls-14 {
        fill: #999;
      }

      .cls-16 {
        fill: #884f4f;
      }

      .cls-17 {
        fill: #f7966e;
      }

      .cls-18 {
        fill: #ac9485;
      }

      .cls-19 {
        fill: #b59f86;
      }

      .cls-20 {
        fill: #f2f2f2;
      }

      .cls-21 {
        fill: url(#linear-gradient-4);
      }

      .cls-22 {
        fill: url(#linear-gradient-2);
      }

      .cls-23 {
        fill: url(#linear-gradient-3);
      }

      .cls-24 {
        fill: url(#linear-gradient-8);
      }

      .cls-25 {
        fill: url(#linear-gradient-9);
      }

      .cls-26 {
        fill: url(#linear-gradient-7);
      }

      .cls-27 {
        fill: url(#linear-gradient-5);
      }

      .cls-28 {
        fill: url(#linear-gradient-6);
      }

      .cls-35 {
        stroke: #999;
        stroke-width: 1.53px;
      }

      .cls-29 {
        fill: #3f7fb7;
      }

      .cls-30 {
        fill: #c27171;
      }

      .cls-32 {
        fill: #e5e5e5;
      }
    </style>
    <linearGradient id="linear-gradient" x1="78.02" y1="57.72" x2="93.86" y2="57.72" gradientUnits="userSpaceOnUse">
      <stop offset="0" stop-color="#7f4340"/>
      <stop offset="1" stop-color="#b16767"/>
    </linearGradient>
    <linearGradient id="linear-gradient-2" x1="26.12" y1="60.69" x2="41.96" y2="60.69" xlink:href="#linear-gradient"/>
    <linearGradient id="linear-gradient-3" x1="25.19" y1="37.08" x2="74.9" y2="37.08" xlink:href="#linear-gradient"/>
    <linearGradient id="linear-gradient-4" x1="83.35" y1="21.71" x2="103.77" y2="21.71" xlink:href="#linear-gradient"/>
    <linearGradient id="linear-gradient-5" x1="16.23" y1="36.98" x2="24.02" y2="36.98" xlink:href="#linear-gradient"/>
    <linearGradient id="linear-gradient-6" x1="71.29" y1="22.9" x2="90.79" y2="22.9" xlink:href="#linear-gradient"/>
    <linearGradient id="linear-gradient-7" x1="62.71" y1="36.38" x2="71.19" y2="36.38" xlink:href="#linear-gradient"/>
    <linearGradient id="linear-gradient-8" x1="31.63" y1="40.56" x2="40.11" y2="40.56" xlink:href="#linear-gradient"/>
    <linearGradient id="linear-gradient-9" x1="67.35" y1="30.81" x2="82.73" y2="30.81" xlink:href="#linear-gradient"/>
    <linearGradient id="linear-gradient-10" x1="17.56" y1="50.04" x2="26.1" y2="50.04" xlink:href="#linear-gradient"/>
    <linearGradient id="linear-gradient-11" x1="7.24" y1="31.32" x2="19.25" y2="31.32" xlink:href="#linear-gradient"/>
  </defs>
  <path class="cls-29" d="M189.25-164.56c-29.17,1.36-297.8,23.06-344.95,49.52-54.34,30.49-44.77,99.72-38.67,153.31,5.63,49.44,383.61-202.83,383.61-202.83Z"/>
  <path class="cls-9" d="M980.76,346.27c28.49-59.5-54.18-238.94-89.6-311.4-35.42-72.46-99.31-161.2-174.79-189.26-90.3-33.58-194.59-32.77-237.48-30.9-42.89,1.87-93.1,4.07-93.1,4.07l-233.81,19.08-24.03,1.96s-56.16,2.4-75.69,30.97c-6.71,9.81-16.38,20.43-28.27,29.83-13.78,10.88-39.39,18.35-39.39,18.35l-29.13-9.37s-11.94-4.07-10.96-.9,18.31,12.58,18.44,15.56c.13,2.98-12.37,14.29-34.96,12.03-9.15-.92-21.33-3.28-33.48-4.18-23.56-1.75-47.15,5.09-59.36,13.57-10.35,7.18-32.9,9.16-32.9,9.16-6.44,38.33,5.76,106.07,11.91,142.45,5.14,30.4,21.38,65.17,46.03,86.84,28.13,24.72,57.57,26.63,91.86,23.23,7.15-.71,23.43-2.2,43.21-.85,13.92.95,48.06,18.99,102.01,9.5,59.09-10.4,97.23-53.48,116.74-56.98,113.83-20.43,169.77-26.66,210.8-11.19,35.96,13.56,71.64,69.79,94.2,112.05,14.69,27.52,19.82,34.68,41.29,57.21,40.42,42.4,156.79,80.32,230.79,87.01,74,6.69,162.07-.18,189.67-57.81Z"/>
  <path class="cls-14" d="M101.73,240.67c5.6-11.89,6.52-30.33,2.48-49.33-2.11-9.88-.14-16.91,1.63-20.1,7.19-1.63,11.59-6.06,10.58-10.63,2.44-2.48,13.32-11.48,46.58-16.5l265.8-40.14c6.05,4.33,29.04,21.17,44.85,37.69,19.37,20.24,38.15,41.14,55.06,74.15l9-1.66c-17.2-33.56-36.25-54.77-55.9-75.3-14.43-15.08-34.13-30.01-42.89-36.41l99.41-15.01c5.75,3.16,24.7,13.99,30.86,22.56l.58.81c7.37,10.26,17.46,24.32,43.68,34.48,12.09,4.68,24.87,9.9,36.5,17.67,12.27,8.19,22.19,18.61,30.35,31.85,12.37,20.09,25.52,47.31,36.08,69.18,4.86,10.07,9.06,18.76,12.38,25.1,10.49,20.02,16.93,31.68,27.5,38.62,2.61,1.71,5.08,3.01,7.26,4.16,6.37,3.35,11.41,6,16.08,17.14l23.49,56.02,5.06.33-24.09-57.03c-5.02-11.97-10.81-15.02-17.51-18.54-2.19-1.15-4.46-2.34-6.9-3.95-9.91-6.51-16.22-17.94-26.51-37.59-3.31-6.32-7.5-14.99-12.35-25.04-10.58-21.91-23.75-49.19-36.18-69.37-18.17-29.5-41.85-40.5-68.66-50.89-25.05-9.7-34.42-22.76-41.96-33.25l-.59-.82c-5.92-8.24-22.17-17.99-29.76-22.27l29.6-4.47c2.38-.28,4.74-.58,7.03-.93,21.71-3.28,21.85-10.44,20.53-13.59-.19-.44-.56-1.36-1.08-2.62l10.58-1.35,4.96,12.21,7.69-.85-5.02-12.33,55.17-7.91-4.29-10.22-4.23,1.78,2.01,4.78-50.49,7.2-2.54-5.68-7.18,2.04,2.09,4.61-10.53,1.34c-3.88-9.49-10.49-25.68-13.44-32.72-4.06-9.67-22.65-10.64-28.9-9.7-6.25.94-24.67,3.73-34.21,5.17-4.56.69-7.68-1.29-9.86-3.94l-17.77-42.36c-1.83-10.9.05-28.92,18.8-33.07l8.13-1.23c21.55-3.25,53.86-.4,78.58,6.95,3.66,1.09,9.72,2.86,17.39,5.09,43.04,12.56,143.82,41.96,167.23,52.57,23.33,10.57,48.92,33.04,60.36,44.66,5.15,5.23,11.52,12.58,15.05,23.05,3.87,11.49,3.66,24.41-.66,39.51l9.28.95c9.93-34.75-3.1-53.73-15.57-66.39-3.25-3.3-32.62-32.62-62.79-46.29-24.15-10.94-121.84-39.45-168.79-53.14-7.65-2.23-13.7-4-17.33-5.08-26.97-8.02-61.15-10.98-85.05-7.37l-38.86,5.87-15.49-36.93c-4.51-10.75-21.41-20.64-39.32-23.01-18.29-2.42-34.79-.83-47.7,2.79l-7.15,1.71c-4.76,1.33-13.58,3.75-22.82,6.03l-2.99-7.12c6.41-2.14,9.91-6.68,8.03-11.15l-.39-.92,9.85-1.49-1.46-3.49-9.85,1.49-2.26-5.33,9.85-1.49-1.46-3.49-10.29,1.55c-.96-.83-2.72-2.02-4.83-2.92l-3.2-7.63-5.81.88,2.11,5.03c-2.2-.22-4.51-.18-6.81.16l-.56.08c-7.61,1.15-12.67,5.3-12.57,9.81l-10.18,1.54,1.46,3.49,9.74-1.47,1.99,4.74-9.96,1.5,1.46,3.49,9.96-1.5.39.92c1.78,4.25,7.9,7.18,14.81,7.51l3.39,8.08c-8.25,1.85-15.8,3.25-19.94,3.28-13.81.11-24.45-2.62-38.47-7.39-3.02-1.03-5.78-2.24-8.71-3.52-9.38-4.11-20-8.76-38.76-5.93l-79.93,12.07c-7.79,1.18-14.51,4.52-18.42,9.18-3.18,3.79-4.42,8.21-3.67,12.98l-2.37.36c-3.12.47-5.02,2.38-4.24,4.25l19.56,46.61c.78,1.87,3.97,3.01,7.09,2.54l1.78-.27,1.46,3.48-36.09,5.45c-1.61-1.43-4.26-2.16-6.97-1.75-2.3.35-4.12,1.44-5,3-.11.19-.2.39-.27.59l-52.16,7.88-9.22-21.97L-12.4-24.73,13.55,37.14l-41.3,6.24c-3.89.59-12.97-.99-18.54-2.36-.07-.74-.26-1.48-.57-2.23-2.69-6.41-13.56-10.31-24.24-8.69-10.68,1.61-17.18,8.14-14.49,14.54,2.69,6.41,13.56,10.31,24.24,8.69,6.12-.92,10.86-3.46,13.29-6.66,3.8.87,10.63,2.24,16.75,2.45.12,2.96.62,7.58,2.4,11.83.61,1.44,1.44,3.09,2.33,4.84,2.97,5.84,7.03,13.85,4.16,18.7-.33.56-.69,1.16-1.07,1.78-2.84,4.71-6.56,10.87-8.18,17.93-3.61.11-10.13.72-19.77,3.18-5.57,1.42-13.81,3.16-22.52,5.01-15.07,3.19-32.15,6.81-42.13,10.13-3.92,1.3-7.58,2.55-11.13,3.77-10.4,3.56-19.39,6.64-27.58,8.34-10.89,2.26-18.03,3.18-18.21,3.2l2.2,4.58c.18-.02,5.89-.99,16.94-3.29,8.47-1.76,17.58-4.88,28.13-8.49,3.54-1.21,7.19-2.46,11.09-3.76,9.74-3.23,26.68-6.82,41.63-9.99,8.76-1.86,17.04-3.61,22.71-5.05,8.55-2.18,14.48-2.83,17.92-3-.25,3.27.02,6.69,1.09,10.22,3.29,10.84,10.51,26.31,13.98,33.74.89,1.9,1.59,3.4,1.86,4.04.63,1.49,2.09,4.99,6.91,7.45,5.45,2.78,13.31,3.42,23.38,1.9l65-9.82,3.39,8.09c1.59,3.8,6.64,6.54,12.63,7.32-1.56,3.92-3.06,10.68-1,20.31,3.89,18.28,3.07,35.87-2.2,47.07l9.06,1.54ZM328.41-120.95l-4.36-10.4c-.97-2.32,1.38-4.67,5.24-5.26l.56-.08c3.86-.58,7.79.83,8.76,3.14l4.36,10.4c.97,2.32-1.38,4.67-5.24,5.26l-.56.08c-3.86.58-7.79-.83-8.76-3.14ZM370.09,23.68l-22.32,25.63-11.92,1.8-40.07-16.21,74.3-11.22ZM287.36,36.17l10.69,25.49,4.23-1.78-8.8-20.97,41.81,16.91,14.83-2.24,23.94-27.5,9.5,22.65,4.23-1.78-10.25-24.42,22.95-3.47,24.05,57.32-58.93,8.9-6.62-15.78-16.79,2.54,6.62,15.78-57.52,8.69-24.05-57.32,20.1-3.04ZM435.33,92.83c-.82-1.97-4.39-10.47-6.14-14.64l.93-.39-24.93-59.42,89.69-13.55,32.88,78.37-85.77,12.95c-2.79-.73-6.05-1.87-6.66-3.32ZM316.96,25.39l-20.46-48.76,175.43-26.49L492.39-1.1l-175.43,26.49ZM267.03-24.75c-1.66-3.96-11.54-27.51-12.22-29.13-.75-1.78-.42-4.76,5.83-5.71,6.25-.94,30.1-4.55,30.1-4.55l2.9,6.91,9.7-1.47s.24-1.09,1.64-1.93c1.4-.84,4.28-.65,4.28-.65l2.98,7.1s1.56.39,2.39,2.37c.83,1.97,2.53,6.02,2.53,6.02l-1.64.25,1.12,2.66,1.97-.3,1.78,4.24-22.37,3.38,2.41,5.75-33.39,5.04ZM146.3-94.12c2.58-3.07,6.62-5.22,11.54-5.96l31.41-4.62,9.04,21.55,4.23-1.78-8.59-20.48,40.16-6.19c14.12-2.13,21.24.99,30.26,4.94,3.03,1.33,6.17,2.7,9.69,3.9,15.33,5.21,32.25,10.42,47.55,10.89,8.84.28,21.6-.73,34.32-3.02l-.03.07c1.37.53,2.75,1.05,4.12,1.58,2.61,1,5.21,2,7.82,3,2.52.97,5,2.01,7.48,3.06,1.35.57,2.53,1.52,3.75,2.34l3.68,2.48c1.01.68,2.01,1.36,3.02,2.03l4.5-2.67-11.38-7.49,26.99-4.01.67-3.07-30,4.47c-1.32.2-2.78.15-4.02-.34-2.74-1.08-5.48-2.1-8.25-3.1-.03-.01-.07-.02-.1-.04,5.74-1.3,11.29-2.88,16.26-4.72l8.92-2.5c1.37-.38,2.68-.81,3.94-1.24,2.61-.64,5.46-1.27,7.49-1.53,1.31-.17,2.5-.28,3.59-.34l-.04.38c14.1,1.36,25.33,5.31,28.81,8.36.33.44,1.1,2.1,1.66,3.62l4.3-1.6c-.72-1.94-1.8-4.46-2.86-5.4-2.71-2.42-7.99-4.72-14.55-6.51.06-.12.11-.23.16-.33.57-1.14,3.25-.6,4.4-.35,1.15.25,5.84,1.43,6.21,1.06.12-.12.27-.36.42-.65,10.06,3.48,18.57,9.66,21.25,16.05l15.49,36.93-45.8,6.92c-.94-1.96-1.99-4.35-2.2-5.46-.46-2.34-2.22-10.57-2.3-10.92l-4.49.96c.02.09,1.83,8.54,2.28,10.84.27,1.38,1.16,3.51,1.97,5.29l-6.15.93-5.62-13.39c-1.48-3.54-7.58-3.75-10.13-3.67l.13,4.59c2.41-.07,5.18.39,5.8.95l5.13,12.23-44.28,6.65-2.47-6.02-4.95.9-33.52,4.91-12.83-30.59-4.77.72-1.37-3.26-66.4,10.13,16.69,39.79-22.83,3.45c-1-2-6.26-11.09-20.53-14.52-13.28-3.19-20.08-1.17-28.31-2.44-7.61-1.18-15.92-3.56-21.2-4.41l-2.9-6.84c7.82-1.18,41.95-6.4,41.95-6.4l-3.34-4.13s-34.73,5.29-40.45,6.16l-3.9-9.5c7.82-1.18,39.94-6.04,39.94-6.04l-1.87-4.41s-34.19,5.22-39.91,6.08l-6.21-14.68c-2.75-6.55-.72-11.02,1.46-13.62ZM110.49-18.08c1.4-.21,2.57.16,3.07.49-.27.18-.75.39-1.44.5-1.41.21-2.59-.17-3.08-.49.27-.18.75-.4,1.45-.5ZM40.3-28.05L56.69,11l-46.19,6.98L-5.89-21.07l46.19-6.98ZM51.86,31.36l-5.91-14.09,12.57-1.9,5.91,14.09-12.57,1.9ZM12.32,22.34l14.11-2.13,5.91,14.09-14.11,2.13-5.91-14.09ZM-63.64,47.86c-5.65.85-11.39-1.21-12.81-4.6-1.42-3.39,2.02-6.84,7.66-7.69,5.65-.85,11.39,1.21,12.81,4.6s-2.02,6.84-7.66,7.69ZM77.55,150.87h0l-65,9.82c-15.67,2.37-17.67-2.41-18.86-5.26-.3-.72-.98-2.17-1.92-4.19-3.43-7.35-10.57-22.64-13.78-33.23-2.59-8.55.21-16.66,3.6-23.22,4.26-.47,8.57-1.69,9.08-3.09.09-.24.24-.68.42-1.26l40.67-.67,61.17-9.45-.69-4.54-60.86,9.41-38.89.64c.82-2.88,1.6-5.93,1.6-7.1,0-2.24-2.97-3.19-4.67-3.35-.96-.09-1.82-.51-2.5-1.1-1.1-3.5-2.88-7-4.48-10.16-.85-1.68-1.65-3.26-2.2-4.57-1.7-4.05-2.07-8.64-2.13-11.25l96.12-14.52-2.3-5.48-2.81.42L54.2-6.78l51.37-7.76c1.3,1.31,3.42,2.1,5.72,2.1.5,0,1-.04,1.51-.11,2.3-.35,4.12-1.44,5-3,.16-.29.29-.59.38-.89l36.51-5.51,4.62,11.01,13.83-2.09,14.91-2.25,9.98,23.78,3.3,2.86,1.38,3.29-5.04.76,1.92,4.57-8.11,1.23,2.24,5.34,15.13-2.29c9.93-1.5,7.83-6.51,6.94-8.64l-4.47-10.66,3-.45-2.65-6.32,6.31-.99,3.65-9.19c.1-.04.2-.07.3-.11l69.91-10.56,9.79,23.35-30.79,4.69,2.1,5,30.79-4.69,8.57,20.42-47.36,7.23-2.33-5.55-7.46,1.13,2.33,5.55-74.25,11.14-2.03-4.83-2.63.4-7.53-17.96-4.93.75-4.14-22.64-39.39,5.54,1.1,5.73-8.52,2.64-4.09,22.61,23.52-3.55,5.75,13.72,11.02-1.66,1.61,3.84-43.42,6.56-1.49-3.55-12.83,1.94,1.15,2.73-4.22.64,6.07,14.47.5-.07.51,3.36,32.89-4.97-.69-4.54-25.79,3.89-2.73-6.5,9.15-1.38-.04-.09,18.55-2.8,2.8,6.68,4.23-1.78-2.35-5.61,41.15-6.21,2.8,6.68,4.23-1.78-2.35-5.61,48.75-7.36,2.32,5.54-46.35,7,.69,4.54,24.55-3.73,9.79,22.73,7.32-1.09-1-4.48-3.47.5-7.96-18.37,18.27-2.73,1.95,4.66,9.43-1.42-6.11-14.56,23.32-3.52,24.05,57.32-22.02,3.27-4.32-10.11-11.81,1.72,4.44,10.25-98.8,14.87-3.68-3.78-1.49-3.55-16.88,2.55,1.49,3.55,7.29-1.1c2.7.52,8.74,2.08,10.27,5.72,1.28,3.04.45,5.42-.86,7.19-4.44,2.68-10.6,5.23-17.59,6.29l-25.89,3.91s-8.42,1.1-16.29,2.29l-.56.08c-8.89,1.34-11.85,5.13-12.35,10.47ZM101.69,166.11l-.56.08c-3.86.58-7.79-.83-8.76-3.14l-5.18-11.68c-.97-2.32,1.38-4.67,5.24-5.26h0c3.86-.58,8.35.74,9.32,3.06l5.18,11.68c.97,2.32-1.38,4.67-5.24,5.26ZM113.57,153.55l-4.7-11.2,24.47-3.7c6.44-.97,13.06-3.29,18.62-6.53,2.59-1.5,4.77-3.1,6.43-4.68,1.4,3.35,2.71,6.46,3.11,7.42.52,1.23-1.2,2.83-2.96,4.09-24.85,3.98-38.17,10.12-44.98,14.58Z"/>
  <polygon class="cls-14" points="89.28 115.21 67.94 118.14 42.31 55.45 63.65 52.52 89.28 115.21"/>
  <polygon class="cls-35" points="52.41 8.64 38.18 10.6 23.88 -22.43 38.1 -24.38 52.41 8.64"/>
  <polygon class="cls-35" points="29.46 11.56 15.41 13.69 1.1 -19.34 15.16 -21.46 29.46 11.56"/>
  <polygon class="cls-32" points="26.12 77.61 4.92 27.37 4.96 14.98 26.12 65.42 26.12 77.61"/>
  <polygon class="cls-10" points="13.59 48.12 7.24 48.93 7.24 36.74 13.66 35.82 13.59 48.12"/>
  <polygon class="cls-32" points="64.71 42.95 55.04 20.34 55.08 7.77 64.71 30.77 64.71 42.95"/>
  <polygon class="cls-10" points="88.84 45.11 88.84 29.11 85.11 28.26 83.19 34.76 87.94 46.13 88.84 45.11"/>
  <path class="cls-10" d="M72.11,45.39c-1.38-3.29,1.16-6.49,5.67-7.14,4.51-.65,9.29,1.49,10.68,4.79,1.38,3.29-1.16,6.49-5.67,7.14-4.51.65-9.29-1.49-10.68-4.79Z"/>
  <polygon class="cls-10" points="68.34 52.02 32.31 57.01 32.31 44.83 68.4 39.72 68.34 52.02"/>
  <polygon class="cls-32" points="101.24 44.32 95.27 30.38 95.3 17.98 101.24 32.14 101.24 44.32"/>
  <polygon class="cls-10" points="98.19 37.33 82.12 39.53 82.12 27.34 98.26 25.02 98.19 37.33"/>
  <polygon class="cls-10" points="93.8 72.48 78.02 74.64 78.02 62.45 93.86 60.17 93.8 72.48"/>
  <polygon class="cls-10" points="41.9 75.45 26.12 77.61 26.12 65.42 41.96 63.14 41.9 75.45"/>
  <polygon class="cls-32" points="78.02 74.64 68.34 52.02 68.38 39.46 78.02 62.45 78.02 74.64"/>
  <polygon class="cls-13" points="4.96 14.98 15.3 17.07 20.8 12.7 4.96 14.98"/>
  <polygon class="cls-30" points="4.96 14.98 8.91 24.39 19.25 25.91 15.3 17.07 4.96 14.98"/>
  <polygon class="cls-16" points="20.8 12.7 24.72 22.04 19.25 25.91 15.3 17.07 20.8 12.7"/>
  <polygon class="cls-4" points="93.86 60.17 83.51 52.98 78.02 62.45 93.86 60.17"/>
  <polygon class="cls-30" points="78.02 62.45 69.46 42.06 74.9 34.46 83.51 52.98 78.02 62.45"/>
  <polygon class="cls-22" points="41.96 63.14 31.62 55.95 26.12 65.42 41.96 63.14"/>
  <polygon class="cls-30" points="26.12 65.42 19.32 49.22 24.79 39.73 31.62 55.95 26.12 65.42"/>
  <polygon class="cls-30" points="19.32 49.22 12.51 33.14 19.25 25.91 31.15 31.95 19.32 49.22"/>
  <polygon class="cls-30" points="7.24 36.74 12.66 26.86 2.45 25.34 7.24 36.74"/>
  <polygon class="cls-13" points="126.68 10.17 86.86 15.9 87.01 19.13 103.77 16.69 106.8 17.98 119.95 16.09 126.68 10.17"/>
  <polygon class="cls-18" points="16.23 39.22 17.87 35.62 14.78 35.77 16.23 39.22"/>
  <polygon class="cls-13" points="14.78 35.77 20.9 34.89 24.02 34.74 17.87 35.62 14.78 35.77"/>
  <polygon class="cls-13" points="24.72 22.04 19.25 25.91 31.15 31.95 63.52 27.3 74.83 14.83 24.72 22.04"/>
  <polygon class="cls-23" points="31.15 31.95 25.19 40.67 35.13 46.86 69.46 42.06 74.9 34.46 63.52 27.3 31.15 31.95"/>
  <polygon class="cls-30" points="101.24 32.14 98.26 25.02 87.79 26.53 83.66 19.58 103.77 16.69 106.8 17.98 105.49 19.68 106.74 22.67 101.24 32.14"/>
  <polygon class="cls-21" points="98.26 25.02 103.77 16.69 83.35 19.63 86.75 26.72 98.26 25.02"/>
  <polygon class="cls-27" points="16.23 39.22 22.5 38.32 24.02 34.74 17.87 35.62 16.23 39.22"/>
  <polygon class="cls-13" points="23.31 21.48 26.73 22.17 28.56 20.72 23.31 21.48"/>
  <polygon class="cls-30" points="23.31 21.48 25.12 25.78 28.55 26.29 26.73 22.17 23.31 21.48"/>
  <polygon class="cls-16" points="28.56 20.72 30.36 25 28.55 26.29 26.73 22.17 28.56 20.72"/>
  <polygon class="cls-13" points="30.01 20.46 33.43 21.15 35.25 19.71 30.01 20.46"/>
  <polygon class="cls-30" points="30.01 20.46 31.82 24.77 35.25 25.27 33.43 21.15 30.01 20.46"/>
  <polygon class="cls-16" points="35.25 19.71 37.06 23.99 35.25 25.27 33.43 21.15 35.25 19.71"/>
  <polygon class="cls-10" points="69.49 53.58 63.44 54.55 63.44 37.32 70.72 37.7 70.68 41.33 69.54 41.89 69.49 53.58"/>
  <polygon class="cls-32" points="63.44 54.55 62.58 52.8 62.61 42.16 60.66 35.71 60.66 33.68 62.62 35.25 63.44 37.21 63.44 54.55"/>
  <polygon class="cls-10" points="35.13 46.86 35.13 46.86 32.11 45.51 32.11 41.42 39.39 41.8 39.35 56.94 39.35 56.94 35.13 46.86"/>
  <polygon class="cls-32" points="32.11 45.51 30.56 44.04 30.56 44.04 29.32 39.92 29.33 37.89 31.29 39.45 32.11 41.42 32.11 45.51"/>
  <path class="cls-32" d="M23.5,62.96c.92,2.19-.77,4.31-3.77,4.74-3,.43-6.18-.99-7.09-3.18-.92-2.19.77-4.31,3.77-4.74s6.18.99,7.09,3.18Z"/>
  <polygon class="cls-32" points="12.13 50.74 12.39 63.4 21.37 63.82 17.13 53.14 12.13 50.74"/>
  <polygon class="cls-30" points="14.78 35.77 16.23 39.22 17.87 35.62 14.78 35.77"/>
  <polygon class="cls-32" points="7.24 48.93 2.42 37.74 2.45 25.34 7.24 36.74 7.24 48.93"/>
  <polygon class="cls-32" points="91.5 43.05 89.56 38.57 89.58 31.73 91.5 36.32 91.5 43.05"/>
  <polygon class="cls-10" points="100.21 41.85 91.5 43.05 91.5 36.32 100.25 35.96 100.21 41.85"/>
  <polygon class="cls-31" points="91.5 37.22 89.58 31.73 97.87 30.49 100.25 35.96 91.5 37.22"/>
  <polygon class="cls-33" points="97.18 29.39 94.53 29.76 94.53 26.91 97.18 26.55 97.18 29.39"/>
  <polygon class="cls-33" points="92.6 30.07 89.96 30.44 89.96 27.59 92.6 27.23 92.6 30.07"/>
  <polygon class="cls-33" points="66.82 40.74 65.43 40.92 65.43 39.17 66.82 38.98 66.82 40.74"/>
  <polygon class="cls-33" points="68.69 40.47 67.3 40.65 67.3 38.89 68.69 38.65 68.69 40.47"/>
  <polygon class="cls-33" points="66.76 46.76 65.37 46.94 65.43 44.03 66.82 43.86 66.76 46.76"/>
  <polygon class="cls-33" points="68.63 46.49 67.25 46.67 67.3 43.77 68.69 43.6 68.63 46.49"/>
  <polygon class="cls-33" points="35.58 45.09 34.2 45.27 34.2 43.44 35.58 43.27 35.58 45.09"/>
  <polygon class="cls-33" points="37.46 44.83 36.07 45 36.07 43.17 37.46 43 37.46 44.83"/>
  <polygon class="cls-31" points="37.4 50.65 36.74 50.72 36.05 49.1 36.07 47.92 37.46 47.75 37.4 50.65"/>
  <path class="cls-33" d="M49.04,51.31c0-1.2-.97-2.04-2.16-1.88-1.19.17-2.16,1.27-2.16,2.47v3.49l4.33-.59v-3.5Z"/>
  <path class="cls-33" d="M53.39,50.71c0-1.21-.97-2.05-2.17-1.88-1.2.17-2.17,1.28-2.17,2.48v3.5l4.35-.59v-3.51Z"/>
  <path class="cls-33" d="M57.75,50.11c0-1.21-.98-2.05-2.18-1.89-1.2.17-2.18,1.28-2.18,2.49v3.51l4.36-.59v-3.52Z"/>
  <polygon class="cls-33" points="57.57 46.92 44.83 48.69 44.83 45.84 57.57 44.08 57.57 46.92"/>
  <line class="cls-34" x1="49.53" y1="45.18" x2="49.53" y2="48.06"/>
  <line class="cls-34" x1="51.45" y1="44.93" x2="51.45" y2="47.81"/>
  <line class="cls-34" x1="53.4" y1="44.67" x2="53.4" y2="47.56"/>
  <line class="cls-34" x1="55.47" y1="44.36" x2="55.47" y2="47.24"/>
  <line class="cls-34" x1="47.31" y1="45.53" x2="47.31" y2="48.42"/>
  <polygon class="cls-33" points="61.4 46.38 58.75 46.75 58.75 43.9 61.4 43.54 61.4 46.38"/>
  <line class="cls-34" x1="60.03" y1="43.66" x2="60.03" y2="46.54"/>
  <polygon class="cls-33" points="61.4 51.98 58.75 52.35 58.75 48.56 61.4 48.2 61.4 51.98"/>
  <line class="cls-34" x1="60.03" y1="48.32" x2="60.03" y2="52.14"/>
  <polygon class="cls-33" points="37.37 76.04 30.77 76.99 30.77 71.55 37.37 70.6 37.37 76.04"/>
  <line class="cls-34" x1="32.7" y1="71.12" x2="32.7" y2="76.61"/>
  <line class="cls-34" x1="35.32" y1="70.95" x2="35.32" y2="76.44"/>
  <polygon class="cls-33" points="40.54 67.47 27.8 69.23 27.8 66.38 40.54 64.62 40.54 67.47"/>
  <line class="cls-34" x1="32.5" y1="65.73" x2="32.5" y2="68.61"/>
  <line class="cls-34" x1="30.3" y1="65.98" x2="30.3" y2="68.86"/>
  <line class="cls-34" x1="34.43" y1="65.47" x2="34.43" y2="68.35"/>
  <line class="cls-34" x1="36.38" y1="65.22" x2="36.38" y2="68.1"/>
  <line class="cls-34" x1="38.44" y1="64.91" x2="38.44" y2="67.79"/>
  <path class="cls-33" d="M13.92,58.44c.57,1.35,2.53,2.23,4.38,1.96v5.91c-1.85.27-3.81-.61-4.38-1.96v-5.91Z"/>
  <path class="cls-33" d="M13.92,54.23c.93,1.2,2.53,1.72,4.38,1.45v3.59c-1.85.27-3.81-.61-4.38-1.96v-3.08Z"/>
  <polygon class="cls-33" points="71.7 51.26 70.13 47.83 70.13 45.22 71.7 48.66 71.7 51.26"/>
  <line class="cls-34" x1="70.64" y1="46.33" x2="70.64" y2="48.91"/>
  <line class="cls-34" x1="71.19" y1="47.54" x2="71.19" y2="50.12"/>
  <polygon class="cls-33" points="92.39 64.46 79.65 66.22 79.65 63.37 92.39 61.61 92.39 64.46"/>
  <line class="cls-34" x1="84.36" y1="62.72" x2="84.36" y2="65.6"/>
  <line class="cls-34" x1="82.15" y1="62.97" x2="82.15" y2="65.85"/>
  <line class="cls-34" x1="86.28" y1="62.46" x2="86.28" y2="65.34"/>
  <line class="cls-34" x1="88.23" y1="62.21" x2="88.23" y2="65.09"/>
  <line class="cls-34" x1="90.29" y1="61.9" x2="90.29" y2="64.78"/>
  <polygon class="cls-33" points="76.91 64.16 75.35 60.72 75.35 58.12 76.91 61.56 76.91 64.16"/>
  <polygon class="cls-33" points="76.91 69.87 75.35 66.43 75.35 63.83 76.91 67.27 76.91 69.87"/>
  <polygon class="cls-33" points="74.65 64.75 73.71 62.68 73.71 60.07 74.65 61.96 74.65 64.75"/>
  <polygon class="cls-33" points="74.65 58.62 73.71 56.74 73.71 54.14 74.65 56.02 74.65 58.62"/>
  <polygon class="cls-33" points="73.07 60.09 72.13 57.99 72.13 56.34 73.07 58.23 73.07 60.09"/>
  <line class="cls-34" x1="76.19" y1="59.96" x2="76.19" y2="62.59"/>
  <polygon class="cls-33" points="82.29 71.74 79.64 72.1 79.64 69.25 82.29 68.89 82.29 71.74"/>
  <polygon class="cls-20" points="98.22 29.97 88.87 31.39 88.87 30.78 98.21 29.4 98.22 29.97"/>
  <path class="cls-20" d="M84.7,38.35c1.8-.42,3.27-1.33,4.13-2.47v1.17c-.94.89-2.28,1.62-3.82,2.01l-.32-.71Z"/>
  <polygon class="cls-20" points="70.68 41.16 63.45 42.2 63.45 41.59 70.67 40.6 70.68 41.16"/>
  <polygon class="cls-20" points="39.39 45.53 33.91 46.31 32.88 45.87 39.38 44.97 39.39 45.53"/>
  <polygon class="cls-20" points="69.58 47.74 63.45 48.61 63.45 48.01 69.57 47.17 69.58 47.74"/>
  <polygon class="cls-20" points="39.31 51.72 37.27 52 37.06 51.45 39.29 51.16 39.31 51.72"/>
  <polygon class="cls-20" points="62.6 47.01 39.29 50.24 39.29 49.63 62.58 46.45 62.6 47.01"/>
  <polygon class="cls-20" points="63.46 48.57 62.58 47.11 62.58 46.45 63.45 48.01 63.46 48.57"/>
  <polygon class="cls-5" points="82.99 27.27 82.99 29.61 98.25 27.39 98.26 25.02 82.99 27.27"/>
  <path class="cls-5" d="M82.98,33.13c1.8-.42,4.94-2.04,5.81-3.18l-.04,4.18c-.72,1.78-3.87,2.82-5.41,3.21l-.36-4.21Z"/>
  <polygon class="cls-16" points="74.83 14.83 86.05 41.57 63.52 27.3 74.83 14.83"/>
  <polygon class="cls-16" points="93.86 60.17 85.27 39.7 74.78 34.23 83.51 52.98 93.86 60.17"/>
  <polygon class="cls-13" points="55.08 7.77 65.42 9.86 70.92 5.49 55.08 7.77"/>
  <polygon class="cls-30" points="55.08 7.77 59.03 17.19 69.48 22.03 65.42 9.86 55.08 7.77"/>
  <polygon class="cls-16" points="70.92 5.49 74.83 14.83 69.48 22.03 65.42 9.86 70.92 5.49"/>
  <polygon class="cls-13" points="86.86 15.9 75.89 17.48 71.29 20.55 82.41 18.95 86.86 15.9"/>
  <polygon class="cls-28" points="90.79 25.26 79.78 26.85 71.29 20.55 82.41 18.95 90.79 25.26"/>
  <polygon class="cls-16" points="86.86 15.9 82.41 18.95 90.79 25.26 86.86 15.9"/>
  <polygon class="cls-13" points="49 17.75 52.43 18.44 54.25 16.99 49 17.75"/>
  <polygon class="cls-30" points="49 17.75 50.82 22.05 54.24 22.55 52.43 18.44 49 17.75"/>
  <polygon class="cls-16" points="54.25 16.99 56.06 21.27 54.24 22.56 52.43 18.44 54.25 16.99"/>
  <polygon class="cls-5" points="78.02 62.45 78.02 64.79 93.85 62.54 93.86 60.17 78.02 62.45"/>
  <polygon class="cls-5" points="63.45 39.06 63.45 41.39 70.7 40.33 70.72 37.93 63.45 39.06"/>
  <polygon class="cls-5" points="69.54 42.25 69.53 44.55 78.01 64.82 78.02 62.45 69.54 42.25"/>
  <polygon class="cls-5" points="60.65 33.15 60.66 35.17 63.45 41.39 63.47 38.99 60.65 33.15"/>
  <g>
    <polygon class="cls-13" points="68.58 31.71 65.65 33.58 60.1 33.03 68.58 31.71"/>
    <polygon class="cls-30" points="60.1 33.03 65.65 33.58 62.71 39.17 60.1 33.03"/>
    <polygon class="cls-26" points="62.71 39.17 65.65 33.58 71.19 37.86 62.71 39.17"/>
    <polygon class="cls-16" points="71.19 37.86 65.65 33.58 68.58 31.71 71.19 37.86"/>
  </g>
  <polygon class="cls-5" points="39.39 46.27 39.39 48.6 62.58 45.37 62.58 43 39.39 46.27"/>
  <polygon class="cls-5" points="32.12 43.28 32.12 45.61 39.38 44.55 39.4 42.15 32.12 43.28"/>
  <polygon class="cls-5" points="29.33 37.72 29.31 39.14 32.12 45.61 32.14 43.21 29.33 37.72"/>
  <g>
    <polygon class="cls-13" points="37.5 35.9 34.57 37.77 29.02 37.22 37.5 35.9"/>
    <polygon class="cls-30" points="29.02 37.22 34.57 37.77 31.63 43.36 29.02 37.22"/>
    <polygon class="cls-24" points="31.63 43.36 34.57 37.77 40.11 42.04 31.63 43.36"/>
    <polygon class="cls-16" points="40.11 42.04 34.57 37.77 37.5 35.9 40.11 42.04"/>
  </g>
  <polygon class="cls-5" points="26.12 65.42 26.12 67.76 41.96 65.51 41.96 63.14 26.12 65.42"/>
  <polygon class="cls-5" points="21.16 53.61 21.2 56.05 26.12 67.79 26.12 65.42 21.16 53.61"/>
  <path class="cls-5" d="M21.16,53.61c-1.8-.42-8.1-1.95-9-3.15l.04,3.43c.72,2.14,5.59,3.57,9,2.16l-.04-2.44Z"/>
  <polygon class="cls-10" points="29.03 52.88 27.82 53.08 27.82 56.05 29.03 55.85 29.03 52.88"/>
  <polygon class="cls-2" points="28.29 51.5 27.08 51.7 27.82 53.08 29.03 52.88 28.29 51.5"/>
  <polygon class="cls-11" points="27.82 53.08 27.08 51.7 27.08 54.45 27.82 56.05 27.82 53.08"/>
  <g>
    <polygon class="cls-12" points="28.28 51.62 27.92 51.68 27.92 52.37 28.28 52.31 28.28 51.62"/>
    <polygon class="cls-8" points="28.14 51.34 27.77 51.4 27.92 51.68 28.28 51.62 28.14 51.34"/>
    <polygon class="cls-17" points="27.92 51.68 27.77 51.4 27.77 52.05 27.92 52.37 27.92 51.68"/>
  </g>
  <polygon class="cls-10" points="25.7 32.48 24.49 32.68 24.49 35.64 25.7 35.44 25.7 32.48"/>
  <polygon class="cls-2" points="24.96 31.09 23.74 31.29 24.49 32.68 25.7 32.48 24.96 31.09"/>
  <polygon class="cls-11" points="24.49 32.68 23.74 31.29 23.74 34.04 24.49 35.64 24.49 32.68"/>
  <g>
    <polygon class="cls-12" points="24.95 31.21 24.58 31.27 24.58 31.96 24.95 31.9 24.95 31.21"/>
    <polygon class="cls-8" points="24.8 30.94 24.44 30.99 24.58 31.27 24.95 31.21 24.8 30.94"/>
    <polygon class="cls-17" points="24.58 31.27 24.44 30.99 24.44 31.64 24.58 31.96 24.58 31.27"/>
  </g>
  <polygon class="cls-10" points="21.06 14.56 19.85 14.76 19.85 17.72 21.06 17.52 21.06 14.56"/>
  <polygon class="cls-2" points="20.32 13.17 19.11 13.37 19.85 14.76 21.06 14.56 20.32 13.17"/>
  <polygon class="cls-11" points="19.85 14.76 19.11 13.37 19.11 16.12 19.85 17.72 19.85 14.76"/>
  <g>
    <polygon class="cls-12" points="20.31 13.29 19.95 13.35 19.95 14.04 20.31 13.98 20.31 13.29"/>
    <polygon class="cls-8" points="20.17 13.02 19.8 13.07 19.95 13.35 20.31 13.29 20.17 13.02"/>
    <polygon class="cls-17" points="19.95 13.35 19.8 13.07 19.8 13.72 19.95 14.04 19.95 13.35"/>
  </g>
  <polygon class="cls-10" points="33.56 25.07 32.34 25.27 32.34 28.24 33.56 28.04 33.56 25.07"/>
  <polygon class="cls-2" points="32.81 23.68 31.6 23.88 32.34 25.27 33.56 25.07 32.81 23.68"/>
  <polygon class="cls-11" points="32.34 25.27 31.6 23.88 31.6 26.64 32.34 28.24 32.34 25.27"/>
  <g>
    <polygon class="cls-12" points="32.81 23.81 32.44 23.86 32.44 24.55 32.81 24.5 32.81 23.81"/>
    <polygon class="cls-8" points="32.66 23.53 32.29 23.59 32.44 23.86 32.81 23.81 32.66 23.53"/>
    <polygon class="cls-17" points="32.44 23.86 32.29 23.59 32.29 24.24 32.44 24.55 32.44 23.86"/>
  </g>
  <polygon class="cls-10" points="38.87 21.62 37.66 21.82 37.66 24.79 38.87 24.59 38.87 21.62"/>
  <polygon class="cls-2" points="38.13 20.23 36.92 20.43 37.66 21.82 38.87 21.62 38.13 20.23"/>
  <polygon class="cls-11" points="37.66 21.82 36.92 20.43 36.92 23.19 37.66 24.79 37.66 21.82"/>
  <g>
    <polygon class="cls-12" points="38.12 20.36 37.76 20.41 37.76 21.1 38.12 21.05 38.12 20.36"/>
    <polygon class="cls-8" points="37.97 20.08 37.61 20.14 37.76 20.41 38.12 20.36 37.97 20.08"/>
    <polygon class="cls-17" points="37.76 20.41 37.61 20.14 37.61 20.79 37.76 21.1 37.76 20.41"/>
  </g>
  <polygon class="cls-10" points="36.95 35.49 35.74 35.69 35.74 37.07 36.95 36.87 36.95 35.49"/>
  <polygon class="cls-2" points="36.57 34.79 35.36 34.99 35.74 35.69 36.95 35.49 36.57 34.79"/>
  <polygon class="cls-11" points="35.74 35.69 35.36 34.99 35.36 36.26 35.74 37.07 35.74 35.69"/>
  <g>
    <polygon class="cls-12" points="36.38 34.64 36.02 34.7 36.02 35.39 36.38 35.33 36.38 34.64"/>
    <polygon class="cls-8" points="36.23 34.36 35.87 34.42 36.02 34.7 36.38 34.64 36.23 34.36"/>
    <polygon class="cls-17" points="36.02 34.7 35.87 34.42 35.87 35.07 36.02 35.39 36.02 34.7"/>
  </g>
  <polygon class="cls-10" points="63.23 31.94 62.02 32.14 62.02 33.52 63.23 33.32 63.23 31.94"/>
  <polygon class="cls-2" points="62.86 31.24 61.65 31.44 62.02 32.14 63.23 31.94 62.86 31.24"/>
  <polygon class="cls-11" points="62.02 32.14 61.65 31.44 61.65 32.72 62.02 33.52 62.02 32.14"/>
  <g>
    <polygon class="cls-12" points="62.67 31.09 62.3 31.15 62.3 31.84 62.67 31.78 62.67 31.09"/>
    <polygon class="cls-8" points="62.52 30.82 62.16 30.87 62.3 31.15 62.67 31.09 62.52 30.82"/>
    <polygon class="cls-17" points="62.3 31.15 62.16 30.87 62.16 31.52 62.3 31.84 62.3 31.15"/>
  </g>
  <polygon class="cls-10" points="88.45 48.3 87.23 48.5 87.23 51.47 88.45 51.27 88.45 48.3"/>
  <polygon class="cls-2" points="87.7 46.92 86.49 47.12 87.23 48.5 88.45 48.3 87.7 46.92"/>
  <polygon class="cls-11" points="87.23 48.5 86.49 47.12 86.49 49.87 87.23 51.47 87.23 48.5"/>
  <g>
    <polygon class="cls-12" points="87.7 47.04 87.33 47.1 87.33 47.79 87.7 47.73 87.7 47.04"/>
    <polygon class="cls-8" points="87.55 46.76 87.18 46.82 87.33 47.1 87.7 47.04 87.55 46.76"/>
    <polygon class="cls-17" points="87.33 47.1 87.18 46.82 87.18 47.47 87.33 47.79 87.33 47.1"/>
  </g>
  <polygon class="cls-2" points="97.37 12.15 96.16 12.35 96.9 13.74 98.11 13.54 97.37 12.15"/>
  <polygon class="cls-11" points="96.9 13.74 96.16 12.35 96.16 15.11 96.9 16.49 96.9 13.74"/>
  <polygon class="cls-10" points="94.89 13.83 92.14 14.3 92.14 17.27 94.89 16.8 94.89 13.83"/>
  <polygon class="cls-2" points="94.26 12.65 91.5 13.11 92.14 14.3 94.89 13.83 94.26 12.65"/>
  <polygon class="cls-11" points="92.14 14.3 91.5 13.11 91.5 15.78 92.14 17.27 92.14 14.3"/>
  <g>
    <polygon class="cls-12" points="92.94 12.95 92.3 13.05 92.3 13.75 92.94 13.64 92.94 12.95"/>
    <polygon class="cls-8" points="92.79 12.67 92.15 12.78 92.3 13.05 92.94 12.95 92.79 12.67"/>
    <polygon class="cls-17" points="92.3 13.05 92.15 12.78 92.15 13.43 92.3 13.75 92.3 13.05"/>
  </g>
  <g>
    <polygon class="cls-12" points="94.17 12.76 93.52 12.86 93.52 13.55 94.17 13.45 94.17 12.76"/>
    <polygon class="cls-8" points="94.02 12.48 93.38 12.59 93.52 12.86 94.17 12.76 94.02 12.48"/>
    <polygon class="cls-17" points="93.52 12.86 93.38 12.59 93.38 13.24 93.52 13.55 93.52 12.86"/>
  </g>
  <polygon class="cls-15" points="98.26 25.45 86.98 27.08 86.98 26.65 98.26 25.02 98.26 25.45"/>
  <path class="cls-16" d="M72.11,30.08c-1.38-3.29,1.16-6.49,5.67-7.14,4.51-.65,9.29,1.49,10.68,4.79,1.38,3.29-1.16,6.49-5.67,7.14-4.51.65-9.29-1.49-10.68-4.79Z"/>
  <polygon class="cls-13" points="77.79 22.97 72.68 23.71 67.35 28 80.24 26.24 77.79 22.97"/>
  <polygon class="cls-25" points="82.73 34.73 78.14 35.39 67.35 28 80.24 26.24 82.73 34.73"/>
  <polygon class="cls-10" points="79.8 35.3 78.59 35.5 78.59 38.47 79.8 38.27 79.8 35.3"/>
  <polygon class="cls-2" points="79.06 33.91 77.84 34.11 78.59 35.5 79.8 35.3 79.06 33.91"/>
  <polygon class="cls-11" points="78.59 35.5 77.84 34.11 77.84 36.87 78.59 38.47 78.59 35.5"/>
  <g>
    <polygon class="cls-12" points="79.05 34.04 78.68 34.09 78.68 34.78 79.05 34.73 79.05 34.04"/>
    <polygon class="cls-8" points="78.9 33.76 78.54 33.82 78.68 34.09 79.05 34.04 78.9 33.76"/>
    <polygon class="cls-17" points="78.68 34.09 78.54 33.82 78.54 34.47 78.68 34.78 78.68 34.09"/>
  </g>
  <path class="cls-15" d="M88.79,31.77c-.03.05-.06.11-.09.16-.94,1.67-2.86,2.85-5.3,3.28l-.22-.48c2.35-.39,4.19-1.49,5.07-3.05.34-.59.54-1.14.56-1.79l-.03,1.88Z"/>
  <polygon class="cls-15" points="93.86 60.6 78.02 62.88 78.02 62.45 93.86 60.17 93.86 60.6"/>
  <polygon class="cls-15" points="78.02 62.88 69.54 42.67 69.54 42.25 78.02 62.45 78.02 62.88"/>
  <polygon class="cls-15" points="71.19 38.28 62.71 39.6 62.71 39.17 71.19 37.86 71.19 38.28"/>
  <polygon class="cls-15" points="62.71 39.6 60.66 34.79 60.66 34.37 62.71 39.17 62.71 39.6"/>
  <polygon class="cls-15" points="62.58 43.43 39.39 46.69 39.39 46.27 62.58 43 62.58 43.43"/>
  <polygon class="cls-15" points="40.11 42.46 31.63 43.78 31.63 43.36 40.11 42.04 40.11 42.46"/>
  <polygon class="cls-15" points="31.63 43.78 29.02 37.64 29.02 37.22 31.63 43.36 31.63 43.78"/>
  <polygon class="cls-15" points="41.96 63.57 26.12 65.85 26.12 65.42 41.96 63.14 41.96 63.57"/>
  <polygon class="cls-15" points="26.12 65.85 21.16 54.03 21.16 53.61 26.12 65.42 26.12 65.85"/>
  <path class="cls-15" d="M18.19,54.5c-2.52,0-4.97-1.18-6.01-2.93l-.02-1.12c.88,2.08,4.18,3.88,7.07,3.46.16-.02.31-.05.46-.08l2.93-.42-.22.54-2.63.38c-.14.03-.31.06-.47.09-.37.05-.74.08-1.11.08Z"/>
  <polygon class="cls-15" points="17.99 46.52 13.66 36.24 13.66 35.82 17.99 46.09 17.99 46.52"/>
  <polygon class="cls-15" points="13.66 36.24 7.24 37.17 7.24 36.74 13.66 35.82 13.66 36.24"/>
  <polygon class="cls-5" points="13.66 35.82 13.65 38.18 18.61 49.99 18.62 47.63 13.66 35.82"/>
  <path class="cls-30" d="M23,49.18c.92,2.19-.77,4.31-3.77,4.74-3,.43-6.18-.99-7.09-3.18-.92-2.19.77-4.31,3.77-4.74s6.18.99,7.09,3.18Z"/>
  <polygon class="cls-7" points="19.22 53.9 22.62 53.41 26.1 46.18 17.56 47.41 19.22 53.9"/>
  <polygon class="cls-13" points="15.91 46.01 18.96 45.57 26.1 46.18 17.56 47.41 15.91 46.01"/>
  <polygon class="cls-5" points="7.24 36.74 7.24 39.07 13.65 38.18 13.66 35.82 7.24 36.74"/>
  <polygon class="cls-5" points="2.45 25.34 2.45 27.71 7.23 39.11 7.24 36.74 2.45 25.34"/>
  <polygon class="cls-15" points="7.24 37.17 2.45 25.77 2.45 25.34 7.24 36.74 7.24 37.17"/>
  <polygon class="cls-5" points="4.96 14.98 4.95 17.34 8.32 25.37 9.64 26.03 4.96 14.98"/>
  <polygon class="cls-15" points="8.91 24.82 4.96 15.4 4.96 14.98 8.91 24.39 8.91 24.82"/>
  <polygon class="cls-6" points="7.24 36.74 13.66 35.82 19.25 25.91 12.66 26.86 7.24 36.74"/>
  <polygon class="cls-13" points="2.45 25.34 8.91 24.39 19.25 25.91 12.66 26.86 2.45 25.34"/>
  <polygon class="cls-10" points="12.64 30.67 11.43 30.87 11.43 33.83 12.64 33.63 12.64 30.67"/>
  <polygon class="cls-2" points="11.9 29.28 10.69 29.48 11.43 30.87 12.64 30.67 11.9 29.28"/>
  <polygon class="cls-11" points="11.43 30.87 10.69 29.48 10.69 32.23 11.43 33.83 11.43 30.87"/>
  <g>
    <polygon class="cls-12" points="11.89 29.4 11.53 29.46 11.53 30.15 11.89 30.09 11.89 29.4"/>
    <polygon class="cls-8" points="11.74 29.13 11.38 29.18 11.53 29.46 11.89 29.4 11.74 29.13"/>
    <polygon class="cls-17" points="11.53 29.46 11.38 29.18 11.38 29.84 11.53 30.15 11.53 29.46"/>
  </g>
  <polygon class="cls-10" points="7.38 26.99 6.17 27.19 6.17 30.16 7.38 29.96 7.38 26.99"/>
  <polygon class="cls-2" points="6.64 25.6 5.43 25.8 6.17 27.19 7.38 26.99 6.64 25.6"/>
  <polygon class="cls-11" points="6.17 27.19 5.43 25.8 5.43 28.56 6.17 30.16 6.17 27.19"/>
  <g>
    <polygon class="cls-12" points="6.63 25.73 6.27 25.78 6.27 26.47 6.63 26.42 6.63 25.73"/>
    <polygon class="cls-8" points="6.49 25.45 6.12 25.51 6.27 25.78 6.63 25.73 6.49 25.45"/>
    <polygon class="cls-17" points="6.27 25.78 6.12 25.51 6.12 26.16 6.27 26.47 6.27 25.78"/>
  </g>
  <polygon class="cls-5" points="55.08 7.77 55.07 10.14 58.44 18.16 59.75 18.82 55.08 7.77"/>
  <polygon class="cls-15" points="59.03 17.61 55.08 8.2 55.08 7.77 59.03 17.19 59.03 17.61"/>
  <polygon class="cls-13" points="55.7 16.73 59.13 17.42 60.95 15.97 55.7 16.73"/>
  <polygon class="cls-30" points="55.7 16.73 57.52 21.04 60.94 21.54 59.13 17.42 55.7 16.73"/>
  <polygon class="cls-16" points="60.95 15.97 62.75 20.26 60.94 21.54 59.13 17.42 60.95 15.97"/>
  <polygon class="cls-10" points="59.28 21.28 58.07 21.48 58.07 24.45 59.28 24.25 59.28 21.28"/>
  <polygon class="cls-2" points="58.54 19.89 57.32 20.1 58.07 21.48 59.28 21.28 58.54 19.89"/>
  <polygon class="cls-11" points="58.07 21.48 57.32 20.1 57.32 22.85 58.07 24.45 58.07 21.48"/>
  <g>
    <polygon class="cls-12" points="58.53 20.02 58.16 20.08 58.16 20.77 58.53 20.71 58.53 20.02"/>
    <polygon class="cls-8" points="58.38 19.74 58.01 19.8 58.16 20.08 58.53 20.02 58.38 19.74"/>
    <polygon class="cls-17" points="58.16 20.08 58.01 19.8 58.01 20.45 58.16 20.77 58.16 20.08"/>
  </g>
  <g>
    <polygon class="cls-16" points="41.96 63.14 35.13 46.86 24.79 39.73 31.62 55.95 41.96 63.14"/>
    <polygon class="cls-10" points="34.8 44.97 33.59 45.17 33.59 48.14 34.8 47.94 34.8 44.97"/>
    <polygon class="cls-2" points="34.06 43.58 32.85 43.78 33.59 45.17 34.8 44.97 34.06 43.58"/>
    <polygon class="cls-11" points="33.59 45.17 32.85 43.78 32.85 46.54 33.59 48.14 33.59 45.17"/>
    <g>
      <polygon class="cls-12" points="34.05 43.71 33.69 43.76 33.69 44.45 34.05 44.4 34.05 43.71"/>
      <polygon class="cls-8" points="33.9 43.43 33.54 43.48 33.69 43.76 34.05 43.71 33.9 43.43"/>
      <polygon class="cls-17" points="33.69 43.76 33.54 43.48 33.54 44.14 33.69 44.45 33.69 43.76"/>
    </g>
  </g>
  <g>
    <polygon class="cls-32" points="89.45 84 87 78.49 87.03 66.1 89.45 71.82 89.45 84"/>
    <polygon class="cls-5" points="89.18 81.68 89.62 80.87 89.45 71.82 89.12 71.08 89.18 81.68"/>
    <polygon class="cls-19" points="118.26 92.2 92.41 95.88 92.41 83.7 118.32 79.9 118.26 92.2"/>
    <polygon class="cls-1" points="92.41 95.88 87.48 84.5 87.51 72.1 92.41 83.7 92.41 95.88"/>
    <g>
      <g>
        <polygon class="cls-3" points="87.4 66.3 100.21 64.42 102.83 70.59 90.02 72.47 87.4 66.3"/>
        <path class="cls-11" d="M100.05,64.7l2.41,5.68-12.29,1.8-2.41-5.68,12.29-1.8M100.37,64.14l-13.33,1.96,2.83,6.65,13.33-1.96-2.83-6.65h0Z"/>
      </g>
      <g>
        <polygon class="cls-3" points="106.82 117.2 115.42 115.94 112.8 109.74 102.32 111.27 93.3 89.9 103.78 88.36 101.17 82.16 92.56 83.42 87.88 72.31 113.27 68.58 117.96 79.69 109.52 80.93 112.14 87.14 123.32 85.5 132.34 106.87 121.15 108.51 123.77 114.72 132.22 113.48 136.9 124.59 111.51 128.32 106.82 117.2"/>
        <path class="cls-11" d="M113.11,68.86l4.48,10.63-7.79,1.14-.65.1.26.61,2.42,5.72.15.36.39-.06,10.79-1.58,8.81,20.89-10.53,1.54-.65.1.26.61,2.41,5.72.15.36.39-.06,8.05-1.18,4.48,10.63-24.87,3.65-4.48-10.63,7.95-1.17.65-.1-.26-.61-2.41-5.72-.15-.36-.39.06-10.09,1.48-8.81-20.89,9.83-1.44.65-.1-.26-.61-2.41-5.72-.15-.36-.39.06-8.21,1.2-4.48-10.63,24.87-3.65M113.43,68.3l-25.92,3.8,4.89,11.6,8.6-1.26,2.41,5.72-10.48,1.54,9.22,21.86,10.48-1.54,2.41,5.72-8.6,1.26,4.89,11.6,25.92-3.8-4.89-11.6-8.44,1.24-2.41-5.72,11.18-1.64-9.22-21.86-11.18,1.64-2.42-5.72,8.44-1.24-4.89-11.6h0Z"/>
      </g>
    </g>
    <polygon class="cls-5" points="89.12 71.08 89.45 71.82 102.79 69.88 102.45 69.03 89.12 71.08"/>
  </g>
</svg>