<?xml version="1.0" encoding="UTF-8"?>
<svg id="map" xmlns="http://www.w3.org/2000/svg" xmlns:xlink="http://www.w3.org/1999/xlink" viewBox="0 0 41.67 33.41">
  <defs>
    <style>
      .cls-1, .cls-2 {
        stroke: #fff;
        stroke-miterlimit: 10;
        stroke-width: .15px;
      }

      .cls-1, .cls-3 {
        fill: #231f20;
      }

      .cls-4 {
        fill: url(#linear-gradient);
      }

      .cls-4, .cls-5, .cls-6, .cls-7, .cls-8, .cls-9, .cls-10, .cls-11, .cls-12, .cls-13, .cls-14, .cls-15, .cls-16, .cls-17, .cls-18, .cls-19, .cls-3, .cls-20 {
        stroke-width: 0px;
      }

      .cls-5 {
        opacity: .2;
      }

      .cls-5, .cls-12 {
        fill: #000;
      }

      .cls-6 {
        fill: #8cb835;
      }

      .cls-7 {
        fill: #d0d1d1;
      }

      .cls-8 {
        fill: #7e7c7d;
      }

      .cls-9 {
        fill: #f1f2f2;
      }

      .cls-10 {
        fill: #9b5b5b;
      }

      .cls-2 {
        fill: none;
      }

      .cls-11 {
        fill: #999;
      }

      .cls-13 {
        fill: #884f4f;
      }

      .cls-14 {
        fill: #f2f2f2;
      }

      .cls-15 {
        fill: #eceff0;
      }

      .cls-16 {
        fill: url(#linear-gradient-2);
      }

      .cls-17 {
        fill: url(#linear-gradient-3);
      }

      .cls-18 {
        fill: #3f7fb7;
      }

      .cls-19 {
        fill: #c27171;
      }

      .cls-20 {
        fill: #e5e5e5;
      }
    </style>
    <linearGradient id="linear-gradient" x1="-32.91" y1="17.75" x2="6.84" y2="17.75" gradientUnits="userSpaceOnUse">
      <stop offset="0" stop-color="#7f4340"/>
      <stop offset="1" stop-color="#b16767"/>
    </linearGradient>
    <linearGradient id="linear-gradient-2" x1="19.49" y1="14.44" x2="35.63" y2="14.44" xlink:href="#linear-gradient"/>
    <linearGradient id="linear-gradient-3" x1="9.1" y1="12.13" x2="23.61" y2="12.13" xlink:href="#linear-gradient"/>
  </defs>
  <path class="cls-18" d="M29.08-165.56c-29.17,1.36-297.8,23.06-344.95,49.52-54.34,30.49-44.77,99.72-38.67,153.31C-348.9,86.71,29.08-165.56,29.08-165.56Z"/>
  <path class="cls-6" d="M820.59,345.27c28.49-59.5-54.18-238.94-89.6-311.4-35.42-72.46-99.31-161.2-174.79-189.26-90.3-33.58-194.59-32.77-237.48-30.9-42.89,1.87-93.1,4.07-93.1,4.07L-8.19-163.13l-24.03,1.96s-56.16,2.4-75.69,30.97c-6.71,9.81-16.38,20.43-28.27,29.83-13.78,10.88-39.39,18.35-39.39,18.35l-29.13-9.37s-11.94-4.07-10.96-.9,18.31,12.58,18.44,15.56c.13,2.98-12.37,14.29-34.96,12.03-9.15-.92-21.33-3.28-33.48-4.18-23.56-1.75-47.15,5.09-59.36,13.57-10.35,7.18-32.9,9.16-32.9,9.16-6.44,38.33,5.76,106.07,11.91,142.45,5.14,30.4,21.38,65.17,46.03,86.84,28.13,24.72,57.57,26.63,91.86,23.23,7.15-.71,23.43-2.2,43.21-.85,13.92.95,48.06,18.99,102.01,9.5,59.09-10.4,97.23-53.48,116.74-56.98,113.83-20.43,169.77-26.66,210.8-11.19,35.96,13.56,71.64,69.79,94.2,112.05,14.69,27.52,19.82,34.68,41.29,57.21,40.42,42.4,156.79,80.32,230.79,87.01,74,6.69,162.07-.18,189.67-57.81Z"/>
  <path class="cls-11" d="M-58.45,239.67c5.6-11.89,6.52-30.33,2.48-49.33-2.11-9.88-.14-16.91,1.63-20.1,7.19-1.63,11.59-6.06,10.58-10.63,2.44-2.48,13.32-11.48,46.58-16.5l265.8-40.14c6.05,4.33,29.04,21.17,44.85,37.69,19.37,20.24,38.15,41.14,55.06,74.15l9-1.66c-17.2-33.56-36.25-54.77-55.9-75.3-14.43-15.08-34.13-30.01-42.89-36.41l99.41-15.01c5.75,3.16,24.7,13.99,30.86,22.56l.58.81c7.37,10.26,17.46,24.32,43.68,34.48,12.09,4.68,24.87,9.9,36.5,17.67,12.27,8.19,22.19,18.61,30.35,31.85,12.37,20.09,25.52,47.31,36.08,69.18,4.86,10.07,9.06,18.76,12.38,25.1,10.49,20.02,16.93,31.68,27.5,38.62,2.61,1.71,5.08,3.01,7.26,4.16,6.37,3.35,11.41,6,16.08,17.14l23.49,56.02,5.06.33-24.09-57.03c-5.02-11.97-10.81-15.02-17.51-18.54-2.19-1.15-4.46-2.34-6.9-3.95-9.91-6.51-16.22-17.94-26.51-37.59-3.31-6.32-7.5-14.99-12.35-25.04-10.58-21.91-23.75-49.19-36.18-69.37-18.17-29.5-41.85-40.5-68.66-50.89-25.05-9.7-34.42-22.76-41.96-33.25l-.59-.82c-5.92-8.24-22.17-17.99-29.76-22.27l29.6-4.47c2.38-.28,4.74-.58,7.03-.93,21.71-3.28,21.85-10.44,20.53-13.59-.19-.44-.56-1.36-1.08-2.62l10.58-1.35,4.96,12.21,7.69-.85-5.02-12.33,55.17-7.91-4.29-10.22-4.23,1.78,2.01,4.78-50.49,7.2-2.54-5.68-7.18,2.04,2.09,4.61-10.53,1.34c-3.88-9.49-10.49-25.68-13.44-32.72-4.06-9.67-22.65-10.64-28.9-9.7-6.25.94-24.67,3.73-34.21,5.17-4.56.69-7.68-1.29-9.86-3.94l-17.77-42.36c-1.83-10.9.05-28.92,18.8-33.07l8.13-1.23c21.55-3.25,53.86-.4,78.58,6.95,3.66,1.09,9.72,2.86,17.39,5.09,43.04,12.56,143.82,41.96,167.23,52.57,23.33,10.57,48.92,33.04,60.36,44.66,5.15,5.23,11.52,12.58,15.05,23.05,3.87,11.49,3.66,24.41-.66,39.51l9.28.95c9.93-34.75-3.1-53.73-15.57-66.39-3.25-3.3-32.62-32.62-62.79-46.29-24.15-10.94-121.84-39.45-168.79-53.14-7.65-2.23-13.7-4-17.33-5.08-26.97-8.02-61.15-10.98-85.05-7.37l-38.86,5.87-15.49-36.93c-4.51-10.75-21.41-20.64-39.32-23.01-18.29-2.42-34.79-.83-47.7,2.79l-7.15,1.71c-4.76,1.33-13.58,3.75-22.82,6.03l-2.99-7.12c6.41-2.14,9.91-6.68,8.03-11.15l-.39-.92,9.85-1.49-1.46-3.49-9.85,1.49-2.26-5.33,9.85-1.49-1.46-3.49-10.29,1.55c-.96-.83-2.72-2.02-4.83-2.92l-3.2-7.63-5.81.88,2.11,5.03c-2.2-.22-4.51-.18-6.81.16l-.56.08c-7.61,1.15-12.67,5.3-12.57,9.81l-10.18,1.54,1.46,3.49,9.74-1.47,1.99,4.74-9.96,1.5,1.46,3.49,9.96-1.5.39.92c1.78,4.25,7.9,7.18,14.81,7.51l3.39,8.08c-8.25,1.85-15.8,3.25-19.94,3.28-13.81.11-24.45-2.62-38.47-7.39-3.02-1.03-5.78-2.24-8.71-3.52-9.38-4.11-20-8.76-38.76-5.93l-79.93,12.07c-7.79,1.18-14.51,4.52-18.42,9.18-3.18,3.79-4.42,8.21-3.67,12.98l-2.37.36c-3.12.47-5.02,2.38-4.24,4.25l19.56,46.61c.78,1.87,3.97,3.01,7.09,2.54l1.78-.27,1.46,3.48-36.09,5.45c-1.61-1.43-4.26-2.16-6.97-1.75-2.3.35-4.12,1.44-5,3-.11.19-.2.39-.27.59l-52.16,7.88-9.22-21.97-55.55,8.39,25.96,61.87-41.3,6.24c-3.89.59-12.97-.99-18.54-2.36-.07-.74-.26-1.48-.57-2.23-2.69-6.41-13.56-10.31-24.24-8.69-10.68,1.61-17.18,8.14-14.49,14.54,2.69,6.41,13.56,10.31,24.24,8.69,6.12-.92,10.86-3.46,13.29-6.66,3.8.87,10.63,2.24,16.75,2.45.12,2.96.62,7.58,2.4,11.83.61,1.44,1.44,3.09,2.33,4.84,2.97,5.84,7.03,13.85,4.16,18.7-.33.56-.69,1.16-1.07,1.78-2.84,4.71-6.56,10.87-8.18,17.93-3.61.11-10.13.72-19.77,3.18-5.57,1.42-13.81,3.16-22.52,5.01-15.07,3.19-32.15,6.81-42.13,10.13-3.92,1.3-7.58,2.55-11.13,3.77-10.4,3.56-19.39,6.64-27.58,8.34-10.89,2.26-18.03,3.18-18.21,3.2l2.2,4.58c.18-.02,5.89-.99,16.94-3.29,8.47-1.76,17.58-4.88,28.13-8.49,3.54-1.21,7.19-2.46,11.09-3.76,9.74-3.23,26.68-6.82,41.63-9.99,8.76-1.86,17.04-3.61,22.71-5.05,8.55-2.18,14.48-2.83,17.92-3-.25,3.27.02,6.69,1.09,10.22,3.29,10.84,10.51,26.31,13.98,33.74.89,1.9,1.59,3.4,1.86,4.04.63,1.49,2.09,4.99,6.91,7.45,5.45,2.78,13.31,3.42,23.38,1.9l65-9.82,3.39,8.09c1.59,3.8,6.64,6.54,12.63,7.32-1.56,3.92-3.06,10.68-1,20.31,3.89,18.28,3.07,35.87-2.2,47.07l9.06,1.54ZM168.24-121.95l-4.36-10.4c-.97-2.32,1.38-4.67,5.24-5.26l.56-.08c3.86-.58,7.79.83,8.76,3.14l4.36,10.4c.97,2.32-1.38,4.67-5.24,5.26l-.56.08c-3.86.58-7.79-.83-8.76-3.14ZM209.92,22.68l-22.32,25.63-11.92,1.8-40.07-16.21,74.3-11.22ZM127.19,35.17l10.69,25.49,4.23-1.78-8.8-20.97,41.81,16.91,14.83-2.24,23.94-27.5,9.5,22.65,4.23-1.78-10.25-24.42,22.95-3.47,24.05,57.32-58.93,8.9-6.62-15.78-16.79,2.54,6.62,15.78-57.52,8.69-24.05-57.32,20.1-3.04ZM275.16,91.83c-.82-1.97-4.39-10.47-6.14-14.64l.93-.39-24.93-59.42,89.69-13.55,32.88,78.37-85.77,12.95c-2.79-.73-6.05-1.87-6.66-3.32ZM156.79,24.39l-20.46-48.76,175.43-26.49,20.46,48.76-175.43,26.49ZM106.86-25.75c-1.66-3.96-11.54-27.51-12.22-29.13-.75-1.78-.42-4.76,5.83-5.71,6.25-.94,30.1-4.55,30.1-4.55l2.9,6.91,9.7-1.47s.24-1.09,1.64-1.93c1.4-.84,4.28-.65,4.28-.65l2.98,7.1s1.56.39,2.39,2.37c.83,1.97,2.53,6.02,2.53,6.02l-1.64.25,1.12,2.66,1.97-.3,1.78,4.24-22.37,3.38,2.41,5.75-33.39,5.04ZM-13.87-95.12c2.58-3.07,6.62-5.22,11.54-5.96l31.41-4.62,9.04,21.55,4.23-1.78-8.59-20.48,40.16-6.19c14.12-2.13,21.24.99,30.26,4.94,3.03,1.33,6.17,2.7,9.69,3.9,15.33,5.21,32.25,10.42,47.55,10.89,8.84.28,21.6-.73,34.32-3.02l-.03.07c1.37.53,2.75,1.05,4.12,1.58,2.61,1,5.21,2,7.82,3,2.52.97,5,2.01,7.48,3.06,1.35.57,2.53,1.52,3.75,2.34l3.68,2.48c1.01.68,2.01,1.36,3.02,2.03l4.5-2.67-11.38-7.49,26.99-4.01.67-3.07-30,4.47c-1.32.2-2.78.15-4.02-.34-2.74-1.08-5.48-2.1-8.25-3.1-.03-.01-.07-.02-.1-.04,5.74-1.3,11.29-2.88,16.26-4.72l8.92-2.5c1.37-.38,2.68-.81,3.94-1.24,2.61-.64,5.46-1.27,7.49-1.53,1.31-.17,2.5-.28,3.59-.34l-.04.38c14.1,1.36,25.33,5.31,28.81,8.36.33.44,1.1,2.1,1.66,3.62l4.3-1.6c-.72-1.94-1.8-4.46-2.86-5.4-2.71-2.42-7.99-4.72-14.55-6.51.06-.12.11-.23.16-.33.57-1.14,3.25-.6,4.4-.35,1.15.25,5.84,1.43,6.21,1.06.12-.12.27-.36.42-.65,10.06,3.48,18.57,9.66,21.25,16.05l15.49,36.93-45.8,6.92c-.94-1.96-1.99-4.35-2.2-5.46-.46-2.34-2.22-10.57-2.3-10.92l-4.49.96c.02.09,1.83,8.54,2.28,10.84.27,1.38,1.16,3.51,1.97,5.29l-6.15.93-5.62-13.39c-1.48-3.54-7.58-3.75-10.13-3.67l.13,4.59c2.41-.07,5.18.39,5.8.95l5.13,12.23-44.28,6.65-2.47-6.02-4.95.9-33.52,4.91-12.83-30.59-4.77.72-1.37-3.26-66.4,10.13,16.69,39.79-22.83,3.45c-1-2-6.26-11.09-20.53-14.52-13.28-3.19-20.08-1.17-28.31-2.44-7.61-1.18-15.92-3.56-21.2-4.41l-2.9-6.84c7.82-1.18,41.95-6.4,41.95-6.4l-3.34-4.13S2.32-53.82-3.4-52.96l-3.9-9.5c7.82-1.18,39.94-6.04,39.94-6.04l-1.87-4.41s-34.19,5.22-39.91,6.08l-6.21-14.68c-2.75-6.55-.72-11.02,1.46-13.62ZM-49.68-19.08c1.4-.21,2.57.16,3.07.49-.27.18-.75.39-1.44.5-1.41.21-2.59-.17-3.08-.49.27-.18.75-.4,1.45-.5ZM-119.87-29.05l16.38,39.05-46.19,6.98-16.38-39.05,46.19-6.98ZM-108.31,30.36l-5.91-14.09,12.57-1.9,5.91,14.09-12.57,1.9ZM-147.85,21.34l14.11-2.13,5.91,14.09-14.11,2.13-5.91-14.09ZM-223.81,46.86c-5.65.85-11.39-1.21-12.81-4.6-1.42-3.39,2.02-6.84,7.66-7.69,5.65-.85,11.39,1.21,12.81,4.6s-2.02,6.84-7.66,7.69ZM-82.62,149.87h0l-65,9.82c-15.67,2.37-17.67-2.41-18.86-5.26-.3-.72-.98-2.17-1.92-4.19-3.43-7.35-10.57-22.64-13.78-33.23-2.59-8.55.21-16.66,3.6-23.22,4.26-.47,8.57-1.69,9.08-3.09.09-.24.24-.68.42-1.26l40.67-.67,61.17-9.45-.69-4.54-60.86,9.41-38.89.64c.82-2.88,1.6-5.93,1.6-7.1,0-2.24-2.97-3.19-4.67-3.35-.96-.09-1.82-.51-2.5-1.1-1.1-3.5-2.88-7-4.48-10.16-.85-1.68-1.65-3.26-2.2-4.57-1.7-4.05-2.07-8.64-2.13-11.25l96.12-14.52-2.3-5.48-2.81.42-14.91-35.54,51.37-7.76c1.3,1.31,3.42,2.1,5.72,2.1.5,0,1-.04,1.51-.11,2.3-.35,4.12-1.44,5-3,.16-.29.29-.59.38-.89L-5.48-22.96-.86-11.95l13.83-2.09,14.91-2.25,9.98,23.78,3.3,2.86,1.38,3.29-5.04.76,1.92,4.57-8.11,1.23,2.24,5.34,15.13-2.29c9.93-1.5,7.83-6.51,6.94-8.64l-4.47-10.66,3-.45-2.65-6.32,6.31-.99,3.65-9.19c.1-.04.2-.07.3-.11l69.91-10.56L141.44-.32l-30.79,4.69,2.1,5,30.79-4.69,8.57,20.42-47.36,7.23-2.33-5.55-7.46,1.13,2.33,5.55-74.25,11.14-2.03-4.83-2.63.4-7.53-17.96-4.93.75L1.78.3l-39.39,5.54,1.1,5.73-8.52,2.64-4.09,22.61,23.52-3.55,5.75,13.72,11.02-1.66,1.61,3.84-43.42,6.56-1.49-3.55-12.83,1.94,1.15,2.73-4.22.64,6.07,14.47.5-.07.51,3.36,32.89-4.97-.69-4.54-25.79,3.89-2.73-6.5,9.15-1.38-.04-.09,18.55-2.8,2.8,6.68,4.23-1.78-2.35-5.61,41.15-6.21,2.8,6.68,4.23-1.78-2.35-5.61,48.75-7.36,2.32,5.54-46.35,7,.69,4.54,24.55-3.73,9.79,22.73,7.32-1.09-1-4.48-3.47.5-7.96-18.37,18.27-2.73,1.95,4.66,9.43-1.42-6.11-14.56,23.32-3.52,24.05,57.32-22.02,3.27-4.32-10.11-11.81,1.72,4.44,10.25L-6.06,116.25l-3.68-3.78-1.49-3.55-16.88,2.55,1.49,3.55,7.29-1.1c2.7.52,8.74,2.08,10.27,5.72,1.28,3.04.45,5.42-.86,7.19-4.44,2.68-10.6,5.23-17.59,6.29l-25.89,3.91s-8.42,1.1-16.29,2.29l-.56.08c-8.89,1.34-11.85,5.13-12.35,10.47ZM-58.48,165.11l-.56.08c-3.86.58-7.79-.83-8.76-3.14l-5.18-11.68c-.97-2.32,1.38-4.67,5.24-5.26h0c3.86-.58,8.35.74,9.32,3.06l5.18,11.68c.97,2.32-1.38,4.67-5.24,5.26ZM-46.61,152.55l-4.7-11.2,24.47-3.7c6.44-.97,13.06-3.29,18.62-6.53,2.59-1.5,4.77-3.1,6.43-4.68,1.4,3.35,2.71,6.46,3.11,7.42.52,1.23-1.2,2.83-2.96,4.09-24.85,3.98-38.17,10.12-44.98,14.58Z"/>
  <g>
    <polygon class="cls-7" points="23.8 4.73 19.67 5.22 19.67 -6.97 23.86 -7.58 23.8 4.73"/>
    <polygon class="cls-15" points="-12.92 -38.52 -11.1 -34.21 -13.36 -33.88 -9.42 -24.71 -10.41 -24.64 -5.77 -11.01 -4.7 -11.17 -.46 -1.13 3.73 -1.74 6.77 5.47 26.34 2.63 22.14 -7.33 23.86 -7.58 11.23 -37.53 10.15 -37.38 8.37 -41.61 -12.92 -38.52"/>
    <polygon class="cls-7" points="26.23 12.21 6.72 14.94 6.77 5.47 26.34 2.63 26.23 12.21"/>
    <polygon class="cls-20" points="6.72 14.94 3.62 7.84 3.73 -1.74 6.77 5.47 6.72 14.94"/>
    <polygon class="cls-7" points="3.62 7.84 -.51 8.33 -.46 -1.13 3.73 -1.74 3.62 7.84"/>
    <polygon class="cls-3" points="4.48 4.54 3.93 3.29 3.93 1.49 4.48 2.74 4.48 4.54"/>
    <polygon class="cls-3" points="5.37 6.4 4.82 5.16 4.82 3.36 5.37 4.6 5.37 6.4"/>
    <polygon class="cls-3" points="6.3 8.59 5.75 7.34 5.75 5.54 6.3 6.79 6.3 8.59"/>
    <polygon class="cls-3" points="6.1 13.5 3.87 8.42 3.92 5.81 6.1 10.49 6.1 13.5"/>
  </g>
  <polygon class="cls-20" points="9.1 30.24 3.12 16.3 3.16 3.9 9.1 18.05 9.1 30.24"/>
  <polygon class="cls-20" points="5.84 20.47 -28.44 25.85 -28.67 24.23 5.14 19.36 5.84 20.47"/>
  <polygon class="cls-7" points="5.78 22.47 -29.21 27.47 -29.21 25.59 5.84 20.47 5.78 22.47"/>
  <polygon class="cls-7" points="5.84 20.47 4.98 20.57 5.11 16.44 5.99 16.31 5.84 20.47"/>
  <polygon class="cls-7" points="4.59 19.49 3.73 19.6 3.86 15.47 4.74 15.34 4.59 19.49"/>
  <polygon class="cls-7" points="2.83 20.93 1.97 21.04 2.1 16.91 2.98 16.78 2.83 20.93"/>
  <polygon class="cls-7" points="1.58 19.96 .72 20.06 .85 15.94 1.73 15.8 1.58 19.96"/>
  <polygon class="cls-7" points="35.57 29.2 19.49 31.4 19.49 19.21 35.63 16.89 35.57 29.2"/>
  <polygon class="cls-7" points="17.85 29.09 9.1 30.24 9.1 18.05 17.91 16.79 17.85 29.09"/>
  <polygon class="cls-20" points="19.49 31.4 17.85 29.09 17.91 16.79 19.49 19.21 19.49 31.4"/>
  <polygon class="cls-10" points="-32.91 18.08 4.76 12.74 6.05 13.5 -32.63 19.58 -32.91 18.08"/>
  <polygon class="cls-4" points="-28.65 22.01 6.84 16.91 6.05 13.5 -32.91 19.1 -28.65 22.01"/>
  <polygon class="cls-19" points="9.1 18.05 15.83 7.03 14.38 6.16 3.16 3.9 9.1 18.05"/>
  <polygon class="cls-16" points="35.63 16.89 24.76 9.66 19.49 19.21 35.63 16.89"/>
  <polygon class="cls-10" points="3.16 3.9 28.54 .25 21.95 5.7 16 6.51 3.16 3.9"/>
  <polygon class="cls-13" points="28.54 .25 35.63 16.89 24.76 9.66 22.79 4.96 28.54 .25"/>
  <polygon class="cls-17" points="9.1 18.05 17.91 16.79 23.61 6.92 21.51 6.21 15.83 7.03 9.1 18.05"/>
  <polygon class="cls-8" points="14.38 6.16 22.79 4.96 23.61 6.92 15.2 8.13 14.38 6.16"/>
  <polygon class="cls-19" points="19.49 19.21 17.91 16.79 23.61 6.92 24.76 9.66 19.49 19.21"/>
  <path class="cls-1" d="M27.7,25.38c0-.95-.77-1.62-1.72-1.49-.95.13-1.71,1.01-1.71,1.96v2.54l3.43-.46v-2.55Z"/>
  <path class="cls-1" d="M24.27,25.84c0-.95-.77-1.62-1.72-1.49-.95.13-1.71,1.01-1.71,1.96v2.54l3.43-.46v-2.55Z"/>
  <path class="cls-1" d="M31.15,24.9c0-.96-.77-1.62-1.72-1.49-.95.13-1.72,1.01-1.72,1.97v2.55l3.45-.47v-2.56Z"/>
  <path class="cls-1" d="M34.61,24.43c0-.96-.78-1.63-1.73-1.49-.96.13-1.73,1.01-1.73,1.97v2.56l3.46-.47v-2.57Z"/>
  <polygon class="cls-1" points="34.42 20.58 31.77 20.95 31.77 18.1 34.42 17.74 34.42 20.58"/>
  <polygon class="cls-1" points="23.65 22.11 21 22.48 21 19.63 23.65 19.26 23.65 22.11"/>
  <line class="cls-2" x1="33.05" y1="17.86" x2="33.05" y2="20.74"/>
  <polygon class="cls-1" points="30.35 21.13 24.82 21.97 24.82 19.12 30.35 18.29 30.35 21.13"/>
  <line class="cls-2" x1="28.5" y1="18.52" x2="28.5" y2="21.4"/>
  <line class="cls-2" x1="26.77" y1="18.9" x2="26.77" y2="21.78"/>
  <polygon class="cls-1" points="17.14 20.38 11.61 21.21 11.61 18.36 17.14 17.53 17.14 20.38"/>
  <line class="cls-2" x1="15.3" y1="17.76" x2="15.3" y2="20.64"/>
  <line class="cls-2" x1="13.56" y1="18.14" x2="13.56" y2="21.02"/>
  <polygon class="cls-1" points="12.67 26.1 10.25 26.43 10.25 23.83 12.67 23.5 12.67 26.1"/>
  <polygon class="cls-1" points="16.08 25.62 13.66 25.96 13.66 23.36 16.08 23.02 16.08 25.62"/>
  <polygon class="cls-1" points="8.45 25.14 7.69 23.4 7.69 20.8 8.45 22.54 8.45 25.14"/>
  <polygon class="cls-1" points="8.28 20.21 7.26 18 7.26 15.4 8.28 17.61 8.28 20.21"/>
  <polygon class="cls-1" points="7.3 22.47 6.54 20.73 6.54 18.13 7.3 19.87 7.3 22.47"/>
  <line class="cls-2" x1="7.77" y1="16.51" x2="7.77" y2="19.19"/>
  <polygon class="cls-1" points="4.93 12.07 3.91 9.86 3.91 7.26 4.93 9.47 4.93 12.07"/>
  <line class="cls-2" x1="4.42" y1="8.41" x2="4.42" y2="11.05"/>
  <polygon class="cls-1" points="1.08 22.6 -1.34 22.94 -1.34 22.16 1.08 21.82 1.08 22.6"/>
  <polygon class="cls-14" points="35.63 22.35 19.49 24.61 19.49 24 35.61 21.78 35.63 22.35"/>
  <polygon class="cls-5" points="19.49 19.21 19.52 21.55 35.63 19.26 35.63 16.89 19.49 19.21"/>
  <polygon class="cls-14" points="17.88 22.35 9.11 23.58 9.11 22.97 17.87 21.78 17.88 22.35"/>
  <polygon class="cls-14" points="19.49 24.61 17.87 22.39 17.87 21.78 19.47 24.04 19.49 24.61"/>
  <polygon class="cls-14" points="9.11 23.58 6.34 17 6.6 16.95 9.09 23.02 9.11 23.58"/>
  <polygon class="cls-14" points="4.51 12.76 3.15 9.37 3.15 8.76 4.76 12.74 4.51 12.76"/>
  <polygon class="cls-5" points="9.1 18.05 9.12 20.39 17.91 19.15 17.91 16.79 9.1 18.05"/>
  <polygon class="cls-5" points="17.91 16.79 17.91 19.15 19.52 21.55 19.49 19.21 17.91 16.79"/>
  <polygon class="cls-5" points="3.16 3.9 3.15 6.27 9.12 20.39 9.1 18.05 3.16 3.9"/>
  <polygon class="cls-7" points="23.39 -.66 22.18 -.46 22.13 7.01 23.34 6.81 23.39 -.66"/>
  <polygon class="cls-9" points="22.18 -.46 21.44 -1.85 21.39 5.41 22.13 7.01 22.18 -.46"/>
  <polygon class="cls-12" points="35.63 17.32 19.49 19.64 19.49 19.21 35.63 16.89 35.63 17.32"/>
  <polygon class="cls-12" points="19.49 19.64 17.91 17.21 17.91 16.79 19.49 19.21 19.49 19.64"/>
  <polygon class="cls-12" points="17.91 17.21 9.1 18.48 9.1 18.05 17.91 16.79 17.91 17.21"/>
  <polygon class="cls-12" points="9.1 18.48 3.16 4.33 3.16 3.9 9.1 18.05 9.1 18.48"/>
  <polygon class="cls-12" points="6.84 17.33 -28.27 22.33 -28.27 21.91 6.84 16.91 6.84 17.33"/>
</svg>