<?xml version="1.0" encoding="UTF-8"?>
<svg id="map" xmlns="http://www.w3.org/2000/svg" viewBox="0 0 107.16 76.59">
  <defs>
    <style>
      .cls-1, .cls-2 {
        stroke: #fff;
        stroke-miterlimit: 10;
        stroke-width: .15px;
      }

      .cls-1, .cls-3 {
        fill: #231f20;
      }

      .cls-4 {
        opacity: .2;
      }

      .cls-4, .cls-5, .cls-6, .cls-7, .cls-8, .cls-9, .cls-10, .cls-11, .cls-12, .cls-13, .cls-14, .cls-15, .cls-16, .cls-17, .cls-18, .cls-3, .cls-19, .cls-20 {
        stroke-width: 0px;
      }

      .cls-4, .cls-10 {
        fill: #000;
      }

      .cls-5 {
        fill: #525252;
      }

      .cls-6 {
        fill: #6b6b6b;
      }

      .cls-7 {
        fill: #8cb835;
      }

      .cls-8 {
        fill: #d9dad9;
      }

      .cls-2 {
        fill: none;
      }

      .cls-9 {
        fill: #999;
      }

      .cls-11 {
        fill: #b6b7b8;
      }

      .cls-12 {
        fill: #f2f2f2;
      }

      .cls-13 {
        fill: #9a6143;
      }

      .cls-14 {
        fill: #eceff0;
      }

      .cls-15 {
        fill: #a3a5a6;
      }

      .cls-16 {
        fill: #3f7fb7;
      }

      .cls-17 {
        fill: #fff;
      }

      .cls-18 {
        fill: #ced0cf;
      }

      .cls-19 {
        fill: #e5e5e5;
      }

      .cls-20 {
        fill: #8c573c;
      }
    </style>
  </defs>
  <path class="cls-16" d="M7.41-58.97c-29.17,1.36-297.8,23.06-344.95,49.52-54.34,30.49-44.77,99.72-38.67,153.31C-370.57,193.29,7.41-58.97,7.41-58.97Z"/>
  <path class="cls-7" d="M798.92,451.86c28.49-59.5-54.18-238.94-89.6-311.4-35.42-72.46-99.31-161.2-174.79-189.26-90.3-33.58-194.59-32.77-237.48-30.9-42.89,1.87-93.1,4.07-93.1,4.07L-29.86-56.55l-24.03,1.96s-56.16,2.4-75.69,30.97c-6.71,9.81-16.38,20.43-28.27,29.83-13.78,10.88-39.39,18.35-39.39,18.35l-29.13-9.37s-11.94-4.07-10.96-.9,18.31,12.58,18.44,15.56c.13,2.98-12.37,14.29-34.96,12.03-9.15-.92-21.33-3.28-33.48-4.18-23.56-1.75-47.15,5.09-59.36,13.57-10.35,7.18-32.9,9.16-32.9,9.16-6.44,38.33,5.76,106.07,11.91,142.45,5.14,30.4,21.38,65.17,46.03,86.84,28.13,24.72,57.57,26.63,91.86,23.23,7.15-.71,23.43-2.2,43.21-.85,13.92.95,48.06,18.99,102.01,9.5,59.09-10.4,97.23-53.48,116.74-56.98,113.83-20.43,169.77-26.66,210.8-11.19,35.96,13.56,71.64,69.79,94.2,112.05,14.69,27.52,19.82,34.68,41.29,57.21,40.42,42.4,156.79,80.32,230.79,87.01,74,6.69,162.07-.18,189.67-57.81Z"/>
  <path class="cls-9" d="M-80.12,346.25c5.6-11.89,6.52-30.33,2.48-49.33-2.11-9.88-.14-16.91,1.63-20.1,7.19-1.63,11.59-6.06,10.58-10.63,2.44-2.48,13.32-11.48,46.58-16.5l265.8-40.14c6.05,4.33,29.04,21.17,44.85,37.69,19.37,20.24,38.15,41.14,55.06,74.15l9-1.66c-17.2-33.56-36.25-54.77-55.9-75.3-14.43-15.08-34.13-30.01-42.89-36.41l99.41-15.01c5.75,3.16,24.7,13.99,30.86,22.56l.58.81c7.37,10.26,17.46,24.32,43.68,34.48,12.09,4.68,24.87,9.9,36.5,17.67,12.27,8.19,22.19,18.61,30.35,31.85,12.37,20.09,25.52,47.31,36.08,69.18,4.86,10.07,9.06,18.76,12.38,25.1,10.49,20.02,16.93,31.68,27.5,38.62,2.61,1.71,5.08,3.01,7.26,4.16,6.37,3.35,11.41,6,16.08,17.14l23.49,56.02,5.06.33-24.09-57.03c-5.02-11.97-10.81-15.02-17.51-18.54-2.19-1.15-4.46-2.34-6.9-3.95-9.91-6.51-16.22-17.94-26.51-37.59-3.31-6.32-7.5-14.99-12.35-25.04-10.58-21.91-23.75-49.19-36.18-69.37-18.17-29.5-41.85-40.5-68.66-50.89-25.05-9.7-34.42-22.76-41.96-33.25l-.59-.82c-5.92-8.24-22.17-17.99-29.76-22.27l29.6-4.47c2.38-.28,4.74-.58,7.03-.93,21.71-3.28,21.85-10.44,20.53-13.59-.19-.44-.56-1.36-1.08-2.62l10.58-1.35,4.96,12.21,7.69-.85-5.02-12.33,55.17-7.91-4.29-10.22-4.23,1.78,2.01,4.78-50.49,7.2-2.54-5.68-7.18,2.04,2.09,4.61-10.53,1.34c-3.88-9.49-10.49-25.68-13.44-32.72-4.06-9.67-22.65-10.64-28.9-9.7-6.25.94-24.67,3.73-34.21,5.17-4.56.69-7.68-1.29-9.86-3.94l-17.77-42.36c-1.83-10.9.05-28.92,18.8-33.07l8.13-1.23c21.55-3.25,53.86-.4,78.58,6.95,3.66,1.09,9.72,2.86,17.39,5.09,43.04,12.56,143.82,41.96,167.23,52.57,23.33,10.57,48.92,33.04,60.36,44.66,5.15,5.23,11.52,12.58,15.05,23.05,3.87,11.49,3.66,24.41-.66,39.51l9.28.95c9.93-34.75-3.1-53.73-15.57-66.39-3.25-3.3-32.62-32.62-62.79-46.29-24.15-10.94-121.84-39.45-168.79-53.14-7.65-2.23-13.7-4-17.33-5.08-26.97-8.02-61.15-10.98-85.05-7.37l-38.86,5.87-15.49-36.93c-4.51-10.75-21.41-20.64-39.32-23.01-18.29-2.42-34.79-.83-47.7,2.79l-7.15,1.71c-4.76,1.33-13.58,3.75-22.82,6.03l-2.99-7.12c6.41-2.14,9.91-6.68,8.03-11.15l-.39-.92,9.85-1.49-1.46-3.49-9.85,1.49-2.26-5.33,9.85-1.49-1.46-3.49-10.29,1.55c-.96-.83-2.72-2.02-4.83-2.92l-3.2-7.63-5.81.88,2.11,5.03c-2.2-.22-4.51-.18-6.81.16l-.56.08c-7.61,1.15-12.67,5.3-12.57,9.81l-10.18,1.54,1.46,3.49,9.74-1.47,1.99,4.74-9.96,1.5,1.46,3.49,9.96-1.5.39.92c1.78,4.25,7.9,7.18,14.81,7.51l3.39,8.08c-8.25,1.85-15.8,3.25-19.94,3.28-13.81.11-24.45-2.62-38.47-7.39-3.02-1.03-5.78-2.24-8.71-3.52-9.38-4.11-20-8.76-38.76-5.93L-30.17.12c-7.79,1.18-14.51,4.52-18.42,9.18-3.18,3.79-4.42,8.21-3.67,12.98l-2.37.36c-3.12.47-5.02,2.38-4.24,4.25l19.56,46.61c.78,1.87,3.97,3.01,7.09,2.54l1.78-.27,1.46,3.48-36.09,5.45c-1.61-1.43-4.26-2.16-6.97-1.75-2.3.35-4.12,1.44-5,3-.11.19-.2.39-.27.59l-52.16,7.88-9.22-21.97-55.55,8.39,25.96,61.87-41.3,6.24c-3.89.59-12.97-.99-18.54-2.36-.07-.74-.26-1.48-.57-2.23-2.69-6.41-13.56-10.31-24.24-8.69-10.68,1.61-17.18,8.14-14.49,14.54,2.69,6.41,13.56,10.31,24.24,8.69,6.12-.92,10.86-3.46,13.29-6.66,3.8.87,10.63,2.24,16.75,2.45.12,2.96.62,7.58,2.4,11.83.61,1.44,1.44,3.09,2.33,4.84,2.97,5.84,7.03,13.85,4.16,18.7-.33.56-.69,1.16-1.07,1.78-2.84,4.71-6.56,10.87-8.18,17.93-3.61.11-10.13.72-19.77,3.18-5.57,1.42-13.81,3.16-22.52,5.01-15.07,3.19-32.15,6.81-42.13,10.13-3.92,1.3-7.58,2.55-11.13,3.77-10.4,3.56-19.39,6.64-27.58,8.34-10.89,2.26-18.03,3.18-18.21,3.2l2.2,4.58c.18-.02,5.89-.99,16.94-3.29,8.47-1.76,17.58-4.88,28.13-8.49,3.54-1.21,7.19-2.46,11.09-3.76,9.74-3.23,26.68-6.82,41.63-9.99,8.76-1.86,17.04-3.61,22.71-5.05,8.55-2.18,14.48-2.83,17.92-3-.25,3.27.02,6.69,1.09,10.22,3.29,10.84,10.51,26.31,13.98,33.74.89,1.9,1.59,3.4,1.86,4.04.63,1.49,2.09,4.99,6.91,7.45,5.45,2.78,13.31,3.42,23.38,1.9l65-9.82,3.39,8.09c1.59,3.8,6.64,6.54,12.63,7.32-1.56,3.92-3.06,10.68-1,20.31,3.89,18.28,3.07,35.87-2.2,47.07l9.06,1.54ZM146.57-15.37l-4.36-10.4c-.97-2.32,1.38-4.67,5.24-5.26l.56-.08c3.86-.58,7.79.83,8.76,3.14l4.36,10.4c.97,2.32-1.38,4.67-5.24,5.26l-.56.08c-3.86.58-7.79-.83-8.76-3.14ZM188.25,129.26l-22.32,25.63-11.92,1.8-40.07-16.21,74.3-11.22ZM105.52,141.76l10.69,25.49,4.23-1.78-8.8-20.97,41.81,16.91,14.83-2.24,23.94-27.5,9.5,22.65,4.23-1.78-10.25-24.42,22.95-3.47,24.05,57.32-58.93,8.9-6.62-15.78-16.79,2.54,6.62,15.78-57.52,8.69-24.05-57.32,20.1-3.04ZM253.49,198.41c-.82-1.97-4.39-10.47-6.14-14.64l.93-.39-24.93-59.42,89.69-13.55,32.88,78.37-85.77,12.95c-2.79-.73-6.05-1.87-6.66-3.32ZM135.12,130.97l-20.46-48.76,175.43-26.49,20.46,48.76-175.43,26.49ZM85.19,80.84c-1.66-3.96-11.54-27.51-12.22-29.13-.75-1.78-.42-4.76,5.83-5.71,6.25-.94,30.1-4.55,30.1-4.55l2.9,6.91,9.7-1.47s.24-1.09,1.64-1.93c1.4-.84,4.28-.65,4.28-.65l2.98,7.1s1.56.39,2.39,2.37c.83,1.97,2.53,6.02,2.53,6.02l-1.64.25,1.12,2.66,1.97-.3,1.78,4.24-22.37,3.38,2.41,5.75-33.39,5.04ZM-35.54,11.46c2.58-3.07,6.62-5.22,11.54-5.96L7.41.88l9.04,21.55,4.23-1.78L12.09.17l40.16-6.19c14.12-2.13,21.24.99,30.26,4.94,3.03,1.33,6.17,2.7,9.69,3.9,15.33,5.21,32.25,10.42,47.55,10.89,8.84.28,21.6-.73,34.32-3.02l-.03.07c1.37.53,2.75,1.05,4.12,1.58,2.61,1,5.21,2,7.82,3,2.52.97,5,2.01,7.48,3.06,1.35.57,2.53,1.52,3.75,2.34l3.68,2.48c1.01.68,2.01,1.36,3.02,2.03l4.5-2.67-11.38-7.49,26.99-4.01.67-3.07-30,4.47c-1.32.2-2.78.15-4.02-.34-2.74-1.08-5.48-2.1-8.25-3.1-.03-.01-.07-.02-.1-.04,5.74-1.3,11.29-2.88,16.26-4.72l8.92-2.5c1.37-.38,2.68-.81,3.94-1.24,2.61-.64,5.46-1.27,7.49-1.53,1.31-.17,2.5-.28,3.59-.34l-.04.38c14.1,1.36,25.33,5.31,28.81,8.36.33.44,1.1,2.1,1.66,3.62l4.3-1.6c-.72-1.94-1.8-4.46-2.86-5.4-2.71-2.42-7.99-4.72-14.55-6.51.06-.12.11-.23.16-.33.57-1.14,3.25-.6,4.4-.35,1.15.25,5.84,1.43,6.21,1.06.12-.12.27-.36.42-.65,10.06,3.48,18.57,9.66,21.25,16.05l15.49,36.93-45.8,6.92c-.94-1.96-1.99-4.35-2.2-5.46-.46-2.34-2.22-10.57-2.3-10.92l-4.49.96c.02.09,1.83,8.54,2.28,10.84.27,1.38,1.16,3.51,1.97,5.29l-6.15.93-5.62-13.39c-1.48-3.54-7.58-3.75-10.13-3.67l.13,4.59c2.41-.07,5.18.39,5.8.95l5.13,12.23-44.28,6.65-2.47-6.02-4.95.9-33.52,4.91-12.83-30.59-4.77.72-1.37-3.26-66.4,10.13,16.69,39.79-22.83,3.45c-1-2-6.26-11.09-20.53-14.52-13.28-3.19-20.08-1.17-28.31-2.44-7.61-1.18-15.92-3.56-21.2-4.41l-2.9-6.84c7.82-1.18,41.95-6.4,41.95-6.4l-3.34-4.13s-34.73,5.29-40.45,6.16l-3.9-9.5c7.82-1.18,39.94-6.04,39.94-6.04l-1.87-4.41s-34.19,5.22-39.91,6.08l-6.21-14.68c-2.75-6.55-.72-11.02,1.46-13.62ZM-71.36,87.5c1.4-.21,2.57.16,3.07.49-.27.18-.75.39-1.44.5-1.41.21-2.59-.17-3.08-.49.27-.18.75-.4,1.45-.5ZM-141.54,77.54l16.38,39.05-46.19,6.98-16.38-39.05,46.19-6.98ZM-129.99,136.94l-5.91-14.09,12.57-1.9,5.91,14.09-12.57,1.9ZM-169.52,127.93l14.11-2.13,5.91,14.09-14.11,2.13-5.91-14.09ZM-245.48,153.44c-5.65.85-11.39-1.21-12.81-4.6-1.42-3.39,2.02-6.84,7.66-7.69,5.65-.85,11.39,1.21,12.81,4.6s-2.02,6.84-7.66,7.69ZM-104.29,256.46h0l-65,9.82c-15.67,2.37-17.67-2.41-18.86-5.26-.3-.72-.98-2.17-1.92-4.19-3.43-7.35-10.57-22.64-13.78-33.23-2.59-8.55.21-16.66,3.6-23.22,4.26-.47,8.57-1.69,9.08-3.09.09-.24.24-.68.42-1.26l40.67-.67,61.17-9.45-.69-4.54-60.86,9.41-38.89.64c.82-2.88,1.6-5.93,1.6-7.1,0-2.24-2.97-3.19-4.67-3.35-.96-.09-1.82-.51-2.5-1.1-1.1-3.5-2.88-7-4.48-10.16-.85-1.68-1.65-3.26-2.2-4.57-1.7-4.05-2.07-8.64-2.13-11.25l96.12-14.52-2.3-5.48-2.81.42-14.91-35.54,51.37-7.76c1.3,1.31,3.42,2.1,5.72,2.1.5,0,1-.04,1.51-.11,2.3-.35,4.12-1.44,5-3,.16-.29.29-.59.38-.89l36.51-5.51,4.62,11.01,13.83-2.09,14.91-2.25,9.98,23.78,3.3,2.86,1.38,3.29-5.04.76,1.92,4.57-8.11,1.23,2.24,5.34,15.13-2.29c9.93-1.5,7.83-6.51,6.94-8.64l-4.47-10.66,3-.45-2.65-6.32,6.31-.99,3.65-9.19c.1-.04.2-.07.3-.11l69.91-10.56,9.79,23.35-30.79,4.69,2.1,5,30.79-4.69,8.57,20.42-47.36,7.23-2.33-5.55-7.46,1.13,2.33,5.55L1.37,151.17l-2.03-4.83-2.63.4-7.53-17.96-4.93.75-4.14-22.64-39.39,5.54,1.1,5.73-8.52,2.64-4.09,22.61,23.52-3.55,5.75,13.72,11.02-1.66,1.61,3.84-43.42,6.56-1.49-3.55-12.83,1.94,1.15,2.73-4.22.64,6.07,14.47.5-.07.51,3.36,32.89-4.97-.69-4.54-25.79,3.89-2.73-6.5,9.15-1.38-.04-.09,18.55-2.8,2.8,6.68,4.23-1.78-2.35-5.61,41.15-6.21,2.8,6.68,4.23-1.78-2.35-5.61,48.75-7.36,2.32,5.54-46.35,7,.69,4.54,24.55-3.73,9.79,22.73,7.32-1.09-1-4.48-3.47.5-7.96-18.37,18.27-2.73,1.95,4.66,9.43-1.42-6.11-14.56,23.32-3.52,24.05,57.32-22.02,3.27-4.32-10.11-11.81,1.72,4.44,10.25-98.8,14.87-3.68-3.78-1.49-3.55-16.88,2.55,1.49,3.55,7.29-1.1c2.7.52,8.74,2.08,10.27,5.72,1.28,3.04.45,5.42-.86,7.19-4.44,2.68-10.6,5.23-17.59,6.29l-25.89,3.91s-8.42,1.1-16.29,2.29l-.56.08c-8.89,1.34-11.85,5.13-12.35,10.47ZM-80.15,271.7l-.56.08c-3.86.58-7.79-.83-8.76-3.14l-5.18-11.68c-.97-2.32,1.38-4.67,5.24-5.26h0c3.86-.58,8.35.74,9.32,3.06l5.18,11.68c.97,2.32-1.38,4.67-5.24,5.26ZM-68.28,259.13l-4.7-11.2,24.47-3.7c6.44-.97,13.06-3.29,18.62-6.53,2.59-1.5,4.77-3.1,6.43-4.68,1.4,3.35,2.71,6.46,3.11,7.42.52,1.23-1.2,2.83-2.96,4.09-24.85,3.98-38.17,10.12-44.98,14.58Z"/>
  <polygon class="cls-14" points="-34.59 68.07 -32.77 72.38 -35.03 72.71 -31.09 81.87 -32.09 81.95 -27.44 95.57 -26.37 95.42 -22.13 105.46 -17.94 104.85 -14.9 112.06 4.67 109.22 .47 99.26 2.19 99.01 -10.44 69.05 -11.52 69.21 -13.3 64.97 -34.59 68.07"/>
  <polygon class="cls-20" points="45.57 13.54 44.98 19.77 55.44 18.04 55.99 11.87 45.57 13.54"/>
  <polygon class="cls-1" points="49.44 19.03 48.26 19.21 48.55 16.28 49.69 16.12 49.44 19.03"/>
  <polygon class="cls-1" points="48.26 19.21 47.13 19.39 47.41 16.44 48.55 16.28 48.26 19.21"/>
  <polygon class="cls-1" points="47.13 19.39 45.99 19.56 46.27 16.6 47.41 16.44 47.13 19.39"/>
  <polygon class="cls-1" points="45.99 19.56 44.84 19.75 45.13 16.76 46.27 16.6 45.99 19.56"/>
  <line class="cls-1" x1="49.51" y1="17.98" x2="44.94" y2="18.76"/>
  <polygon class="cls-20" points="30.9 29.72 28.47 30.08 28.72 25.56 31.29 25.13 30.9 29.72"/>
  <polygon class="cls-13" points="31.6 31.32 27.8 22.5 28.16 14.08 29.94 21.12 31.89 26.37 31.6 31.32"/>
  <polygon class="cls-20" points="17.81 17.85 17.22 24.08 27.82 22.51 28.37 16.03 17.81 17.85"/>
  <polygon class="cls-13" points="16.83 28.1 15.04 24.38 15.07 11.5 17.81 17.85 16.83 28.1"/>
  <polygon class="cls-20" points="15.56 41.94 14.58 52.26 23.44 50.88 24.42 40.55 15.56 41.94"/>
  <polygon class="cls-20" points="37.25 44.42 15.16 47.8 16.37 36.58 37.72 33.05 37.25 44.42"/>
  <polygon class="cls-13" points="54.25 83.12 37.25 44.42 37.36 38.71 54.54 78.18 54.25 83.12"/>
  <polygon class="cls-20" points="140.39 28.04 133.14 29.16 132.25 27.27 121.99 29.09 121.83 30.91 55.11 41.21 55.41 36.27 122.22 25.88 121.21 23.54 124.85 22.97 133.6 17.13 134.15 18.91 141.37 17.78 140.39 28.04"/>
  <polygon class="cls-20" points="71.23 80.6 54.25 83.12 54.54 78.18 71.7 75.5 71.23 80.6"/>
  <polygon class="cls-13" points="14.58 52.19 6.74 34.32 6.77 21.45 15.56 41.94 14.58 52.19"/>
  <polygon class="cls-20" points="37.66 45.38 35.23 45.74 35.48 41.22 38.05 40.79 37.66 45.38"/>
  <polygon class="cls-13" points="35.23 45.74 34.77 44.75 34.79 39.62 35.48 41.22 35.23 45.74"/>
  <polygon class="cls-20" points="56.77 42.43 54.34 42.79 54.6 38.27 57.17 37.83 56.77 42.43"/>
  <polygon class="cls-19" points="34.88 39.52 29.69 40.34 24.31 27.87 29.5 27.06 34.88 39.52"/>
  <polygon class="cls-1" points="20.39 18.51 17.76 18.95 17.88 17.94 20.5 17.5 20.39 18.51"/>
  <polygon class="cls-1" points="23.01 18.07 20.39 18.51 20.5 17.5 23.13 17.06 23.01 18.07"/>
  <polygon class="cls-1" points="25.64 17.63 23.01 18.07 23.13 17.06 25.75 16.62 25.64 17.63"/>
  <polygon class="cls-1" points="28.18 17.21 25.64 17.63 25.75 16.62 28.29 16.19 28.18 17.21"/>
  <polygon class="cls-1" points="27.73 22.5 26.55 22.69 26.84 19.75 27.98 19.6 27.73 22.5"/>
  <polygon class="cls-1" points="26.55 22.69 25.41 22.86 25.7 19.91 26.84 19.76 26.55 22.69"/>
  <polygon class="cls-1" points="25.41 22.86 24.27 23.04 24.56 20.07 25.7 19.92 25.41 22.86"/>
  <polygon class="cls-1" points="24.27 23.04 23.12 23.23 23.42 20.23 24.56 20.08 24.27 23.04"/>
  <polygon class="cls-1" points="48.01 14.23 45.39 14.67 45.5 13.6 48.12 13.21 48.01 14.23"/>
  <polygon class="cls-1" points="50.64 13.79 48.01 14.23 48.12 13.21 50.75 12.77 50.64 13.79"/>
  <polygon class="cls-1" points="53.26 13.35 50.64 13.79 50.75 12.77 53.38 12.33 53.26 13.35"/>
  <polygon class="cls-1" points="55.8 12.92 53.26 13.35 53.38 12.33 55.92 11.91 55.8 12.92"/>
  <polygon class="cls-19" points="29.49 20.97 46.6 18.19 48.31 22.14 31.16 24.88 29.49 20.97"/>
  <line class="cls-1" x1="27.8" y1="21.46" x2="23.22" y2="22.24"/>
  <polygon class="cls-3" points="22.51 23.29 18.21 23.92 18.5 20.97 22.8 20.36 22.51 23.29"/>
  <polygon class="cls-3" points="54.59 18.16 50.29 18.87 50.58 15.92 54.88 15.23 54.59 18.16"/>
  <polygon class="cls-1" points="13.23 37.77 11.93 34.89 12.04 33.87 13.34 36.76 13.23 37.77"/>
  <polygon class="cls-1" points="10.93 32.67 9.65 29.68 9.76 28.66 11.04 31.65 10.93 32.67"/>
  <polygon class="cls-1" points="11.93 34.89 11.43 33.78 11.54 32.76 12.04 33.87 11.93 34.89"/>
  <polygon class="cls-1" points="11.43 33.78 10.93 32.67 11.04 31.65 11.54 32.76 11.43 33.78"/>
  <polygon class="cls-1" points="11.82 35.91 11.31 34.8 11.43 33.78 11.93 34.89 11.82 35.91"/>
  <polygon class="cls-1" points="11.31 34.8 10.81 33.69 10.93 32.67 11.43 33.78 11.31 34.8"/>
  <polygon class="cls-1" points="11.7 36.92 11.2 35.81 11.31 34.8 11.82 35.91 11.7 36.92"/>
  <polygon class="cls-1" points="11.2 35.81 10.7 34.7 10.81 33.68 11.31 34.8 11.2 35.81"/>
  <g>
    <polygon class="cls-12" points="13.42 49.56 12.83 48.22 13.17 44.12 13.79 45.49 13.42 49.56"/>
    <polygon class="cls-12" points="12.72 47.96 12.11 46.61 12.44 42.46 13.07 43.84 12.72 47.96"/>
    <polygon class="cls-12" points="11.99 46.3 11.38 44.95 11.7 40.75 12.32 42.14 11.99 46.3"/>
    <polygon class="cls-12" points="11.27 44.67 10.66 43.31 10.96 39.06 11.59 40.46 11.27 44.67"/>
    <polygon class="cls-12" points="10.57 43.09 9.96 41.72 10.25 37.42 10.88 38.83 10.57 43.09"/>
    <polygon class="cls-12" points="9.85 41.46 9.24 40.08 9.5 35.73 10.14 37.15 9.85 41.46"/>
    <polygon class="cls-12" points="9.11 39.77 8.49 38.38 8.74 33.98 9.38 35.4 9.11 39.77"/>
    <polygon class="cls-12" points="8.38 38.1 7.76 36.71 7.99 32.26 8.63 33.69 8.38 38.1"/>
  </g>
  <g>
    <polygon class="cls-1" points="7.34 25.15 6.79 24.05 6.81 21.83 7.37 22.91 7.34 25.15"/>
    <polygon class="cls-1" points="7.31 27.32 6.77 26.2 6.79 24.05 7.34 25.15 7.31 27.32"/>
    <polygon class="cls-1" points="7.28 29.42 6.75 28.27 6.77 26.19 7.31 27.32 7.28 29.42"/>
    <polygon class="cls-1" points="7.25 31.45 6.73 30.29 6.75 28.27 7.28 29.42 7.25 31.45"/>
    <polygon class="cls-1" points="7.23 33.42 6.72 32.24 6.73 30.29 7.25 31.45 7.23 33.42"/>
    <polygon class="cls-1" points="7.2 35.32 6.7 34.13 6.72 32.23 7.23 33.42 7.2 35.32"/>
  </g>
  <g>
    <polygon class="cls-1" points="15.29 43.71 14.81 42.72 14.98 40.74 15.47 41.75 15.29 43.71"/>
    <polygon class="cls-1" points="15.12 45.58 14.65 44.59 14.81 42.72 15.29 43.72 15.12 45.58"/>
    <polygon class="cls-1" points="14.95 47.36 14.5 46.37 14.65 44.59 15.12 45.58 14.95 47.36"/>
    <polygon class="cls-1" points="14.79 49.04 14.35 48.07 14.5 46.37 14.95 47.36 14.79 49.04"/>
    <polygon class="cls-1" points="14.64 50.65 14.21 49.68 14.35 48.07 14.79 49.04 14.64 50.65"/>
    <polygon class="cls-1" points="14.51 51.98 14.1 51.02 14.21 49.68 14.64 50.65 14.51 51.98"/>
  </g>
  <polygon class="cls-12" points="67.22 39.38 64.74 39.73 65.16 35.45 67.65 35.09 67.22 39.38"/>
  <polygon class="cls-12" points="72.93 38.47 70.45 38.83 70.87 34.54 73.36 34.18 72.93 38.47"/>
  <polygon class="cls-12" points="78.3 37.68 75.82 38.04 76.24 33.75 78.73 33.39 78.3 37.68"/>
  <polygon class="cls-12" points="83.11 36.95 80.63 37.3 81.04 33.02 83.53 32.66 83.11 36.95"/>
  <polygon class="cls-12" points="51.03 75.89 50.43 74.54 50.74 70.34 51.37 71.73 51.03 75.89"/>
  <polygon class="cls-12" points="49.62 72.69 49.01 71.31 49.29 67.02 49.93 68.42 49.62 72.69"/>
  <polygon class="cls-12" points="48.21 69.47 47.61 68.11 47.92 63.91 48.55 65.31 48.21 69.47"/>
  <polygon class="cls-12" points="46.8 66.26 46.19 64.89 46.47 60.59 47.11 62 46.8 66.26"/>
  <polygon class="cls-1" points="28.01 45.87 26.83 46.05 27.5 39.18 28.54 39.77 28.01 45.87"/>
  <polygon class="cls-1" points="29.15 45.71 27.97 45.9 28.54 39.77 29.62 40.38 29.15 45.71"/>
  <line class="cls-1" x1="29.56" y1="41.38" x2="27.26" y2="41.76"/>
  <polygon class="cls-4" points="15.56 41.94 15.38 43.61 24.31 42.34 24.42 40.55 15.56 41.94"/>
  <polygon class="cls-4" points="6.72 21.46 6.69 23.15 15.38 43.61 15.56 41.94 6.72 21.46"/>
  <polygon class="cls-4" points="17.81 17.85 17.63 19.52 28.26 17.82 28.37 16.03 17.81 17.85"/>
  <polygon class="cls-4" points="15.07 11.5 15.04 13.2 17.63 19.52 17.81 17.85 15.07 11.5"/>
  <polygon class="cls-4" points="45.4 13.51 45.25 15.36 55.88 13.66 55.99 11.87 45.4 13.51"/>
  <polygon class="cls-19" points="53.25 5.52 55.99 11.87 17.81 17.85 15.07 11.5 53.25 5.52"/>
  <polygon class="cls-18" points="45.53 13.35 46.6 18.19 48.33 22.18 31.17 24.86 29.49 20.97 28.37 16.03 45.53 13.35"/>
  <polygon class="cls-18" points="44.79 11.73 45.53 13.35 28.37 16.03 27.59 14.43 44.79 11.73"/>
  <polygon class="cls-4" points="28.37 16.03 28.26 17.82 29.31 22.64 29.49 20.97 28.37 16.03"/>
  <polygon class="cls-4" points="29.49 20.97 29.31 22.64 31.04 26.59 31.22 24.91 29.49 20.97"/>
  <polygon class="cls-19" points="54.01 33.84 37.07 36.49 32.02 24.76 48.89 22.22 54.01 33.84"/>
  <polygon class="cls-8" points="32.08 24.47 28.72 25.56 35.48 41.22 37.2 36.46 32.08 24.47"/>
  <g>
    <g>
      <g>
        <polygon class="cls-5" points="39.37 27.71 42.94 27.62 40.76 31.19 39.37 27.71"/>
        <path class="cls-17" d="M42.83,27.69l-2.05,3.37-1.29-3.22,3.34-.15M43.04,27.56l-3.72.17,1.44,3.59,2.29-3.76h0Z"/>
      </g>
      <g>
        <polygon class="cls-10" points="43.16 27.57 45.37 26.64 46.66 30.04 43.16 27.57"/>
        <path class="cls-17" d="M45.29,26.74l1.24,3.14-3.25-2.29,2-.85M45.35,26.58l-2.31.98,3.74,2.64-1.43-3.62h0Z"/>
      </g>
      <g>
        <polygon class="cls-6" points="43.09 27.59 46.64 30.17 40.87 31.23 43.09 27.59"/>
        <path class="cls-17" d="M43.08,27.73l3.41,2.41-5.5,1.02,2.09-3.42M43.04,27.56l-2.29,3.76,6.03-1.12-3.74-2.64h0Z"/>
      </g>
      <g>
        <polygon class="cls-10" points="44.82 26.74 43.02 27.51 40.13 27.63 44.82 26.74"/>
        <path class="cls-17" d="M44.29,26.9l-1.28.54-2.06.09,3.33-.63M45.35,26.58l-6.03,1.15,3.72-.17,2.31-.98h0Z"/>
      </g>
    </g>
    <polyline class="cls-2" points="43.84 30.73 43.04 27.56 39.92 29.24"/>
    <polyline class="cls-2" points="42.49 30.99 42.04 29.19 40.29 30.18"/>
    <polyline class="cls-2" points="39.67 28.62 41.41 27.63 41.33 27.35"/>
    <polyline class="cls-2" points="45.12 30.5 44.67 28.71 46.26 28.92"/>
    <polyline class="cls-2" points="45.64 27.34 44.04 27.13 43.96 26.83"/>
    <path class="cls-2" d="M45.84,27.83l-2.8-.27s-.2-.51-.2-.51"/>
  </g>
  <polygon class="cls-15" points="32.08 24.47 28.72 25.56 50.41 22.18 48.65 21.88 32.08 24.47"/>
  <polygon class="cls-4" points="22.6 36.34 22.42 38.01 29.54 42.05 29.69 40.34 22.6 36.34"/>
  <polygon class="cls-4" points="29.69 40.34 29.54 42.05 34.77 41.31 34.88 39.52 29.69 40.34"/>
  <polygon class="cls-8" points="29.69 40.34 22.6 36.34 17.22 23.88 24.31 27.87 29.69 40.34"/>
  <polygon class="cls-19" points="24.42 40.55 15.56 41.94 6.72 21.46 15.58 20.07 24.42 40.55"/>
  <polygon class="cls-8" points="22.6 36.34 20.17 36.68 14.79 24.22 17.22 23.88 22.6 36.34"/>
  <polygon class="cls-4" points="34.88 39.52 34.77 41.31 35.41 42.74 35.48 41.22 34.88 39.52"/>
  <polygon class="cls-4" points="35.48 41.22 35.41 42.74 37.92 42.41 38.04 40.62 35.48 41.22"/>
  <polygon class="cls-4" points="38.04 40.62 37.92 42.41 54.47 79.7 54.54 78.18 38.04 40.62"/>
  <polygon class="cls-4" points="54.54 78.18 54.47 79.7 71.56 77.08 71.7 75.5 54.54 78.18"/>
  <polygon class="cls-4" points="54.6 38.27 54.53 39.79 57.04 39.46 57.17 37.83 54.6 38.27"/>
  <polygon class="cls-4" points="55.97 36.21 55.82 37.93 122.11 27.67 122.22 25.88 55.97 36.21"/>
  <polygon class="cls-19" points="55.21 38.1 71.7 75.5 54.54 78.18 38.05 40.79 55.21 38.1"/>
  <polygon class="cls-18" points="37.2 36.46 35.48 41.22 57.25 37.82 53.97 33.85 37.2 36.46"/>
  <polygon class="cls-11" points="20.15 37.17 14.77 24.71 14.79 24.22 20.17 36.68 20.15 37.17"/>
  <polygon class="cls-11" points="22.82 36.8 20.15 37.17 20.17 36.68 22.6 36.34 22.82 36.8"/>
  <polygon class="cls-11" points="28.37 16.19 28.21 16.22 27.56 14.92 27.59 14.43 28.38 16.03 28.37 16.19"/>
  <polygon class="cls-19" points="122.22 25.88 56.31 36.18 50.93 23.71 116.84 13.42 122.22 25.88"/>
  <polygon class="cls-11" points="48.65 21.88 50.41 22.18 57.17 37.83 53.88 33.86 48.65 21.88"/>
</svg>