<?xml version="1.0" encoding="UTF-8"?>
<svg id="map" xmlns="http://www.w3.org/2000/svg" viewBox="0 0 53.84 23.41">
  <defs>
    <style>
      .cls-1 {
        fill: #c0bbb9;
      }

      .cls-1, .cls-2, .cls-3, .cls-4, .cls-5, .cls-6, .cls-7, .cls-8, .cls-9, .cls-10, .cls-11, .cls-12 {
        stroke-width: 0px;
      }

      .cls-2 {
        fill: #ddcba3;
      }

      .cls-3 {
        fill: #605e5f;
      }

      .cls-13 {
        fill: #231f20;
        stroke: #fff;
        stroke-miterlimit: 10;
        stroke-width: .15px;
      }

      .cls-4 {
        fill: #000;
        opacity: .2;
      }

      .cls-5 {
        fill: #8cb835;
      }

      .cls-6 {
        fill: #7d4e34;
      }

      .cls-7 {
        fill: #999;
      }

      .cls-8 {
        fill: #515051;
      }

      .cls-9 {
        fill: #9a6143;
      }

      .cls-10 {
        fill: #fff;
      }

      .cls-11 {
        fill: #e5e5e5;
      }

      .cls-12 {
        fill: #8c573c;
      }
    </style>
  </defs>
  <path class="cls-5" d="M583.75,455.27c28.49-59.5-54.18-238.94-89.6-311.4-35.42-72.46-99.31-161.2-174.79-189.26-90.3-33.58-194.59-32.77-237.48-30.9-42.89,1.87-93.1,4.07-93.1,4.07l-233.81,19.08-24.03,1.96s-56.16,2.4-75.69,30.97c-6.71,9.81-16.38,20.43-28.27,29.83-13.78,10.88-39.39,18.35-39.39,18.35l-29.13-9.37s-11.94-4.07-10.96-.9,18.31,12.58,18.44,15.56c.13,2.98-12.37,14.29-34.96,12.03-9.15-.92-21.33-3.28-33.48-4.18-23.56-1.75-47.15,5.09-59.36,13.57-10.35,7.18-32.9,9.16-32.9,9.16-6.44,38.33,5.76,106.07,11.91,142.45,5.14,30.4,21.38,65.17,46.03,86.84,28.13,24.72,57.57,26.63,91.86,23.23,7.15-.71,23.43-2.2,43.21-.85,13.92.95,48.06,18.99,102.01,9.5,59.09-10.4,97.23-53.48,116.74-56.98,113.83-20.43,169.77-26.66,210.8-11.19,35.96,13.56,71.64,69.79,94.2,112.05,14.69,27.52,19.82,34.68,41.29,57.21,40.42,42.4,156.79,80.32,230.79,87.01,74,6.69,162.07-.18,189.67-57.81Z"/>
  <path class="cls-7" d="M-295.28,349.67c5.6-11.89,6.52-30.33,2.48-49.33-2.11-9.88-.14-16.91,1.63-20.1,7.19-1.63,11.59-6.06,10.58-10.63,2.44-2.48,13.32-11.48,46.58-16.5L31.78,212.97c6.05,4.33,29.04,21.17,44.85,37.69,19.37,20.24,38.15,41.14,55.06,74.15l9-1.66c-17.2-33.56-36.25-54.77-55.9-75.3-14.43-15.08-34.13-30.01-42.89-36.41l99.41-15.01c5.75,3.16,24.7,13.99,30.86,22.56l.58.81c7.37,10.26,17.46,24.32,43.68,34.48,12.09,4.68,24.87,9.9,36.5,17.67,12.27,8.19,22.19,18.61,30.35,31.85,12.37,20.09,25.52,47.31,36.08,69.18,4.86,10.07,9.06,18.76,12.38,25.1,10.49,20.02,16.93,31.68,27.5,38.62,2.61,1.71,5.08,3.01,7.26,4.16,6.37,3.35,11.41,6,16.08,17.14l23.49,56.02,5.06.33-24.09-57.03c-5.02-11.97-10.81-15.02-17.51-18.54-2.19-1.15-4.46-2.34-6.9-3.95-9.91-6.51-16.22-17.94-26.51-37.59-3.31-6.32-7.5-14.99-12.35-25.04-10.58-21.91-23.75-49.19-36.18-69.37-18.17-29.5-41.85-40.5-68.66-50.89-25.05-9.7-34.42-22.76-41.96-33.25l-.59-.82c-5.92-8.24-22.17-17.99-29.76-22.27l29.6-4.47c2.38-.28,4.74-.58,7.03-.93,21.71-3.28,21.85-10.44,20.53-13.59-.19-.44-.56-1.36-1.08-2.62l10.58-1.35,4.96,12.21,7.69-.85-5.02-12.33,55.17-7.91-4.29-10.22-4.23,1.78,2.01,4.78-50.49,7.2-2.54-5.68-7.18,2.04,2.09,4.61-10.53,1.34c-3.88-9.49-10.49-25.68-13.44-32.72-4.06-9.67-22.65-10.64-28.9-9.7-6.25.94-24.67,3.73-34.21,5.17-4.56.69-7.68-1.29-9.86-3.94l-17.77-42.36c-1.83-10.9.05-28.92,18.8-33.07l8.13-1.23c21.55-3.25,53.86-.4,78.58,6.95,3.66,1.09,9.72,2.86,17.39,5.09,43.04,12.56,143.82,41.96,167.23,52.57,23.33,10.57,48.92,33.04,60.36,44.66,5.15,5.23,11.52,12.58,15.05,23.05,3.87,11.49,3.66,24.41-.66,39.51l9.28.95c9.93-34.75-3.1-53.73-15.57-66.39-3.25-3.3-32.62-32.62-62.79-46.29-24.15-10.94-121.84-39.45-168.79-53.14-7.65-2.23-13.7-4-17.33-5.08-26.97-8.02-61.15-10.98-85.05-7.37l-38.86,5.87-15.49-36.93C62.52,4.48,45.61-5.41,27.71-7.78c-18.29-2.42-34.79-.83-47.7,2.79l-7.15,1.71c-4.76,1.33-13.58,3.75-22.82,6.03l-2.99-7.12c6.41-2.14,9.91-6.68,8.03-11.15l-.39-.92,9.85-1.49-1.46-3.49-9.85,1.49-2.26-5.33,9.85-1.49-1.46-3.49-10.29,1.55c-.96-.83-2.72-2.02-4.83-2.92l-3.2-7.63-5.81.88,2.11,5.03c-2.2-.22-4.51-.18-6.81.16l-.56.08c-7.61,1.15-12.67,5.3-12.57,9.81l-10.18,1.54,1.46,3.49,9.74-1.47,1.99,4.74-9.96,1.5,1.46,3.49,9.96-1.5.39.92c1.78,4.25,7.9,7.18,14.81,7.51l3.39,8.08c-8.25,1.85-15.8,3.25-19.94,3.28-13.81.11-24.45-2.62-38.47-7.39-3.02-1.03-5.78-2.24-8.71-3.52-9.38-4.11-20-8.76-38.76-5.93L-245.33,3.53c-7.79,1.18-14.51,4.52-18.42,9.18-3.18,3.79-4.42,8.21-3.67,12.98l-2.37.36c-3.12.47-5.02,2.38-4.24,4.25l19.56,46.61c.78,1.87,3.97,3.01,7.09,2.54l1.78-.27,1.46,3.48-36.09,5.45c-1.61-1.43-4.26-2.16-6.97-1.75-2.3.35-4.12,1.44-5,3-.11.19-.2.39-.27.59l-52.16,7.88-9.22-21.97-55.55,8.39,25.96,61.87-41.3,6.24c-3.89.59-12.97-.99-18.54-2.36-.07-.74-.26-1.48-.57-2.23-2.69-6.41-13.56-10.31-24.24-8.69-10.68,1.61-17.18,8.14-14.49,14.54,2.69,6.41,13.56,10.31,24.24,8.69,6.12-.92,10.86-3.46,13.29-6.66,3.8.87,10.63,2.24,16.75,2.45.12,2.96.62,7.58,2.4,11.83.61,1.44,1.44,3.09,2.33,4.84,2.97,5.84,7.03,13.85,4.16,18.7-.33.56-.69,1.16-1.07,1.78-2.84,4.71-6.56,10.87-8.18,17.93-3.61.11-10.13.72-19.77,3.18-5.57,1.42-13.81,3.16-22.52,5.01-15.07,3.19-32.15,6.81-42.13,10.13-3.92,1.3-7.58,2.55-11.13,3.77-10.4,3.56-19.39,6.64-27.58,8.34-10.89,2.26-18.03,3.18-18.21,3.2l2.2,4.58c.18-.02,5.89-.99,16.94-3.29,8.47-1.76,17.58-4.88,28.13-8.49,3.54-1.21,7.19-2.46,11.09-3.76,9.74-3.23,26.68-6.82,41.63-9.99,8.76-1.86,17.04-3.61,22.71-5.05,8.55-2.18,14.48-2.83,17.92-3-.25,3.27.02,6.69,1.09,10.22,3.29,10.84,10.51,26.31,13.98,33.74.89,1.9,1.59,3.4,1.86,4.04.63,1.49,2.09,4.99,6.91,7.45,5.45,2.78,13.31,3.42,23.38,1.9l65-9.82,3.39,8.09c1.59,3.8,6.64,6.54,12.63,7.32-1.56,3.92-3.06,10.68-1,20.31,3.89,18.28,3.07,35.87-2.2,47.07l9.06,1.54ZM-68.6-11.95l-4.36-10.4c-.97-2.32,1.38-4.67,5.24-5.26l.56-.08c3.86-.58,7.79.83,8.76,3.14l4.36,10.4c.97,2.32-1.38,4.67-5.24,5.26l-.56.08c-3.86.58-7.79-.83-8.76-3.14ZM-26.92,132.68l-22.32,25.63-11.92,1.8-40.07-16.21,74.3-11.22ZM-109.65,145.17l10.69,25.49,4.23-1.78-8.8-20.97,41.81,16.91,14.83-2.24,23.94-27.5,9.5,22.65,4.23-1.78-10.25-24.42,22.95-3.47,24.05,57.32-58.93,8.9-6.62-15.78-16.79,2.54,6.62,15.78-57.52,8.69-24.05-57.32,20.1-3.04ZM38.32,201.83c-.82-1.97-4.39-10.47-6.14-14.64l.93-.39-24.93-59.42,89.69-13.55,32.88,78.37-85.77,12.95c-2.79-.73-6.05-1.87-6.66-3.32ZM-80.05,134.39l-20.46-48.76,175.43-26.49,20.46,48.76-175.43,26.49ZM-129.98,84.25c-1.66-3.96-11.54-27.51-12.22-29.13-.75-1.78-.42-4.76,5.83-5.71,6.25-.94,30.1-4.55,30.1-4.55l2.9,6.91,9.7-1.47s.24-1.09,1.64-1.93c1.4-.84,4.28-.65,4.28-.65l2.98,7.1s1.56.39,2.39,2.37c.83,1.97,2.53,6.02,2.53,6.02l-1.64.25,1.12,2.66,1.97-.3,1.78,4.24-22.37,3.38,2.41,5.75-33.39,5.04ZM-250.71,14.88c2.58-3.07,6.62-5.22,11.54-5.96l31.41-4.62,9.04,21.55,4.23-1.78-8.59-20.48,40.16-6.19c14.12-2.13,21.24.99,30.26,4.94,3.03,1.33,6.17,2.7,9.69,3.9,15.33,5.21,32.25,10.42,47.55,10.89,8.84.28,21.6-.73,34.32-3.02l-.03.07c1.37.53,2.75,1.05,4.12,1.58,2.61,1,5.21,2,7.82,3,2.52.97,5,2.01,7.48,3.06,1.35.57,2.53,1.52,3.75,2.34l3.68,2.48c1.01.68,2.01,1.36,3.02,2.03l4.5-2.67-11.38-7.49,26.99-4.01.67-3.07-30,4.47c-1.32.2-2.78.15-4.02-.34-2.74-1.08-5.48-2.1-8.25-3.1-.03-.01-.07-.02-.1-.04,5.74-1.3,11.29-2.88,16.26-4.72l8.92-2.5c1.37-.38,2.68-.81,3.94-1.24,2.61-.64,5.46-1.27,7.49-1.53,1.31-.17,2.5-.28,3.59-.34l-.04.38c14.1,1.36,25.33,5.31,28.81,8.36.33.44,1.1,2.1,1.66,3.62l4.3-1.6c-.72-1.94-1.8-4.46-2.86-5.4-2.71-2.42-7.99-4.72-14.55-6.51.06-.12.11-.23.16-.33.57-1.14,3.25-.6,4.4-.35,1.15.25,5.84,1.43,6.21,1.06.12-.12.27-.36.42-.65,10.06,3.48,18.57,9.66,21.25,16.05l15.49,36.93-45.8,6.92c-.94-1.96-1.99-4.35-2.2-5.46-.46-2.34-2.22-10.57-2.3-10.92l-4.49.96c.02.09,1.83,8.54,2.28,10.84.27,1.38,1.16,3.51,1.97,5.29l-6.15.93-5.62-13.39c-1.48-3.54-7.58-3.75-10.13-3.67l.13,4.59c2.41-.07,5.18.39,5.8.95l5.13,12.23-44.28,6.65-2.47-6.02-4.95.9-33.52,4.91-12.83-30.59-4.77.72-1.37-3.26-66.4,10.13,16.69,39.79-22.83,3.45c-1-2-6.26-11.09-20.53-14.52-13.28-3.19-20.08-1.17-28.31-2.44-7.61-1.18-15.92-3.56-21.2-4.41l-2.9-6.84c7.82-1.18,41.95-6.4,41.95-6.4l-3.34-4.13s-34.73,5.29-40.45,6.16l-3.9-9.5c7.82-1.18,39.94-6.04,39.94-6.04l-1.87-4.41s-34.19,5.22-39.91,6.08l-6.21-14.68c-2.75-6.55-.72-11.02,1.46-13.62ZM-286.52,90.92c1.4-.21,2.57.16,3.07.49-.27.18-.75.39-1.44.5-1.41.21-2.59-.17-3.08-.49.27-.18.75-.4,1.45-.5ZM-356.7,80.95l16.38,39.05-46.19,6.98-16.38-39.05,46.19-6.98ZM-345.15,140.36l-5.91-14.09,12.57-1.9,5.91,14.09-12.57,1.9ZM-384.68,131.34l14.11-2.13,5.91,14.09-14.11,2.13-5.91-14.09ZM-460.64,156.86c-5.65.85-11.39-1.21-12.81-4.6-1.42-3.39,2.02-6.84,7.66-7.69,5.65-.85,11.39,1.21,12.81,4.6s-2.02,6.84-7.66,7.69ZM-319.45,259.87h0l-65,9.82c-15.67,2.37-17.67-2.41-18.86-5.26-.3-.72-.98-2.17-1.92-4.19-3.43-7.35-10.57-22.64-13.78-33.23-2.59-8.55.21-16.66,3.6-23.22,4.26-.47,8.57-1.69,9.08-3.09.09-.24.24-.68.42-1.26l40.67-.67,61.17-9.45-.69-4.54-60.86,9.41-38.89.64c.82-2.88,1.6-5.93,1.6-7.1,0-2.24-2.97-3.19-4.67-3.35-.96-.09-1.82-.51-2.5-1.1-1.1-3.5-2.88-7-4.48-10.16-.85-1.68-1.65-3.26-2.2-4.57-1.7-4.05-2.07-8.64-2.13-11.25l96.12-14.52-2.3-5.48-2.81.42-14.91-35.54,51.37-7.76c1.3,1.31,3.42,2.1,5.72,2.1.5,0,1-.04,1.51-.11,2.3-.35,4.12-1.44,5-3,.16-.29.29-.59.38-.89l36.51-5.51,4.62,11.01,13.83-2.09,14.91-2.25,9.98,23.78,3.3,2.86,1.38,3.29-5.04.76,1.92,4.57-8.11,1.23,2.24,5.34,15.13-2.29c9.93-1.5,7.83-6.51,6.94-8.64l-4.47-10.66,3-.45-2.65-6.32,6.31-.99,3.65-9.19c.1-.04.2-.07.3-.11l69.91-10.56,9.79,23.35-30.79,4.69,2.1,5,30.79-4.69,8.57,20.42-47.36,7.23-2.33-5.55-7.46,1.13,2.33,5.55-74.25,11.14-2.03-4.83-2.63.4-7.53-17.96-4.93.75-4.14-22.64-39.39,5.54,1.1,5.73-8.52,2.64-4.09,22.61,23.52-3.55,5.75,13.72,11.02-1.66,1.61,3.84-43.42,6.56-1.49-3.55-12.83,1.94,1.15,2.73-4.22.64,6.07,14.47.5-.07.51,3.36,32.89-4.97-.69-4.54-25.79,3.89-2.73-6.5,9.15-1.38-.04-.09,18.55-2.8,2.8,6.68,4.23-1.78-2.35-5.61,41.15-6.21,2.8,6.68,4.23-1.78-2.35-5.61,48.75-7.36,2.32,5.54-46.35,7,.69,4.54,24.55-3.73,9.79,22.73,7.32-1.09-1-4.48-3.47.5-7.96-18.37,18.27-2.73,1.95,4.66,9.43-1.42-6.11-14.56,23.32-3.52,24.05,57.32-22.02,3.27-4.32-10.11-11.81,1.72,4.44,10.25-98.8,14.87-3.68-3.78-1.49-3.55-16.88,2.55,1.49,3.55,7.29-1.1c2.7.52,8.74,2.08,10.27,5.72,1.28,3.04.45,5.42-.86,7.19-4.44,2.68-10.6,5.23-17.59,6.29l-25.89,3.91s-8.42,1.1-16.29,2.29l-.56.08c-8.89,1.34-11.85,5.13-12.35,10.47ZM-295.32,275.11l-.56.08c-3.86.58-7.79-.83-8.76-3.14l-5.18-11.68c-.97-2.32,1.38-4.67,5.24-5.26h0c3.86-.58,8.35.74,9.32,3.06l5.18,11.68c.97,2.32-1.38,4.67-5.24,5.26ZM-283.44,262.55l-4.7-11.2,24.47-3.7c6.44-.97,13.06-3.29,18.62-6.53,2.59-1.5,4.77-3.1,6.43-4.68,1.4,3.35,2.71,6.46,3.11,7.42.52,1.23-1.2,2.83-2.96,4.09-24.85,3.98-38.17,10.12-44.98,14.58Z"/>
  <polygon class="cls-8" points="-7.76 22.92 -14.04 25.23 -8.31 37.51 -10.09 39.17 1.57 46.47 -7.76 22.92"/>
  <g>
    <polygon class="cls-11" points="51.9 50.25 43.21 30.1 43.41 21.83 52.1 41.97 51.9 50.25"/>
    <polygon class="cls-7" points="43.37 24.46 52.05 44.27 52.1 41.97 43.41 21.83 43.37 24.46"/>
    <g>
      <polygon class="cls-3" points="52.1 41.97 49.63 25.14 47.11 18.72 43.41 21.83 52.1 41.97"/>
      <polygon class="cls-8" points="49.69 25.38 52.99 25.78 50.8 20.72 47.11 18.72 49.69 25.38"/>
      <polygon class="cls-3" points="52.1 41.97 58.32 38.49 51.79 23.36 45.57 26.85 52.1 41.97"/>
      <polygon class="cls-8" points="58.32 38.49 64.54 40.11 58.01 24.99 51.79 23.36 58.32 38.49"/>
    </g>
  </g>
  <g>
    <polygon class="cls-12" points="6.25 24.78 49.27 17.82 49.27 9.78 6.25 16.43 6.25 24.78"/>
    <polygon class="cls-6" points="14.47 15.03 14.47 23.38 13.17 23.62 13.17 15.27 14.47 15.03"/>
    <polygon class="cls-12" points="14.3 15.17 14.28 23.31 13.4 23.59 13.4 15.24 14.3 15.17"/>
    <polygon class="cls-6" points="20.1 14.15 20.1 22.5 18.8 22.74 18.8 14.39 20.1 14.15"/>
    <polygon class="cls-12" points="19.93 14.29 19.9 22.43 19.02 22.71 19.02 14.36 19.93 14.29"/>
    <polygon class="cls-6" points="25.72 13.19 25.72 21.54 24.42 21.78 24.42 13.43 25.72 13.19"/>
    <polygon class="cls-12" points="25.55 13.33 25.53 21.47 24.65 21.75 24.65 13.4 25.55 13.33"/>
    <polygon class="cls-6" points="31.37 12.26 31.37 20.61 30.07 20.85 30.07 12.5 31.37 12.26"/>
    <polygon class="cls-12" points="31.2 12.4 31.18 20.54 30.3 20.82 30.3 12.47 31.2 12.4"/>
    <polygon class="cls-6" points="8.42 16.05 8.42 24.39 7.12 24.63 7.12 16.29 8.42 16.05"/>
    <polygon class="cls-12" points="8.25 16.19 8.26 24.24 7.35 24.61 7.35 16.26 8.25 16.19"/>
    <g>
      <polygon class="cls-13" points="12.87 18.95 9.16 19.56 9.16 16.81 12.87 16.2 12.87 18.95"/>
      <polygon class="cls-13" points="12.87 23.02 9.16 23.64 9.16 20.79 12.87 20.18 12.87 23.02"/>
      <polygon class="cls-2" points="9.09 20.72 12.94 20.08 12.94 18.98 9.09 19.62 9.09 20.72"/>
      <line class="cls-13" x1="10.99" y1="16.53" x2="10.99" y2="19.28"/>
      <line class="cls-13" x1="10.99" y1="20.49" x2="10.99" y2="23.32"/>
    </g>
    <g>
      <polygon class="cls-13" points="18.5 18.11 14.79 18.72 14.79 15.97 18.5 15.36 18.5 18.11"/>
      <polygon class="cls-13" points="18.5 22.18 14.79 22.79 14.79 19.95 18.5 19.34 18.5 22.18"/>
      <polygon class="cls-2" points="14.72 19.88 18.57 19.24 18.57 18.14 14.72 18.78 14.72 19.88"/>
      <line class="cls-13" x1="16.63" y1="15.69" x2="16.63" y2="18.44"/>
      <line class="cls-13" x1="16.63" y1="19.65" x2="16.63" y2="22.48"/>
    </g>
    <polygon class="cls-6" points="37 11.44 37 19.79 35.7 20.03 35.7 11.68 37 11.44"/>
    <polygon class="cls-12" points="36.83 11.58 36.81 19.72 35.92 20 35.92 11.65 36.83 11.58"/>
    <g>
      <polygon class="cls-13" points="24.13 17.24 20.42 17.84 20.42 15.09 24.13 14.49 24.13 17.24"/>
      <polygon class="cls-13" points="24.13 21.31 20.42 21.92 20.42 19.07 24.13 18.46 24.13 21.31"/>
      <polygon class="cls-2" points="20.35 19 24.2 18.37 24.2 17.26 20.35 17.91 20.35 19"/>
      <line class="cls-13" x1="22.26" y1="14.81" x2="22.26" y2="17.56"/>
      <line class="cls-13" x1="22.26" y1="18.78" x2="22.26" y2="21.6"/>
    </g>
    <g>
      <polygon class="cls-13" points="29.76 16.39 26.05 17 26.05 14.24 29.76 13.64 29.76 16.39"/>
      <polygon class="cls-13" points="29.76 20.46 26.05 21.07 26.05 18.22 29.76 17.61 29.76 20.46"/>
      <polygon class="cls-2" points="25.98 18.16 29.84 17.52 29.84 16.42 25.98 17.06 25.98 18.16"/>
      <line class="cls-13" x1="27.89" y1="13.96" x2="27.89" y2="16.71"/>
      <line class="cls-13" x1="27.89" y1="17.93" x2="27.89" y2="20.76"/>
    </g>
    <g>
      <polygon class="cls-13" points="35.39 15.45 31.68 16.06 31.68 13.31 35.39 12.71 35.39 15.45"/>
      <polygon class="cls-13" points="35.39 19.52 31.68 20.14 31.68 17.29 35.39 16.68 35.39 19.52"/>
      <polygon class="cls-2" points="31.61 17.22 35.47 16.59 35.47 15.48 31.61 16.13 31.61 17.22"/>
      <line class="cls-13" x1="33.52" y1="13.03" x2="33.52" y2="15.78"/>
      <line class="cls-13" x1="33.52" y1="17" x2="33.52" y2="19.82"/>
    </g>
    <polygon class="cls-6" points="42.62 10.54 42.62 18.88 41.32 18.9 41.32 10.78 42.62 10.54"/>
    <polygon class="cls-12" points="42.45 10.68 42.43 18.81 41.55 18.93 41.55 10.75 42.45 10.68"/>
    <g>
      <polygon class="cls-13" points="41.02 14.61 37.31 15.22 37.31 12.46 41.02 11.86 41.02 14.61"/>
      <polygon class="cls-13" points="41.02 18.68 37.31 19.29 37.31 16.44 41.02 15.83 41.02 18.68"/>
      <polygon class="cls-2" points="37.24 16.37 41.1 15.74 41.1 14.64 37.25 15.28 37.24 16.37"/>
      <line class="cls-13" x1="39.15" y1="12.18" x2="39.15" y2="14.93"/>
      <line class="cls-13" x1="39.15" y1="16.15" x2="39.15" y2="18.98"/>
    </g>
    <polygon class="cls-6" points="48.62 9.55 48.62 17.89 47.32 18.13 47.32 9.79 48.62 9.55"/>
    <polygon class="cls-12" points="48.45 9.69 48.42 17.82 47.54 18.11 47.54 9.76 48.45 9.69"/>
    <g>
      <polygon class="cls-13" points="46.65 13.67 42.94 14.28 42.94 11.53 46.65 10.92 46.65 13.67"/>
      <polygon class="cls-13" points="46.65 17.74 42.94 18.36 42.94 15.51 46.65 14.9 46.65 17.74"/>
      <polygon class="cls-2" points="42.87 15.44 46.73 14.81 46.73 13.7 42.88 14.35 42.87 15.44"/>
      <line class="cls-13" x1="44.78" y1="11.25" x2="44.78" y2="14"/>
      <line class="cls-13" x1="44.78" y1="15.22" x2="44.78" y2="18.04"/>
    </g>
    <polygon class="cls-2" points="6.25 16.8 49.27 10.15 49.27 9.78 6.25 16.43 6.25 16.8"/>
    <polygon class="cls-9" points="2.43 15.59 6.25 24.78 6.25 16.43 2.43 7.58 2.43 15.59"/>
    <polygon class="cls-2" points="2.43 7.95 6.25 16.8 6.25 16.43 2.43 7.58 2.43 7.95"/>
    <polygon class="cls-2" points="2.43 15.59 6.25 24.79 6.25 24.43 2.43 15.22 2.43 15.59"/>
    <polygon class="cls-4" points="6.25 16.8 6.25 18.42 49.27 11.86 49.27 10.15 6.25 16.8"/>
    <polygon class="cls-1" points="49.27 9.78 6.25 16.43 2.43 7.58 45.46 .93 49.27 9.78"/>
    <polygon class="cls-2" points="6.25 24.78 49.27 18.13 49.27 17.76 6.25 24.41 6.25 24.78"/>
    <g>
      <polygon class="cls-13" points="4.87 16.5 3.79 14 3.79 11.25 4.87 13.75 4.87 16.5"/>
      <polygon class="cls-13" points="4.87 20.56 3.79 17.94 3.79 15.23 4.87 17.72 4.87 20.56"/>
      <polygon class="cls-2" points="3.72 15.07 4.94 17.78 4.94 16.68 3.72 13.99 3.72 15.07"/>
      <polygon class="cls-10" points="4.36 15.17 4.21 14.97 4.21 12.4 4.36 12.4 4.36 15.17"/>
      <polygon class="cls-10" points="4.36 19.31 4.21 18.93 4.21 16.36 4.36 16.64 4.36 19.31"/>
    </g>
    <polygon class="cls-4" points="2.43 7.58 2.42 9.29 6.25 18.42 6.25 16.43 2.43 7.58"/>
  </g>
</svg>