<?xml version="1.0" encoding="UTF-8"?>
<svg xmlns="http://www.w3.org/2000/svg" xmlns:xlink="http://www.w3.org/1999/xlink" viewBox="0 0 55.17 57.59">
  <defs>
    <style>
      .cls-1 {
        fill: #fff;
        mix-blend-mode: screen;
      }

      .cls-1, .cls-2, .cls-3, .cls-4, .cls-5, .cls-6, .cls-7, .cls-8, .cls-9, .cls-10, .cls-11, .cls-12, .cls-13, .cls-14 {
        stroke-width: 0px;
      }

      .cls-1, .cls-10 {
        opacity: .4;
      }

      .cls-2 {
        opacity: .8;
      }

      .cls-2, .cls-11 {
        fill: #36bcbf;
      }

      .cls-15 {
        fill: #231f20;
        stroke: #fff;
        stroke-width: .15px;
      }

      .cls-15, .cls-16 {
        stroke-miterlimit: 10;
      }

      .cls-3 {
        fill: url(#linear-gradient);
      }

      .cls-4 {
        fill: #000;
        opacity: .2;
      }

      .cls-5 {
        fill: #8cb835;
      }

      .cls-6 {
        fill: #d0d1d1;
      }

      .cls-7 {
        fill: #9b5b5b;
      }

      .cls-8 {
        fill: #999;
      }

      .cls-9 {
        fill: #884f4f;
      }

      .cls-10 {
        fill: #2aabb5;
        mix-blend-mode: multiply;
      }

      .cls-17 {
        isolation: isolate;
      }

      .cls-16 {
        fill: none;
        stroke: #999;
        stroke-width: 1.53px;
      }

      .cls-12 {
        fill: #3f7fb7;
      }

      .cls-13 {
        fill: #c27171;
      }

      .cls-14 {
        fill: #e5e5e5;
      }
    </style>
    <linearGradient id="linear-gradient" x1="297.83" y1="171.91" x2="318.2" y2="171.91" gradientTransform="translate(-322.8 -73.1) rotate(-14.79)" gradientUnits="userSpaceOnUse">
      <stop offset="0" stop-color="#7f4340"/>
      <stop offset="1" stop-color="#b16767"/>
    </linearGradient>
  </defs>
  <g class="cls-17">
    <g id="map">
      <path class="cls-12" d="M206.08-82.97c-29.17,1.36-297.8,23.06-344.95,49.52-54.34,30.49-44.77,99.72-38.67,153.31,5.63,49.44,383.61-202.83,383.61-202.83Z"/>
      <path class="cls-5" d="M997.59,427.86c28.49-59.5-54.18-238.94-89.6-311.4-35.42-72.46-99.31-161.2-174.79-189.26-90.3-33.58-194.59-32.77-237.48-30.9-42.89,1.87-93.1,4.07-93.1,4.07l-233.81,19.08-24.03,1.96s-56.16,2.4-75.69,30.97c-6.71,9.81-16.38,20.43-28.27,29.83C27.04-6.91,1.42.56,1.42.56l-29.13-9.37s-11.94-4.07-10.96-.9S-20.35,2.87-20.23,5.85c.13,2.98-12.37,14.29-34.96,12.03-9.15-.92-21.33-3.28-33.48-4.18-23.56-1.75-47.15,5.09-59.36,13.57-10.35,7.18-32.9,9.16-32.9,9.16-6.44,38.33,5.76,106.07,11.91,142.45,5.14,30.4,21.38,65.17,46.03,86.84,28.13,24.72,57.57,26.63,91.86,23.23,7.15-.71,23.43-2.2,43.21-.85,13.92.95,48.06,18.99,102.01,9.5,59.09-10.4,97.23-53.48,116.74-56.98,113.83-20.43,169.77-26.66,210.8-11.19,35.96,13.56,71.64,69.79,94.2,112.05,14.69,27.52,19.82,34.68,41.29,57.21,40.42,42.4,156.79,80.32,230.79,87.01,74,6.69,162.07-.18,189.67-57.81Z"/>
      <path class="cls-8" d="M118.55,322.25c5.6-11.89,6.52-30.33,2.48-49.33-2.11-9.88-.14-16.91,1.63-20.1,7.19-1.63,11.59-6.06,10.58-10.63,2.44-2.48,13.32-11.48,46.58-16.5l265.8-40.14c6.05,4.33,29.04,21.17,44.85,37.69,19.37,20.24,38.15,41.14,55.06,74.15l9-1.66c-17.2-33.56-36.25-54.77-55.9-75.3-14.43-15.08-34.13-30.01-42.89-36.41l99.41-15.01c5.75,3.16,24.7,13.99,30.86,22.56l.58.81c7.37,10.26,17.46,24.32,43.68,34.48,12.09,4.68,24.87,9.9,36.5,17.67,12.27,8.19,22.19,18.61,30.35,31.85,12.37,20.09,25.52,47.31,36.08,69.18,4.86,10.07,9.06,18.76,12.38,25.1,10.49,20.02,16.93,31.68,27.5,38.62,2.61,1.71,5.08,3.01,7.26,4.16,6.37,3.35,11.41,6,16.08,17.14l23.49,56.02,5.06.33-24.09-57.03c-5.02-11.97-10.81-15.02-17.51-18.54-2.19-1.15-4.46-2.34-6.9-3.95-9.91-6.51-16.22-17.94-26.51-37.59-3.31-6.32-7.5-14.99-12.35-25.04-10.58-21.91-23.75-49.19-36.18-69.37-18.17-29.5-41.85-40.5-68.66-50.89-25.05-9.7-34.42-22.76-41.96-33.25l-.59-.82c-5.92-8.24-22.17-17.99-29.76-22.27l29.6-4.47c2.38-.28,4.74-.58,7.03-.93,21.71-3.28,21.85-10.44,20.53-13.59-.19-.44-.56-1.36-1.08-2.62l10.58-1.35,4.96,12.21,7.69-.85-5.02-12.33,55.17-7.91-4.29-10.22-4.23,1.78,2.01,4.78-50.49,7.2-2.54-5.68-7.18,2.04,2.09,4.61-10.53,1.34c-3.88-9.49-10.49-25.68-13.44-32.72-4.06-9.67-22.65-10.64-28.9-9.7-6.25.94-24.67,3.73-34.21,5.17-4.56.69-7.68-1.29-9.86-3.94l-17.77-42.36c-1.83-10.9.05-28.92,18.8-33.07l8.13-1.23c21.55-3.25,53.86-.4,78.58,6.95,3.66,1.09,9.72,2.86,17.39,5.09,43.04,12.56,143.82,41.96,167.23,52.57,23.33,10.57,48.92,33.04,60.36,44.66,5.15,5.23,11.52,12.58,15.05,23.05,3.87,11.49,3.66,24.41-.66,39.51l9.28.95c9.93-34.75-3.1-53.73-15.57-66.39-3.25-3.3-32.62-32.62-62.79-46.29-24.15-10.94-121.84-39.45-168.79-53.14-7.65-2.23-13.7-4-17.33-5.08-26.97-8.02-61.15-10.98-85.05-7.37l-38.86,5.87-15.49-36.93c-4.51-10.75-21.41-20.64-39.32-23.01-18.29-2.42-34.79-.83-47.7,2.79l-7.15,1.71c-4.76,1.33-13.58,3.75-22.82,6.03l-2.99-7.12c6.41-2.14,9.91-6.68,8.03-11.15l-.39-.92,9.85-1.49-1.46-3.49-9.85,1.49-2.26-5.33,9.85-1.49-1.46-3.49-10.29,1.55c-.96-.83-2.72-2.02-4.83-2.92l-3.2-7.63-5.81.88,2.11,5.03c-2.2-.22-4.51-.18-6.81.16l-.56.08c-7.61,1.15-12.67,5.3-12.57,9.81l-10.18,1.54,1.46,3.49,9.74-1.47,1.99,4.74-9.96,1.5,1.46,3.49,9.96-1.5.39.92c1.78,4.25,7.9,7.18,14.81,7.51l3.39,8.08c-8.25,1.85-15.8,3.25-19.94,3.28-13.81.11-24.45-2.62-38.47-7.39-3.02-1.03-5.78-2.24-8.71-3.52-9.38-4.11-20-8.76-38.76-5.93l-79.93,12.07c-7.79,1.18-14.51,4.52-18.42,9.18-3.18,3.79-4.42,8.21-3.67,12.98l-2.37.36c-3.12.47-5.02,2.38-4.24,4.25l19.56,46.61c.78,1.87,3.97,3.01,7.09,2.54l1.78-.27,1.46,3.48-36.09,5.45c-1.61-1.43-4.26-2.16-6.97-1.75-2.3.35-4.12,1.44-5,3-.11.19-.2.39-.27.59l-52.16,7.88-9.22-21.97L4.43,56.85l25.96,61.87-41.3,6.24c-3.89.59-12.97-.99-18.54-2.36-.07-.74-.26-1.48-.57-2.23-2.69-6.41-13.56-10.31-24.24-8.69-10.68,1.61-17.18,8.14-14.49,14.54,2.69,6.41,13.56,10.31,24.24,8.69,6.12-.92,10.86-3.46,13.29-6.66,3.8.87,10.63,2.24,16.75,2.45.12,2.96.62,7.58,2.4,11.83.61,1.44,1.44,3.09,2.33,4.84,2.97,5.84,7.03,13.85,4.16,18.7-.33.56-.69,1.16-1.07,1.78-2.84,4.71-6.56,10.87-8.18,17.93-3.61.11-10.13.72-19.77,3.18-5.57,1.42-13.81,3.16-22.52,5.01-15.07,3.19-32.15,6.81-42.13,10.13-3.92,1.3-7.58,2.55-11.13,3.77-10.4,3.56-19.39,6.64-27.58,8.34-10.89,2.26-18.03,3.18-18.21,3.2l2.2,4.58c.18-.02,5.89-.99,16.94-3.29,8.47-1.76,17.58-4.88,28.13-8.49,3.54-1.21,7.19-2.46,11.09-3.76,9.74-3.23,26.68-6.82,41.63-9.99,8.76-1.86,17.04-3.61,22.71-5.05,8.55-2.18,14.48-2.83,17.92-3-.25,3.27.02,6.69,1.09,10.22,3.29,10.84,10.51,26.31,13.98,33.74.89,1.9,1.59,3.4,1.86,4.04.63,1.49,2.09,4.99,6.91,7.45,5.45,2.78,13.31,3.42,23.38,1.9l65-9.82,3.39,8.09c1.59,3.8,6.64,6.54,12.63,7.32-1.56,3.92-3.06,10.68-1,20.31,3.89,18.28,3.07,35.87-2.2,47.07l9.06,1.54ZM345.24-39.37l-4.36-10.4c-.97-2.32,1.38-4.67,5.24-5.26l.56-.08c3.86-.58,7.79.83,8.76,3.14l4.36,10.4c.97,2.32-1.38,4.67-5.24,5.26l-.56.08c-3.86.58-7.79-.83-8.76-3.14ZM386.92,105.26l-22.32,25.63-11.92,1.8-40.07-16.21,74.3-11.22ZM304.19,117.76l10.69,25.49,4.23-1.78-8.8-20.97,41.81,16.91,14.83-2.24,23.94-27.5,9.5,22.65,4.23-1.78-10.25-24.42,22.95-3.47,24.05,57.32-58.93,8.9-6.62-15.78-16.79,2.54,6.62,15.78-57.52,8.69-24.05-57.32,20.1-3.04ZM452.16,174.41c-.82-1.97-4.39-10.47-6.14-14.64l.93-.39-24.93-59.42,89.69-13.55,32.88,78.37-85.77,12.95c-2.79-.73-6.05-1.87-6.66-3.32ZM333.79,106.97l-20.46-48.76,175.43-26.49,20.46,48.76-175.43,26.49ZM283.86,56.84c-1.66-3.96-11.54-27.51-12.22-29.13-.75-1.78-.42-4.76,5.83-5.71,6.25-.94,30.1-4.55,30.1-4.55l2.9,6.91,9.7-1.47s.24-1.09,1.64-1.93c1.4-.84,4.28-.65,4.28-.65l2.98,7.1s1.56.39,2.39,2.37c.83,1.97,2.53,6.02,2.53,6.02l-1.64.25,1.12,2.66,1.97-.3,1.78,4.24-22.37,3.38,2.41,5.75-33.39,5.04ZM163.13-12.54c2.58-3.07,6.62-5.22,11.54-5.96l31.41-4.62,9.04,21.55,4.23-1.78-8.59-20.48,40.16-6.19c14.12-2.13,21.24.99,30.26,4.94,3.03,1.33,6.17,2.7,9.69,3.9,15.33,5.21,32.25,10.42,47.55,10.89,8.84.28,21.6-.73,34.32-3.02l-.03.07c1.37.53,2.75,1.05,4.12,1.58,2.61,1,5.21,2,7.82,3,2.52.97,5,2.01,7.48,3.06,1.35.57,2.53,1.52,3.75,2.34l3.68,2.48c1.01.68,2.01,1.36,3.02,2.03l4.5-2.67-11.38-7.49,26.99-4.01.67-3.07-30,4.47c-1.32.2-2.78.15-4.02-.34-2.74-1.08-5.48-2.1-8.25-3.1-.03-.01-.07-.02-.1-.04,5.74-1.3,11.29-2.88,16.26-4.72l8.92-2.5c1.37-.38,2.68-.81,3.94-1.24,2.61-.64,5.46-1.27,7.49-1.53,1.31-.17,2.5-.28,3.59-.34l-.04.38c14.1,1.36,25.33,5.31,28.81,8.36.33.44,1.1,2.1,1.66,3.62l4.3-1.6c-.72-1.94-1.8-4.46-2.86-5.4-2.71-2.42-7.99-4.72-14.55-6.51.06-.12.11-.23.16-.33.57-1.14,3.25-.6,4.4-.35,1.15.25,5.84,1.43,6.21,1.06.12-.12.27-.36.42-.65,10.06,3.48,18.57,9.66,21.25,16.05l15.49,36.93-45.8,6.92c-.94-1.96-1.99-4.35-2.2-5.46-.46-2.34-2.22-10.57-2.3-10.92l-4.49.96c.02.09,1.83,8.54,2.28,10.84.27,1.38,1.16,3.51,1.97,5.29l-6.15.93-5.62-13.39c-1.48-3.54-7.58-3.75-10.13-3.67l.13,4.59c2.41-.07,5.18.39,5.8.95l5.13,12.23-44.28,6.65-2.47-6.02-4.95.9-33.52,4.91-12.83-30.59-4.77.72-1.37-3.26-66.4,10.13,16.69,39.79-22.83,3.45c-1-2-6.26-11.09-20.53-14.52-13.28-3.19-20.08-1.17-28.31-2.44-7.61-1.18-15.92-3.56-21.2-4.41l-2.9-6.84c7.82-1.18,41.95-6.4,41.95-6.4l-3.34-4.13s-34.73,5.29-40.45,6.16l-3.9-9.5c7.82-1.18,39.94-6.04,39.94-6.04l-1.87-4.41s-34.19,5.22-39.91,6.08l-6.21-14.68c-2.75-6.55-.72-11.02,1.46-13.62ZM127.32,63.5c1.4-.21,2.57.16,3.07.49-.27.18-.75.39-1.44.5-1.41.21-2.59-.17-3.08-.49.27-.18.75-.4,1.45-.5ZM57.13,53.54l16.38,39.05-46.19,6.98L10.94,60.51l46.19-6.98ZM68.69,112.94l-5.91-14.09,12.57-1.9,5.91,14.09-12.57,1.9ZM29.15,103.93l14.11-2.13,5.91,14.09-14.11,2.13-5.91-14.09ZM-46.81,129.44c-5.65.85-11.39-1.21-12.81-4.6-1.42-3.39,2.02-6.84,7.66-7.69,5.65-.85,11.39,1.21,12.81,4.6s-2.02,6.84-7.66,7.69ZM94.38,232.46h0l-65,9.82c-15.67,2.37-17.67-2.41-18.86-5.26-.3-.72-.98-2.17-1.92-4.19-3.43-7.35-10.57-22.64-13.78-33.23-2.59-8.55.21-16.66,3.6-23.22,4.26-.47,8.57-1.69,9.08-3.09.09-.24.24-.68.42-1.26l40.67-.67,61.17-9.45-.69-4.54-60.86,9.41-38.89.64c.82-2.88,1.6-5.93,1.6-7.1,0-2.24-2.97-3.19-4.67-3.35-.96-.09-1.82-.51-2.5-1.1-1.1-3.5-2.88-7-4.48-10.16-.85-1.68-1.65-3.26-2.2-4.57-1.7-4.05-2.07-8.64-2.13-11.25l96.12-14.52-2.3-5.48-2.81.42-14.91-35.54,51.37-7.76c1.3,1.31,3.42,2.1,5.72,2.1.5,0,1-.04,1.51-.11,2.3-.35,4.12-1.44,5-3,.16-.29.29-.59.38-.89l36.51-5.51,4.62,11.01,13.83-2.09,14.91-2.25,9.98,23.78,3.3,2.86,1.38,3.29-5.04.76,1.92,4.57-8.11,1.23,2.24,5.34,15.13-2.29c9.93-1.5,7.83-6.51,6.94-8.64l-4.47-10.66,3-.45-2.65-6.32,6.31-.99,3.65-9.19c.1-.04.2-.07.3-.11l69.91-10.56,9.79,23.35-30.79,4.69,2.1,5,30.79-4.69,8.57,20.42-47.36,7.23-2.33-5.55-7.46,1.13,2.33,5.55-74.25,11.14-2.03-4.83-2.63.4-7.53-17.96-4.93.75-4.14-22.64-39.39,5.54,1.1,5.73-8.52,2.64-4.09,22.61,23.52-3.55,5.75,13.72,11.02-1.66,1.61,3.84-43.42,6.56-1.49-3.55-12.83,1.94,1.15,2.73-4.22.64,6.07,14.47.5-.07.51,3.36,32.89-4.97-.69-4.54-25.79,3.89-2.73-6.5,9.15-1.38-.04-.09,18.55-2.8,2.8,6.68,4.23-1.78-2.35-5.61,41.15-6.21,2.8,6.68,4.23-1.78-2.35-5.61,48.75-7.36,2.32,5.54-46.35,7,.69,4.54,24.55-3.73,9.79,22.73,7.32-1.09-1-4.48-3.47.5-7.96-18.37,18.27-2.73,1.95,4.66,9.43-1.42-6.11-14.56,23.32-3.52,24.05,57.32-22.02,3.27-4.32-10.11-11.81,1.72,4.44,10.25-98.8,14.87-3.68-3.78-1.49-3.55-16.88,2.55,1.49,3.55,7.29-1.1c2.7.52,8.74,2.08,10.27,5.72,1.28,3.04.45,5.42-.86,7.19-4.44,2.68-10.6,5.23-17.59,6.29l-25.89,3.91s-8.42,1.1-16.29,2.29l-.56.08c-8.89,1.34-11.85,5.13-12.35,10.47ZM118.52,247.7l-.56.08c-3.86.58-7.79-.83-8.76-3.14l-5.18-11.68c-.97-2.32,1.38-4.67,5.24-5.26h0c3.86-.58,8.35.74,9.32,3.06l5.18,11.68c.97,2.32-1.38,4.67-5.24,5.26ZM130.39,235.13l-4.7-11.2,24.47-3.7c6.44-.97,13.06-3.29,18.62-6.53,2.59-1.5,4.77-3.1,6.43-4.68,1.4,3.35,2.71,6.46,3.11,7.42.52,1.23-1.2,2.83-2.96,4.09-24.85,3.98-38.17,10.12-44.98,14.58Z"/>
      <polygon class="cls-16" points="69.24 90.23 55.01 92.18 40.7 59.16 54.93 57.2 69.24 90.23"/>
      <g>
        <polygon class="cls-9" points="22.25 10.13 26.26 7.61 29.84 16.12 22.25 10.13"/>
        <polygon class="cls-13" points="13.56 11.43 6 10.65 9.58 19.15 13.56 11.43"/>
        <polygon class="cls-7" points="6 10.65 26.26 7.61 22.25 10.13 13.56 11.43 6 10.65"/>
        <polygon class="cls-3" points="9.58 19.15 29.84 16.12 22.25 10.13 13.56 11.43 9.58 19.15"/>
        <polygon class="cls-6" points="29.78 22.58 9.58 25.49 9.58 19.15 29.84 16.12 29.78 22.58"/>
        <path class="cls-15" d="M22.48,20.68c0-1.29-1.04-2.2-2.33-2.02-1.28.18-2.32,1.37-2.32,2.66v3.45l4.65-.63v-3.46Z"/>
        <path class="cls-15" d="M16.38,21.57c0-1.29-1.04-2.2-2.33-2.02-1.28.18-2.32,1.37-2.32,2.66v3.45l4.65-.63v-3.46Z"/>
        <path class="cls-15" d="M28.17,19.87c0-1.3-1.05-2.2-2.34-2.02-1.29.18-2.34,1.37-2.34,2.67v3.46l4.67-.63v-3.48Z"/>
        <polygon class="cls-14" points="9.58 25.49 5.96 17.2 6 10.65 9.58 19.15 9.58 25.49"/>
      </g>
      <polygon class="cls-12" points="36.49 47.61 24.17 49.18 14.8 26.78 27 25.17 36.49 47.61"/>
      <polygon class="cls-12" points="39.77 47.21 20.1 50.01 19.64 48.84 39.31 46.04 39.77 47.21"/>
      <polygon class="cls-8" points="22.76 56.26 19.64 48.84 23.77 48.29 14.8 26.78 12.67 27.09 20.89 46.51 14.02 47.44 18.35 57.87 22.76 56.26"/>
      <polygon class="cls-8" points="46.75 52.02 43.11 43.71 36.92 44.47 28.61 24.88 27 25.17 35.98 46.51 39.31 46.04 42.34 53.63 46.75 52.02"/>
      <polygon class="cls-8" points="30.98 24.72 10.36 27.37 9.58 25.49 29.78 22.58 30.98 24.72"/>
      <path class="cls-13" d="M19.64,48.84l6.08-.81s1.22-2.22,4.27-2.69c3.05-.47,5,1.27,5,1.27l4.32-.58,2.05,5.21-2.08.36s-1.99-3.88-7.8-3.07c-6.73.93-6.61,5.26-6.61,5.26l-3.05.47-2.18-5.42Z"/>
      <g>
        <path class="cls-2" d="M27.24,32.38c0-.16.15-.13.15-.24,0-.05-.21-.18-.45-.21-.79-.08-.95.29-1.47.44.05-.38.15-1.07.31-1.71.13.13.16.4.34.4.07,0,.18-.04.18-.13,0-.15-.21-.23-.21-.38,0-.07.05-.1.13-.1.06,0,.11.09.18.09.16,0,.06-.26.19-.3.16-.04.27-.19.27-.34,0-.13-.08-.06-.08-.17,0-.03.07-.09.07-.13,0-.07-.26-.31-.65-.31-.21,0-.54.11-.91.17,0,0,0,0,0,0-.21-.07-.39-.16-.39-.39,0-.11.04-.22.04-.33,0-.22-.12-.1-.12-.24,0,0,.12-.27.12-.54,0-.32-.12-.37-.12-.54,0-.27.25-.53.39-.53.26,0,.19.19.26.26.05.06.15.03.21.08.11.23.01.83.25.83.03,0,.07-.02.08-.02,0,0,0,0,0,0,.03.03.03.05.03.09,0,.07-.04.14-.04.21,0,.04.01.1.06.1.06,0,.19-.16.19-.36,0-.34-.34-.42-.34-.66,0-.02,0-.08.03-.08.02,0,.04.01.07.01.04,0,.07-.06.07-.08,0-.12-.13-.11-.13-.29,0-.13.07-.28.07-.42,0-.28-.27-.45-.55-.45-.07,0-.13.01-.13.01-.04,0-.09-.03-.09-.09,0-.07.03-.11-.08-.11-.4,0-.37.54-.43.85-.01.09-.14.11-.14.28,0,.11.05.21.05.32-.06.19-.14.17-.14.35s.15.47.15.48c0,.09-.14.19-.14.31,0,.03.21.39.21.63,0,.13-.05.25-.13.32-.11-.02-.22-.05-.33-.1-.04-.07-.08-.12-.21-.12-.21,0-.53.28-.89.28-.05.02-.06.04-.06.09,0,.03.09.07.13.07.14,0,.39-.21.39,0,.03.08.09.08.15.08.43,0-.12.42-.12.54,0,.13.32.2.32.43,0,.08-.04.16-.04.19,0,.15.13.22.28.22.08,0,.14-.02.2-.05.13.36.27.84.31,1.31-.37-.1-.48-.39-.93-.34-.27,0-.51.31-.78.31-.05,0-.1,0-.16,0-.12,0-.29.04-.29.16,0,.1.15.13.15.22,0,.03-.15.22-.15.41,0,.15.09.33.24.33.16,0,.46-.37.75-.37.13,0,.24.09.24.13,0,.04-.03.09-.03.14s.04.08.08.08c.06,0,.07-.06.11-.06.02,0,.05.02.05.06,0,0-.11.24-.11.42,0,.26.16.43.44.43.21,0,.3-.08.37-.16.38,1.4.36,3.41.36,3.41h.18c0-2.46.33-3.58.52-4.02.12.02.24.04.36.04.2,0,.16-.05.16-.05.02,0,.04,0,.06,0,.27,0,.23.5.42.5.06,0,.14-.08.14-.21,0-.08-.02-.16-.02-.24,0-.13.06-.22.26-.22.03,0,.06,0,.08,0,.24,0,.31-.3.31-.42,0-.28-.33-.3-.33-.53Z"/>
        <path class="cls-10" d="M25.09,32.56s-.28.03-.46-.09c-.18-.13-.31-.25-.38-.21-.07.05.17.59.87.59.74,0,1.07-.63,1.02-.67-.05-.03-.47.31-1.06.38Z"/>
        <path class="cls-10" d="M25.52,33.5c.22,0,.43.06.65.06.2,0,.16-.05.16-.05.02,0,.04,0,.06,0,.27,0,.23.5.42.5.06,0,.14-.08.14-.21,0-.08-.02-.16-.02-.24,0-.13.06-.22.26-.22.03,0,.06,0,.08,0,.24,0,.31-.3.31-.42,0-.28-.33-.3-.33-.53,0-.16.15-.13.15-.24,0-.05-.21-.18-.45-.21-.27-.03-.47,0-.63.05.48-.13.71.23.83.49s-.2.5-.31.59c-.11.09.03.51-.07.56-.09.05-.2-.48-.53-.51-.33-.03-.52.23-.73.28s-.34-.06-.48-.06-.22.19-.32.44-.42.34-.62.19c-.2-.15.26-.83.16-.88-.1-.05-.22.12-.29.07-.08-.05-.03-.28-.28-.34s-.6.36-.75.22c-.16-.15.03-.29-.07-.44s.03-.1.27-.14c.23-.03.3-.12.47-.26.15-.13.32-.15.35-.15-.03,0-.06,0-.09,0-.27,0-.51.31-.78.31-.05,0-.1,0-.16,0-.12,0-.29.04-.29.16,0,.1.15.13.15.22,0,.03-.15.22-.15.41,0,.15.09.33.24.33.16,0,.46-.37.75-.37.13,0,.24.09.24.13,0,.04-.03.09-.03.14s.04.08.08.08c.06,0,.07-.06.11-.06.02,0,.05.02.05.06,0,0-.11.24-.11.42,0,.26.16.43.44.43.47,0,.37-.39.58-.39.06,0,.11.03.17.03.21,0,.03-.44.39-.44Z"/>
        <path class="cls-10" d="M24.3,29.35c-.04-.07-.08-.12-.21-.12-.21,0-.53.28-.89.28-.05.02-.06.04-.06.09,0,.03.09.07.13.07.14,0,.39-.21.39,0,.03.08.09.08.15.08.43,0-.12.42-.12.54,0,.13.32.2.32.43,0,.08-.04.16-.04.19,0,.15.13.22.28.22.38,0,.46-.49.85-.49.08,0,.17.01.25.01.12,0,.22-.07.26-.07.3,0,.26.47.51.47.07,0,.18-.04.18-.13,0-.15-.21-.23-.21-.38,0-.07.05-.1.13-.1.06,0,.11.09.18.09.16,0,.06-.26.19-.3.16-.04.27-.19.27-.34,0-.13-.08-.06-.08-.17,0-.03.07-.09.07-.13,0-.07-.26-.31-.65-.31-.13,0-.31.04-.52.09h0c.32-.07.71.06.7.19,0,.13.31.24.22.33s-.36-.03-.47.06-.09.32-.34.41c-.24.09-.6-.09-.8-.09s-.56.55-.72.5c-.16-.05.05-.34-.14-.53s.04-.53-.07-.6c-.11-.07-.22-.09-.17-.23.05-.15.4-.06.4-.06Z"/>
        <path class="cls-10" d="M25.85,26.74c-.07.14-.06.57,0,.74s.28.4.18.44c-.09.04-.2-.16-.24-.57-.04-.41-.11-.29-.22-.34-.1-.04-.05-.38-.29-.47-.24-.09-.53.48-.55.71-.03.22.08.34.11.56.03.22-.1.46-.17.58-.07.12.13.22.17.28.04.06-.1.6.09.89.2.29.82-.2.82-.2-.14.03-.3.07-.46.09,0,0,0,0,0,0-.21-.07-.39-.16-.39-.39,0-.11.04-.22.04-.33,0-.22-.12-.1-.12-.24,0,0,.12-.27.12-.54,0-.32-.12-.37-.12-.54,0-.27.25-.53.39-.53.26,0,.19.19.26.26.05.06.15.03.21.08.11.23.01.83.25.83.03,0,.07-.02.08-.02,0,0,0,0,0,0,.03.03.03.05.03.09,0,.07-.04.14-.04.21,0,.04.01.1.06.1.06,0,.19-.16.19-.36,0-.34-.34-.42-.34-.66,0-.02,0-.08.03-.08.02,0,.04.01.07.01.04,0,.07-.06.07-.08,0-.12-.13-.11-.13-.29,0-.13.07-.28.07-.42,0-.28-.27-.45-.55-.45.34,0,.42.5.35.64Z"/>
        <path class="cls-1" d="M24.84,26.65s.13-.62.27-.58c.14.04,0,.19.08.19s.38-.13.51.09c.13.22.05.34-.03.36-.08.02-.16-.4-.4-.35s-.34.16-.43.28Z"/>
        <path class="cls-1" d="M24.66,27.55s-.08.1-.06.21c.02.1.06.22.09.22.03,0,.09-.33-.03-.42Z"/>
        <path class="cls-1" d="M24.77,29.34s-.09.21-.29.19c-.2-.03-.33-.12-.34-.03,0,.09.19.15.16.3-.03.16-.17.41.04.48.22.07.43-.24.6-.24s.28.16.58.14c.29-.02.59-.68.38-.74,0,0-.16.33-.58.35-.42.02-.62-.03-.55-.44Z"/>
        <path class="cls-1" d="M24.15,32.13s-.16-.09-.38-.02-.22.24-.39.31c-.17.07-.36.03-.34.16.02.13.22.03.68.02.46-.02.31.34.42.34s.27-.03.27.03-.33.47-.15.59c.18.11.3-.52.53-.51.22,0,.33.19.51.2.18,0,.41-.34.69-.35.28,0,.45.22.54.19.09-.03.06-.26.17-.32.11-.06.37-.27.25-.44-.12-.17-.45-.44-.82-.29,0,0,.42-.03.47.21.04.24-.51.41-.72.47s-.34.12-.65.17c-.66.1-1.79-.53-1.09-.77Z"/>
        <path class="cls-1" d="M24.71,31.52s.11-.17.45-.16c0,0,.02,1.18-.14,1.22-.16.03-.18-.71-.31-1.06Z"/>
        <path class="cls-11" d="M26.15,31.87s.3-.41.44-.31c.14.1-.31.17-.44.31Z"/>
        <path class="cls-11" d="M27.35,31.74s.54.05.44.22c-.1.17-.2-.18-.44-.22Z"/>
        <path class="cls-11" d="M27.16,33.66s.32.25.17.32c-.15.07-.13-.23-.17-.32Z"/>
        <path class="cls-11" d="M28.07,33.8s.39.12.25.25c-.14.14-.13-.17-.25-.25Z"/>
        <path class="cls-11" d="M23.93,31.77s-.25-.37-.41-.24c-.16.13.29.16.41.24Z"/>
        <path class="cls-11" d="M22.85,31.81s-.49-.22-.52,0c-.02.22.24-.02.52,0Z"/>
        <path class="cls-11" d="M23.23,33.5s-.53.18-.38.31c.15.13.2-.21.38-.31Z"/>
        <path class="cls-11" d="M24.19,28.91s-.28-.34-.39-.22c-.11.13.24.1.39.22Z"/>
        <path class="cls-11" d="M25.71,29.11s.26-.38.45-.26c.18.12-.36.12-.45.26Z"/>
        <path class="cls-11" d="M26.79,29.15s.48.08.38.23c-.1.15-.25-.17-.38-.23Z"/>
        <path class="cls-11" d="M24.34,27.19s-.25-.24-.1-.29c.15-.05.1.29.1.29Z"/>
        <path class="cls-11" d="M25.57,25.83s.29-.25.36-.1c.07.15-.36.1-.36.1Z"/>
        <path class="cls-10" d="M25.52,33.5c-.36,0-.18.44-.39.44-.06,0-.12-.03-.17-.03-.12,0-.14.12-.21.23.04.13.07.27.1.41.03-.04.06-.06.12-.06s.11.03.17.03c.21,0,.03-.44.39-.44.03,0,.07,0,.1,0,.07-.25.13-.43.18-.55-.09-.01-.19-.03-.28-.03Z"/>
        <path class="cls-10" d="M25.61,30.59s-.14.07-.26.07c-.08,0-.17-.01-.25-.01-.31,0-.43.3-.65.43.05.13.09.27.13.41.15-.14.27-.33.51-.33.08,0,.17.01.25.01.12,0,.22-.07.26-.07.03,0,.05,0,.07.01.03-.15.06-.3.1-.46-.04-.04-.1-.07-.17-.07Z"/>
        <path class="cls-10" d="M24.96,33.99c.06,0,.11.03.17.03.21,0,.03-.44.39-.44.08,0,.17,0,.25.02.01-.03.02-.05.03-.08-.09-.01-.19-.03-.28-.03-.36,0-.18.44-.39.44-.06,0-.12-.03-.17-.03-.12,0-.14.12-.21.23,0,.02,0,.04.01.06.06-.1.09-.2.2-.2Z"/>
        <path class="cls-10" d="M25.1,30.76c.08,0,.17.01.25.01.12,0,.22-.07.26-.07.06,0,.11.02.15.05,0-.03.01-.06.02-.1-.04-.04-.1-.07-.17-.07-.05,0-.14.07-.26.07-.08,0-.17-.01-.25-.01-.31,0-.43.3-.65.43.01.03.02.06.03.09.2-.14.32-.41.62-.41Z"/>
      </g>
      <path class="cls-1" d="M26.66,37.4c0,.39-.65.71-1.44.71s-1.44-.32-1.44-.71.65-.71,1.44-.71,1.44.32,1.44.71Z"/>
      <polygon class="cls-4" points="9.58 19.15 9.58 21.48 29.84 18.48 29.84 16.12 9.58 19.15"/>
      <polygon class="cls-4" points="6 10.65 6.04 13.08 9.57 21.52 9.58 19.15 6 10.65"/>
    </g>
  </g>
</svg>