<?xml version="1.0" encoding="UTF-8"?>
<svg id="map" xmlns="http://www.w3.org/2000/svg" viewBox="0 0 66.84 62.41">
  <defs>
    <style>
      .cls-1 {
        fill: #909aa1;
      }

      .cls-1, .cls-2, .cls-3, .cls-4, .cls-5, .cls-6, .cls-7, .cls-8, .cls-9, .cls-10, .cls-11, .cls-12, .cls-13, .cls-14 {
        stroke-width: 0px;
      }

      .cls-2 {
        fill: #ddcba3;
      }

      .cls-15 {
        fill: #231f20;
        stroke: #fff;
        stroke-miterlimit: 10;
        stroke-width: .15px;
      }

      .cls-3 {
        fill: #a5afb7;
      }

      .cls-4 {
        opacity: .2;
      }

      .cls-4, .cls-9 {
        fill: #000;
      }

      .cls-5 {
        fill: #8cb835;
      }

      .cls-6 {
        fill: #7d4e34;
      }

      .cls-7 {
        fill: #999;
      }

      .cls-8 {
        fill: #515051;
      }

      .cls-10 {
        fill: #6a6869;
      }

      .cls-11 {
        fill: #4b4b4b;
      }

      .cls-12 {
        fill: #4a484a;
      }

      .cls-13 {
        fill: #9a6143;
      }

      .cls-14 {
        fill: #8c573c;
      }
    </style>
  </defs>
  <path class="cls-5" d="M477.75,394.27c28.49-59.5-54.18-238.94-89.6-311.4-35.42-72.46-99.31-161.2-174.79-189.26-90.3-33.58-194.59-32.77-237.48-30.9-42.89,1.87-93.1,4.07-93.1,4.07l-233.81,19.08-24.03,1.96s-56.16,2.4-75.69,30.97c-6.71,9.81-16.38,20.43-28.27,29.83-13.78,10.88-39.39,18.35-39.39,18.35l-29.13-9.37s-11.94-4.07-10.96-.9,18.31,12.58,18.44,15.56c.13,2.98-12.37,14.29-34.96,12.03-9.15-.92-21.33-3.28-33.48-4.18-23.56-1.75-47.15,5.09-59.36,13.57-10.35,7.18-32.9,9.16-32.9,9.16-6.44,38.33,5.76,106.07,11.91,142.45,5.14,30.4,21.38,65.17,46.03,86.84,28.13,24.72,57.57,26.63,91.86,23.23,7.15-.71,23.43-2.2,43.21-.85,13.92.95,48.06,18.99,102.01,9.5,59.09-10.4,97.23-53.48,116.74-56.98,113.83-20.43,169.77-26.66,210.8-11.19,35.96,13.56,71.64,69.79,94.2,112.05,14.69,27.52,19.82,34.68,41.29,57.21,40.42,42.4,156.79,80.32,230.79,87.01,74,6.69,162.07-.18,189.67-57.81Z"/>
  <path class="cls-7" d="M-401.28,288.67c5.6-11.89,6.52-30.33,2.48-49.33-2.11-9.88-.14-16.91,1.63-20.1,7.19-1.63,11.59-6.06,10.58-10.63,2.44-2.48,13.32-11.48,46.58-16.5l265.8-40.14c6.05,4.33,29.04,21.17,44.85,37.69,19.37,20.24,38.15,41.14,55.06,74.15l9-1.66C17.5,228.58-1.55,207.38-21.2,186.85c-14.43-15.08-34.13-30.01-42.89-36.41l99.41-15.01c5.75,3.16,24.7,13.99,30.86,22.56l.58.81c7.37,10.26,17.46,24.32,43.68,34.48,12.09,4.68,24.87,9.9,36.5,17.67,12.27,8.19,22.19,18.61,30.35,31.85,12.37,20.09,25.52,47.31,36.08,69.18,4.86,10.07,9.06,18.76,12.38,25.1,10.49,20.02,16.93,31.68,27.5,38.62,2.61,1.71,5.08,3.01,7.26,4.16,6.37,3.35,11.41,6,16.08,17.14l23.49,56.02,5.06.33-24.09-57.03c-5.02-11.97-10.81-15.02-17.51-18.54-2.19-1.15-4.46-2.34-6.9-3.95-9.91-6.51-16.22-17.94-26.51-37.59-3.31-6.32-7.5-14.99-12.35-25.04-10.58-21.91-23.75-49.19-36.18-69.37-18.17-29.5-41.85-40.5-68.66-50.89-25.05-9.7-34.42-22.76-41.96-33.25l-.59-.82c-5.92-8.24-22.17-17.99-29.76-22.27l29.6-4.47c2.38-.28,4.74-.58,7.03-.93,21.71-3.28,21.85-10.44,20.53-13.59-.19-.44-.56-1.36-1.08-2.62l10.58-1.35,4.96,12.21,7.69-.85-5.02-12.33,55.17-7.91-4.29-10.22-4.23,1.78,2.01,4.78-50.49,7.2-2.54-5.68-7.18,2.04,2.09,4.61-10.53,1.34c-3.88-9.49-10.49-25.68-13.44-32.72-4.06-9.67-22.65-10.64-28.9-9.7-6.25.94-24.67,3.73-34.21,5.17-4.56.69-7.68-1.29-9.86-3.94L-9.26,25.07c-1.83-10.9.05-28.92,18.8-33.07l8.13-1.23c21.55-3.25,53.86-.4,78.58,6.95,3.66,1.09,9.72,2.86,17.39,5.09,43.04,12.56,143.82,41.96,167.23,52.57,23.33,10.57,48.92,33.04,60.36,44.66,5.15,5.23,11.52,12.58,15.05,23.05,3.87,11.49,3.66,24.41-.66,39.51l9.28.95c9.93-34.75-3.1-53.73-15.57-66.39-3.25-3.3-32.62-32.62-62.79-46.29-24.15-10.94-121.84-39.45-168.79-53.14-7.65-2.23-13.7-4-17.33-5.08-26.97-8.02-61.15-10.98-85.05-7.37l-38.86,5.87-15.49-36.93c-4.51-10.75-21.41-20.64-39.32-23.01-18.29-2.42-34.79-.83-47.7,2.79l-7.15,1.71c-4.76,1.33-13.58,3.75-22.82,6.03l-2.99-7.12c6.41-2.14,9.91-6.68,8.03-11.15l-.39-.92,9.85-1.49-1.46-3.49-9.85,1.49-2.26-5.33,9.85-1.49-1.46-3.49-10.29,1.55c-.96-.83-2.72-2.02-4.83-2.92l-3.2-7.63-5.81.88,2.11,5.03c-2.2-.22-4.51-.18-6.81.16l-.56.08c-7.61,1.15-12.67,5.3-12.57,9.81l-10.18,1.54,1.46,3.49,9.74-1.47,1.99,4.74-9.96,1.5,1.46,3.49,9.96-1.5.39.92c1.78,4.25,7.9,7.18,14.81,7.51l3.39,8.08c-8.25,1.85-15.8,3.25-19.94,3.28-13.81.11-24.45-2.62-38.47-7.39-3.02-1.03-5.78-2.24-8.71-3.52-9.38-4.11-20-8.76-38.76-5.93l-79.93,12.07c-7.79,1.18-14.51,4.52-18.42,9.18-3.18,3.79-4.42,8.21-3.67,12.98l-2.37.36c-3.12.47-5.02,2.38-4.24,4.25l19.56,46.61c.78,1.87,3.97,3.01,7.09,2.54l1.78-.27,1.46,3.48-36.09,5.45c-1.61-1.43-4.26-2.16-6.97-1.75-2.3.35-4.12,1.44-5,3-.11.19-.2.39-.27.59l-52.16,7.88-9.22-21.97-55.55,8.39,25.96,61.87-41.3,6.24c-3.89.59-12.97-.99-18.54-2.36-.07-.74-.26-1.48-.57-2.23-2.69-6.41-13.56-10.31-24.24-8.69-10.68,1.61-17.18,8.14-14.49,14.54,2.69,6.41,13.56,10.31,24.24,8.69,6.12-.92,10.86-3.46,13.29-6.66,3.8.87,10.63,2.24,16.75,2.45.12,2.96.62,7.58,2.4,11.83.61,1.44,1.44,3.09,2.33,4.84,2.97,5.84,7.03,13.85,4.16,18.7-.33.56-.69,1.16-1.07,1.78-2.84,4.71-6.56,10.87-8.18,17.93-3.61.11-10.13.72-19.77,3.18-5.57,1.42-13.81,3.16-22.52,5.01-15.07,3.19-32.15,6.81-42.13,10.13-3.92,1.3-7.58,2.55-11.13,3.77-10.4,3.56-19.39,6.64-27.58,8.34-10.89,2.26-18.03,3.18-18.21,3.2l2.2,4.58c.18-.02,5.89-.99,16.94-3.29,8.47-1.76,17.58-4.88,28.13-8.49,3.54-1.21,7.19-2.46,11.09-3.76,9.74-3.23,26.68-6.82,41.63-9.99,8.76-1.86,17.04-3.61,22.71-5.05,8.55-2.18,14.48-2.83,17.92-3-.25,3.27.02,6.69,1.09,10.22,3.29,10.84,10.51,26.31,13.98,33.74.89,1.9,1.59,3.4,1.86,4.04.63,1.49,2.09,4.99,6.91,7.45,5.45,2.78,13.31,3.42,23.38,1.9l65-9.82,3.39,8.09c1.59,3.8,6.64,6.54,12.63,7.32-1.56,3.92-3.06,10.68-1,20.31,3.89,18.28,3.07,35.87-2.2,47.07l9.06,1.54ZM-174.6-72.95l-4.36-10.4c-.97-2.32,1.38-4.67,5.24-5.26l.56-.08c3.86-.58,7.79.83,8.76,3.14l4.36,10.4c.97,2.32-1.38,4.67-5.24,5.26l-.56.08c-3.86.58-7.79-.83-8.76-3.14ZM-132.92,71.68l-22.32,25.63-11.92,1.8-40.07-16.21,74.3-11.22ZM-215.65,84.17l10.69,25.49,4.23-1.78-8.8-20.97,41.81,16.91,14.83-2.24,23.94-27.5,9.5,22.65,4.23-1.78-10.25-24.42,22.95-3.47,24.05,57.32-58.93,8.9-6.62-15.78-16.79,2.54,6.62,15.78-57.52,8.69-24.05-57.32,20.1-3.04ZM-67.68,140.83c-.82-1.97-4.39-10.47-6.14-14.64l.93-.39-24.93-59.42L-8.13,52.83l32.88,78.37-85.77,12.95c-2.79-.73-6.05-1.87-6.66-3.32ZM-186.05,73.39l-20.46-48.76L-31.07-1.87-10.62,46.9l-175.43,26.49ZM-235.98,23.25c-1.66-3.96-11.54-27.51-12.22-29.13-.75-1.78-.42-4.76,5.83-5.71,6.25-.94,30.1-4.55,30.1-4.55l2.9,6.91,9.7-1.47s.24-1.09,1.64-1.93c1.4-.84,4.28-.65,4.28-.65l2.98,7.1s1.56.39,2.39,2.37c.83,1.97,2.53,6.02,2.53,6.02l-1.64.25,1.12,2.66,1.97-.3,1.78,4.24-22.37,3.38,2.41,5.75-33.39,5.04ZM-356.71-46.12c2.58-3.07,6.62-5.22,11.54-5.96l31.41-4.62,9.04,21.55,4.23-1.78-8.59-20.48,40.16-6.19c14.12-2.13,21.24.99,30.26,4.94,3.03,1.33,6.17,2.7,9.69,3.9,15.33,5.21,32.25,10.42,47.55,10.89,8.84.28,21.6-.73,34.32-3.02l-.03.07c1.37.53,2.75,1.05,4.12,1.58,2.61,1,5.21,2,7.82,3,2.52.97,5,2.01,7.48,3.06,1.35.57,2.53,1.52,3.75,2.34l3.68,2.48c1.01.68,2.01,1.36,3.02,2.03l4.5-2.67-11.38-7.49,26.99-4.01.67-3.07-30,4.47c-1.32.2-2.78.15-4.02-.34-2.74-1.08-5.48-2.1-8.25-3.1-.03-.01-.07-.02-.1-.04,5.74-1.3,11.29-2.88,16.26-4.72l8.92-2.5c1.37-.38,2.68-.81,3.94-1.24,2.61-.64,5.46-1.27,7.49-1.53,1.31-.17,2.5-.28,3.59-.34l-.04.38c14.1,1.36,25.33,5.31,28.81,8.36.33.44,1.1,2.1,1.66,3.62l4.3-1.6c-.72-1.94-1.8-4.46-2.86-5.4-2.71-2.42-7.99-4.72-14.55-6.51.06-.12.11-.23.16-.33.57-1.14,3.25-.6,4.4-.35,1.15.25,5.84,1.43,6.21,1.06.12-.12.27-.36.42-.65,10.06,3.48,18.57,9.66,21.25,16.05L-33.37-7.34-79.17-.43c-.94-1.96-1.99-4.35-2.2-5.46-.46-2.34-2.22-10.57-2.3-10.92l-4.49.96c.02.09,1.83,8.54,2.28,10.84.27,1.38,1.16,3.51,1.97,5.29l-6.15.93-5.62-13.39c-1.48-3.54-7.58-3.75-10.13-3.67l.13,4.59c2.41-.07,5.18.39,5.8.95l5.13,12.23-44.28,6.65-2.47-6.02-4.95.9-33.52,4.91-12.83-30.59-4.77.72-1.37-3.26-66.4,10.13,16.69,39.79-22.83,3.45c-1-2-6.26-11.09-20.53-14.52-13.28-3.19-20.08-1.17-28.31-2.44-7.61-1.18-15.92-3.56-21.2-4.41l-2.9-6.84c7.82-1.18,41.95-6.4,41.95-6.4l-3.34-4.13s-34.73,5.29-40.45,6.16l-3.9-9.5c7.82-1.18,39.94-6.04,39.94-6.04l-1.87-4.41s-34.19,5.22-39.91,6.08l-6.21-14.68c-2.75-6.55-.72-11.02,1.46-13.62ZM-392.52,29.92c1.4-.21,2.57.16,3.07.49-.27.18-.75.39-1.44.5-1.41.21-2.59-.17-3.08-.49.27-.18.75-.4,1.45-.5ZM-462.7,19.95l16.38,39.05-46.19,6.98-16.38-39.05,46.19-6.98ZM-451.15,79.36l-5.91-14.09,12.57-1.9,5.91,14.09-12.57,1.9ZM-490.68,70.34l14.11-2.13,5.91,14.09-14.11,2.13-5.91-14.09ZM-566.64,95.86c-5.65.85-11.39-1.21-12.81-4.6-1.42-3.39,2.02-6.84,7.66-7.69,5.65-.85,11.39,1.21,12.81,4.6s-2.02,6.84-7.66,7.69ZM-425.45,198.87h0l-65,9.82c-15.67,2.37-17.67-2.41-18.86-5.26-.3-.72-.98-2.17-1.92-4.19-3.43-7.35-10.57-22.64-13.78-33.23-2.59-8.55.21-16.66,3.6-23.22,4.26-.47,8.57-1.69,9.08-3.09.09-.24.24-.68.42-1.26l40.67-.67,61.17-9.45-.69-4.54-60.86,9.41-38.89.64c.82-2.88,1.6-5.93,1.6-7.1,0-2.24-2.97-3.19-4.67-3.35-.96-.09-1.82-.51-2.5-1.1-1.1-3.5-2.88-7-4.48-10.16-.85-1.68-1.65-3.26-2.2-4.57-1.7-4.05-2.07-8.64-2.13-11.25l96.12-14.52-2.3-5.48-2.81.42-14.91-35.54,51.37-7.76c1.3,1.31,3.42,2.1,5.72,2.1.5,0,1-.04,1.51-.11,2.3-.35,4.12-1.44,5-3,.16-.29.29-.59.38-.89l36.51-5.51,4.62,11.01,13.83-2.09,14.91-2.25,9.98,23.78,3.3,2.86,1.38,3.29-5.04.76,1.92,4.57-8.11,1.23,2.24,5.34,15.13-2.29c9.93-1.5,7.83-6.51,6.94-8.64l-4.47-10.66,3-.45-2.65-6.32,6.31-.99,3.65-9.19c.1-.04.2-.07.3-.11l69.91-10.56,9.79,23.35-30.79,4.69,2.1,5,30.79-4.69,8.57,20.42-47.36,7.23-2.33-5.55-7.46,1.13,2.33,5.55-74.25,11.14-2.03-4.83-2.63.4-7.53-17.96-4.93.75-4.14-22.64-39.39,5.54,1.1,5.73-8.52,2.64-4.09,22.61,23.52-3.55,5.75,13.72,11.02-1.66,1.61,3.84-43.42,6.56-1.49-3.55-12.83,1.94,1.15,2.73-4.22.64,6.07,14.47.5-.07.51,3.36,32.89-4.97-.69-4.54-25.79,3.89-2.73-6.5,9.15-1.38-.04-.09,18.55-2.8,2.8,6.68,4.23-1.78-2.35-5.61,41.15-6.21,2.8,6.68,4.23-1.78-2.35-5.61,48.75-7.36,2.32,5.54-46.35,7,.69,4.54,24.55-3.73,9.79,22.73,7.32-1.09-1-4.48-3.47.5-7.96-18.37,18.27-2.73,1.95,4.66,9.43-1.42-6.11-14.56,23.32-3.52,24.05,57.32-22.02,3.27-4.32-10.11-11.81,1.72,4.44,10.25-98.8,14.87-3.68-3.78-1.49-3.55-16.88,2.55,1.49,3.55,7.29-1.1c2.7.52,8.74,2.08,10.27,5.72,1.28,3.04.45,5.42-.86,7.19-4.44,2.68-10.6,5.23-17.59,6.29l-25.89,3.91s-8.42,1.1-16.29,2.29l-.56.08c-8.89,1.34-11.85,5.13-12.35,10.47ZM-401.32,214.11l-.56.08c-3.86.58-7.79-.83-8.76-3.14l-5.18-11.68c-.97-2.32,1.38-4.67,5.24-5.26h0c3.86-.58,8.35.74,9.32,3.06l5.18,11.68c.97,2.32-1.38,4.67-5.24,5.26ZM-389.44,201.55l-4.7-11.2,24.47-3.7c6.44-.97,13.06-3.29,18.62-6.53,2.59-1.5,4.77-3.1,6.43-4.68,1.4,3.35,2.71,6.46,3.11,7.42.52,1.23-1.2,2.83-2.96,4.09-24.85,3.98-38.17,10.12-44.98,14.58Z"/>
  <g>
    <g>
      <polygon class="cls-14" points="43.83 50.23 113.25 39.79 113.25 32.05 43.83 41.88 43.83 50.23"/>
      <g>
        <polygon class="cls-15" points="50.45 47.97 46.74 48.58 46.74 45.73 50.45 45.12 50.45 47.97"/>
        <polygon class="cls-2" points="46.66 45.66 50.52 45.03 50.52 43.93 46.67 44.57 46.66 45.66"/>
        <line class="cls-15" x1="48.57" y1="45.44" x2="48.57" y2="48.27"/>
      </g>
      <g>
        <polygon class="cls-15" points="56.08 47.13 52.37 47.74 52.37 44.89 56.08 44.28 56.08 47.13"/>
        <polygon class="cls-2" points="52.29 44.82 56.15 44.19 56.15 43.09 52.3 43.73 52.29 44.82"/>
        <line class="cls-15" x1="54.2" y1="44.6" x2="54.2" y2="47.42"/>
      </g>
      <g>
        <polygon class="cls-15" points="61.71 46.25 58 46.86 58 44.01 61.71 43.4 61.71 46.25"/>
        <polygon class="cls-2" points="57.93 43.95 61.78 43.31 61.78 42.21 57.93 42.85 57.93 43.95"/>
        <line class="cls-15" x1="59.83" y1="43.72" x2="59.83" y2="46.55"/>
      </g>
      <g>
        <polygon class="cls-15" points="67.34 45.4 63.63 46.01 63.63 43.17 67.34 42.56 67.34 45.4"/>
        <polygon class="cls-2" points="63.56 43.1 67.41 42.46 67.41 41.36 63.56 42 63.56 43.1"/>
        <line class="cls-15" x1="65.47" y1="42.87" x2="65.47" y2="45.7"/>
      </g>
      <polygon class="cls-2" points="43.83 42.25 113.25 32.42 113.25 32.05 43.83 41.88 43.83 42.25"/>
      <polygon class="cls-4" points="43.83 42.25 43.83 43.87 113.26 34.13 113.25 32.42 43.83 42.25"/>
    </g>
    <polygon class="cls-9" points="29.63 7.59 29.17 10.18 42.18 42.12 43.83 41.88 36.73 22.19 29.63 7.59"/>
    <polygon class="cls-13" points="7.5 14.66 25.5 58.14 25.5 49.79 7.5 6.31 7.5 14.66"/>
    <g>
      <polygon class="cls-15" points="24.88 51.58 24.14 49.82 24.14 46.97 24.88 48.73 24.88 51.58"/>
      <line class="cls-15" x1="24.88" y1="49.43" x2="24.14" y2="47.73"/>
    </g>
    <polygon class="cls-14" points="35.46 54.28 44.93 52.59 44.93 44.55 34.78 45.17 35.46 54.28"/>
    <polygon class="cls-13" points="6.91 20.7 20.62 53.52 20.62 45.17 6.91 12.05 6.91 20.7"/>
    <polygon class="cls-2" points="6.91 15.64 20.62 48.77 20.62 47.94 6.91 14.82 6.91 15.64"/>
    <polygon class="cls-14" points="20.62 53.52 23.43 53.09 23.42 44.77 20.62 45.17 20.62 53.52"/>
    <polygon class="cls-14" points="11.36 42.29 15.61 41.54 15.61 36.81 11.36 37.41 11.36 42.29"/>
    <polygon class="cls-2" points="11.36 42.29 12.02 42.17 12.02 37.29 11.36 37.41 11.36 42.29"/>
    <polygon class="cls-2" points="12.3 42.13 12.96 42.01 12.96 37.13 12.31 37.26 12.3 42.13"/>
    <g>
      <polygon class="cls-15" points="20.29 47.25 19.17 44.56 19.17 41.71 20.29 44.41 20.29 47.25"/>
      <line class="cls-15" x1="19.71" y1="43" x2="19.65" y2="45.69"/>
      <line class="cls-15" x1="20.28" y1="45.33" x2="19.15" y2="42.76"/>
    </g>
    <g>
      <polygon class="cls-15" points="19.17 44.55 18.04 41.86 18.04 39.01 19.17 41.71 19.17 44.55"/>
      <line class="cls-15" x1="18.58" y1="40.3" x2="18.53" y2="42.99"/>
      <line class="cls-15" x1="19.16" y1="42.64" x2="18.03" y2="40.06"/>
    </g>
    <g>
      <polygon class="cls-15" points="17.58 40.7 16.46 38 16.46 35.15 17.58 37.85 17.58 40.7"/>
      <line class="cls-15" x1="17" y1="36.44" x2="16.95" y2="39.13"/>
      <line class="cls-15" x1="17.57" y1="38.78" x2="16.44" y2="36.2"/>
    </g>
    <g>
      <polygon class="cls-15" points="16.46 38 15.33 35.3 15.33 32.46 16.46 35.15 16.46 38"/>
      <line class="cls-15" x1="15.87" y1="33.74" x2="15.82" y2="36.44"/>
      <line class="cls-15" x1="16.45" y1="36.08" x2="15.32" y2="33.5"/>
    </g>
    <g>
      <polygon class="cls-15" points="14.89 34.01 13.77 31.31 13.77 28.46 14.89 31.16 14.89 34.01"/>
      <line class="cls-15" x1="14.31" y1="29.75" x2="14.25" y2="32.44"/>
      <line class="cls-15" x1="14.88" y1="32.09" x2="13.75" y2="29.51"/>
    </g>
    <g>
      <polygon class="cls-15" points="13.77 31.31 12.64 28.62 12.64 25.77 13.77 28.46 13.77 31.31"/>
      <line class="cls-15" x1="13.18" y1="27.05" x2="13.13" y2="29.75"/>
      <line class="cls-15" x1="13.75" y1="29.39" x2="12.63" y2="26.81"/>
    </g>
    <g>
      <polygon class="cls-15" points="12.18 27.47 11.06 24.78 11.06 21.93 12.18 24.63 12.18 27.47"/>
      <line class="cls-15" x1="11.6" y1="23.22" x2="11.54" y2="25.91"/>
      <line class="cls-15" x1="12.17" y1="25.55" x2="11.04" y2="22.97"/>
    </g>
    <g>
      <polygon class="cls-15" points="11.06 24.77 9.93 22.08 9.93 19.23 11.06 21.93 11.06 24.77"/>
      <line class="cls-15" x1="10.47" y1="20.52" x2="10.42" y2="23.21"/>
      <line class="cls-15" x1="11.05" y1="22.86" x2="9.92" y2="20.28"/>
    </g>
    <g>
      <polygon class="cls-15" points="9.55 21.16 8.43 18.46 8.43 15.62 9.55 18.31 9.55 21.16"/>
      <line class="cls-15" x1="8.97" y1="16.9" x2="8.91" y2="19.59"/>
      <line class="cls-15" x1="9.54" y1="19.24" x2="8.41" y2="16.66"/>
    </g>
    <g>
      <polygon class="cls-15" points="8.43 18.46 7.3 15.77 7.3 12.92 8.43 15.62 8.43 18.46"/>
      <line class="cls-15" x1="7.84" y1="14.2" x2="7.79" y2="16.9"/>
      <line class="cls-15" x1="8.42" y1="16.54" x2="7.29" y2="13.96"/>
    </g>
    <polygon class="cls-14" points="19.9 53.62 20.62 53.52 20.61 48.49 19.9 48.59 19.9 53.62"/>
    <polygon class="cls-13" points="19.69 53.15 19.9 53.62 19.9 48.59 19.69 48.12 19.69 53.15"/>
    <polygon class="cls-2" points="20.61 48.49 19.9 48.59 19.69 48.12 20.36 48.04 20.61 48.49"/>
    <polygon class="cls-14" points="15.27 42.47 15.99 42.37 15.93 37.37 15.27 37.45 15.27 42.47"/>
    <polygon class="cls-13" points="15.07 42.01 15.27 42.47 15.27 37.45 15.07 36.97 15.07 42.01"/>
    <polygon class="cls-2" points="15.93 37.37 15.27 37.45 15.07 36.97 15.73 36.89 15.93 37.37"/>
    <polygon class="cls-14" points="11.21 32.68 11.93 32.58 11.87 27.58 11.21 27.66 11.21 32.68"/>
    <polygon class="cls-14" points="6.4 21.22 7.12 21.12 7.07 16.12 6.4 16.2 6.4 21.22"/>
    <polygon class="cls-13" points="6.2 20.76 6.4 21.22 6.4 16.2 6.2 15.72 6.2 20.76"/>
    <polygon class="cls-2" points="7.14 16.1 6.4 16.2 6.2 15.72 6.94 15.62 7.14 16.1"/>
    <polygon class="cls-2" points="18.05 42.22 17.58 41.24 17.58 38.09 18.05 39.21 18.05 42.22"/>
    <polygon class="cls-2" points="20.61 48.49 20.34 47.81 20.35 44.74 20.61 45.48 20.61 48.49"/>
    <polygon class="cls-2" points="12.65 29.08 12.18 28.1 12.18 24.95 12.65 26.07 12.65 29.08"/>
    <polygon class="cls-2" points="15.36 35.63 14.9 34.66 14.9 31.51 15.36 32.62 15.36 35.63"/>
    <polygon class="cls-2" points="9.97 22.69 9.5 21.71 9.5 18.56 9.97 19.68 9.97 22.69"/>
    <polygon class="cls-2" points="7.24 16 6.91 15.64 6.91 12.41 7.22 12.87 7.24 16"/>
    <polygon class="cls-2" points="6.91 12.41 20.62 45.53 20.62 45.17 6.91 12.05 6.91 12.41"/>
    <polygon class="cls-4" points="6.91 12.41 6.91 14.03 20.62 47.24 20.62 45.53 6.91 12.41"/>
    <polygon class="cls-13" points="7.61 32.66 11.36 42.29 11.36 33.94 9.34 28.89 8.5 28.72 7.61 29.1 7.61 32.66"/>
    <g>
      <polygon class="cls-15" points="10.93 41.22 9.34 37.34 9.27 32.14 10.85 35.72 10.93 41.22"/>
      <line class="cls-15" x1="10.03" y1="35.73" x2="10" y2="38.9"/>
    </g>
    <g>
      <polygon class="cls-15" points="9.34 37.34 7.99 34.04 7.96 31.05 9.3 34.09 9.34 37.34"/>
      <line class="cls-15" x1="8.58" y1="32.44" x2="8.55" y2="35.37"/>
    </g>
    <polygon class="cls-2" points="11.01 41.41 11.36 42.29 11.36 37.41 10.9 36.24 11.01 41.41"/>
    <polygon class="cls-2" points="7.61 32.66 7.95 33.54 7.97 29.94 7.51 28.76 7.61 32.66"/>
    <g>
      <polygon class="cls-15" points="18.76 48.12 18.02 46.36 18.02 43.51 18.76 45.27 18.76 48.12"/>
      <g>
        <polygon class="cls-15" points="19.5 49.88 18.76 48.12 18.76 45.27 19.5 47.03 19.5 49.88"/>
        <line class="cls-15" x1="19.5" y1="47.73" x2="18.03" y2="44.33"/>
      </g>
    </g>
    <g>
      <polygon class="cls-15" points="10.39 28.16 9.65 26.4 9.65 23.55 10.39 25.32 10.39 28.16"/>
      <g>
        <polygon class="cls-15" points="11.13 29.92 10.39 28.16 10.39 25.31 11.13 27.08 11.13 29.92"/>
        <line class="cls-15" x1="11.13" y1="27.78" x2="9.66" y2="24.38"/>
      </g>
    </g>
    <g>
      <polygon class="cls-15" points="8.13 22.65 7.39 20.89 7.39 18.04 8.13 19.8 8.13 22.65"/>
      <g>
        <polygon class="cls-15" points="8.87 24.41 8.13 22.65 8.13 19.8 8.87 21.57 8.87 24.41"/>
        <line class="cls-15" x1="8.87" y1="22.26" x2="7.4" y2="18.87"/>
      </g>
    </g>
    <g>
      <polygon class="cls-15" points="16.84 43.47 16.1 41.71 16.1 38.86 16.84 40.62 16.84 43.47"/>
      <g>
        <polygon class="cls-15" points="17.58 45.23 16.84 43.47 16.84 40.62 17.58 42.38 17.58 45.23"/>
        <line class="cls-15" x1="17.58" y1="43.08" x2="16.1" y2="39.69"/>
      </g>
    </g>
    <polygon class="cls-14" points="17.13 46.93 17.86 46.83 17.8 41.82 17.13 41.9 17.13 46.93"/>
    <polygon class="cls-13" points="16.93 46.47 17.13 46.93 17.13 41.9 16.93 41.43 16.93 46.47"/>
    <polygon class="cls-2" points="17.8 41.82 17.13 41.9 16.93 41.43 17.6 41.35 17.8 41.82"/>
    <polygon class="cls-13" points="11.01 32.22 11.21 32.68 11.21 27.66 11.01 27.18 11.01 32.22"/>
    <polygon class="cls-2" points="11.87 27.58 11.21 27.66 11.01 27.18 11.67 27.1 11.87 27.58"/>
    <polygon class="cls-14" points="8.84 26.87 9.56 26.77 9.5 21.77 8.84 21.85 8.84 26.87"/>
    <polygon class="cls-13" points="8.63 26.41 8.84 26.87 8.84 21.85 8.63 21.37 8.63 26.41"/>
    <polygon class="cls-2" points="9.5 21.77 8.84 21.85 8.63 21.37 9.3 21.29 9.5 21.77"/>
    <polygon class="cls-2" points="20.61 45.49 23.42 45.1 23.42 44.77 20.62 45.17 20.61 45.49"/>
    <polygon class="cls-2" points="23.29 53.11 23.43 53.09 23.42 44.77 23.28 44.81 23.29 53.11"/>
    <g>
      <polygon class="cls-15" points="38.62 49.28 34.91 49.89 34.91 47.04 38.62 46.43 38.62 49.28"/>
      <polygon class="cls-2" points="34.84 46.98 38.69 46.34 38.69 45.96 34.84 46.6 34.84 46.98"/>
      <line class="cls-15" x1="36.09" y1="46.83" x2="36.09" y2="49.66"/>
      <line class="cls-15" x1="37.49" y1="46.62" x2="37.49" y2="49.45"/>
      <line class="cls-15" x1="38.62" y1="47.13" x2="34.88" y2="47.73"/>
    </g>
    <g>
      <polygon class="cls-15" points="44.13 48.45 40.42 49.06 40.42 46.22 44.13 45.61 44.13 48.45"/>
      <polygon class="cls-2" points="40.35 46.15 44.21 45.51 44.21 45.13 40.35 45.77 40.35 46.15"/>
      <line class="cls-15" x1="41.6" y1="46.01" x2="41.6" y2="48.83"/>
      <line class="cls-15" x1="43" y1="45.8" x2="43" y2="48.62"/>
      <line class="cls-15" x1="44.13" y1="46.3" x2="40.39" y2="46.91"/>
    </g>
    <polygon class="cls-8" points="39.54 49.92 36.02 50.53 36.98 52.81 40.46 52.19 39.54 49.92"/>
    <polygon class="cls-14" points="25.5 58.14 36.48 56.28 36.48 48.24 30.99 46.46 25.5 49.79 25.5 58.14"/>
    <path class="cls-15" d="M32.98,49.58c0,.89-.73,1.71-1.7,1.85-1.05.15-1.98-.56-2-1.59-.02-1.04.9-1.9,1.97-1.9.98,0,1.73.74,1.73,1.64Z"/>
    <line class="cls-15" x1="32.87" y1="50.08" x2="29.53" y2="50.63"/>
    <line class="cls-15" x1="32.87" y1="48.9" x2="29.31" y2="49.47"/>
    <line class="cls-15" x1="30.46" y1="48.1" x2="30.46" y2="51.32"/>
    <line class="cls-15" x1="31.7" y1="48.06" x2="31.7" y2="51.32"/>
    <g>
      <polygon class="cls-15" points="33 56.12 29.3 56.73 29.3 53.88 33 53.27 33 56.12"/>
      <polygon class="cls-2" points="29.22 53.82 33.08 53.18 33.08 52.8 29.23 53.44 29.22 53.82"/>
      <line class="cls-15" x1="30.47" y1="53.67" x2="30.47" y2="56.5"/>
      <line class="cls-15" x1="31.87" y1="53.46" x2="31.87" y2="56.29"/>
      <line class="cls-15" x1="33" y1="53.97" x2="29.27" y2="54.57"/>
    </g>
    <polygon class="cls-2" points="39.8 56.36 40.46 56.24 40.46 52.19 39.81 52.32 39.8 56.36"/>
    <polygon class="cls-2" points="36.97 56.85 37.64 56.73 37.64 52.68 36.98 52.81 36.97 56.85"/>
    <g>
      <polygon class="cls-15" points="8.92 12.99 8.19 11.23 8.19 8.38 8.92 10.15 8.92 12.99"/>
      <line class="cls-15" x1="8.92" y1="10.84" x2="8.19" y2="9.15"/>
    </g>
    <polygon class="cls-2" points="7.5 6.68 25.5 50.16 25.5 49.79 7.5 6.31 7.5 6.68"/>
    <polygon class="cls-4" points="23.42 44.77 23.42 46.84 25.5 51.87 25.5 49.79 23.42 44.77"/>
    <polygon class="cls-4" points="20.62 45.17 20.62 47.24 23.42 46.84 23.42 44.77 20.62 45.17"/>
    <polygon class="cls-4" points="7.5 6.31 7.5 7.93 9.71 13.36 9.71 11.65 7.5 6.31"/>
    <polygon class="cls-2" points="25.49 50.17 30.99 46.85 30.99 46.46 25.5 49.79 25.49 50.17"/>
    <polygon class="cls-2" points="30.98 46.84 36.48 48.62 36.48 48.24 30.99 46.46 30.98 46.84"/>
    <polygon class="cls-4" points="34.64 46.02 35.89 47.94 44.93 46.62 44.93 44.55 34.64 46.02"/>
    <g>
      <polygon class="cls-12" points="29.34 46.76 30.56 46.58 30.98 46.35 31.29 46.48 44.93 44.55 28.39 4.58 12.8 6.79 29.34 46.76"/>
      <polygon class="cls-3" points="7.5 6.31 9.71 11.65 6.91 12.05 20.62 45.17 23.42 44.77 25.5 49.79 30.99 46.46 12.99 2.98 7.5 6.31"/>
      <polygon class="cls-1" points="21.07 11 15.57 9.22 12.99 2.98 18.48 4.76 21.07 11"/>
      <polygon class="cls-1" points="36.48 48.24 30.99 46.46 28.41 40.22 33.9 42 36.48 48.24"/>
      <polygon class="cls-10" points="43.83 41.88 113.25 32.05 106.16 12.36 36.73 22.19 43.83 41.88"/>
      <polygon class="cls-11" points="36.73 22.19 106.16 12.36 99.06 -2.24 29.63 7.59 36.73 22.19"/>
      <path class="cls-12" d="M11.8,27.59l-4.25.6s-.51,1.94.69,4.85c1.2,2.9,3.12,4.38,3.12,4.38l4.26-.6-3.82-9.22Z"/>
    </g>
    <polygon class="cls-9" points="15.57 9.22 28.41 40.22 29.61 40.59 16.66 9.57 15.57 9.22"/>
    <polygon class="cls-9" points="21.07 11 17.05 11.45 16.66 9.57 21.07 11"/>
    <polygon class="cls-6" points="29.16 49.65 29.16 57.5 28.36 57.66 28.36 50.13 29.16 49.65"/>
    <polygon class="cls-14" points="28.99 49.73 29 57.55 28.59 57.61 28.59 50 28.99 49.73"/>
    <polygon class="cls-6" points="33.92 49.48 33.92 56.68 33.11 56.83 33.11 49.22 33.92 49.48"/>
    <polygon class="cls-14" points="33.75 49.43 33.75 56.73 33.34 56.79 33.34 49.29 33.75 49.43"/>
    <polygon class="cls-4" points="25.5 49.79 25.5 51.87 30.99 48.53 30.99 46.46 25.5 49.79"/>
    <polygon class="cls-4" points="30.99 46.46 30.99 48.54 36.48 50.3 36.48 48.24 30.99 46.46"/>
  </g>
</svg>