<?xml version="1.0" encoding="UTF-8"?>
<svg id="map" xmlns="http://www.w3.org/2000/svg" xmlns:xlink="http://www.w3.org/1999/xlink" viewBox="0 0 80.67 72.91">
  <defs>
    <style>
      .cls-1 {
        stroke: #fff;
        stroke-miterlimit: 10;
        stroke-width: .51px;
      }

      .cls-1, .cls-2 {
        fill: #fff;
      }

      .cls-3 {
        fill: #333;
      }

      .cls-3, .cls-4, .cls-5, .cls-6, .cls-7, .cls-8, .cls-9, .cls-10, .cls-11, .cls-12, .cls-13, .cls-14, .cls-15, .cls-16, .cls-17, .cls-2, .cls-18, .cls-19 {
        stroke-width: 0px;
      }

      .cls-4 {
        fill: url(#linear-gradient);
      }

      .cls-5 {
        opacity: .2;
      }

      .cls-5, .cls-10 {
        fill: #000;
      }

      .cls-6 {
        fill: #8cb835;
      }

      .cls-7 {
        fill: #f1f2f2;
      }

      .cls-8 {
        fill: #9b5b5b;
      }

      .cls-9 {
        fill: #999;
      }

      .cls-11 {
        fill: #884f4f;
      }

      .cls-12 {
        fill: #f2f2f2;
      }

      .cls-13 {
        fill: url(#linear-gradient-4);
      }

      .cls-14 {
        fill: url(#linear-gradient-2);
      }

      .cls-15 {
        fill: url(#linear-gradient-3);
      }

      .cls-16 {
        fill: url(#linear-gradient-5);
      }

      .cls-17 {
        fill: #3f7fb7;
      }

      .cls-18 {
        fill: #c27171;
      }

      .cls-19 {
        fill: #e5e5e5;
      }
    </style>
    <linearGradient id="linear-gradient" x1="16.09" y1="45.33" x2="82.1" y2="45.33" gradientUnits="userSpaceOnUse">
      <stop offset="0" stop-color="#7f4340"/>
      <stop offset="1" stop-color="#b16767"/>
    </linearGradient>
    <linearGradient id="linear-gradient-2" x1="38.24" y1="53.79" x2="48.15" y2="53.79" xlink:href="#linear-gradient"/>
    <linearGradient id="linear-gradient-3" x1="-2.66" y1="12.64" x2="1.37" y2="12.64" xlink:href="#linear-gradient"/>
    <linearGradient id="linear-gradient-4" x1="60.26" y1="44.88" x2="71.9" y2="44.88" xlink:href="#linear-gradient"/>
    <linearGradient id="linear-gradient-5" x1="15.91" y1="51.77" x2="27.54" y2="51.77" xlink:href="#linear-gradient"/>
  </defs>
  <path class="cls-17" d="M51.08-207.56c-29.17,1.36-297.8,23.06-344.95,49.52-54.34,30.49-44.77,99.72-38.67,153.31,5.63,49.44,383.61-202.83,383.61-202.83Z"/>
  <path class="cls-6" d="M842.59,303.27c28.49-59.5-54.18-238.94-89.6-311.4-35.42-72.46-99.31-161.2-174.79-189.26-90.3-33.58-194.59-32.77-237.48-30.9-42.89,1.87-93.1,4.07-93.1,4.07L13.81-205.13l-24.03,1.96s-56.16,2.4-75.69,30.97c-6.71,9.81-16.38,20.43-28.27,29.83-13.78,10.88-39.39,18.35-39.39,18.35l-29.13-9.37s-11.94-4.07-10.96-.9,18.31,12.58,18.44,15.56c.13,2.98-12.37,14.29-34.96,12.03-9.15-.92-21.33-3.28-33.48-4.18-23.56-1.75-47.15,5.09-59.36,13.57-10.35,7.18-32.9,9.16-32.9,9.16-6.44,38.33,5.76,106.07,11.91,142.45,5.14,30.4,21.38,65.17,46.03,86.84,28.13,24.72,57.57,26.63,91.86,23.23,7.15-.71,23.43-2.2,43.21-.85,13.92.95,48.06,18.99,102.01,9.5,59.09-10.4,97.23-53.48,116.74-56.98,113.83-20.43,169.77-26.66,210.8-11.19,35.96,13.56,71.64,69.79,94.2,112.05,14.69,27.52,19.82,34.68,41.29,57.21,40.42,42.4,156.79,80.32,230.79,87.01,74,6.69,162.07-.18,189.67-57.81Z"/>
  <path class="cls-9" d="M-36.45,197.67c5.6-11.89,6.52-30.33,2.48-49.33-2.11-9.88-.14-16.91,1.63-20.1,7.19-1.63,11.59-6.06,10.58-10.63,2.44-2.48,13.32-11.48,46.58-16.5l265.8-40.14c6.05,4.33,29.04,21.17,44.85,37.69,19.37,20.24,38.15,41.14,55.06,74.15l9-1.66c-17.2-33.56-36.25-54.77-55.9-75.3-14.43-15.08-34.13-30.01-42.89-36.41l99.41-15.01c5.75,3.16,24.7,13.99,30.86,22.56l.58.81c7.37,10.26,17.46,24.32,43.68,34.48,12.09,4.68,24.87,9.9,36.5,17.67,12.27,8.19,22.19,18.61,30.35,31.85,12.37,20.09,25.52,47.31,36.08,69.18,4.86,10.07,9.06,18.76,12.38,25.1,10.49,20.02,16.93,31.68,27.5,38.62,2.61,1.71,5.08,3.01,7.26,4.16,6.37,3.35,11.41,6,16.08,17.14l23.49,56.02,5.06.33-24.09-57.03c-5.02-11.97-10.81-15.02-17.51-18.54-2.19-1.15-4.46-2.34-6.9-3.95-9.91-6.51-16.22-17.94-26.51-37.59-3.31-6.32-7.5-14.99-12.35-25.04-10.58-21.91-23.75-49.19-36.18-69.37-18.17-29.5-41.85-40.5-68.66-50.89-25.05-9.7-34.42-22.76-41.96-33.25l-.59-.82c-5.92-8.24-22.17-17.99-29.76-22.27l29.6-4.47c2.38-.28,4.74-.58,7.03-.93,21.71-3.28,21.85-10.44,20.53-13.59-.19-.44-.56-1.36-1.08-2.62l10.58-1.35,4.96,12.21,7.69-.85-5.02-12.33,55.17-7.91-4.29-10.22-4.23,1.78,2.01,4.78-50.49,7.2-2.54-5.68-7.18,2.04,2.09,4.61-10.53,1.34c-3.88-9.49-10.49-25.68-13.44-32.72-4.06-9.67-22.65-10.64-28.9-9.7-6.25.94-24.67,3.73-34.21,5.17-4.56.69-7.68-1.29-9.86-3.94l-17.77-42.36c-1.83-10.9.05-28.92,18.8-33.07l8.13-1.23c21.55-3.25,53.86-.4,78.58,6.95,3.66,1.09,9.72,2.86,17.39,5.09,43.04,12.56,143.82,41.96,167.23,52.57,23.33,10.57,48.92,33.04,60.36,44.66,5.15,5.23,11.52,12.58,15.05,23.05,3.87,11.49,3.66,24.41-.66,39.51l9.28.95c9.93-34.75-3.1-53.73-15.57-66.39-3.25-3.3-32.62-32.62-62.79-46.29-24.15-10.94-121.84-39.45-168.79-53.14-7.65-2.23-13.7-4-17.33-5.08-26.97-8.02-61.15-10.98-85.05-7.37l-38.86,5.87-15.49-36.93c-4.51-10.75-21.41-20.64-39.32-23.01-18.29-2.42-34.79-.83-47.7,2.79l-7.15,1.71c-4.76,1.33-13.58,3.75-22.82,6.03l-2.99-7.12c6.41-2.14,9.91-6.68,8.03-11.15l-.39-.92,9.85-1.49-1.46-3.49-9.85,1.49-2.26-5.33,9.85-1.49-1.46-3.49-10.29,1.55c-.96-.83-2.72-2.02-4.83-2.92l-3.2-7.63-5.81.88,2.11,5.03c-2.2-.22-4.51-.18-6.81.16l-.56.08c-7.61,1.15-12.67,5.3-12.57,9.81l-10.18,1.54,1.46,3.49,9.74-1.47,1.99,4.74-9.96,1.5,1.46,3.49,9.96-1.5.39.92c1.78,4.25,7.9,7.18,14.81,7.51l3.39,8.08c-8.25,1.85-15.8,3.25-19.94,3.28-13.81.11-24.45-2.62-38.47-7.39-3.02-1.03-5.78-2.24-8.71-3.52-9.38-4.11-20-8.76-38.76-5.93l-79.93,12.07c-7.79,1.18-14.51,4.52-18.42,9.18-3.18,3.79-4.42,8.21-3.67,12.98l-2.37.36c-3.12.47-5.02,2.38-4.24,4.25L4.36-75.08c.78,1.87,3.97,3.01,7.09,2.54l1.78-.27,1.46,3.48-36.09,5.45c-1.61-1.43-4.26-2.16-6.97-1.75-2.3.35-4.12,1.44-5,3-.11.19-.2.39-.27.59l-52.16,7.88-9.22-21.97-55.55,8.39L-124.62-5.86-165.91.38c-3.89.59-12.97-.99-18.54-2.36-.07-.74-.26-1.48-.57-2.23-2.69-6.41-13.56-10.31-24.24-8.69-10.68,1.61-17.18,8.14-14.49,14.54,2.69,6.41,13.56,10.31,24.24,8.69,6.12-.92,10.86-3.46,13.29-6.66,3.8.87,10.63,2.24,16.75,2.45.12,2.96.62,7.58,2.4,11.83.61,1.44,1.44,3.09,2.33,4.84,2.97,5.84,7.03,13.85,4.16,18.7-.33.56-.69,1.16-1.07,1.78-2.84,4.71-6.56,10.87-8.18,17.93-3.61.11-10.13.72-19.77,3.18-5.57,1.42-13.81,3.16-22.52,5.01-15.07,3.19-32.15,6.81-42.13,10.13-3.92,1.3-7.58,2.55-11.13,3.77-10.4,3.56-19.39,6.64-27.58,8.34-10.89,2.26-18.03,3.18-18.21,3.2l2.2,4.58c.18-.02,5.89-.99,16.94-3.29,8.47-1.76,17.58-4.88,28.13-8.49,3.54-1.21,7.19-2.46,11.09-3.76,9.74-3.23,26.68-6.82,41.63-9.99,8.76-1.86,17.04-3.61,22.71-5.05,8.55-2.18,14.48-2.83,17.92-3-.25,3.27.02,6.69,1.09,10.22,3.29,10.84,10.51,26.31,13.98,33.74.89,1.9,1.59,3.4,1.86,4.04.63,1.49,2.09,4.99,6.91,7.45,5.45,2.78,13.31,3.42,23.38,1.9l65-9.82,3.39,8.09c1.59,3.8,6.64,6.54,12.63,7.32-1.56,3.92-3.06,10.68-1,20.31,3.89,18.28,3.07,35.87-2.2,47.07l9.06,1.54ZM190.24-163.95l-4.36-10.4c-.97-2.32,1.38-4.67,5.24-5.26l.56-.08c3.86-.58,7.79.83,8.76,3.14l4.36,10.4c.97,2.32-1.38,4.67-5.24,5.26l-.56.08c-3.86.58-7.79-.83-8.76-3.14ZM231.92-19.32l-22.32,25.63-11.92,1.8-40.07-16.21,74.3-11.22ZM149.19-6.83l10.69,25.49,4.23-1.78-8.8-20.97,41.81,16.91,14.83-2.24,23.94-27.5,9.5,22.65,4.23-1.78-10.25-24.42,22.95-3.47,24.05,57.32-58.93,8.9-6.62-15.78-16.79,2.54,6.62,15.78-57.52,8.69L129.09-3.79l20.1-3.04ZM297.16,49.83c-.82-1.97-4.39-10.47-6.14-14.64l.93-.39-24.93-59.42,89.69-13.55,32.88,78.37-85.77,12.95c-2.79-.73-6.05-1.87-6.66-3.32ZM178.79-17.61l-20.46-48.76,175.43-26.49,20.46,48.76-175.43,26.49ZM128.86-67.75c-1.66-3.96-11.54-27.51-12.22-29.13-.75-1.78-.42-4.76,5.83-5.71,6.25-.94,30.1-4.55,30.1-4.55l2.9,6.91,9.7-1.47s.24-1.09,1.64-1.93c1.4-.84,4.28-.65,4.28-.65l2.98,7.1s1.56.39,2.39,2.37c.83,1.97,2.53,6.02,2.53,6.02l-1.64.25,1.12,2.66,1.97-.3,1.78,4.24-22.37,3.38,2.41,5.75-33.39,5.04ZM8.13-137.12c2.58-3.07,6.62-5.22,11.54-5.96l31.41-4.62,9.04,21.55,4.23-1.78-8.59-20.48,40.16-6.19c14.12-2.13,21.24.99,30.26,4.94,3.03,1.33,6.17,2.7,9.69,3.9,15.33,5.21,32.25,10.42,47.55,10.89,8.84.28,21.6-.73,34.32-3.02l-.03.07c1.37.53,2.75,1.05,4.12,1.58,2.61,1,5.21,2,7.82,3,2.52.97,5,2.01,7.48,3.06,1.35.57,2.53,1.52,3.75,2.34l3.68,2.48c1.01.68,2.01,1.36,3.02,2.03l4.5-2.67-11.38-7.49,26.99-4.01.67-3.07-30,4.47c-1.32.2-2.78.15-4.02-.34-2.74-1.08-5.48-2.1-8.25-3.1-.03-.01-.07-.02-.1-.04,5.74-1.3,11.29-2.88,16.26-4.72l8.92-2.5c1.37-.38,2.68-.81,3.94-1.24,2.61-.64,5.46-1.27,7.49-1.53,1.31-.17,2.5-.28,3.59-.34l-.04.38c14.1,1.36,25.33,5.31,28.81,8.36.33.44,1.1,2.1,1.66,3.62l4.3-1.6c-.72-1.94-1.8-4.46-2.86-5.4-2.71-2.42-7.99-4.72-14.55-6.51.06-.12.11-.23.16-.33.57-1.14,3.25-.6,4.4-.35,1.15.25,5.84,1.43,6.21,1.06.12-.12.27-.36.42-.65,10.06,3.48,18.57,9.66,21.25,16.05l15.49,36.93-45.8,6.92c-.94-1.96-1.99-4.35-2.2-5.46-.46-2.34-2.22-10.57-2.3-10.92l-4.49.96c.02.09,1.83,8.54,2.28,10.84.27,1.38,1.16,3.51,1.97,5.29l-6.15.93-5.62-13.39c-1.48-3.54-7.58-3.75-10.13-3.67l.13,4.59c2.41-.07,5.18.39,5.8.95l5.13,12.23-44.28,6.65-2.47-6.02-4.95.9-33.52,4.91-12.83-30.59-4.77.72-1.37-3.26-66.4,10.13,16.69,39.79-22.83,3.45c-1-2-6.26-11.09-20.53-14.52-13.28-3.19-20.08-1.17-28.31-2.44-7.61-1.18-15.92-3.56-21.2-4.41l-2.9-6.84c7.82-1.18,41.95-6.4,41.95-6.4l-3.34-4.13s-34.73,5.29-40.45,6.16l-3.9-9.5c7.82-1.18,39.94-6.04,39.94-6.04l-1.87-4.41s-34.19,5.22-39.91,6.08l-6.21-14.68c-2.75-6.55-.72-11.02,1.46-13.62ZM-27.68-61.08c1.4-.21,2.57.16,3.07.49-.27.18-.75.39-1.44.5-1.41.21-2.59-.17-3.08-.49.27-.18.75-.4,1.45-.5ZM-97.87-71.05l16.38,39.05-46.19,6.98-16.38-39.05,46.19-6.98ZM-86.31-11.64l-5.91-14.09,12.57-1.9,5.91,14.09-12.57,1.9ZM-125.85-20.66l14.11-2.13,5.91,14.09-14.11,2.13-5.91-14.09ZM-201.81,4.86c-5.65.85-11.39-1.21-12.81-4.6-1.42-3.39,2.02-6.84,7.66-7.69,5.65-.85,11.39,1.21,12.81,4.6s-2.02,6.84-7.66,7.69ZM-60.62,107.87h0l-65,9.82c-15.67,2.37-17.67-2.41-18.86-5.26-.3-.72-.98-2.17-1.92-4.19-3.43-7.35-10.57-22.64-13.78-33.23-2.59-8.55.21-16.66,3.6-23.22,4.26-.47,8.57-1.69,9.08-3.09.09-.24.24-.68.42-1.26l40.67-.67,61.17-9.45-.69-4.54-60.86,9.41-38.89.64c.82-2.88,1.6-5.93,1.6-7.1,0-2.24-2.97-3.19-4.67-3.35-.96-.09-1.82-.51-2.5-1.1-1.1-3.5-2.88-7-4.48-10.16-.85-1.68-1.65-3.26-2.2-4.57-1.7-4.05-2.07-8.64-2.13-11.25L-63.95-9.2l-2.3-5.48-2.81.42-14.91-35.54,51.37-7.76c1.3,1.31,3.42,2.1,5.72,2.1.5,0,1-.04,1.51-.11,2.3-.35,4.12-1.44,5-3,.16-.29.29-.59.38-.89l36.51-5.51,4.62,11.01,13.83-2.09,14.91-2.25,9.98,23.78,3.3,2.86,1.38,3.29-5.04.76,1.92,4.57-8.11,1.23,2.24,5.34,15.13-2.29c9.93-1.5,7.83-6.51,6.94-8.64l-4.47-10.66,3-.45-2.65-6.32,6.31-.99,3.65-9.19c.1-.04.2-.07.3-.11l69.91-10.56,9.79,23.35-30.79,4.69,2.1,5,30.79-4.69,8.57,20.42-47.36,7.23-2.33-5.55-7.46,1.13,2.33,5.55L45.04,2.59l-2.03-4.83-2.63.4-7.53-17.96-4.93.75-4.14-22.64-39.39,5.54,1.1,5.73-8.52,2.64-4.09,22.61L-3.6-8.74,2.15,4.98l11.02-1.66,1.61,3.84-43.42,6.56-1.49-3.55-12.83,1.94,1.15,2.73-4.22.64,6.07,14.47.5-.07.51,3.36L-6.06,28.27l-.69-4.54-25.79,3.89-2.73-6.5,9.15-1.38-.04-.09,18.55-2.8,2.8,6.68,4.23-1.78-2.35-5.61,41.15-6.21,2.8,6.68,4.23-1.78-2.35-5.61L91.66,1.86l2.32,5.54-46.35,7,.69,4.54,24.55-3.73,9.79,22.73,7.32-1.09-1-4.48-3.47.5-7.96-18.37,18.27-2.73,1.95,4.66,9.43-1.42L101.09.43l23.32-3.52,24.05,57.32-22.02,3.27-4.32-10.11-11.81,1.72,4.44,10.25-98.8,14.87-3.68-3.78-1.49-3.55-16.88,2.55,1.49,3.55,7.29-1.1c2.7.52,8.74,2.08,10.27,5.72,1.28,3.04.45,5.42-.86,7.19-4.44,2.68-10.6,5.23-17.59,6.29l-25.89,3.91s-8.42,1.1-16.29,2.29l-.56.08c-8.89,1.34-11.85,5.13-12.35,10.47ZM-36.48,123.11l-.56.08c-3.86.58-7.79-.83-8.76-3.14l-5.18-11.68c-.97-2.32,1.38-4.67,5.24-5.26h0c3.86-.58,8.35.74,9.32,3.06l5.18,11.68c.97,2.32-1.38,4.67-5.24,5.26ZM-24.61,110.55l-4.7-11.2,24.47-3.7c6.44-.97,13.06-3.29,18.62-6.53,2.59-1.5,4.77-3.1,6.43-4.68,1.4,3.35,2.71,6.46,3.11,7.42.52,1.23-1.2,2.83-2.96,4.09-24.85,3.98-38.17,10.12-44.98,14.58Z"/>
  <polygon class="cls-6" points="181.28 70.96 42.91 91.86 41.42 88.31 179.79 67.41 181.28 70.96"/>
  <g>
    <polygon class="cls-7" points="13.88 65.48 -2.18 25.62 -2.03 13.12 13.97 53.38 13.88 65.48"/>
    <polygon class="cls-19" points="81.29 54.8 29.99 62.28 29.99 50.1 81.36 42.49 81.29 54.8"/>
    <polygon class="cls-19" points="68.18 60.57 16.87 68.06 16.87 55.87 68.24 48.27 68.18 60.57"/>
    <polygon class="cls-3" points="48.8 3.68 45.91 .53 1.14 7.76 -1.35 9.46 15.81 49.54 76.86 37.55 63.32 6.86 51.56 7.54 48.8 3.68"/>
    <polygon class="cls-18" points="-2.03 13.12 1.49 8.65 19.11 52.57 13.97 53.38 -2.03 13.12"/>
    <polygon class="cls-11" points="58.81 8.51 64.79 3.47 82.1 42.37 70.06 35.03 58.81 8.51"/>
    <polygon class="cls-8" points="1.37 8.8 -6.24 8.05 5.4 6.24 37.9 1.19 49.54 -.62 45.51 1.95 1.37 8.8"/>
    <polygon class="cls-18" points="-6.24 8.05 1.37 8.8 -2.66 16.47 -6.24 8.05"/>
    <polygon class="cls-4" points="82.1 42.37 70.06 35.03 64.57 36.03 63.48 37.9 16.09 45.24 20.36 55.63 67.83 48.25 66.71 44.77 82.1 42.37"/>
    <polygon class="cls-8" points="23.96 45.37 19.93 47.94 12.33 47.18 23.96 45.37"/>
    <polygon class="cls-11" points="27.54 53.8 19.93 47.94 23.96 45.37 27.54 53.8"/>
    <polygon class="cls-14" points="38.24 56.96 41.61 50.62 48.15 55.42 38.24 56.96"/>
    <polygon class="cls-8" points="68.32 38.48 64.29 41.05 56.68 40.29 68.32 38.48"/>
    <polygon class="cls-18" points="56.68 40.29 64.29 41.05 60.26 48.72 56.68 40.29"/>
    <polygon class="cls-11" points="49.54 -.62 45.51 1.95 48.07 7.98 52.1 5.41 49.54 -.62"/>
    <polygon class="cls-8" points="58.81 8.51 51.93 9.58 48.07 7.98 52.1 5.41 64.79 3.47 58.81 8.51"/>
    <polygon class="cls-19" points="48.09 67.02 38.24 68.44 38.24 56.96 48.15 55.42 48.09 67.02"/>
    <polygon class="cls-7" points="58.56 61.92 60.26 65.5 60.26 48.72 57.05 41.19 58.63 49.65 58.56 61.92"/>
    <polygon class="cls-7" points="36.53 65.14 38.24 68.44 38.24 56.96 36.62 53.16 36.53 65.14"/>
    <polygon class="cls-15" points="-2.66 16.47 1.37 8.8 -.79 16.24 -2.66 16.47"/>
    <g>
      <g>
        <path class="cls-2" d="M47.36,62.07l-.91.14c0-1.76-1.42-2.95-3.16-2.67-1.73.28-3.12,1.92-3.12,3.66l-.9.14v3.87l.9-.14v1.14l6.27-.93v-1.15l.93-.14v-3.93Z"/>
        <path class="cls-2" d="M39.93,68.5v-1.14l-.9.14v-4.34l.91-.14c.1-1.77,1.55-3.4,3.31-3.69.92-.15,1.78.07,2.43.62.58.49.93,1.2.99,2l.92-.15v4.4l-.93.14v1.15l-6.73,1ZM40.39,66.83v1.14l5.82-.87v-1.15l.93-.14v-3.47l-.91.14v-.27c0-.78-.3-1.46-.84-1.92-.55-.46-1.28-.65-2.06-.52-1.62.27-2.93,1.81-2.93,3.44v.2l-.9.14v3.41l.9-.14Z"/>
      </g>
      <path class="cls-10" d="M47.36,62.07l-.91.14c0-1.76-1.42-2.95-3.16-2.67-1.73.28-3.12,1.92-3.12,3.66l-.9.14v3.87l.9-.14v1.14l6.27-.93v-1.15l.93-.14v-3.93Z"/>
    </g>
    <g>
      <path class="cls-1" d="M26.86,64.76v1.92l3.6-.54v-6.43c0-1.01-.81-1.7-1.81-1.53-.99.16-1.79,1.1-1.79,2.1v4.47Z"/>
      <path class="cls-1" d="M31.69,63.95v1.92l3.6-.54v-6.43c0-1.01-.81-1.7-1.81-1.53-.99.16-1.79,1.1-1.79,2.1v4.47Z"/>
      <path class="cls-10" d="M26.86,64.76v1.92l3.6-.54v-6.43c0-1.01-.81-1.7-1.81-1.53-.99.16-1.79,1.1-1.79,2.1v4.47Z"/>
      <path class="cls-10" d="M31.69,63.95v1.92l3.6-.54v-6.43c0-1.01-.81-1.7-1.81-1.53-.99.16-1.79,1.1-1.79,2.1v4.47Z"/>
    </g>
    <g>
      <path class="cls-1" d="M48.79,61.58v1.92l3.6-.54v-6.43c0-1.01-.81-1.7-1.81-1.53-.99.16-1.79,1.1-1.79,2.1v4.47Z"/>
      <path class="cls-1" d="M53.62,60.78v1.92l3.6-.54v-6.43c0-1.01-.81-1.7-1.81-1.53-.99.16-1.79,1.1-1.79,2.1v4.47Z"/>
      <path class="cls-10" d="M48.79,61.58v1.92l3.6-.54v-6.43c0-1.01-.81-1.7-1.81-1.53-.99.16-1.79,1.1-1.79,2.1v4.47Z"/>
      <path class="cls-10" d="M53.62,60.78v1.92l3.6-.54v-6.43c0-1.01-.81-1.7-1.81-1.53-.99.16-1.79,1.1-1.79,2.1v4.47Z"/>
    </g>
    <polygon class="cls-1" points="71.89 45.13 71.89 48.62 73.91 48.34 73.91 44.86 71.89 45.13"/>
    <polygon class="cls-1" points="74.9 44.75 74.9 48.24 76.93 47.96 76.93 44.47 74.9 44.75"/>
    <polygon class="cls-1" points="77.95 44.33 77.95 47.81 79.98 47.54 79.98 44.05 77.95 44.33"/>
    <polygon class="cls-10" points="71.89 45.13 71.89 48.62 73.91 48.34 73.91 44.86 71.89 45.13"/>
    <polygon class="cls-10" points="74.9 44.75 74.9 48.24 76.93 47.96 76.93 44.47 74.9 44.75"/>
    <polygon class="cls-10" points="77.95 44.33 77.95 47.81 79.98 47.54 79.98 44.05 77.95 44.33"/>
    <polygon class="cls-13" points="60.26 48.72 64.29 41.05 71.9 46.91 60.26 48.72"/>
    <polygon class="cls-19" points="71.83 63.81 60.26 65.5 60.26 48.72 71.9 46.91 71.83 63.81"/>
    <g>
      <g>
        <g>
          <path class="cls-2" d="M64.82,51.41c0-.56-.45-.96-1.01-.88-.56.08-1.01.6-1.01,1.16v2.46l2.02-.27v-2.47Z"/>
          <path class="cls-2" d="M65.01,54.04l-2.4.33v-2.65c0-.67.54-1.28,1.2-1.38.66-.09,1.2.38,1.2,1.04v2.66ZM62.99,53.93l1.64-.22v-2.27c0-.46-.37-.78-.82-.71-.45.06-.82.48-.82.94v2.27Z"/>
        </g>
        <g>
          <path class="cls-2" d="M67.21,51.08c0-.56-.46-.96-1.02-.88-.56.08-1.02.6-1.02,1.16v2.47l2.03-.28v-2.47Z"/>
          <path class="cls-2" d="M67.4,53.72l-2.42.33v-2.66c0-.67.54-1.29,1.21-1.38.67-.09,1.21.38,1.21,1.05v2.67ZM65.36,53.61l1.65-.22v-2.28c0-.46-.37-.78-.83-.71-.45.06-.82.49-.82.94v2.28Z"/>
        </g>
        <g>
          <path class="cls-2" d="M69.6,50.75c0-.57-.46-.96-1.02-.88-.56.08-1.02.6-1.02,1.16v2.47l2.04-.28v-2.48Z"/>
          <path class="cls-2" d="M69.8,53.39l-2.43.33v-2.67c0-.67.54-1.29,1.21-1.38.67-.09,1.21.38,1.21,1.05v2.67ZM67.75,53.28l1.66-.22v-2.29c0-.46-.37-.78-.83-.72-.46.06-.83.49-.83.94v2.28Z"/>
        </g>
        <g>
          <polygon class="cls-2" points="70.04 50.69 70.04 53.17 70.33 53.13 70.33 50.65 70.04 50.69"/>
          <polygon class="cls-2" points="70.53 53.29 69.63 53.41 69.63 50.55 70.53 50.43 70.53 53.29"/>
        </g>
        <g>
          <polygon class="cls-2" points="62.08 51.78 62.08 54.24 62.36 54.2 62.36 51.74 62.08 51.78"/>
          <polygon class="cls-2" points="62.82 54.33 61.89 54.46 61.89 51.62 62.82 51.49 62.82 54.33"/>
        </g>
      </g>
      <g>
        <path class="cls-10" d="M64.82,51.41c0-.56-.45-.96-1.01-.88-.56.08-1.01.6-1.01,1.16v2.46l2.02-.27v-2.47Z"/>
        <path class="cls-10" d="M67.21,51.08c0-.56-.46-.96-1.02-.88-.56.08-1.02.6-1.02,1.16v2.47l2.03-.28v-2.47Z"/>
        <path class="cls-10" d="M69.6,50.75c0-.57-.46-.96-1.02-.88-.56.08-1.02.6-1.02,1.16v2.47l2.04-.28v-2.48Z"/>
        <polygon class="cls-10" points="70.04 50.69 70.04 53.17 70.33 53.13 70.33 50.65 70.04 50.69"/>
        <polygon class="cls-10" points="62.08 51.78 62.08 54.24 62.36 54.2 62.36 51.74 62.08 51.78"/>
      </g>
    </g>
    <g>
      <g>
        <path class="cls-2" d="M70.68,58.31l-1.02.16c0-1.96-1.58-3.29-3.53-2.97-1.93.32-3.48,2.14-3.48,4.08l-1.01.16v4.32l1.01-.15v1.27l7-1.04v-1.28l1.03-.16v-4.39Z"/>
        <path class="cls-2" d="M62.4,65.47v-1.27l-1.01.15v-4.83l1.01-.16c.11-1.97,1.73-3.79,3.69-4.12,1.02-.17,1.98.08,2.71.7.65.55,1.04,1.34,1.1,2.23l1.03-.16v4.9l-1.03.16v1.28l-7.51,1.12ZM62.91,63.61v1.27l6.49-.97v-1.28l1.03-.16v-3.87l-1.02.16v-.3c0-.87-.33-1.63-.94-2.14-.61-.52-1.42-.72-2.29-.58-1.8.3-3.27,2.01-3.27,3.83v.22l-1.01.16v3.81l1.01-.15Z"/>
      </g>
      <path class="cls-10" d="M70.68,58.31l-1.02.16c0-1.96-1.58-3.29-3.53-2.97-1.93.32-3.48,2.14-3.48,4.08l-1.01.16v4.32l1.01-.15v1.27l7-1.04v-1.28l1.03-.16v-4.39Z"/>
    </g>
    <path class="cls-10" d="M13.51,58.53c0-1.98-.48-4.79-1.07-6.31-.6-1.54-1.1-1.16-1.1.87v5.85l2.16,5.29v-5.69Z"/>
    <path class="cls-10" d="M11.08,52.59c0-1.98-.48-4.79-1.07-6.31-.6-1.54-1.1-1.16-1.1.87v5.85l2.16,5.29v-5.69Z"/>
    <path class="cls-10" d="M8.68,46.62c0-1.98-.48-4.79-1.07-6.31-.6-1.54-1.1-1.16-1.1.87v5.85l2.16,5.29v-5.69Z"/>
    <path class="cls-10" d="M6.25,40.68c0-1.98-.48-4.79-1.07-6.31-.6-1.54-1.1-1.16-1.1.87v5.85l2.16,5.29v-5.69Z"/>
    <path class="cls-10" d="M3.84,34.66c0-1.98-.48-4.79-1.07-6.31-.6-1.54-1.1-1.16-1.1.87v5.85l2.16,5.29v-5.69Z"/>
    <path class="cls-10" d="M1.41,28.72c0-1.98-.48-4.79-1.07-6.31-.6-1.54-1.1-1.16-1.1.87v5.85l2.16,5.29v-5.69Z"/>
    <polygon class="cls-12" points="81.33 48.75 71.83 50.17 71.86 49.59 81.38 48.16 81.33 48.75"/>
    <polygon class="cls-5" points="-.79 16.24 -.76 18.76 13.99 55.79 13.97 53.38 -.79 16.24"/>
    <polygon class="cls-18" points="12.33 47.18 19.93 47.94 15.91 55.61 12.33 47.18"/>
    <polygon class="cls-7" points="12.23 63.53 15.91 72.38 15.91 55.61 12.33 47.18 12.23 63.53"/>
    <g>
      <g>
        <g>
          <g>
            <path class="cls-2" d="M13.77,53.34c0-.58-.14-1.44-.32-1.93-.18-.49-.32-.4-.32.18v2.57l.64,1.72v-2.55Z"/>
            <path class="cls-2" d="M13.83,56.24l-.76-2.04v-2.77c0-.7.17-.79.38-.22.21.57.38,1.6.38,2.29v2.74ZM13.19,54.13l.52,1.4v-2.35c0-.47-.12-1.17-.26-1.56-.14-.39-.26-.33-.26.15v2.37Z"/>
          </g>
          <g>
            <path class="cls-2" d="M14.5,55.35c0-.58-.14-1.42-.31-1.9-.17-.48-.32-.39-.32.19v2.54l.63,1.68v-2.52Z"/>
            <path class="cls-2" d="M14.56,58.22l-.75-2v-2.74c0-.69.17-.79.37-.22.21.56.37,1.57.37,2.25v2.72ZM13.94,56.15l.51,1.37v-2.33c0-.47-.11-1.16-.25-1.54-.14-.38-.26-.32-.26.15v2.34Z"/>
          </g>
          <g>
            <path class="cls-2" d="M15.23,57.31c0-.57-.14-1.4-.31-1.87-.17-.47-.31-.38-.31.2v2.52l.61,1.65v-2.5Z"/>
            <path class="cls-2" d="M15.28,60.16l-.73-1.96v-2.72c0-.68.17-.78.37-.23.2.55.36,1.54.36,2.22v2.69ZM14.67,58.12l.5,1.34v-2.3c0-.46-.11-1.14-.25-1.52-.14-.38-.25-.31-.25.16v2.32Z"/>
          </g>
          <g>
            <polygon class="cls-2" points="15.36 57.67 15.36 60.16 15.44 60.39 15.44 57.9 15.36 57.67"/>
            <polygon class="cls-2" points="15.5 60.74 15.24 60.03 15.24 57.14 15.5 57.86 15.5 60.74"/>
          </g>
          <g>
            <polygon class="cls-2" points="12.89 50.96 12.89 53.54 12.99 53.79 12.99 51.22 12.89 50.96"/>
            <polygon class="cls-2" points="13.13 54.39 12.83 53.58 12.83 50.6 13.13 51.42 13.13 54.39"/>
          </g>
        </g>
        <g>
          <path class="cls-10" d="M13.77,53.34c0-.58-.14-1.44-.32-1.93-.18-.49-.32-.4-.32.18v2.57l.64,1.72v-2.55Z"/>
          <path class="cls-10" d="M14.5,55.35c0-.58-.14-1.42-.31-1.9-.17-.48-.32-.39-.32.19v2.54l.63,1.68v-2.52Z"/>
          <path class="cls-10" d="M15.23,57.31c0-.57-.14-1.4-.31-1.87-.17-.47-.31-.38-.31.2v2.52l.61,1.65v-2.5Z"/>
          <polygon class="cls-10" points="15.36 57.67 15.36 60.16 15.44 60.39 15.44 57.9 15.36 57.67"/>
          <polygon class="cls-10" points="12.89 50.96 12.89 53.54 12.99 53.79 12.99 51.22 12.89 50.96"/>
        </g>
      </g>
      <g>
        <g>
          <path class="cls-2" d="M15.55,65.9l-.3-.76c0-1.98-.48-4.79-1.07-6.31-.6-1.54-1.1-1.16-1.1.87l-.32-.82v4.54l.32.8v1.32l2.16,5.29v-1.29l.31.75v-4.39Z"/>
          <path class="cls-2" d="M13,65.61v-1.33l-.33-.8v-5.09l.33.82c.04-1.95.55-2.27,1.16-.69.31.8.61,1.96.82,3.26.19,1.16.31,2.3.33,3.27l.3.77v4.9l-.31-.75v1.29l-2.32-5.66ZM13.16,64.15v1.32l2,4.91v-1.29l.31.76v-3.88l-.3-.76v-.3c0-.88-.1-1.95-.28-3.02-.18-1.09-.43-2.07-.7-2.76-.56-1.43-1.03-1.08-1.03.81v.23l-.32-.81v3.99l.32.8Z"/>
        </g>
        <path class="cls-10" d="M15.55,65.9l-.3-.76c0-1.98-.48-4.79-1.07-6.31-.6-1.54-1.1-1.16-1.1.87l-.32-.82v4.54l.32.8v1.32l2.16,5.29v-1.29l.31.75v-4.39Z"/>
      </g>
    </g>
    <polygon class="cls-5" points="12.33 47.18 12.3 49.86 15.92 58.02 15.91 55.61 12.33 47.18"/>
    <polygon class="cls-5" points="25.05 54.89 25.07 57.3 36.71 55.6 36.69 53.08 25.05 54.89"/>
    <polygon class="cls-16" points="15.91 55.61 19.93 47.94 27.54 53.8 15.91 55.61"/>
    <polygon class="cls-19" points="27.48 70.7 15.91 72.38 15.91 55.61 27.54 53.8 27.48 70.7"/>
    <g>
      <g>
        <g>
          <path class="cls-2" d="M20.37,58.29c0-.56-.45-.96-1.01-.88-.56.08-1.01.6-1.01,1.16v2.46l2.02-.27v-2.47Z"/>
          <path class="cls-2" d="M20.56,60.92l-2.4.33v-2.65c0-.67.54-1.28,1.2-1.38.66-.09,1.2.38,1.2,1.04v2.66ZM18.54,60.82l1.64-.22v-2.27c0-.46-.37-.78-.82-.71-.45.06-.82.48-.82.94v2.27Z"/>
        </g>
        <g>
          <path class="cls-2" d="M22.76,57.96c0-.56-.46-.96-1.02-.88-.56.08-1.02.6-1.02,1.16v2.47l2.03-.28v-2.47Z"/>
          <path class="cls-2" d="M22.95,60.6l-2.42.33v-2.66c0-.67.54-1.29,1.21-1.38.67-.09,1.21.38,1.21,1.05v2.67ZM20.92,60.49l1.65-.22v-2.28c0-.46-.37-.78-.83-.71-.45.06-.82.49-.82.94v2.28Z"/>
        </g>
        <g>
          <path class="cls-2" d="M25.16,57.63c0-.57-.46-.96-1.02-.88-.56.08-1.02.6-1.02,1.16v2.47l2.04-.28v-2.48Z"/>
          <path class="cls-2" d="M25.35,60.28l-2.43.33v-2.67c0-.67.54-1.29,1.21-1.38.67-.09,1.21.38,1.21,1.05v2.67ZM23.31,60.17l1.66-.22v-2.29c0-.46-.37-.78-.83-.72-.46.06-.83.49-.83.94v2.28Z"/>
        </g>
        <g>
          <polygon class="cls-2" points="25.6 57.57 25.6 60.05 25.89 60.01 25.89 57.53 25.6 57.57"/>
          <polygon class="cls-2" points="26.08 60.18 25.19 60.3 25.19 57.44 26.08 57.31 26.08 60.18"/>
        </g>
        <g>
          <polygon class="cls-2" points="17.63 58.67 17.63 61.13 17.92 61.09 17.92 58.63 17.63 58.67"/>
          <polygon class="cls-2" points="18.37 61.22 17.44 61.35 17.44 58.5 18.37 58.38 18.37 61.22"/>
        </g>
      </g>
      <g>
        <path class="cls-10" d="M20.37,58.29c0-.56-.45-.96-1.01-.88-.56.08-1.01.6-1.01,1.16v2.46l2.02-.27v-2.47Z"/>
        <path class="cls-10" d="M22.76,57.96c0-.56-.46-.96-1.02-.88-.56.08-1.02.6-1.02,1.16v2.47l2.03-.28v-2.47Z"/>
        <path class="cls-10" d="M25.16,57.63c0-.57-.46-.96-1.02-.88-.56.08-1.02.6-1.02,1.16v2.47l2.04-.28v-2.48Z"/>
        <polygon class="cls-10" points="25.6 57.57 25.6 60.05 25.89 60.01 25.89 57.53 25.6 57.57"/>
        <polygon class="cls-10" points="17.63 58.67 17.63 61.13 17.92 61.09 17.92 58.63 17.63 58.67"/>
      </g>
    </g>
    <g>
      <g>
        <path class="cls-2" d="M26.23,65.19l-1.02.16c0-1.96-1.58-3.29-3.53-2.97-1.93.32-3.48,2.14-3.48,4.08l-1.01.16v4.32l1.01-.15v1.27l7-1.04v-1.28l1.03-.16v-4.39Z"/>
        <path class="cls-2" d="M17.95,72.36v-1.27l-1.01.15v-4.83l1.01-.16c.11-1.97,1.73-3.79,3.69-4.12,1.02-.17,1.98.08,2.71.7.65.55,1.04,1.34,1.1,2.23l1.03-.16v4.9l-1.03.16v1.28l-7.51,1.12ZM18.46,70.5v1.27l6.49-.97v-1.28l1.03-.16v-3.87l-1.02.16v-.3c0-.87-.33-1.63-.94-2.14-.61-.52-1.42-.72-2.29-.58-1.8.3-3.27,2.02-3.27,3.83v.22l-1.01.16v3.81l1.01-.15Z"/>
      </g>
      <path class="cls-10" d="M26.23,65.19l-1.02.16c0-1.96-1.58-3.29-3.53-2.97-1.93.32-3.48,2.14-3.48,4.08l-1.01.16v4.32l1.01-.15v1.27l7-1.04v-1.28l1.03-.16v-4.39Z"/>
    </g>
    <polygon class="cls-5" points="15.91 55.61 15.92 58.02 27.54 56.32 27.54 53.8 15.91 55.61"/>
    <polygon class="cls-5" points="36.69 53.08 36.71 55.6 38.26 59.37 38.24 56.96 36.69 53.08"/>
    <polygon class="cls-18" points="40 46.82 36.63 53.16 38.24 56.96 41.61 50.62 40 46.82"/>
    <polygon class="cls-5" points="38.24 56.96 38.26 59.37 48.14 57.94 48.15 55.42 38.24 56.96"/>
    <polygon class="cls-5" points="45.63 51.71 47.01 53.87 58.66 52.18 58.63 49.65 45.63 51.71"/>
    <polygon class="cls-5" points="60.26 48.72 60.28 51.13 71.89 49.43 71.9 46.91 60.26 48.72"/>
    <polygon class="cls-5" points="57.05 41.19 58.63 49.65 60.28 51.13 60.26 48.72 57.05 41.19"/>
    <polygon class="cls-10" points="27.54 54.22 15.91 56.03 15.91 55.61 27.54 53.8 27.54 54.22"/>
    <polygon class="cls-10" points="36.69 53.5 27.54 54.93 27.54 54.51 36.69 53.08 36.69 53.5"/>
    <polygon class="cls-10" points="15.91 56.03 12.33 47.6 12.33 47.18 15.91 55.61 15.91 56.03"/>
    <polygon class="cls-10" points="48.15 55.84 38.24 57.38 38.24 56.96 48.15 55.42 48.15 55.84"/>
    <polygon class="cls-10" points="58.63 50.08 46.46 51.99 46.46 51.57 58.63 49.65 58.63 50.08"/>
    <polygon class="cls-11" points="40 46.82 46.51 51.56 48.15 55.42 41.61 50.62 40 46.82"/>
    <polygon class="cls-10" points="71.9 47.33 60.26 49.14 60.26 48.72 71.9 46.91 71.9 47.33"/>
    <polygon class="cls-10" points="82.1 42.8 69.72 44.73 69.72 44.3 82.1 42.37 82.1 42.8"/>
    <polygon class="cls-11" points="71.9 46.91 64.29 41.05 68.32 38.48 71.9 46.91"/>
    <polygon class="cls-10" points="12.27 49.52 -.79 16.67 -.79 16.24 12.27 49.1 12.27 49.52"/>
  </g>
  <polygon class="cls-10" points="38.24 57.38 36.62 53.59 36.62 53.16 38.24 56.96 38.24 57.38"/>
  <polygon class="cls-10" points="60.26 49.14 56.68 40.71 56.68 40.29 60.26 48.72 60.26 49.14"/>
  <polygon class="cls-10" points="45.51 2.37 1.72 9.17 1.55 8.77 45.51 1.95 45.51 2.37"/>
  <polygon class="cls-10" points="69.84 35.06 58.81 8.94 58.81 8.51 70.06 35.03 69.84 35.06"/>
  <polygon class="cls-10" points="47.86 8.12 45.51 2.37 45.51 1.95 48.07 7.98 47.86 8.12"/>
  <polygon class="cls-10" points="58.81 8.94 52.2 9.92 51.93 9.58 58.81 8.51 58.81 8.94"/>
  <polygon class="cls-10" points="52.2 9.92 47.86 8.12 48.07 7.98 51.93 9.58 52.2 9.92"/>
</svg>