<?xml version="1.0" encoding="UTF-8"?>
<svg id="map" xmlns="http://www.w3.org/2000/svg" xmlns:xlink="http://www.w3.org/1999/xlink" viewBox="0 0 58.33 52.91">
  <defs>
    <style>
      .cls-1 {
        fill: url(#linear-gradient);
      }

      .cls-1, .cls-2, .cls-3, .cls-4, .cls-5, .cls-6, .cls-7, .cls-8, .cls-9, .cls-10, .cls-11, .cls-12, .cls-13, .cls-14, .cls-15, .cls-16, .cls-17, .cls-18 {
        stroke-width: 0px;
      }

      .cls-19 {
        stroke: #000;
        stroke-width: .25px;
      }

      .cls-19, .cls-20 {
        stroke-miterlimit: 10;
      }

      .cls-19, .cls-18 {
        fill: #e5e5e5;
      }

      .cls-2 {
        opacity: .2;
      }

      .cls-2, .cls-9 {
        fill: #000;
      }

      .cls-3 {
        fill: #525252;
      }

      .cls-4 {
        fill: #6b6b6b;
      }

      .cls-5 {
        fill: #8cb835;
      }

      .cls-6 {
        fill: #d0d1d1;
      }

      .cls-7 {
        fill: #9b5b5b;
      }

      .cls-20 {
        fill: none;
        stroke: #fff;
        stroke-width: .15px;
      }

      .cls-8 {
        fill: #999;
      }

      .cls-10 {
        fill: #884f4f;
      }

      .cls-11 {
        fill: #b6b7b8;
      }

      .cls-12 {
        fill: #f2f2f2;
      }

      .cls-13 {
        fill: #a3a5a6;
      }

      .cls-14 {
        fill: url(#linear-gradient-2);
      }

      .cls-15 {
        fill: #717373;
      }

      .cls-16 {
        fill: #fff;
      }

      .cls-17 {
        fill: #c27171;
      }
    </style>
    <linearGradient id="linear-gradient" x1="15.63" y1="32.33" x2="56.73" y2="32.33" gradientUnits="userSpaceOnUse">
      <stop offset="0" stop-color="#7f4340"/>
      <stop offset="1" stop-color="#b16767"/>
    </linearGradient>
    <linearGradient id="linear-gradient-2" x1="-64.58" y1="45.33" x2="1.43" y2="45.33" xlink:href="#linear-gradient"/>
  </defs>
  <path class="cls-5" d="M761.92,303.27c28.49-59.5-54.18-238.94-89.6-311.4-35.42-72.46-99.31-161.2-174.79-189.26-90.3-33.58-194.59-32.77-237.48-30.9-42.89,1.87-93.1,4.07-93.1,4.07l-233.81,19.08-24.03,1.96s-56.16,2.4-75.69,30.97c-6.71,9.81-16.38,20.43-28.27,29.83-13.78,10.88-39.39,18.35-39.39,18.35l-29.13-9.37s-11.94-4.07-10.96-.9,18.31,12.58,18.44,15.56c.13,2.98-12.37,14.29-34.96,12.03-9.15-.92-21.33-3.28-33.48-4.18-23.56-1.75-47.15,5.09-59.36,13.57-10.35,7.18-32.9,9.16-32.9,9.16-6.44,38.33,5.76,106.07,11.91,142.45,5.14,30.4,21.38,65.17,46.03,86.84,28.13,24.72,57.57,26.63,91.86,23.23,7.15-.71,23.43-2.2,43.21-.85,13.92.95,48.06,18.99,102.01,9.5,59.09-10.4,97.23-53.48,116.74-56.98,113.83-20.43,169.77-26.66,210.8-11.19,35.96,13.56,71.64,69.79,94.2,112.05,14.69,27.52,19.82,34.68,41.29,57.21,40.42,42.4,156.79,80.32,230.79,87.01,74,6.69,162.07-.18,189.67-57.81Z"/>
  <path class="cls-8" d="M-117.12,197.67c5.6-11.89,6.52-30.33,2.48-49.33-2.11-9.88-.14-16.91,1.63-20.1,7.19-1.63,11.59-6.06,10.58-10.63,2.44-2.48,13.32-11.48,46.58-16.5L209.95,60.97c6.05,4.33,29.04,21.17,44.85,37.69,19.37,20.24,38.15,41.14,55.06,74.15l9-1.66c-17.2-33.56-36.25-54.77-55.9-75.3-14.43-15.08-34.13-30.01-42.89-36.41l99.41-15.01c5.75,3.16,24.7,13.99,30.86,22.56l.58.81c7.37,10.26,17.46,24.32,43.68,34.48,12.09,4.68,24.87,9.9,36.5,17.67,12.27,8.19,22.19,18.61,30.35,31.85,12.37,20.09,25.52,47.31,36.08,69.18,4.86,10.07,9.06,18.76,12.38,25.1,10.49,20.02,16.93,31.68,27.5,38.62,2.61,1.71,5.08,3.01,7.26,4.16,6.37,3.35,11.41,6,16.08,17.14l23.49,56.02,5.06.33-24.09-57.03c-5.02-11.97-10.81-15.02-17.51-18.54-2.19-1.15-4.46-2.34-6.9-3.95-9.91-6.51-16.22-17.94-26.51-37.59-3.31-6.32-7.5-14.99-12.35-25.04-10.58-21.91-23.75-49.19-36.18-69.37-18.17-29.5-41.85-40.5-68.66-50.89-25.05-9.7-34.42-22.76-41.96-33.25l-.59-.82c-5.92-8.24-22.17-17.99-29.76-22.27l29.6-4.47c2.38-.28,4.74-.58,7.03-.93,21.71-3.28,21.85-10.44,20.53-13.59-.19-.44-.56-1.36-1.08-2.62l10.58-1.35,4.96,12.21,7.69-.85-5.02-12.33,55.17-7.91-4.29-10.22-4.23,1.78,2.01,4.78-50.49,7.2-2.54-5.68-7.18,2.04,2.09,4.61-10.53,1.34c-3.88-9.49-10.49-25.68-13.44-32.72-4.06-9.67-22.65-10.64-28.9-9.7-6.25.94-24.67,3.73-34.21,5.17-4.56.69-7.68-1.29-9.86-3.94l-17.77-42.36c-1.83-10.9.05-28.92,18.8-33.07l8.13-1.23c21.55-3.25,53.86-.4,78.58,6.95,3.66,1.09,9.72,2.86,17.39,5.09,43.04,12.56,143.82,41.96,167.23,52.57,23.33,10.57,48.92,33.04,60.36,44.66,5.15,5.23,11.52,12.58,15.05,23.05,3.87,11.49,3.66,24.41-.66,39.51l9.28.95c9.93-34.75-3.1-53.73-15.57-66.39-3.25-3.3-32.62-32.62-62.79-46.29-24.15-10.94-121.84-39.45-168.79-53.14-7.65-2.23-13.7-4-17.33-5.08-26.97-8.02-61.15-10.98-85.05-7.37l-38.86,5.87-15.49-36.93c-4.51-10.75-21.41-20.64-39.32-23.01-18.29-2.42-34.79-.83-47.7,2.79l-7.15,1.71c-4.76,1.33-13.58,3.75-22.82,6.03l-2.99-7.12c6.41-2.14,9.91-6.68,8.03-11.15l-.39-.92,9.85-1.49-1.46-3.49-9.85,1.49-2.26-5.33,9.85-1.49-1.46-3.49-10.29,1.55c-.96-.83-2.72-2.02-4.83-2.92l-3.2-7.63-5.81.88,2.11,5.03c-2.2-.22-4.51-.18-6.81.16l-.56.08c-7.61,1.15-12.67,5.3-12.57,9.81l-10.18,1.54,1.46,3.49,9.74-1.47,1.99,4.74-9.96,1.5,1.46,3.49,9.96-1.5.39.92c1.78,4.25,7.9,7.18,14.81,7.51l3.39,8.08c-8.25,1.85-15.8,3.25-19.94,3.28-13.81.11-24.45-2.62-38.47-7.39-3.02-1.03-5.78-2.24-8.71-3.52-9.38-4.11-20-8.76-38.76-5.93l-79.93,12.07c-7.79,1.18-14.51,4.52-18.42,9.18-3.18,3.79-4.42,8.21-3.67,12.98l-2.37.36c-3.12.47-5.02,2.38-4.24,4.25l19.56,46.61c.78,1.87,3.97,3.01,7.09,2.54l1.78-.27,1.46,3.48-36.09,5.45c-1.61-1.43-4.26-2.16-6.97-1.75-2.3.35-4.12,1.44-5,3-.11.19-.2.39-.27.59l-52.16,7.88-9.22-21.97-55.55,8.39,25.96,61.87L-246.58.38c-3.89.59-12.97-.99-18.54-2.36-.07-.74-.26-1.48-.57-2.23-2.69-6.41-13.56-10.31-24.24-8.69-10.68,1.61-17.18,8.14-14.49,14.54,2.69,6.41,13.56,10.31,24.24,8.69,6.12-.92,10.86-3.46,13.29-6.66,3.8.87,10.63,2.24,16.75,2.45.12,2.96.62,7.58,2.4,11.83.61,1.44,1.44,3.09,2.33,4.84,2.97,5.84,7.03,13.85,4.16,18.7-.33.56-.69,1.16-1.07,1.78-2.84,4.71-6.56,10.87-8.18,17.93-3.61.11-10.13.72-19.77,3.18-5.57,1.42-13.81,3.16-22.52,5.01-15.07,3.19-32.15,6.81-42.13,10.13-3.92,1.3-7.58,2.55-11.13,3.77-10.4,3.56-19.39,6.64-27.58,8.34-10.89,2.26-18.03,3.18-18.21,3.2l2.2,4.58c.18-.02,5.89-.99,16.94-3.29,8.47-1.76,17.58-4.88,28.13-8.49,3.54-1.21,7.19-2.46,11.09-3.76,9.74-3.23,26.68-6.82,41.63-9.99,8.76-1.86,17.04-3.61,22.71-5.05,8.55-2.18,14.48-2.83,17.92-3-.25,3.27.02,6.69,1.09,10.22,3.29,10.84,10.51,26.31,13.98,33.74.89,1.9,1.59,3.4,1.86,4.04.63,1.49,2.09,4.99,6.91,7.45,5.45,2.78,13.31,3.42,23.38,1.9l65-9.82,3.39,8.09c1.59,3.8,6.64,6.54,12.63,7.32-1.56,3.92-3.06,10.68-1,20.31,3.89,18.28,3.07,35.87-2.2,47.07l9.06,1.54ZM109.57-163.95l-4.36-10.4c-.97-2.32,1.38-4.67,5.24-5.26l.56-.08c3.86-.58,7.79.83,8.76,3.14l4.36,10.4c.97,2.32-1.38,4.67-5.24,5.26l-.56.08c-3.86.58-7.79-.83-8.76-3.14ZM151.25-19.32l-22.32,25.63-11.92,1.8-40.07-16.21,74.3-11.22ZM68.52-6.83l10.69,25.49,4.23-1.78-8.8-20.97,41.81,16.91,14.83-2.24,23.94-27.5,9.5,22.65,4.23-1.78-10.25-24.42,22.95-3.47,24.05,57.32-58.93,8.9-6.62-15.78-16.79,2.54,6.62,15.78-57.52,8.69L48.42-3.79l20.1-3.04ZM216.49,49.83c-.82-1.97-4.39-10.47-6.14-14.64l.93-.39-24.93-59.42,89.69-13.55,32.88,78.37-85.77,12.95c-2.79-.73-6.05-1.87-6.66-3.32ZM98.12-17.61l-20.46-48.76,175.43-26.49,20.46,48.76L98.12-17.61ZM48.19-67.75c-1.66-3.96-11.54-27.51-12.22-29.13-.75-1.78-.42-4.76,5.83-5.71,6.25-.94,30.1-4.55,30.1-4.55l2.9,6.91,9.7-1.47s.24-1.09,1.64-1.93c1.4-.84,4.28-.65,4.28-.65l2.98,7.1s1.56.39,2.39,2.37c.83,1.97,2.53,6.02,2.53,6.02l-1.64.25,1.12,2.66,1.97-.3,1.78,4.24-22.37,3.38,2.41,5.75-33.39,5.04ZM-72.54-137.12c2.58-3.07,6.62-5.22,11.54-5.96l31.41-4.62,9.04,21.55,4.23-1.78-8.59-20.48,40.16-6.19c14.12-2.13,21.24.99,30.26,4.94,3.03,1.33,6.17,2.7,9.69,3.9,15.33,5.21,32.25,10.42,47.55,10.89,8.84.28,21.6-.73,34.32-3.02l-.03.07c1.37.53,2.75,1.05,4.12,1.58,2.61,1,5.21,2,7.82,3,2.52.97,5,2.01,7.48,3.06,1.35.57,2.53,1.52,3.75,2.34l3.68,2.48c1.01.68,2.01,1.36,3.02,2.03l4.5-2.67-11.38-7.49,26.99-4.01.67-3.07-30,4.47c-1.32.2-2.78.15-4.02-.34-2.74-1.08-5.48-2.1-8.25-3.1-.03-.01-.07-.02-.1-.04,5.74-1.3,11.29-2.88,16.26-4.72l8.92-2.5c1.37-.38,2.68-.81,3.94-1.24,2.61-.64,5.46-1.27,7.49-1.53,1.31-.17,2.5-.28,3.59-.34l-.04.38c14.1,1.36,25.33,5.31,28.81,8.36.33.44,1.1,2.1,1.66,3.62l4.3-1.6c-.72-1.94-1.8-4.46-2.86-5.4-2.71-2.42-7.99-4.72-14.55-6.51.06-.12.11-.23.16-.33.57-1.14,3.25-.6,4.4-.35,1.15.25,5.84,1.43,6.21,1.06.12-.12.27-.36.42-.65,10.06,3.48,18.57,9.66,21.25,16.05l15.49,36.93-45.8,6.92c-.94-1.96-1.99-4.35-2.2-5.46-.46-2.34-2.22-10.57-2.3-10.92l-4.49.96c.02.09,1.83,8.54,2.28,10.84.27,1.38,1.16,3.51,1.97,5.29l-6.15.93-5.62-13.39c-1.48-3.54-7.58-3.75-10.13-3.67l.13,4.59c2.41-.07,5.18.39,5.8.95l5.13,12.23-44.28,6.65-2.47-6.02-4.95.9-33.52,4.91-12.83-30.59-4.77.72-1.37-3.26-66.4,10.13,16.69,39.79-22.83,3.45c-1-2-6.26-11.09-20.53-14.52-13.28-3.19-20.08-1.17-28.31-2.44-7.61-1.18-15.92-3.56-21.2-4.41l-2.9-6.84c7.82-1.18,41.95-6.4,41.95-6.4l-3.34-4.13s-34.73,5.29-40.45,6.16l-3.9-9.5c7.82-1.18,39.94-6.04,39.94-6.04l-1.87-4.41s-34.19,5.22-39.91,6.08l-6.21-14.68c-2.75-6.55-.72-11.02,1.46-13.62ZM-108.36-61.08c1.4-.21,2.57.16,3.07.49-.27.18-.75.39-1.44.5-1.41.21-2.59-.17-3.08-.49.27-.18.75-.4,1.45-.5ZM-178.54-71.05l16.38,39.05-46.19,6.98-16.38-39.05,46.19-6.98ZM-166.99-11.64l-5.91-14.09,12.57-1.9,5.91,14.09-12.57,1.9ZM-206.52-20.66l14.11-2.13,5.91,14.09-14.11,2.13-5.91-14.09ZM-282.48,4.86c-5.65.85-11.39-1.21-12.81-4.6-1.42-3.39,2.02-6.84,7.66-7.69,5.65-.85,11.39,1.21,12.81,4.6s-2.02,6.84-7.66,7.69ZM-141.29,107.87h0l-65,9.82c-15.67,2.37-17.67-2.41-18.86-5.26-.3-.72-.98-2.17-1.92-4.19-3.43-7.35-10.57-22.64-13.78-33.23-2.59-8.55.21-16.66,3.6-23.22,4.26-.47,8.57-1.69,9.08-3.09.09-.24.24-.68.42-1.26l40.67-.67,61.17-9.45-.69-4.54-60.86,9.41-38.89.64c.82-2.88,1.6-5.93,1.6-7.1,0-2.24-2.97-3.19-4.67-3.35-.96-.09-1.82-.51-2.5-1.1-1.1-3.5-2.88-7-4.48-10.16-.85-1.68-1.65-3.26-2.2-4.57-1.7-4.05-2.07-8.64-2.13-11.25l96.12-14.52-2.3-5.48-2.81.42-14.91-35.54,51.37-7.76c1.3,1.31,3.42,2.1,5.72,2.1.5,0,1-.04,1.51-.11,2.3-.35,4.12-1.44,5-3,.16-.29.29-.59.38-.89l36.51-5.51,4.62,11.01,13.83-2.09,14.91-2.25,9.98,23.78,3.3,2.86,1.38,3.29-5.04.76,1.92,4.57-8.11,1.23,2.24,5.34,15.13-2.29C-.08-20.25-2.18-25.26-3.08-27.4l-4.47-10.66,3-.45-2.65-6.32,6.31-.99,3.65-9.19c.1-.04.2-.07.3-.11l69.91-10.56,9.79,23.35-30.79,4.69,2.1,5,30.79-4.69,8.57,20.42-47.36,7.23-2.33-5.55-7.46,1.13,2.33,5.55L-35.63,2.59l-2.03-4.83-2.63.4-7.53-17.96-4.93.75-4.14-22.64-39.39,5.54,1.1,5.73-8.52,2.64-4.09,22.61,23.52-3.55,5.75,13.72,11.02-1.66,1.61,3.84-43.42,6.56-1.49-3.55-12.83,1.94,1.15,2.73-4.22.64,6.07,14.47.5-.07.51,3.36,32.89-4.97-.69-4.54-25.79,3.89-2.73-6.5,9.15-1.38-.04-.09,18.55-2.8,2.8,6.68,4.23-1.78-2.35-5.61,41.15-6.21,2.8,6.68,4.23-1.78-2.35-5.61L10.99,1.86l2.32,5.54-46.35,7,.69,4.54,24.55-3.73L1.99,37.93l7.32-1.09-1-4.48-3.47.5L-3.12,14.5l18.27-2.73,1.95,4.66,9.43-1.42L20.42.43l23.32-3.52,24.05,57.32-22.02,3.27-4.32-10.11-11.81,1.72,4.44,10.25-98.8,14.87-3.68-3.78-1.49-3.55-16.88,2.55,1.49,3.55,7.29-1.1c2.7.52,8.74,2.08,10.27,5.72,1.28,3.04.45,5.42-.86,7.19-4.44,2.68-10.6,5.23-17.59,6.29l-25.89,3.91s-8.42,1.1-16.29,2.29l-.56.08c-8.89,1.34-11.85,5.13-12.35,10.47ZM-117.15,123.11l-.56.08c-3.86.58-7.79-.83-8.76-3.14l-5.18-11.68c-.97-2.32,1.38-4.67,5.24-5.26h0c3.86-.58,8.35.74,9.32,3.06l5.18,11.68c.97,2.32-1.38,4.67-5.24,5.26ZM-105.28,110.55l-4.7-11.2,24.47-3.7c6.44-.97,13.06-3.29,18.62-6.53,2.59-1.5,4.77-3.1,6.43-4.68,1.4,3.35,2.71,6.46,3.11,7.42.52,1.23-1.2,2.83-2.96,4.09-24.85,3.98-38.17,10.12-44.98,14.58Z"/>
  <g>
    <g>
      <polygon class="cls-6" points="55.75 45.32 15.52 51.16 15.52 38.98 55.81 33.01 55.75 45.32"/>
      <polygon class="cls-9" points="21.18 50.35 17.53 50.88 17.53 38.69 21.18 38.15 21.18 50.35"/>
      <polygon class="cls-9" points="41.44 47.4 29.63 49.12 29.65 36.89 41.48 35.14 41.44 47.4"/>
      <polygon class="cls-9" points="53.9 45.59 50.19 46.13 50.25 33.84 53.96 33.29 53.9 45.59"/>
      <g>
        <polygon class="cls-9" points="33.13 44.7 37.76 44.03 37.75 47.82 33.12 48.49 33.13 44.7"/>
        <path class="cls-16" d="M37.65,44.15v3.57s-4.42.64-4.42.64v-3.57s4.42-.65,4.42-.65M37.87,43.9l-4.85.71v4.01s4.84-.7,4.84-.7v-4.02h.01Z"/>
      </g>
      <g>
        <polygon class="cls-9" points="35.51 48.11 35.32 48.14 35.33 44.36 35.52 44.33 35.51 48.11"/>
        <polygon class="cls-16" points="35.52 44.33 35.33 44.36 35.32 48.14 35.51 48.11 35.52 44.33 35.52 44.33"/>
      </g>
    </g>
    <polygon class="cls-19" points="45.84 25.6 21.66 29.25 11.94 6.06 36.11 2.41 45.84 25.6"/>
    <polygon class="cls-10" points="35.41 3.04 42.54 -.06 56.73 32.86 45.09 25.58 35.41 3.04"/>
    <polygon class="cls-7" points="12.8 6.45 1.56 5.67 42.54 -.06 35.41 3.04 12.8 6.45"/>
    <polygon class="cls-1" points="22.06 29.06 15.63 39.08 56.73 32.86 45.09 25.58 22.06 29.06"/>
    <polygon class="cls-13" points="12.8 6.45 13.93 9.2 34.94 6.12 35.41 3.04 12.8 6.45"/>
    <polygon class="cls-11" points="35.41 3.04 45.09 25.58 43.25 25.88 34.94 6.12 35.41 3.04"/>
    <g>
      <g>
        <polygon class="cls-3" points="22.01 14.34 28.63 14.12 24.58 20.77 22.01 14.34"/>
        <path class="cls-16" d="M28.52,14.19l-3.93,6.45-2.47-6.16,6.4-.29M28.74,14.06l-6.78.31,2.62,6.53,4.17-6.84h0Z"/>
      </g>
      <g>
        <polygon class="cls-9" points="28.86 14.07 32.97 12.33 35.43 18.7 28.86 14.07"/>
        <path class="cls-16" d="M32.88,12.43l2.42,6.11-6.32-4.46,3.9-1.65M32.95,12.28l-4.21,1.78,6.81,4.81-2.61-6.59h0Z"/>
      </g>
      <g>
        <polygon class="cls-4" points="28.79 14.09 35.4 18.83 24.69 20.82 28.79 14.09"/>
        <path class="cls-16" d="M28.77,14.23l6.48,4.57-10.45,1.94,3.96-6.51M28.74,14.06l-4.17,6.84,10.98-2.04-6.81-4.81h0Z"/>
      </g>
      <g>
        <polygon class="cls-9" points="32.42 12.44 28.72 14 22.77 14.27 32.42 12.44"/>
        <path class="cls-16" d="M31.88,12.6l-3.17,1.34-5.11.23,8.29-1.57M32.95,12.28l-10.99,2.09,6.78-.31,4.21-1.78h0Z"/>
      </g>
    </g>
    <polyline class="cls-20" points="30.19 19.84 28.74 14.06 23.06 17.12"/>
    <polyline class="cls-20" points="27.73 20.31 26.91 17.02 23.73 18.82"/>
    <polyline class="cls-20" points="22.6 15.99 25.78 14.19 25.63 13.67"/>
    <polyline class="cls-20" points="32.52 19.41 31.7 16.15 34.6 16.53"/>
    <polyline class="cls-20" points="33.47 13.66 30.57 13.28 30.4 12.74"/>
    <path class="cls-20" d="M33.84,14.55l-5.1-.49c-.03-.06-.36-.92-.36-.92"/>
    <g>
      <polygon class="cls-18" points="15.54 51.18 1.76 20.22 1.79 6.08 15.63 39.08 15.54 51.18"/>
      <polygon class="cls-9" points="3.16 23.38 2.29 21.41 2.38 7.48 3.26 9.56 3.16 23.38"/>
      <polygon class="cls-9" points="5.68 20.96 4.83 19.01 4.86 15.25 5.7 17.22 5.68 20.96"/>
      <polygon class="cls-9" points="7.61 25.4 6.78 23.5 6.81 19.79 7.63 21.71 7.61 25.4"/>
      <polygon class="cls-9" points="11.23 33.74 10.45 31.93 10.47 28.31 11.25 30.14 11.23 33.74"/>
      <polygon class="cls-9" points="13.02 37.85 12.26 36.1 12.28 32.52 13.04 34.3 13.02 37.85"/>
      <polygon class="cls-9" points="11.2 38.91 10.42 37.13 10.44 33.51 11.22 35.3 11.2 38.91"/>
      <polygon class="cls-9" points="12.99 42.96 12.23 41.23 12.25 37.65 13.01 39.4 12.99 42.96"/>
      <polygon class="cls-9" points="15.16 50.33 14.42 48.66 14.49 36.01 15.23 37.74 15.16 50.33"/>
    </g>
    <polygon class="cls-8" points="42.04 41.72 30.2 43.45 29.62 42.27 41.46 40.53 42.04 41.72"/>
    <polygon class="cls-18" points="30.2 43.45 42.04 41.72 42.04 41.86 30.2 43.6 30.2 43.45"/>
    <polygon class="cls-15" points="30.2 43.45 29.62 42.27 29.62 42.42 30.2 43.6 30.2 43.45"/>
    <polygon class="cls-2" points="15.63 39.08 15.63 41.52 55.8 35.58 55.81 33.01 15.63 39.08"/>
    <polygon class="cls-2" points="1.79 6.08 1.79 9.01 15.63 41.52 15.63 39.08 1.79 6.08"/>
    <g>
      <polygon class="cls-3" points="5 25.9 6.6 24.87 6.6 31.1 5 31.24 5 25.9"/>
      <path class="cls-16" d="M6.54,24.98v6.01l-1.48.18v-5.21l1.48-.99M6.66,24.76l-1.72,1.14v5.41l1.72-.21v-6.34h0Z"/>
    </g>
    <g>
      <polygon class="cls-9" points="3.09 21.26 4.79 20.18 6.61 24.78 4.97 25.81 3.09 21.26"/>
      <path class="cls-16" d="M4.7,20.31l1.82,4.4-1.52,1.01-1.82-4.4,1.52-1.01M4.75,20.14l-1.72,1.14,1.91,4.62,1.72-1.14-1.91-4.62h0Z"/>
    </g>
    <g>
      <polygon class="cls-9" points="3.09 26.71 3.1 21.58 4.89 25.92 4.89 31.01 3.09 26.71"/>
      <path class="cls-16" d="M3.15,21.87l1.67,4.05v4.79l-1.67-4.01v-4.83M3.04,21.28v5.45l1.91,4.58v-5.41l-1.91-4.62h0Z"/>
    </g>
    <polygon class="cls-9" points="8.83 36.02 7.63 33.27 7.65 29.64 8.86 32.42 8.83 36.02"/>
    <polygon class="cls-17" points="12.8 6.45 1.56 5.67 15.63 39.08 22.06 29.06 12.8 6.45"/>
    <polygon class="cls-9" points="56.73 33.29 15.63 39.51 15.63 39.08 56.73 32.86 56.73 33.29"/>
    <polygon class="cls-9" points="15.63 39.51 1.56 6.1 1.56 5.67 15.63 39.08 15.63 39.51"/>
  </g>
  <g>
    <polygon class="cls-18" points=".62 54.8 -50.68 62.28 -50.68 50.1 .68 42.49 .62 54.8"/>
    <polygon class="cls-10" points="-21.86 8.51 -15.88 3.47 1.43 42.37 -10.61 35.03 -21.86 8.51"/>
    <polygon class="cls-14" points="1.43 42.37 -10.61 35.03 -16.1 36.03 -17.19 37.9 -64.58 45.24 -60.32 55.63 -12.84 48.25 -13.96 44.77 1.43 42.37"/>
    <polygon class="cls-12" points=".66 48.75 -8.84 50.17 -8.81 49.59 .71 48.16 .66 48.75"/>
    <polygon class="cls-9" points="1.43 42.8 -10.95 44.73 -10.95 44.3 1.43 42.37 1.43 42.8"/>
  </g>
</svg>