<?xml version="1.0" encoding="UTF-8"?>
<svg id="map" xmlns="http://www.w3.org/2000/svg" xmlns:xlink="http://www.w3.org/1999/xlink" viewBox="0 0 133.67 47.09">
  <defs>
    <style>
      .cls-1 {
        fill: #747577;
      }

      .cls-1, .cls-2, .cls-3, .cls-4, .cls-5, .cls-6, .cls-7, .cls-8, .cls-9, .cls-10, .cls-11, .cls-12, .cls-13, .cls-14, .cls-15, .cls-16, .cls-17, .cls-18, .cls-19, .cls-20, .cls-21, .cls-22 {
        stroke-width: 0px;
      }

      .cls-2 {
        fill: url(#linear-gradient);
      }

      .cls-3 {
        opacity: .2;
      }

      .cls-3, .cls-11 {
        fill: #000;
      }

      .cls-4 {
        fill: #0b0000;
      }

      .cls-5 {
        fill: #8cb835;
      }

      .cls-6 {
        fill: #d0d1d1;
      }

      .cls-7 {
        fill: #f1f2f2;
      }

      .cls-8 {
        fill: #d88461;
      }

      .cls-9 {
        fill: #9b5b5b;
      }

      .cls-10 {
        fill: #999;
      }

      .cls-12 {
        fill: #884f4f;
      }

      .cls-13 {
        fill: #f7966e;
      }

      .cls-14 {
        fill: #f2f2f2;
      }

      .cls-15 {
        fill: url(#linear-gradient-4);
      }

      .cls-16 {
        fill: url(#linear-gradient-2);
      }

      .cls-17 {
        fill: url(#linear-gradient-3);
      }

      .cls-18 {
        fill: url(#linear-gradient-5);
      }

      .cls-19 {
        fill: url(#linear-gradient-6);
      }

      .cls-20 {
        fill: #c27171;
      }

      .cls-21 {
        fill: #e5e5e5;
      }

      .cls-22 {
        fill: #d9a386;
      }
    </style>
    <linearGradient id="linear-gradient" x1="18.44" y1="37.41" x2="18.44" y2="22.6" gradientUnits="userSpaceOnUse">
      <stop offset="0" stop-color="#7f4340"/>
      <stop offset="1" stop-color="#b16767"/>
    </linearGradient>
    <linearGradient id="linear-gradient-2" x1="119.2" y1="22.19" x2="119.2" y2="7.38" xlink:href="#linear-gradient"/>
    <linearGradient id="linear-gradient-3" x1="68.52" y1="28.97" x2="68.52" y2="14.85" xlink:href="#linear-gradient"/>
    <linearGradient id="linear-gradient-4" x1="40.64" y1="31.98" x2="40.64" y2="13.13" xlink:href="#linear-gradient"/>
    <linearGradient id="linear-gradient-5" x1="90.5" y1="24.57" x2="90.5" y2="5.6" xlink:href="#linear-gradient"/>
    <linearGradient id="linear-gradient-6" x1=".53" y1="34.91" x2="3.43" y2="34.91" xlink:href="#linear-gradient"/>
  </defs>
  <path class="cls-5" d="M697.59,313.36c28.49-59.5-54.18-238.94-89.6-311.4-35.42-72.46-99.31-161.2-174.79-189.26-90.3-33.58-194.59-32.77-237.48-30.9-42.89,1.87-93.1,4.07-93.1,4.07l-233.81,19.08-24.03,1.96s-56.16,2.4-75.69,30.97c-6.71,9.81-16.38,20.43-28.27,29.83-13.78,10.88-39.39,18.35-39.39,18.35l-29.13-9.37s-11.94-4.07-10.96-.9,18.31,12.58,18.44,15.56c.13,2.98-12.37,14.29-34.96,12.03-9.15-.92-21.33-3.28-33.48-4.18-23.56-1.75-47.15,5.09-59.36,13.57-10.35,7.18-32.9,9.16-32.9,9.16-6.44,38.33,5.76,106.07,11.91,142.45,5.14,30.4,21.38,65.17,46.03,86.84,28.13,24.72,57.57,26.63,91.86,23.23,7.15-.71,23.43-2.2,43.21-.85,13.92.95,48.06,18.99,102.01,9.5,59.09-10.4,97.23-53.48,116.74-56.98,113.83-20.43,169.77-26.66,210.8-11.19,35.96,13.56,71.64,69.79,94.2,112.05,14.69,27.52,19.82,34.68,41.29,57.21,40.42,42.4,156.79,80.32,230.79,87.01,74,6.69,162.07-.18,189.67-57.81Z"/>
  <path class="cls-10" d="M-181.45,207.75c5.6-11.89,6.52-30.33,2.48-49.33-2.11-9.88-.14-16.91,1.63-20.1,7.19-1.63,11.59-6.06,10.58-10.63,2.44-2.48,13.32-11.48,46.58-16.5l265.8-40.14c6.05,4.33,29.04,21.17,44.85,37.69,19.37,20.24,38.15,41.14,55.06,74.15l9-1.66c-17.2-33.56-36.25-54.77-55.9-75.3-14.43-15.08-34.13-30.01-42.89-36.41l99.41-15.01c5.75,3.16,24.7,13.99,30.86,22.56l.58.81c7.37,10.26,17.46,24.32,43.68,34.48,12.09,4.68,24.87,9.9,36.5,17.67,12.27,8.19,22.19,18.61,30.35,31.85,12.37,20.09,25.52,47.31,36.08,69.18,4.86,10.07,9.06,18.76,12.38,25.1,10.49,20.02,16.93,31.68,27.5,38.62,2.61,1.71,5.08,3.01,7.26,4.16,6.37,3.35,11.41,6,16.08,17.14l23.49,56.02,5.06.33-24.09-57.03c-5.02-11.97-10.81-15.02-17.51-18.54-2.19-1.15-4.46-2.34-6.9-3.95-9.91-6.51-16.22-17.94-26.51-37.59-3.31-6.32-7.5-14.99-12.35-25.04-10.58-21.91-23.75-49.19-36.18-69.37-18.17-29.5-41.85-40.5-68.66-50.89-25.05-9.7-34.42-22.76-41.96-33.25l-.59-.82c-5.92-8.24-22.17-17.99-29.76-22.27l29.6-4.47c2.38-.28,4.74-.58,7.03-.93,21.71-3.28,21.85-10.44,20.53-13.59-.19-.44-.56-1.36-1.08-2.62l10.58-1.35,4.96,12.21,7.69-.85-5.02-12.33,55.17-7.91-4.29-10.22-4.23,1.78,2.01,4.78-50.49,7.2-2.54-5.68-7.18,2.04,2.09,4.61-10.53,1.34c-3.88-9.49-10.49-25.68-13.44-32.72-4.06-9.67-22.65-10.64-28.9-9.7-6.25.94-24.67,3.73-34.21,5.17-4.56.69-7.68-1.29-9.86-3.94l-17.77-42.36c-1.83-10.9.05-28.92,18.8-33.07l8.13-1.23c21.55-3.25,53.86-.4,78.58,6.95,3.66,1.09,9.72,2.86,17.39,5.09,43.04,12.56,143.82,41.96,167.23,52.57,23.33,10.57,48.92,33.04,60.36,44.66,5.15,5.23,11.52,12.58,15.05,23.05,3.87,11.49,3.66,24.41-.66,39.51l9.28.95c9.93-34.75-3.1-53.73-15.57-66.39-3.25-3.3-32.62-32.62-62.79-46.29-24.15-10.94-121.84-39.45-168.79-53.14-7.65-2.23-13.7-4-17.33-5.08-26.97-8.02-61.15-10.98-85.05-7.37l-38.86,5.87-15.49-36.93c-4.51-10.75-21.41-20.64-39.32-23.01-18.29-2.42-34.79-.83-47.7,2.79l-7.15,1.71c-4.76,1.33-13.58,3.75-22.82,6.03l-2.99-7.12c6.41-2.14,9.91-6.68,8.03-11.15l-.39-.92,9.85-1.49-1.46-3.49-9.85,1.49-2.26-5.33,9.85-1.49-1.46-3.49-10.29,1.55c-.96-.83-2.72-2.02-4.83-2.92l-3.2-7.63-5.81.88,2.11,5.03c-2.2-.22-4.51-.18-6.81.16l-.56.08c-7.61,1.15-12.67,5.3-12.57,9.81l-10.18,1.54,1.46,3.49,9.74-1.47,1.99,4.74-9.96,1.5,1.46,3.49,9.96-1.5.39.92c1.78,4.25,7.9,7.18,14.81,7.51l3.39,8.08c-8.25,1.85-15.8,3.25-19.94,3.28-13.81.11-24.45-2.62-38.47-7.39-3.02-1.03-5.78-2.24-8.71-3.52-9.38-4.11-20-8.76-38.76-5.93l-79.93,12.07c-7.79,1.18-14.51,4.52-18.42,9.18-3.18,3.79-4.42,8.21-3.67,12.98l-2.37.36c-3.12.47-5.02,2.38-4.24,4.25l19.56,46.61c.78,1.87,3.97,3.01,7.09,2.54l1.78-.27,1.46,3.48-36.09,5.45c-1.61-1.43-4.26-2.16-6.97-1.75-2.3.35-4.12,1.44-5,3-.11.19-.2.39-.27.59l-52.16,7.88-9.22-21.97-55.55,8.39,25.96,61.87-41.3,6.24c-3.89.59-12.97-.99-18.54-2.36-.07-.74-.26-1.48-.57-2.23-2.69-6.41-13.56-10.31-24.24-8.69-10.68,1.61-17.18,8.14-14.49,14.54,2.69,6.41,13.56,10.31,24.24,8.69,6.12-.92,10.86-3.46,13.29-6.66,3.8.87,10.63,2.24,16.75,2.45.12,2.96.62,7.58,2.4,11.83.61,1.44,1.44,3.09,2.33,4.84,2.97,5.84,7.03,13.85,4.16,18.7-.33.56-.69,1.16-1.07,1.78-2.84,4.71-6.56,10.87-8.18,17.93-3.61.11-10.13.72-19.77,3.18-5.57,1.42-13.81,3.16-22.52,5.01-15.07,3.19-32.15,6.81-42.13,10.13-3.92,1.3-7.58,2.55-11.13,3.77-10.4,3.56-19.39,6.64-27.58,8.34-10.89,2.26-18.03,3.18-18.21,3.2l2.2,4.58c.18-.02,5.89-.99,16.94-3.29,8.47-1.76,17.58-4.88,28.13-8.49,3.54-1.21,7.19-2.46,11.09-3.76,9.74-3.23,26.68-6.82,41.63-9.99,8.76-1.86,17.04-3.61,22.71-5.05,8.55-2.18,14.48-2.83,17.92-3-.25,3.27.02,6.69,1.09,10.22,3.29,10.84,10.51,26.31,13.98,33.74.89,1.9,1.59,3.4,1.86,4.04.63,1.49,2.09,4.99,6.91,7.45,5.45,2.78,13.31,3.42,23.38,1.9l65-9.82,3.39,8.09c1.59,3.8,6.64,6.54,12.63,7.32-1.56,3.92-3.06,10.68-1,20.31,3.89,18.28,3.07,35.87-2.2,47.07l9.06,1.54ZM45.24-153.87l-4.36-10.4c-.97-2.32,1.38-4.67,5.24-5.26l.56-.08c3.86-.58,7.79.83,8.76,3.14l4.36,10.4c.97,2.32-1.38,4.67-5.24,5.26l-.56.08c-3.86.58-7.79-.83-8.76-3.14ZM86.92-9.24l-22.32,25.63-11.92,1.8L12.62,1.98l74.3-11.22ZM4.19,3.26l10.69,25.49,4.23-1.78L10.32,6l41.81,16.91,14.83-2.24,23.94-27.5,9.5,22.65,4.23-1.78-10.25-24.42,22.95-3.47,24.05,57.32-58.93,8.9-6.62-15.78-16.79,2.54,6.62,15.78-57.52,8.69L-15.91,6.29,4.19,3.26ZM152.16,59.91c-.82-1.97-4.39-10.47-6.14-14.64l.93-.39-24.93-59.42,89.69-13.55,32.88,78.37-85.77,12.95c-2.79-.73-6.05-1.87-6.66-3.32ZM33.79-7.53L13.33-56.29l175.43-26.49,20.46,48.76L33.79-7.53ZM-16.14-57.66c-1.66-3.96-11.54-27.51-12.22-29.13-.75-1.78-.42-4.76,5.83-5.71,6.25-.94,30.1-4.55,30.1-4.55l2.9,6.91,9.7-1.47s.24-1.09,1.64-1.93c1.4-.84,4.28-.65,4.28-.65l2.98,7.1s1.56.39,2.39,2.37c.83,1.97,2.53,6.02,2.53,6.02l-1.64.25,1.12,2.66,1.97-.3,1.78,4.24-22.37,3.38,2.41,5.75-33.39,5.04ZM-136.87-127.04c2.58-3.07,6.62-5.22,11.54-5.96l31.41-4.62,9.04,21.55,4.23-1.78-8.59-20.48,40.16-6.19c14.12-2.13,21.24.99,30.26,4.94,3.03,1.33,6.17,2.7,9.69,3.9,15.33,5.21,32.25,10.42,47.55,10.89,8.84.28,21.6-.73,34.32-3.02l-.03.07c1.37.53,2.75,1.05,4.12,1.58,2.61,1,5.21,2,7.82,3,2.52.97,5,2.01,7.48,3.06,1.35.57,2.53,1.52,3.75,2.34l3.68,2.48c1.01.68,2.01,1.36,3.02,2.03l4.5-2.67-11.38-7.49,26.99-4.01.67-3.07-30,4.47c-1.32.2-2.78.15-4.02-.34-2.74-1.08-5.48-2.1-8.25-3.1-.03-.01-.07-.02-.1-.04,5.74-1.3,11.29-2.88,16.26-4.72l8.92-2.5c1.37-.38,2.68-.81,3.94-1.24,2.61-.64,5.46-1.27,7.49-1.53,1.31-.17,2.5-.28,3.59-.34l-.04.38c14.1,1.36,25.33,5.31,28.81,8.36.33.44,1.1,2.1,1.66,3.62l4.3-1.6c-.72-1.94-1.8-4.46-2.86-5.4-2.71-2.42-7.99-4.72-14.55-6.51.06-.12.11-.23.16-.33.57-1.14,3.25-.6,4.4-.35,1.15.25,5.84,1.43,6.21,1.06.12-.12.27-.36.42-.65,10.06,3.48,18.57,9.66,21.25,16.05l15.49,36.93-45.8,6.92c-.94-1.96-1.99-4.35-2.2-5.46-.46-2.34-2.22-10.57-2.3-10.92l-4.49.96c.02.09,1.83,8.54,2.28,10.84.27,1.38,1.16,3.51,1.97,5.29l-6.15.93-5.62-13.39c-1.48-3.54-7.58-3.75-10.13-3.67l.13,4.59c2.41-.07,5.18.39,5.8.95l5.13,12.23-44.28,6.65-2.47-6.02-4.95.9-33.52,4.91-12.83-30.59-4.77.72-1.37-3.26-66.4,10.13,16.69,39.79-22.83,3.45c-1-2-6.26-11.09-20.53-14.52-13.28-3.19-20.08-1.17-28.31-2.44-7.61-1.18-15.92-3.56-21.2-4.41l-2.9-6.84c7.82-1.18,41.95-6.4,41.95-6.4l-3.34-4.13s-34.73,5.29-40.45,6.16l-3.9-9.5c7.82-1.18,39.94-6.04,39.94-6.04l-1.87-4.41s-34.19,5.22-39.91,6.08l-6.21-14.68c-2.75-6.55-.72-11.02,1.46-13.62ZM-172.68-51c1.4-.21,2.57.16,3.07.49-.27.18-.75.39-1.44.5-1.41.21-2.59-.17-3.08-.49.27-.18.75-.4,1.45-.5ZM-242.87-60.96l16.38,39.05-46.19,6.98-16.38-39.05,46.19-6.98ZM-231.31-1.56l-5.91-14.09,12.57-1.9,5.91,14.09-12.57,1.9ZM-270.85-10.57l14.11-2.13,5.91,14.09-14.11,2.13-5.91-14.09ZM-346.81,14.94c-5.65.85-11.39-1.21-12.81-4.6-1.42-3.39,2.02-6.84,7.66-7.69,5.65-.85,11.39,1.21,12.81,4.6s-2.02,6.84-7.66,7.69ZM-205.62,117.96h0l-65,9.82c-15.67,2.37-17.67-2.41-18.86-5.26-.3-.72-.98-2.17-1.92-4.19-3.43-7.35-10.57-22.64-13.78-33.23-2.59-8.55.21-16.66,3.6-23.22,4.26-.47,8.57-1.69,9.08-3.09.09-.24.24-.68.42-1.26l40.67-.67,61.17-9.45-.69-4.54-60.86,9.41-38.89.64c.82-2.88,1.6-5.93,1.6-7.1,0-2.24-2.97-3.19-4.67-3.35-.96-.09-1.82-.51-2.5-1.1-1.1-3.5-2.88-7-4.48-10.16-.85-1.68-1.65-3.26-2.2-4.57-1.7-4.05-2.07-8.64-2.13-11.25L-208.95.89l-2.3-5.48-2.81.42-14.91-35.54,51.37-7.76c1.3,1.31,3.42,2.1,5.72,2.1.5,0,1-.04,1.51-.11,2.3-.35,4.12-1.44,5-3,.16-.29.29-.59.38-.89l36.51-5.51,4.62,11.01,13.83-2.09,14.91-2.25,9.98,23.78,3.3,2.86,1.38,3.29-5.04.76,1.92,4.57-8.11,1.23,2.24,5.34,15.13-2.29c9.93-1.5,7.83-6.51,6.94-8.64l-4.47-10.66,3-.45-2.65-6.32,6.31-.99,3.65-9.19c.1-.04.2-.07.3-.11L8.65-55.58l9.79,23.35-30.79,4.69,2.1,5,30.79-4.69L29.11-6.82-18.25.41l-2.33-5.55-7.46,1.13,2.33,5.55-74.25,11.14-2.03-4.83-2.63.4-7.53-17.96-4.93.75-4.14-22.64-39.39,5.54,1.1,5.73-8.52,2.64-4.09,22.61,23.52-3.55,5.75,13.72,11.02-1.66,1.61,3.84-43.42,6.56-1.49-3.55-12.83,1.94,1.15,2.73-4.22.64,6.07,14.47.5-.07.51,3.36,32.89-4.97-.69-4.54-25.79,3.89-2.73-6.5,9.15-1.38-.04-.09,18.55-2.8,2.8,6.68,4.23-1.78-2.35-5.61,41.15-6.21,2.8,6.68,4.23-1.78-2.35-5.61,48.75-7.36,2.32,5.54-46.35,7,.69,4.54,24.55-3.73,9.79,22.73,7.32-1.09-1-4.48-3.47.5-7.96-18.37,18.27-2.73,1.95,4.66,9.43-1.42-6.11-14.56,23.32-3.52L3.46,64.32l-22.02,3.27-4.32-10.11-11.81,1.72,4.44,10.25-98.8,14.87-3.68-3.78-1.49-3.55-16.88,2.55,1.49,3.55,7.29-1.1c2.7.52,8.74,2.08,10.27,5.72,1.28,3.04.45,5.42-.86,7.19-4.44,2.68-10.6,5.23-17.59,6.29l-25.89,3.91s-8.42,1.1-16.29,2.29l-.56.08c-8.89,1.34-11.85,5.13-12.35,10.47ZM-181.48,133.2l-.56.08c-3.86.58-7.79-.83-8.76-3.14l-5.18-11.68c-.97-2.32,1.38-4.67,5.24-5.26h0c3.86-.58,8.35.74,9.32,3.06l5.18,11.68c.97,2.32-1.38,4.67-5.24,5.26ZM-169.61,120.63l-4.7-11.2,24.47-3.7c6.44-.97,13.06-3.29,18.62-6.53,2.59-1.5,4.77-3.1,6.43-4.68,1.4,3.35,2.71,6.46,3.11,7.42.52,1.23-1.2,2.83-2.96,4.09-24.85,3.98-38.17,10.12-44.98,14.58Z"/>
  <polygon class="cls-7" points="-.56 19.86 -.56 29.83 6.08 47.32 6.8 37.41 -.56 19.86"/>
  <g>
    <g>
      <polygon class="cls-6" points="56.63 36.91 28.35 40.94 28.95 31.92 57.39 27.64 56.63 36.91"/>
      <polygon class="cls-11" points="32.55 35.08 30.74 35.34 30.91 32.81 32.73 32.54 32.55 35.08"/>
      <polygon class="cls-11" points="32.27 39.13 30.47 39.39 30.64 36.87 32.45 36.61 32.27 39.13"/>
      <polygon class="cls-11" points="36.43 34.51 34.61 34.77 34.79 32.23 36.61 31.96 36.43 34.51"/>
      <polygon class="cls-11" points="36.15 38.58 34.33 38.84 34.51 36.31 36.32 36.04 36.15 38.58"/>
      <polygon class="cls-11" points="40.34 33.93 38.51 34.2 38.69 31.65 40.53 31.38 40.34 33.93"/>
      <polygon class="cls-11" points="40.05 38.02 38.22 38.28 38.4 35.74 40.23 35.47 40.05 38.02"/>
      <polygon class="cls-11" points="46.72 32.99 44.87 33.27 45.06 30.7 46.92 30.42 46.72 32.99"/>
      <polygon class="cls-11" points="46.41 37.11 44.56 37.37 44.75 34.82 46.61 34.54 46.41 37.11"/>
      <polygon class="cls-11" points="50.71 32.41 48.84 32.68 49.04 30.1 50.91 29.83 50.71 32.41"/>
      <polygon class="cls-11" points="50.38 36.53 48.52 36.8 48.72 34.24 50.59 33.97 50.38 36.53"/>
      <polygon class="cls-11" points="54.72 31.82 52.84 32.09 53.04 29.51 54.93 29.22 54.72 31.82"/>
      <polygon class="cls-11" points="54.39 35.96 52.51 36.23 52.71 33.65 54.59 33.38 54.39 35.96"/>
    </g>
    <polygon class="cls-14" points="57 32.39 28.62 36.54 28.64 36.21 57.03 32.04 57 32.39"/>
    <polygon class="cls-14" points="42.58 38.88 41.92 38.97 42.59 29.87 43.25 29.77 42.58 38.88"/>
  </g>
  <g>
    <g>
      <polygon class="cls-6" points="106.01 29.52 77.72 33.54 78.18 24.5 106.76 20.24 106.01 29.52"/>
      <polygon class="cls-11" points="81.92 27.68 80.12 27.94 80.29 25.41 82.1 25.14 81.92 27.68"/>
      <polygon class="cls-11" points="81.65 31.73 79.84 31.99 80.01 29.47 81.82 29.21 81.65 31.73"/>
      <polygon class="cls-11" points="85.81 27.11 83.98 27.38 84.16 24.83 85.98 24.56 85.81 27.11"/>
      <polygon class="cls-11" points="85.52 31.18 83.7 31.44 83.88 28.91 85.7 28.65 85.52 31.18"/>
      <polygon class="cls-11" points="89.71 26.53 87.88 26.8 88.06 24.25 89.9 23.98 89.71 26.53"/>
      <polygon class="cls-11" points="89.42 30.62 87.59 30.88 87.77 28.34 89.6 28.08 89.42 30.62"/>
      <polygon class="cls-11" points="96.1 25.59 94.24 25.87 94.43 23.3 96.29 23.02 96.1 25.59"/>
      <polygon class="cls-11" points="95.78 29.71 93.93 29.97 94.13 27.42 95.98 27.15 95.78 29.71"/>
      <polygon class="cls-11" points="100.08 25.01 98.21 25.28 98.41 22.71 100.28 22.43 100.08 25.01"/>
      <polygon class="cls-11" points="99.76 29.14 97.89 29.4 98.09 26.84 99.96 26.57 99.76 29.14"/>
      <polygon class="cls-11" points="104.09 24.42 102.21 24.69 102.41 22.11 104.3 21.83 104.09 24.42"/>
      <polygon class="cls-11" points="103.76 28.56 101.88 28.83 102.09 26.26 103.96 25.98 103.76 28.56"/>
    </g>
    <polygon class="cls-14" points="106.37 24.99 77.99 29.14 78.02 28.81 106.4 24.64 106.37 24.99"/>
    <polygon class="cls-14" points="91.95 31.48 91.3 31.58 91.97 22.47 92.62 22.37 91.95 31.48"/>
  </g>
  <polygon class="cls-3" points="28.86 32.03 31.55 31.61 30.98 40.6 28.69 40.91 28.86 32.03"/>
  <g>
    <polygon class="cls-6" points="129.51 28.82 106.93 32.05 107.7 22.07 130.45 18.68 129.51 28.82"/>
    <polygon class="cls-11" points="111.43 25.59 108.93 25.95 109.12 22.98 111.62 22.61 111.43 25.59"/>
    <polygon class="cls-11" points="111.14 30.11 108.66 30.47 108.84 27.54 111.33 27.18 111.14 30.11"/>
    <polygon class="cls-11" points="128.46 23.11 125.92 23.48 126.18 20.48 128.73 20.1 128.46 23.11"/>
    <polygon class="cls-11" points="128.04 27.68 125.53 28.04 125.79 25.08 128.31 24.72 128.04 27.68"/>
    <polygon class="cls-11" points="121.16 24.82 116.72 25.46 116.99 21.83 121.45 21.17 121.16 24.82"/>
    <polygon class="cls-11" points="120.85 28.72 116.44 29.35 116.71 25.68 121.14 25.04 120.85 28.72"/>
    <polygon class="cls-14" points="129.98 23.83 107.33 27.22 107.36 26.64 130.03 23.24 129.98 23.83"/>
  </g>
  <polygon class="cls-7" points="106.01 29.52 106.93 32.05 107.7 22.07 106.76 20.24 106.01 29.52"/>
  <polygon class="cls-7" points="56.63 36.91 57.3 39.14 57.96 28.96 57.39 27.64 56.63 36.91"/>
  <polygon class="cls-3" points="107.7 22.07 107.53 24.43 130.23 21.19 130.47 18.52 107.7 22.07"/>
  <polygon class="cls-3" points="28.95 31.92 28.79 34.35 57.18 30.22 57.39 27.64 28.95 31.92"/>
  <polygon class="cls-3" points="78.13 24.53 78.17 26.95 106.53 22.82 106.76 20.24 78.13 24.53"/>
  <polygon class="cls-10" points="57.18 30.22 57.81 31.37 57.96 28.96 57.39 27.64 57.18 30.22"/>
  <polygon class="cls-10" points="106.53 22.82 107.53 24.43 107.7 22.07 106.76 20.24 106.53 22.82"/>
  <g>
    <polygon class="cls-6" points="78.17 36.27 57.3 39.14 57.96 28.96 78.61 25.83 78.17 36.27"/>
    <polygon class="cls-11" points="64.96 32.48 60.25 33.17 60.46 29.78 65.15 29.08 64.96 32.48"/>
    <polygon class="cls-11" points="69.99 31.75 65.23 32.44 65.42 29.04 70.17 28.33 69.99 31.75"/>
    <polygon class="cls-11" points="75.1 31.01 70.27 31.71 70.45 28.28 75.26 27.56 75.1 31.01"/>
    <polygon class="cls-14" points="78.27 31.94 57.55 34.91 57.58 34.45 78.29 31.46 78.27 31.94"/>
    <path class="cls-11" d="M65.93,37.95l.16-2.93c.06-1.07.8-2.04,1.64-2.16h0c.85-.12,1.49.65,1.44,1.72l-.15,2.94-3.09.43Z"/>
    <path class="cls-11" d="M70.86,37.27l.15-2.94c.05-1.07.8-2.05,1.65-2.17h0c.86-.12,1.52.66,1.47,1.73l-.14,2.95-3.13.43Z"/>
    <path class="cls-11" d="M60.81,38.66l.18-2.91c.06-1.06.8-2.03,1.63-2.15h0c.83-.12,1.47.65,1.41,1.72l-.17,2.92-3.05.42Z"/>
  </g>
  <polygon class="cls-3" points="57.96 28.96 57.8 31.35 78.5 28.41 78.61 25.83 57.96 28.96"/>
  <g>
    <polygon class="cls-6" points="28.66 44.09 6.08 47.32 6.8 37.41 29.6 33.95 28.66 44.09"/>
    <polygon class="cls-11" points="10.58 40.85 8.09 41.22 8.27 38.25 10.77 37.88 10.58 40.85"/>
    <polygon class="cls-11" points="10.29 45.37 7.81 45.73 7.99 42.8 10.48 42.44 10.29 45.37"/>
    <polygon class="cls-11" points="27.61 38.38 25.08 38.74 25.34 35.74 27.88 35.37 27.61 38.38"/>
    <polygon class="cls-11" points="27.2 42.95 24.68 43.31 24.94 40.34 27.46 39.98 27.2 42.95"/>
    <polygon class="cls-11" points="20.31 40.08 15.87 40.73 16.14 37.09 20.6 36.43 20.31 40.08"/>
    <polygon class="cls-11" points="20 43.98 15.59 44.61 15.86 40.95 20.29 40.3 20 43.98"/>
    <polygon class="cls-14" points="29.04 39.1 6.48 42.48 6.51 41.91 29.1 38.52 29.04 39.1"/>
  </g>
  <polygon class="cls-3" points="6.8 37.41 6.65 39.83 29.37 36.53 29.6 33.95 6.8 37.41"/>
  <g>
    <path class="cls-9" d="M-.69,19.6s14.77-.13,15.31-.66l7.73-2.54L-.69,19.6Z"/>
    <path class="cls-9" d="M51.1,12.69s13.46-.87,13.95-1.36l6.8-1.77-20.74,3.13Z"/>
    <path class="cls-2" d="M6.8,37.41s8.47-15.12,9.36-14.8c.89.32,13.92,11.28,13.92,11.28l-23.28,3.52Z"/>
    <polygon class="cls-20" points="-.69 19.6 6.8 37.41 16.16 22.6 14.62 18.94 -.69 19.6"/>
    <polygon class="cls-12" points="22.35 16.4 30.08 33.89 15.94 22.64 14.62 18.94 22.35 16.4"/>
    <path class="cls-9" d="M100.2,4.64s14.65-.38,15.18-.92l8.03-2.6-23.21,3.52Z"/>
    <path class="cls-16" d="M107.56,22.19s8.47-15.12,9.36-14.8,13.91,11.28,13.91,11.28l-23.27,3.52Z"/>
    <polygon class="cls-20" points="100.2 4.64 107.56 22.19 116.92 7.39 115.38 3.72 100.2 4.64"/>
    <polygon class="cls-12" points="123.41 1.12 130.83 18.67 116.7 7.42 115.38 3.72 123.41 1.12"/>
    <polygon class="cls-20" points="51.1 12.69 52.51 16.04 65.58 13.13 64.84 11.35 51.1 12.69"/>
    <polygon class="cls-12" points="71.84 9.55 73.25 12.91 65.58 13.13 64.84 11.35 71.84 9.55"/>
    <path class="cls-17" d="M57.93,28.97s7.71-14.4,8.53-14.11c.82.29,12.66,10.91,12.66,10.91l-21.19,3.2Z"/>
    <polygon class="cls-20" points="57.93 28.97 56.52 25.61 65.58 13.13 66.34 14.94 57.93 28.97"/>
    <polygon class="cls-12" points="79.12 25.77 78.21 24.57 65.58 13.13 66.34 14.94 79.12 25.77"/>
    <polygon class="cls-9" points="51.59 13.89 23.18 18.21 15.69 20.66 65.53 13.14 51.59 13.89"/>
    <polygon class="cls-15" points="57.44 27.71 29.25 31.98 15.69 20.66 65.58 13.13 57.44 27.71"/>
    <polygon class="cls-9" points="100.94 6.42 72.36 10.83 65.58 13.13 115.41 5.6 100.94 6.42"/>
    <polygon class="cls-18" points="106.76 20.24 78.21 24.57 65.58 13.13 115.41 5.6 106.76 20.24"/>
  </g>
  <path class="cls-22" d="M157.42,60.22c-1.91-.85-2.42-2.01-2.42-2.01L125.08-13.18l52.24-8.02,31.31,74.71-47.9,7.35s-1.41.2-3.32-.65Z"/>
  <g>
    <polygon class="cls-11" points=".47 26.33 -.04 25.19 -.01 22.78 .5 23.91 .47 26.33"/>
    <path class="cls-11" d="M.46,26.4c-.21-.37-.47-.79-.6-1.21,0-.13.07-2.69.07-2.71.07.16.52,1.22.6,1.41.01.02-.07,2.41-.06,2.43,0,0,0,.07,0,.07H.46ZM.47,26.28s-.01-2.43,0-2.36c0,0-.53-1.12-.53-1.12l.12-.03v2.41c.13.14.3.75.41,1.09H.47Z"/>
  </g>
  <g>
    <polygon class="cls-11" points="1.34 28.03 .84 26.96 .87 24.66 1.37 25.79 1.34 28.03"/>
    <path class="cls-11" d="M1.34,28.1c-.21-.35-.47-.75-.6-1.14,0-.15.07-2.55.07-2.6.07.16.52,1.22.6,1.41.01.02-.07,2.23-.06,2.26,0,0,0,.07,0,.07h0ZM1.34,27.99s-.01-2.25,0-2.18c0,0-.53-1.12-.53-1.12l.12-.03v2.31c.12.1.3.71.41,1.02h0Z"/>
  </g>
  <g>
    <polygon class="cls-11" points="5.22 37.69 4.71 36.55 4.74 34.14 5.25 35.27 5.22 37.69"/>
    <path class="cls-11" d="M5.21,37.76c-.21-.37-.47-.79-.61-1.21,0-.13.07-2.69.07-2.71.07.16.52,1.22.6,1.41.01.02-.07,2.41-.06,2.43,0,0,0,.07,0,.07h0ZM5.21,37.64s-.01-2.43,0-2.36c0,0-.53-1.12-.53-1.12l.12-.03v2.41c.13.14.3.75.41,1.09h0Z"/>
  </g>
  <g>
    <polygon class="cls-11" points="6.09 39.39 5.59 38.33 5.61 36.02 6.12 37.15 6.09 39.39"/>
    <path class="cls-11" d="M6.09,39.47c-.21-.35-.47-.75-.6-1.14,0-.15.07-2.55.07-2.6.07.16.52,1.22.6,1.41.01.02-.07,2.23-.07,2.26,0,0,0,.07,0,.07h0ZM6.09,39.35s-.01-2.25,0-2.18c0,0-.53-1.12-.53-1.12l.12-.03v2.31c.12.1.3.71.41,1.02h0Z"/>
  </g>
  <polygon class="cls-20" points="-1.75 31.77 .53 37.2 3.43 32.62 2.95 31.49 -1.75 31.77"/>
  <polygon class="cls-19" points="3.43 32.62 3.43 36.22 .53 37.2 3.43 32.62"/>
  <polygon class="cls-6" points="2.98 39.39 .46 39.76 .85 36.71 3.43 36.22 2.98 39.39"/>
  <polygon class="cls-21" points=".46 39.76 -1.72 35.15 -1.75 31.77 .85 36.71 .46 39.76"/>
  <polygon class="cls-11" points="-.26 38.23 -.92 36.85 -.73 34.12 .06 35.63 -.26 38.23"/>
  <polygon class="cls-3" points="-.56 19.86 -.58 22.54 6.65 39.83 6.8 37.41 -.56 19.86"/>
  <polygon class="cls-6" points="18.15 23.47 15.4 23.94 15.4 26.91 18.15 26.44 18.15 23.47"/>
  <polygon class="cls-1" points="17.52 22.29 14.76 22.75 15.4 23.94 18.15 23.47 17.52 22.29"/>
  <polygon class="cls-7" points="15.4 23.94 14.76 22.75 14.76 24.8 15.4 26.91 15.4 23.94"/>
  <g>
    <polygon class="cls-8" points="16.2 22.58 15.56 22.69 15.56 23.38 16.2 23.28 16.2 22.58"/>
    <polygon class="cls-4" points="16.06 22.31 15.41 22.42 15.56 22.69 16.2 22.58 16.06 22.31"/>
    <polygon class="cls-13" points="15.56 22.69 15.41 22.42 15.41 23.07 15.56 23.38 15.56 22.69"/>
  </g>
  <g>
    <polygon class="cls-8" points="17.43 22.39 16.79 22.5 16.79 23.19 17.43 23.08 17.43 22.39"/>
    <polygon class="cls-4" points="17.28 22.12 16.64 22.23 16.79 22.5 17.43 22.39 17.28 22.12"/>
    <polygon class="cls-13" points="16.79 22.5 16.64 22.23 16.64 22.88 16.79 23.19 16.79 22.5"/>
  </g>
  <polygon class="cls-6" points="15.8 17.18 13.04 17.64 13.04 19.2 15.8 18.73 15.8 17.18"/>
  <polygon class="cls-1" points="15.16 15.99 12.41 16.46 13.04 17.64 15.8 17.18 15.16 15.99"/>
  <polygon class="cls-7" points="13.04 17.64 12.41 16.46 12.41 19.07 13.04 19.2 13.04 17.64"/>
  <g>
    <polygon class="cls-8" points="13.85 16.29 13.21 16.4 13.21 17.09 13.85 16.98 13.85 16.29"/>
    <polygon class="cls-4" points="13.7 16.01 13.06 16.12 13.21 16.4 13.85 16.29 13.7 16.01"/>
    <polygon class="cls-13" points="13.21 16.4 13.06 16.12 13.06 16.77 13.21 17.09 13.21 16.4"/>
  </g>
  <g>
    <polygon class="cls-8" points="15.07 16.1 14.43 16.21 14.43 16.9 15.07 16.79 15.07 16.1"/>
    <polygon class="cls-4" points="14.93 15.82 14.29 15.93 14.43 16.21 15.07 16.1 14.93 15.82"/>
    <polygon class="cls-13" points="14.43 16.21 14.29 15.93 14.29 16.58 14.43 16.9 14.43 16.21"/>
  </g>
  <polygon class="cls-6" points="118.93 8.22 116.17 8.69 116.17 11.66 118.93 11.19 118.93 8.22"/>
  <polygon class="cls-1" points="118.29 7.03 115.54 7.5 116.17 8.69 118.93 8.22 118.29 7.03"/>
  <polygon class="cls-7" points="116.17 8.69 115.54 7.5 115.54 9.55 116.17 11.66 116.17 8.69"/>
  <g>
    <polygon class="cls-8" points="116.98 7.33 116.34 7.44 116.34 8.13 116.98 8.02 116.98 7.33"/>
    <polygon class="cls-4" points="116.83 7.06 116.19 7.17 116.34 7.44 116.98 7.33 116.83 7.06"/>
    <polygon class="cls-13" points="116.34 7.44 116.19 7.17 116.19 7.82 116.34 8.13 116.34 7.44"/>
  </g>
  <g>
    <polygon class="cls-8" points="118.2 7.14 117.56 7.25 117.56 7.94 118.2 7.83 118.2 7.14"/>
    <polygon class="cls-4" points="118.06 6.87 117.41 6.98 117.56 7.25 118.2 7.14 118.06 6.87"/>
    <polygon class="cls-13" points="117.56 7.25 117.41 6.98 117.41 7.63 117.56 7.94 117.56 7.25"/>
  </g>
  <polygon class="cls-6" points="116.58 1.95 113.82 2.42 113.82 3.97 116.58 3.51 116.58 1.95"/>
  <polygon class="cls-1" points="115.94 .77 113.18 1.23 113.82 2.42 116.58 1.95 115.94 .77"/>
  <polygon class="cls-7" points="113.82 2.42 113.18 1.23 113.18 3.84 113.82 3.97 113.82 2.42"/>
  <g>
    <polygon class="cls-8" points="114.63 1.07 113.99 1.17 113.99 1.86 114.63 1.76 114.63 1.07"/>
    <polygon class="cls-4" points="114.48 .79 113.84 .9 113.99 1.17 114.63 1.07 114.48 .79"/>
    <polygon class="cls-13" points="113.99 1.17 113.84 .9 113.84 1.55 113.99 1.86 113.99 1.17"/>
  </g>
  <g>
    <polygon class="cls-8" points="115.85 .88 115.21 .98 115.21 1.67 115.85 1.57 115.85 .88"/>
    <polygon class="cls-4" points="115.7 .6 115.06 .71 115.21 .98 115.85 .88 115.7 .6"/>
    <polygon class="cls-13" points="115.21 .98 115.06 .71 115.06 1.36 115.21 1.67 115.21 .98"/>
  </g>
  <polygon class="cls-6" points="60.22 10.96 59.01 11.16 59.01 14.13 60.22 13.93 60.22 10.96"/>
  <polygon class="cls-1" points="59.21 9.12 57.99 9.32 59.01 11.16 60.22 10.96 59.21 9.12"/>
  <polygon class="cls-7" points="59.01 11.16 57.99 9.32 57.99 13.54 59.01 14.13 59.01 11.16"/>
  <g>
    <polygon class="cls-8" points="59.2 9.2 58.84 9.25 58.84 9.94 59.2 9.89 59.2 9.2"/>
    <polygon class="cls-4" points="59.06 8.92 58.69 8.98 58.84 9.25 59.2 9.2 59.06 8.92"/>
    <polygon class="cls-13" points="58.84 9.25 58.69 8.98 58.69 9.63 58.84 9.94 58.84 9.25"/>
  </g>
  <g>
    <polygon class="cls-8" points="59.55 10 59.19 10.05 59.19 10.74 59.55 10.69 59.55 10"/>
    <polygon class="cls-4" points="59.41 9.72 59.04 9.78 59.19 10.05 59.55 10 59.41 9.72"/>
    <polygon class="cls-13" points="59.19 10.05 59.04 9.78 59.04 10.43 59.19 10.74 59.19 10.05"/>
  </g>
  <polygon class="cls-6" points="71.92 9.2 70.71 9.4 70.71 12.37 71.92 12.17 71.92 9.2"/>
  <polygon class="cls-1" points="70.91 7.36 69.69 7.56 70.71 9.4 71.92 9.2 70.91 7.36"/>
  <polygon class="cls-7" points="70.71 9.4 69.69 7.56 69.69 11.78 70.71 12.37 70.71 9.4"/>
  <g>
    <polygon class="cls-8" points="70.91 7.44 70.54 7.49 70.54 8.18 70.91 8.13 70.91 7.44"/>
    <polygon class="cls-4" points="70.76 7.16 70.39 7.22 70.54 7.49 70.91 7.44 70.76 7.16"/>
    <polygon class="cls-13" points="70.54 7.49 70.39 7.22 70.39 7.87 70.54 8.18 70.54 7.49"/>
  </g>
  <g>
    <polygon class="cls-8" points="71.26 8.24 70.89 8.29 70.89 8.98 71.26 8.93 71.26 8.24"/>
    <polygon class="cls-4" points="71.11 7.96 70.74 8.02 70.89 8.29 71.26 8.24 71.11 7.96"/>
    <polygon class="cls-13" points="70.89 8.29 70.74 8.02 70.74 8.67 70.89 8.98 70.89 8.29"/>
  </g>
  <polygon class="cls-11" points="30.08 34.31 6.8 37.83 6.8 37.41 30.08 33.89 30.08 34.31"/>
  <polygon class="cls-11" points="6.8 37.83 -.69 20.02 -.69 19.6 6.8 37.41 6.8 37.83"/>
  <polygon class="cls-11" points="79.12 26.19 57.93 29.39 57.93 28.97 79.12 25.77 79.12 26.19"/>
  <polygon class="cls-11" points="57.44 28.13 29.41 32.38 29.25 31.98 57.44 27.71 57.44 28.13"/>
  <polygon class="cls-11" points="57.93 29.39 57.44 28.13 57.44 27.71 57.93 28.97 57.93 29.39"/>
  <polygon class="cls-11" points="106.76 20.66 78.49 24.95 78.21 24.57 106.76 20.24 106.76 20.66"/>
  <polygon class="cls-11" points="130.83 19.09 107.56 22.61 107.56 22.19 130.83 18.67 130.83 19.09"/>
  <polygon class="cls-11" points="107.56 22.61 106.76 20.67 106.76 20.24 107.56 22.19 107.56 22.61"/>
  <polygon class="cls-6" points="4.12 -8.15 -52.25 .32 -52.25 -11.87 4.19 -20.46 4.12 -8.15"/>
</svg>