<?xml version="1.0" encoding="UTF-8"?>
<svg id="map" xmlns="http://www.w3.org/2000/svg" viewBox="0 0 82.84 41.59">
  <defs>
    <style>
      .cls-1 {
        fill: #e9e0b3;
      }

      .cls-1, .cls-2, .cls-3, .cls-4, .cls-5, .cls-6, .cls-7, .cls-8, .cls-9, .cls-10, .cls-11, .cls-12, .cls-13, .cls-14, .cls-15, .cls-16, .cls-17 {
        stroke-width: 0px;
      }

      .cls-2 {
        fill: #ddcba3;
      }

      .cls-3 {
        fill: #605e5f;
      }

      .cls-18 {
        stroke-width: .15px;
      }

      .cls-18, .cls-19, .cls-20, .cls-21 {
        stroke: #fff;
        stroke-miterlimit: 10;
      }

      .cls-18, .cls-20 {
        fill: #231f20;
      }

      .cls-19 {
        stroke-width: .04px;
      }

      .cls-19, .cls-5, .cls-10, .cls-21 {
        fill: #000;
      }

      .cls-4 {
        fill: #a69a7d;
      }

      .cls-5 {
        opacity: .2;
      }

      .cls-20 {
        stroke-width: .05px;
      }

      .cls-6 {
        fill: #8cb835;
      }

      .cls-7 {
        fill: #7d4e34;
      }

      .cls-8 {
        fill: #999;
      }

      .cls-9 {
        fill: #515051;
      }

      .cls-11 {
        fill: #6a6869;
      }

      .cls-12 {
        fill: #4b4b4b;
      }

      .cls-13 {
        fill: #f2f2f2;
      }

      .cls-14 {
        fill: #9a6143;
      }

      .cls-15 {
        fill: #f1e0bf;
      }

      .cls-21 {
        stroke-width: .1px;
      }

      .cls-16 {
        fill: #d9a386;
      }

      .cls-17 {
        fill: #8c573c;
      }
    </style>
  </defs>
  <path class="cls-6" d="M663.75,431.86c28.49-59.5-54.18-238.94-89.6-311.4-35.42-72.46-99.31-161.2-174.79-189.26-90.3-33.58-194.59-32.77-237.48-30.9-42.89,1.87-93.1,4.07-93.1,4.07l-233.81,19.08-24.03,1.96s-56.16,2.4-75.69,30.97c-6.71,9.81-16.38,20.43-28.27,29.83-13.78,10.88-39.39,18.35-39.39,18.35l-29.13-9.37s-11.94-4.07-10.96-.9,18.31,12.58,18.44,15.56c.13,2.98-12.37,14.29-34.96,12.03-9.15-.92-21.33-3.28-33.48-4.18-23.56-1.75-47.15,5.09-59.36,13.57-10.35,7.18-32.9,9.16-32.9,9.16-6.44,38.33,5.76,106.07,11.91,142.45,5.14,30.4,21.38,65.17,46.03,86.84,28.13,24.72,57.57,26.63,91.86,23.23,7.15-.71,23.43-2.2,43.21-.85,13.92.95,48.06,18.99,102.01,9.5,59.09-10.4,97.23-53.48,116.74-56.98,113.83-20.43,169.77-26.66,210.8-11.19,35.96,13.56,71.64,69.79,94.2,112.05,14.69,27.52,19.82,34.68,41.29,57.21,40.42,42.4,156.79,80.32,230.79,87.01,74,6.69,162.07-.18,189.67-57.81Z"/>
  <path class="cls-8" d="M-215.28,326.25c5.6-11.89,6.52-30.33,2.48-49.33-2.11-9.88-.14-16.91,1.63-20.1,7.19-1.63,11.59-6.06,10.58-10.63,2.44-2.48,13.32-11.48,46.58-16.5l265.8-40.14c6.05,4.33,29.04,21.17,44.85,37.69,19.37,20.24,38.15,41.14,55.06,74.15l9-1.66c-17.2-33.56-36.25-54.77-55.9-75.3-14.43-15.08-34.13-30.01-42.89-36.41l99.41-15.01c5.75,3.16,24.7,13.99,30.86,22.56l.58.81c7.37,10.26,17.46,24.32,43.68,34.48,12.09,4.68,24.87,9.9,36.5,17.67,12.27,8.19,22.19,18.61,30.35,31.85,12.37,20.09,25.52,47.31,36.08,69.18,4.86,10.07,9.06,18.76,12.38,25.1,10.49,20.02,16.93,31.68,27.5,38.62,2.61,1.71,5.08,3.01,7.26,4.16,6.37,3.35,11.41,6,16.08,17.14l23.49,56.02,5.06.33-24.09-57.03c-5.02-11.97-10.81-15.02-17.51-18.54-2.19-1.15-4.46-2.34-6.9-3.95-9.91-6.51-16.22-17.94-26.51-37.59-3.31-6.32-7.5-14.99-12.35-25.04-10.58-21.91-23.75-49.19-36.18-69.37-18.17-29.5-41.85-40.5-68.66-50.89-25.05-9.7-34.42-22.76-41.96-33.25l-.59-.82c-5.92-8.24-22.17-17.99-29.76-22.27l29.6-4.47c2.38-.28,4.74-.58,7.03-.93,21.71-3.28,21.85-10.44,20.53-13.59-.19-.44-.56-1.36-1.08-2.62l10.58-1.35,4.96,12.21,7.69-.85-5.02-12.33,55.17-7.91-4.29-10.22-4.23,1.78,2.01,4.78-50.49,7.2-2.54-5.68-7.18,2.04,2.09,4.61-10.53,1.34c-3.88-9.49-10.49-25.68-13.44-32.72-4.06-9.67-22.65-10.64-28.9-9.7-6.25.94-24.67,3.73-34.21,5.17-4.56.69-7.68-1.29-9.86-3.94l-17.77-42.36c-1.83-10.9.05-28.92,18.8-33.07l8.13-1.23c21.55-3.25,53.86-.4,78.58,6.95,3.66,1.09,9.72,2.86,17.39,5.09,43.04,12.56,143.82,41.96,167.23,52.57,23.33,10.57,48.92,33.04,60.36,44.66,5.15,5.23,11.52,12.58,15.05,23.05,3.87,11.49,3.66,24.41-.66,39.51l9.28.95c9.93-34.75-3.1-53.73-15.57-66.39-3.25-3.3-32.62-32.62-62.79-46.29-24.15-10.94-121.84-39.45-168.79-53.14-7.65-2.23-13.7-4-17.33-5.08-26.97-8.02-61.15-10.98-85.05-7.37l-38.86,5.87-15.49-36.93c-4.51-10.75-21.41-20.64-39.32-23.01-18.29-2.42-34.79-.83-47.7,2.79l-7.15,1.71c-4.76,1.33-13.58,3.75-22.82,6.03l-2.99-7.12c6.41-2.14,9.91-6.68,8.03-11.15l-.39-.92,9.85-1.49-1.46-3.49-9.85,1.49-2.26-5.33,9.85-1.49-1.46-3.49-10.29,1.55c-.96-.83-2.72-2.02-4.83-2.92l-3.2-7.63-5.81.88,2.11,5.03c-2.2-.22-4.51-.18-6.81.16l-.56.08c-7.61,1.15-12.67,5.3-12.57,9.81l-10.18,1.54,1.46,3.49,9.74-1.47,1.99,4.74-9.96,1.5,1.46,3.49,9.96-1.5.39.92c1.78,4.25,7.9,7.18,14.81,7.51l3.39,8.08c-8.25,1.85-15.8,3.25-19.94,3.28-13.81.11-24.45-2.62-38.47-7.39-3.02-1.03-5.78-2.24-8.71-3.52-9.38-4.11-20-8.76-38.76-5.93l-79.93,12.07c-7.79,1.18-14.51,4.52-18.42,9.18-3.18,3.79-4.42,8.21-3.67,12.98l-2.37.36c-3.12.47-5.02,2.38-4.24,4.25l19.56,46.61c.78,1.87,3.97,3.01,7.09,2.54l1.78-.27,1.46,3.48-36.09,5.45c-1.61-1.43-4.26-2.16-6.97-1.75-2.3.35-4.12,1.44-5,3-.11.19-.2.39-.27.59l-52.16,7.88-9.22-21.97-55.55,8.39,25.96,61.87-41.3,6.24c-3.89.59-12.97-.99-18.54-2.36-.07-.74-.26-1.48-.57-2.23-2.69-6.41-13.56-10.31-24.24-8.69-10.68,1.61-17.18,8.14-14.49,14.54,2.69,6.41,13.56,10.31,24.24,8.69,6.12-.92,10.86-3.46,13.29-6.66,3.8.87,10.63,2.24,16.75,2.45.12,2.96.62,7.58,2.4,11.83.61,1.44,1.44,3.09,2.33,4.84,2.97,5.84,7.03,13.85,4.16,18.7-.33.56-.69,1.16-1.07,1.78-2.84,4.71-6.56,10.87-8.18,17.93-3.61.11-10.13.72-19.77,3.18-5.57,1.42-13.81,3.16-22.52,5.01-15.07,3.19-32.15,6.81-42.13,10.13-3.92,1.3-7.58,2.55-11.13,3.77-10.4,3.56-19.39,6.64-27.58,8.34-10.89,2.26-18.03,3.18-18.21,3.2l2.2,4.58c.18-.02,5.89-.99,16.94-3.29,8.47-1.76,17.58-4.88,28.13-8.49,3.54-1.21,7.19-2.46,11.09-3.76,9.74-3.23,26.68-6.82,41.63-9.99,8.76-1.86,17.04-3.61,22.71-5.05,8.55-2.18,14.48-2.83,17.92-3-.25,3.27.02,6.69,1.09,10.22,3.29,10.84,10.51,26.31,13.98,33.74.89,1.9,1.59,3.4,1.86,4.04.63,1.49,2.09,4.99,6.91,7.45,5.45,2.78,13.31,3.42,23.38,1.9l65-9.82,3.39,8.09c1.59,3.8,6.64,6.54,12.63,7.32-1.56,3.92-3.06,10.68-1,20.31,3.89,18.28,3.07,35.87-2.2,47.07l9.06,1.54ZM11.4-35.37l-4.36-10.4c-.97-2.32,1.38-4.67,5.24-5.26l.56-.08c3.86-.58,7.79.83,8.76,3.14l4.36,10.4c.97,2.32-1.38,4.67-5.24,5.26l-.56.08c-3.86.58-7.79-.83-8.76-3.14ZM53.08,109.26l-22.32,25.63-11.92,1.8-40.07-16.21,74.3-11.22ZM-29.65,121.76l10.69,25.49,4.23-1.78-8.8-20.97,41.81,16.91,14.83-2.24,23.94-27.5,9.5,22.65,4.23-1.78-10.25-24.42,22.95-3.47,24.05,57.32-58.93,8.9-6.62-15.78-16.79,2.54,6.62,15.78-57.52,8.69-24.05-57.32,20.1-3.04ZM118.32,178.41c-.82-1.97-4.39-10.47-6.14-14.64l.93-.39-24.93-59.42,89.69-13.55,32.88,78.37-85.77,12.95c-2.79-.73-6.05-1.87-6.66-3.32ZM-.05,110.97l-20.46-48.76,175.43-26.49,20.46,48.76L-.05,110.97ZM-49.98,60.84c-1.66-3.96-11.54-27.51-12.22-29.13-.75-1.78-.42-4.76,5.83-5.71,6.25-.94,30.1-4.55,30.1-4.55l2.9,6.91,9.7-1.47s.24-1.09,1.64-1.93c1.4-.84,4.28-.65,4.28-.65l2.98,7.1s1.56.39,2.39,2.37c.83,1.97,2.53,6.02,2.53,6.02l-1.64.25,1.12,2.66,1.97-.3,1.78,4.24-22.37,3.38,2.41,5.75-33.39,5.04ZM-170.71-8.54c2.58-3.07,6.62-5.22,11.54-5.96l31.41-4.62,9.04,21.55,4.23-1.78-8.59-20.48,40.16-6.19c14.12-2.13,21.24.99,30.26,4.94,3.03,1.33,6.17,2.7,9.69,3.9C-27.64-11.97-10.72-6.77,4.58-6.29c8.84.28,21.6-.73,34.32-3.02l-.03.07c1.37.53,2.75,1.05,4.12,1.58,2.61,1,5.21,2,7.82,3,2.52.97,5,2.01,7.48,3.06,1.35.57,2.53,1.52,3.75,2.34l3.68,2.48c1.01.68,2.01,1.36,3.02,2.03l4.5-2.67-11.38-7.49,26.99-4.01.67-3.07-30,4.47c-1.32.2-2.78.15-4.02-.34-2.74-1.08-5.48-2.1-8.25-3.1-.03-.01-.07-.02-.1-.04,5.74-1.3,11.29-2.88,16.26-4.72l8.92-2.5c1.37-.38,2.68-.81,3.94-1.24,2.61-.64,5.46-1.27,7.49-1.53,1.31-.17,2.5-.28,3.59-.34l-.04.38c14.1,1.36,25.33,5.31,28.81,8.36.33.44,1.1,2.1,1.66,3.62l4.3-1.6c-.72-1.94-1.8-4.46-2.86-5.4-2.71-2.42-7.99-4.72-14.55-6.51.06-.12.11-.23.16-.33.57-1.14,3.25-.6,4.4-.35,1.15.25,5.84,1.43,6.21,1.06.12-.12.27-.36.42-.65,10.06,3.48,18.57,9.66,21.25,16.05l15.49,36.93-45.8,6.92c-.94-1.96-1.99-4.35-2.2-5.46-.46-2.34-2.22-10.57-2.3-10.92l-4.49.96c.02.09,1.83,8.54,2.28,10.84.27,1.38,1.16,3.51,1.97,5.29l-6.15.93-5.62-13.39c-1.48-3.54-7.58-3.75-10.13-3.67l.13,4.59c2.41-.07,5.18.39,5.8.95l5.13,12.23-44.28,6.65-2.47-6.02-4.95.9-33.52,4.91L-6.8,15.36l-4.77.72-1.37-3.26-66.4,10.13,16.69,39.79-22.83,3.45c-1-2-6.26-11.09-20.53-14.52-13.28-3.19-20.08-1.17-28.31-2.44-7.61-1.18-15.92-3.56-21.2-4.41l-2.9-6.84c7.82-1.18,41.95-6.4,41.95-6.4l-3.34-4.13s-34.73,5.29-40.45,6.16l-3.9-9.5c7.82-1.18,39.94-6.04,39.94-6.04l-1.87-4.41s-34.19,5.22-39.91,6.08l-6.21-14.68c-2.75-6.55-.72-11.02,1.46-13.62ZM-206.52,67.5c1.4-.21,2.57.16,3.07.49-.27.18-.75.39-1.44.5-1.41.21-2.59-.17-3.08-.49.27-.18.75-.4,1.45-.5ZM-276.7,57.54l16.38,39.05-46.19,6.98-16.38-39.05,46.19-6.98ZM-265.15,116.94l-5.91-14.09,12.57-1.9,5.91,14.09-12.57,1.9ZM-304.68,107.93l14.11-2.13,5.91,14.09-14.11,2.13-5.91-14.09ZM-380.64,133.44c-5.65.85-11.39-1.21-12.81-4.6-1.42-3.39,2.02-6.84,7.66-7.69,5.65-.85,11.39,1.21,12.81,4.6s-2.02,6.84-7.66,7.69ZM-239.45,236.46h0l-65,9.82c-15.67,2.37-17.67-2.41-18.86-5.26-.3-.72-.98-2.17-1.92-4.19-3.43-7.35-10.57-22.64-13.78-33.23-2.59-8.55.21-16.66,3.6-23.22,4.26-.47,8.57-1.69,9.08-3.09.09-.24.24-.68.42-1.26l40.67-.67,61.17-9.45-.69-4.54-60.86,9.41-38.89.64c.82-2.88,1.6-5.93,1.6-7.1,0-2.24-2.97-3.19-4.67-3.35-.96-.09-1.82-.51-2.5-1.1-1.1-3.5-2.88-7-4.48-10.16-.85-1.68-1.65-3.26-2.2-4.57-1.7-4.05-2.07-8.64-2.13-11.25l96.12-14.52-2.3-5.48-2.81.42-14.91-35.54,51.37-7.76c1.3,1.31,3.42,2.1,5.72,2.1.5,0,1-.04,1.51-.11,2.3-.35,4.12-1.44,5-3,.16-.29.29-.59.38-.89l36.51-5.51,4.62,11.01,13.83-2.09,14.91-2.25,9.98,23.78,3.3,2.86,1.38,3.29-5.04.76,1.92,4.57-8.11,1.23,2.24,5.34,15.13-2.29c9.93-1.5,7.83-6.51,6.94-8.64l-4.47-10.66,3-.45-2.65-6.32,6.31-.99,3.65-9.19c.1-.04.2-.07.3-.11l69.91-10.56,9.79,23.35-30.79,4.69,2.1,5,30.79-4.69,8.57,20.42-47.36,7.23-2.33-5.55-7.46,1.13,2.33,5.55-74.25,11.14-2.03-4.83-2.63.4-7.53-17.96-4.93.75-4.14-22.64-39.39,5.54,1.1,5.73-8.52,2.64-4.09,22.61,23.52-3.55,5.75,13.72,11.02-1.66,1.61,3.84-43.42,6.56-1.49-3.55-12.83,1.94,1.15,2.73-4.22.64,6.07,14.47.5-.07.51,3.36,32.89-4.97-.69-4.54-25.79,3.89-2.73-6.5,9.15-1.38-.04-.09,18.55-2.8,2.8,6.68,4.23-1.78-2.35-5.61,41.15-6.21,2.8,6.68,4.23-1.78-2.35-5.61,48.75-7.36,2.32,5.54-46.35,7,.69,4.54,24.55-3.73,9.79,22.73,7.32-1.09-1-4.48-3.47.5-7.96-18.37,18.27-2.73,1.95,4.66,9.43-1.42-6.11-14.56,23.32-3.52,24.05,57.32-22.02,3.27-4.32-10.11-11.81,1.72,4.44,10.25-98.8,14.87-3.68-3.78-1.49-3.55-16.88,2.55,1.49,3.55,7.29-1.1c2.7.52,8.74,2.08,10.27,5.72,1.28,3.04.45,5.42-.86,7.19-4.44,2.68-10.6,5.23-17.59,6.29l-25.89,3.91s-8.42,1.1-16.29,2.29l-.56.08c-8.89,1.34-11.85,5.13-12.35,10.47ZM-215.32,251.7l-.56.08c-3.86.58-7.79-.83-8.76-3.14l-5.18-11.68c-.97-2.32,1.38-4.67,5.24-5.26h0c3.86-.58,8.35.74,9.32,3.06l5.18,11.68c.97,2.32-1.38,4.67-5.24,5.26ZM-203.44,239.13l-4.7-11.2,24.47-3.7c6.44-.97,13.06-3.29,18.62-6.53,2.59-1.5,4.77-3.1,6.43-4.68,1.4,3.35,2.71,6.46,3.11,7.42.52,1.23-1.2,2.83-2.96,4.09-24.85,3.98-38.17,10.12-44.98,14.58Z"/>
  <g>
    <polygon class="cls-14" points="56.68 7.66 59.84 14.87 62.61 14.4 56.68 1.83 56.68 7.66"/>
    <polygon class="cls-20" points="57.8 6.88 57.16 5.42 57.16 3.22 57.8 4.59 57.8 6.88"/>
    <polygon class="cls-20" points="59.05 9.76 58.31 8.04 58.31 5.67 59.05 7.28 59.05 9.76"/>
    <polygon class="cls-20" points="60.52 13.02 59.66 11.09 59.65 8.51 60.51 10.4 60.52 13.02"/>
    <polygon class="cls-20" points="57.8 9.72 57.16 8.3 57.16 6.47 57.8 7.92 57.8 9.72"/>
    <polygon class="cls-20" points="59.06 12.51 58.32 10.88 58.32 9.01 59.06 10.69 59.06 12.51"/>
    <polygon class="cls-20" points="60.38 15.45 59.64 13.81 59.63 11.94 60.37 13.62 60.38 15.45"/>
    <polygon class="cls-5" points="56.68 1.83 56.64 3.47 61.71 14.56 62.42 14.46 56.68 1.83"/>
    <polygon class="cls-2" points="56.68 2.2 62.42 14.46 62.61 14.4 56.68 1.83 56.68 2.2"/>
    <polygon class="cls-2" points="56.68 4.93 62.42 17.94 62.61 17.88 56.68 4.57 56.68 4.93"/>
    <polygon class="cls-2" points="56.68 7.73 62.42 20.68 62.61 20.62 56.68 7.36 56.68 7.73"/>
  </g>
  <g>
    <g>
      <g>
        <polygon class="cls-20" points="63.49 20.14 62.9 18.31 62.89 15.47 63.48 17.22 63.49 20.14"/>
        <polygon class="cls-20" points="63.52 24.67 62.92 22.7 62.91 19.84 63.5 21.72 63.52 24.67"/>
        <polygon class="cls-20" points="65.06 25 64.38 22.87 64.36 19.81 65.04 21.83 65.06 25"/>
        <polygon class="cls-20" points="65.1 29.9 64.4 27.61 64.39 24.52 65.08 26.71 65.1 29.9"/>
        <polygon class="cls-20" points="66.94 30.8 66.13 28.3 66.11 24.97 66.91 27.35 66.94 30.8"/>
      </g>
      <g>
        <polygon class="cls-17" points="7.71 43.47 81.48 31.24 81.48 23.05 7.71 35.12 7.71 43.47"/>
        <polygon class="cls-18" points="14.67 37.14 10.96 37.75 10.96 34.7 14.67 34.09 14.67 37.14"/>
        <polygon class="cls-18" points="22.7 35.82 19.01 36.43 19.01 33.38 22.7 32.78 22.7 35.82"/>
        <polygon class="cls-18" points="30.71 34.51 27.03 35.11 27.03 32.07 30.71 31.47 30.71 34.51"/>
        <polygon class="cls-18" points="14.67 41.83 10.96 42.44 10.96 39.39 14.67 38.78 14.67 41.83"/>
        <polygon class="cls-18" points="22.7 40.5 19.01 41.11 19.01 38.06 22.7 37.46 22.7 40.5"/>
        <polygon class="cls-18" points="30.71 39.18 27.03 39.78 27.03 36.74 30.71 36.14 30.71 39.18"/>
        <polygon class="cls-18" points="36.2 33.6 34.07 33.95 34.07 30.92 36.2 30.57 36.2 33.6"/>
        <polygon class="cls-18" points="36.2 38.27 34.07 38.62 34.07 35.58 36.2 35.23 36.2 38.27"/>
        <polygon class="cls-18" points="41.99 32.65 39.87 33 39.87 29.97 41.99 29.63 41.99 32.65"/>
        <polygon class="cls-18" points="41.99 37.31 39.87 37.66 39.87 34.63 41.99 34.28 41.99 37.31"/>
        <polygon class="cls-18" points="74.9 27.25 78.49 26.66 78.49 23.66 74.9 24.25 74.9 27.25"/>
        <polygon class="cls-18" points="67.08 28.53 70.68 27.94 70.68 24.94 67.08 25.52 67.08 28.53"/>
        <polygon class="cls-18" points="59.23 29.82 62.84 29.23 62.84 26.22 59.23 26.81 59.23 29.82"/>
        <polygon class="cls-18" points="74.9 31.86 78.49 31.27 78.49 28.27 74.9 28.86 74.9 31.86"/>
        <polygon class="cls-18" points="67.08 33.16 70.68 32.56 70.68 29.56 67.08 30.15 67.08 33.16"/>
        <polygon class="cls-18" points="59.23 34.46 62.84 33.86 62.84 30.85 59.23 31.44 59.23 34.46"/>
        <polygon class="cls-18" points="53.8 30.71 55.9 30.37 55.9 27.35 53.8 27.69 53.8 30.71"/>
        <polygon class="cls-18" points="53.8 35.36 55.9 35.01 55.9 31.99 53.8 32.34 53.8 35.36"/>
      </g>
      <polygon class="cls-3" points="-2.3 10.59 8.08 10.57 13.2 23.44 16.09 24.4 7.68 35.15 -2.3 10.59"/>
      <polygon class="cls-9" points="8.08 10.57 13.2 23.44 19.4 21.19 14.3 8.1 8.09 10.57 8.08 10.57"/>
      <polygon class="cls-12" points="-2.3 10.59 14.3 8.1 8.08 10.57 -2.3 10.59"/>
      <polygon class="cls-9" points="72.24 -.5 65.96 1.82 71.69 14.09 69.91 15.76 81.57 23.05 72.24 -.5"/>
      <polygon class="cls-12" points="72.24 -.5 56.68 1.83 65.96 1.82 72.24 -.5"/>
      <polygon class="cls-12" points="19.4 21.19 13.2 23.44 16.09 24.4 69.91 15.76 71.69 14.09 62.61 14.4 19.4 21.19"/>
      <polygon class="cls-11" points="7.68 35.15 44.68 29.09 46.83 19.43 16.09 24.4 7.68 35.15"/>
      <polygon class="cls-11" points="81.57 23.05 52.89 27.75 46.83 19.43 69.91 15.76 81.57 23.05"/>
      <polygon class="cls-14" points="43.63 37.64 45.18 41.66 45.18 32.35 43.63 28.2 43.63 37.64"/>
      <polygon class="cls-3" points="46.83 19.43 51.05 28.96 45.18 37.37 43.67 33.24 46.83 19.43"/>
      <polygon class="cls-17" points="45.18 41.66 57.03 39.47 57.03 35.3 51.05 28.96 45.18 37.37 45.18 41.66"/>
      <polygon class="cls-17" points="39.54 40.99 44.56 40.07 44.56 29.28 39.54 30.11 39.54 40.99"/>
      <polygon class="cls-14" points="38.46 38.28 39.54 40.99 39.54 30.11 38.46 27.22 38.46 38.28"/>
      <g>
        <polygon class="cls-3" points="37.18 26.58 41.41 26.39 38.81 30.66 37.18 26.58"/>
        <polygon class="cls-9" points="44.04 25.27 41.41 26.39 45.67 29.39 44.04 25.27"/>
        <polygon class="cls-11" points="38.81 30.66 41.41 26.39 45.67 29.39 38.81 30.66"/>
        <polygon class="cls-12" points="37.18 26.58 41.41 26.39 44.04 25.27 37.18 26.58"/>
      </g>
      <g>
        <path class="cls-2" d="M53.83,34.85c0-1.55-1.25-2.54-2.78-2.21-1.51.33-2.73,1.82-2.73,3.34v5.09l5.51-1.02v-5.2Z"/>
        <path class="cls-21" d="M53.42,35.11c0-1.32-1.07-2.17-2.37-1.89-1.29.28-2.33,1.55-2.33,2.85v4.34l4.7-.88v-4.42Z"/>
        <path class="cls-21" d="M52.37,35.44c0-.74-.59-1.21-1.32-1.06-.73.15-1.31.87-1.31,1.6v4.26l2.63-.49v-4.3Z"/>
        <line class="cls-21" x1="51.05" y1="34.38" x2="51.05" y2="33.23"/>
        <line class="cls-21" x1="50.2" y1="34.9" x2="49.41" y2="34.25"/>
        <line class="cls-21" x1="51.91" y1="34.54" x2="52.72" y2="33.55"/>
        <line class="cls-21" x1="48.71" y1="35.99" x2="53.41" y2="35.02"/>
        <line class="cls-21" x1="48.71" y1="37.61" x2="53.41" y2="36.68"/>
        <line class="cls-21" x1="48.71" y1="39.08" x2="53.41" y2="38.17"/>
      </g>
      <polygon class="cls-2" points="50.67 32.03 51.46 31.89 51.46 30.16 50.67 30.3 50.67 32.03"/>
      <polygon class="cls-2" points="50.5 32.13 51.61 31.93 51.61 31.82 50.5 32 50.5 32.13"/>
      <polygon class="cls-2" points="45.56 37.31 51.18 29.25 51.05 28.96 45.18 37.37 45.56 37.31"/>
      <polygon class="cls-2" points="56.83 35.44 50.93 29.25 51.05 28.96 57.03 35.31 56.83 35.44"/>
      <polygon class="cls-2" points="45.18 37.97 47.64 37.52 47.64 36.94 45.18 37.35 45.18 37.97"/>
      <polygon class="cls-2" points="45.18 38.21 47.41 37.82 47.41 37.56 45.18 37.94 45.18 38.21"/>
      <polygon class="cls-4" points="45.18 38.03 47.41 37.64 47.41 37.56 45.18 37.94 45.18 38.03"/>
      <polygon class="cls-15" points="44.55 36.31 45.18 37.92 45.18 37.35 44.55 35.69 44.55 36.31"/>
      <polygon class="cls-15" points="44.55 36.58 45.18 38.21 45.18 37.94 44.55 36.31 44.55 36.58"/>
      <polygon class="cls-4" points="44.55 36.4 45.18 38.02 45.18 37.94 44.55 36.31 44.55 36.4"/>
      <g>
        <path class="cls-2" d="M43.66,36.44c0-.83-.67-1.36-1.49-1.18-.81.17-1.46.97-1.46,1.79v3.71l2.94-.55v-3.77Z"/>
        <path class="cls-10" d="M43.44,36.58c0-.71-.57-1.16-1.26-1.01-.69.15-1.24.83-1.24,1.52v3.68l2.51-.47v-3.72Z"/>
      </g>
      <g>
        <path class="cls-2" d="M43.66,32.2c0-.83-.67-1.36-1.49-1.18-.81.17-1.46.97-1.46,1.79v2.09l2.94-.55v-2.15Z"/>
        <path class="cls-21" d="M43.44,32.34c0-.71-.57-1.16-1.26-1.01-.69.15-1.24.83-1.24,1.52v1.89l2.51-.47v-1.93Z"/>
      </g>
      <line class="cls-21" x1="40.96" y1="32.77" x2="43.44" y2="32.34"/>
      <line class="cls-21" x1="40.96" y1="33.73" x2="43.44" y2="33.3"/>
      <line class="cls-21" x1="42.22" y1="34.5" x2="42.22" y2="32.55"/>
      <polygon class="cls-2" points="54.57 36.35 57.03 35.89 57.03 35.31 54.57 35.72 54.57 36.35"/>
      <polygon class="cls-2" points="54.8 36.54 57.03 36.15 57.03 35.89 54.8 36.27 54.8 36.54"/>
      <polygon class="cls-4" points="54.8 36.36 57.03 35.97 57.03 35.89 54.8 36.27 54.8 36.36"/>
      <polygon class="cls-2" points="7.62 38.71 38.46 33.7 38.46 33.34 7.62 38.34 7.62 38.71"/>
      <polygon class="cls-7" points="9.6 34.82 9.6 43.17 7.88 43.47 7.88 35.12 9.6 34.82"/>
      <polygon class="cls-17" points="9.43 34.82 9.43 43.17 7.71 43.47 7.71 35.12 9.43 34.82"/>
      <polygon class="cls-7" points="25.83 32.14 25.83 40.49 23.71 40.81 23.71 32.46 25.83 32.14"/>
      <polygon class="cls-17" points="25.66 32.14 25.66 40.49 23.93 40.78 23.93 32.44 25.66 32.14"/>
      <polygon class="cls-2" points="55.31 30.87 81.48 26.64 81.48 26.27 55.08 30.57 55.31 30.87"/>
      <polygon class="cls-7" points="81.48 23.02 81.48 31.24 79.53 31.57 79.53 23.35 81.48 23.02"/>
      <polygon class="cls-17" points="81.48 23.08 81.48 31.24 79.76 31.54 79.76 23.37 81.48 23.08"/>
      <g>
        <path class="cls-2" d="M38.73,35.78c0-.69.11-1.13.25-.98.16.17.29.97.29,1.77v3.67l-.54-1.33v-3.13Z"/>
        <path class="cls-10" d="M38.77,35.91c0-.59.09-.97.22-.83.13.15.25.83.25,1.51v3.54l-.46-1.14v-3.09Z"/>
      </g>
      <g>
        <g>
          <path class="cls-2" d="M38.73,31.79c0-.63.1-1.04.24-.89.16.16.3.96.3,1.76v2.06l-.54-1.3v-1.63Z"/>
          <path class="cls-19" d="M38.76,31.92c0-.54.09-.89.21-.75.13.15.25.84.25,1.5v1.82l-.46-1.09v-1.49Z"/>
        </g>
        <line class="cls-19" x1="39.22" y1="32.59" x2="38.76" y2="31.92"/>
        <line class="cls-19" x1="39.22" y1="33.51" x2="38.76" y2="32.66"/>
        <line class="cls-19" x1="38.96" y1="33.87" x2="38.96" y2="32.2"/>
      </g>
      <polygon class="cls-7" points="66.02 25.65 66.02 33.83 63.9 34.16 63.9 25.98 66.02 25.65"/>
      <polygon class="cls-17" points="65.85 25.65 65.85 33.83 64.13 34.13 64.13 25.95 65.85 25.65"/>
      <polygon class="cls-2" points="45.18 41.66 48.32 41.08 48.32 40.47 45.18 41.05 45.18 41.66"/>
      <polygon class="cls-2" points="53.83 40.05 57.03 39.47 57.03 38.86 53.83 39.44 53.83 40.05"/>
      <polygon class="cls-2" points="44.56 40.07 45.18 41.66 45.18 41.05 44.56 39.46 44.56 40.07"/>
      <polygon class="cls-2" points="43.66 40.21 44.56 40.07 44.56 39.46 43.66 39.6 43.66 40.21"/>
      <polygon class="cls-2" points="39.54 40.99 40.72 40.75 40.72 40.14 39.54 40.38 39.54 40.99"/>
      <polygon class="cls-2" points="39.27 40.24 39.54 40.99 39.54 40.38 39.27 39.63 39.27 40.24"/>
      <polygon class="cls-2" points="38.46 38.28 38.73 38.91 38.73 38.3 38.46 37.67 38.46 38.28"/>
      <line class="cls-18" x1="12.8" y1="34.41" x2="12.8" y2="37.46"/>
      <line class="cls-18" x1="20.88" y1="33" x2="20.88" y2="36.05"/>
      <line class="cls-18" x1="28.88" y1="31.73" x2="28.88" y2="34.78"/>
      <line class="cls-18" x1="12.8" y1="39.08" x2="12.8" y2="42.13"/>
      <line class="cls-18" x1="20.88" y1="37.66" x2="20.88" y2="40.71"/>
      <line class="cls-18" x1="28.88" y1="36.39" x2="28.88" y2="39.44"/>
      <line class="cls-18" x1="36.14" y1="32.21" x2="34.02" y2="32.55"/>
      <line class="cls-18" x1="30.72" y1="33.14" x2="26.98" y2="33.74"/>
      <line class="cls-18" x1="61.06" y1="26.45" x2="61.06" y2="29.5"/>
      <line class="cls-18" x1="62.9" y1="27.86" x2="59.16" y2="28.46"/>
      <line class="cls-18" x1="68.92" y1="25.16" x2="68.92" y2="28.21"/>
      <line class="cls-18" x1="70.76" y1="26.57" x2="67.02" y2="27.17"/>
      <line class="cls-18" x1="76.75" y1="23.86" x2="76.75" y2="26.91"/>
      <line class="cls-18" x1="78.58" y1="25.27" x2="74.85" y2="25.88"/>
      <line class="cls-18" x1="61.06" y1="31.13" x2="61.06" y2="34.18"/>
      <line class="cls-18" x1="62.9" y1="32.34" x2="59.16" y2="32.94"/>
      <line class="cls-18" x1="68.92" y1="29.84" x2="68.92" y2="32.89"/>
      <line class="cls-18" x1="70.76" y1="31.05" x2="67.02" y2="31.65"/>
      <line class="cls-18" x1="76.75" y1="28.55" x2="76.75" y2="31.6"/>
      <line class="cls-18" x1="78.5" y1="29.77" x2="74.85" y2="30.36"/>
      <line class="cls-18" x1="22.72" y1="34.38" x2="18.98" y2="34.99"/>
      <line class="cls-18" x1="14.66" y1="35.68" x2="10.93" y2="36.29"/>
      <line class="cls-18" x1="30.72" y1="37.66" x2="26.98" y2="38.26"/>
      <line class="cls-18" x1="22.72" y1="38.9" x2="18.98" y2="39.51"/>
      <line class="cls-18" x1="14.66" y1="40.2" x2="10.93" y2="40.81"/>
      <line class="cls-18" x1="36.14" y1="36.7" x2="34.02" y2="37.05"/>
      <polygon class="cls-2" points="10.77 39.52 14.87 38.86 14.87 38.49 10.77 39.15 10.77 39.52"/>
      <polygon class="cls-2" points="18.8 38.19 22.89 37.53 22.89 37.16 18.8 37.83 18.8 38.19"/>
      <polygon class="cls-2" points="26.83 36.87 30.93 36.21 30.93 35.84 26.83 36.5 26.83 36.87"/>
      <polygon class="cls-2" points="33.87 35.74 36.38 35.34 36.38 34.97 33.87 35.38 33.87 35.74"/>
      <polygon class="cls-2" points="7.71 35.49 38.55 30.49 38.55 30.12 7.71 35.12 7.71 35.49"/>
      <polygon class="cls-2" points="7.71 43.49 38.55 38.48 38.55 38.12 7.71 43.12 7.71 43.49"/>
      <polygon class="cls-2" points="56.71 35.39 81.47 31.36 81.47 30.99 56.71 35.02 56.71 35.39"/>
      <polygon class="cls-2" points="53.19 27.98 81.48 23.39 81.48 23.02 52.92 27.64 53.19 27.98"/>
      <line class="cls-18" x1="55.91" y1="28.89" x2="53.78" y2="29.24"/>
      <polygon class="cls-2" points="58.97 31.58 63.07 30.92 63.07 30.55 58.97 31.21 58.97 31.58"/>
      <polygon class="cls-2" points="66.84 30.29 70.93 29.63 70.93 29.26 66.84 29.92 66.84 30.29"/>
      <polygon class="cls-2" points="74.65 29.01 78.75 28.34 78.75 27.98 74.65 28.64 74.65 29.01"/>
      <polygon class="cls-2" points="54.32 32.32 56.1 32.04 56.1 31.67 54.32 31.95 54.32 32.32"/>
      <g>
        <polygon class="cls-14" points="-2.29 18.6 7.71 43.47 7.71 35.12 -2.29 10.6 -2.29 18.6"/>
        <polygon class="cls-20" points="1.08 21.98 .13 19.62 .12 16.68 1.07 19.02 1.08 21.98"/>
        <polygon class="cls-20" points="2.76 26.14 1.8 23.76 1.79 20.8 2.75 23.16 2.76 26.14"/>
        <polygon class="cls-20" points="1.09 26.55 .13 24.18 .13 21.21 1.08 23.57 1.09 26.55"/>
        <polygon class="cls-20" points="2.77 30.74 1.81 28.35 1.8 25.36 2.76 27.74 2.77 30.74"/>
        <polygon class="cls-20" points="4.2 29.71 3.64 28.32 3.63 25.33 4.18 26.71 4.2 29.71"/>
        <polygon class="cls-20" points="4.22 34.33 3.66 32.94 3.65 29.93 4.21 31.32 4.22 34.33"/>
        <polygon class="cls-20" points="5.54 33.01 4.97 31.62 4.96 28.62 5.52 30.01 5.54 33.01"/>
        <polygon class="cls-20" points="5.56 37.66 5 36.26 4.98 33.24 5.54 34.63 5.56 37.66"/>
        <polygon class="cls-20" points="6.91 36.41 6.34 35.01 6.32 32 6.89 33.39 6.91 36.41"/>
        <polygon class="cls-20" points="6.94 41.09 6.37 39.68 6.35 36.64 6.92 38.04 6.94 41.09"/>
      </g>
      <polygon class="cls-2" points="-2.3 10.95 7.71 35.49 7.71 35.12 -2.3 10.59 -2.3 10.95"/>
      <polygon class="cls-2" points="-2.29 18.97 7.71 43.49 7.71 43.12 -2.29 18.6 -2.29 18.97"/>
      <polygon class="cls-2" points="-2.39 13.99 7.62 38.52 7.62 38.16 -2.39 13.62 -2.39 13.99"/>
      <polygon class="cls-5" points="7.67 35.48 7.63 37.12 38.43 32.27 38.55 30.49 7.67 35.48"/>
      <polygon class="cls-5" points="52.95 28.02 52.91 29.66 81.36 25.18 81.48 23.39 52.95 28.02"/>
      <polygon class="cls-9" points="46.83 19.43 51.05 28.96 57.03 35.31 55.56 31.2 46.83 19.43"/>
      <polygon class="cls-5" points="39.56 31.03 39.54 32.86 44.56 31.93 44.59 30.1 39.56 31.03"/>
      <polygon class="cls-5" points="38.55 30.49 38.43 32.27 39.54 32.86 39.56 31.03 38.55 30.49"/>
      <polygon class="cls-2" points="38.81 31.17 37.18 27.09 37.18 26.58 38.81 30.66 38.81 31.17"/>
      <polygon class="cls-2" points="45.67 29.9 38.81 31.17 38.81 30.66 45.67 29.39 45.67 29.9"/>
      <polygon class="cls-5" points="45.56 37.31 46.11 37.2 51.07 30.08 51.1 29.42 45.56 37.31"/>
      <polygon class="cls-5" points="56.71 35.39 56.29 35.42 51.07 30.08 51.1 29.42 56.71 35.39"/>
      <polygon class="cls-5" points="-2.3 10.59 -2.34 12.22 7.63 37.12 7.71 35.12 -2.3 10.59"/>
    </g>
    <polygon class="cls-3" points="65.96 1.82 71.69 14.09 62.61 14.4 56.68 1.83 65.95 1.82 65.96 1.82"/>
  </g>
  <g>
    <polygon class="cls-14" points="82.43 -7.83 86.25 1.36 86.25 -6.99 82.43 -15.83 82.43 -7.83"/>
    <polygon class="cls-2" points="82.43 -7.83 86.25 1.38 86.25 1.01 82.43 -8.19 82.43 -7.83"/>
  </g>
  <polygon class="cls-17" points="5.22 8.04 -2.02 9.16 -2.92 7.27 -13.18 9.09 -13.34 10.91 -80.05 21.21 -79.76 16.27 -12.94 5.88 -13.95 3.54 -10.31 2.97 -1.56 -2.87 -1.02 -1.09 6.2 -2.22 5.22 8.04"/>
  <polygon class="cls-5" points="-.98 -1.15 -1.13 .7 6.01 -.3 6.2 -2.22 -.98 -1.15"/>
  <g>
    <polygon class="cls-3" points=".05 31.52 -1.98 26.66 -11.64 28.09 -9.6 32.95 .05 31.52"/>
    <polygon class="cls-1" points="-.32 35.51 -3.75 36.01 -3.35 32.02 .05 31.52 -.32 35.51"/>
    <polygon class="cls-1" points="-.4 43.17 -15.94 45.41 -15.39 37.37 .36 34.9 -.4 43.17"/>
    <polygon class="cls-5" points="-15.39 37.37 -15.54 39.79 .14 37.48 .36 34.9 -15.39 37.37"/>
    <polygon class="cls-13" points=".36 34.9 -.4 43.17 -.88 43.25 -.1 34.97 .36 34.9"/>
    <path class="cls-11" d="M-15.39,37.37s5.4-8.55,6.01-8.34S.36,34.9.36,34.9l-15.75,2.47Z"/>
    <polygon class="cls-9" points="-4.54 23.4 .36 34.9 -9.38 29.02 -10.4 26.62 -4.54 23.4"/>
  </g>
  <path class="cls-16" d="M39.96.85c-.04-.37-.13-.74-.28-1.11-1.34-3.19-6.76-5.14-12.08-4.33-5.32.8-8.56,4.06-7.22,7.25,1.34,3.19,6.76,5.14,12.08,4.33,3.05-.46,5.41-1.73,6.63-3.32,0,0,.59-.76.77-1.47.21-.8.11-1.35.11-1.35Z"/>
</svg>