<?xml version="1.0" encoding="UTF-8"?>
<svg id="map" xmlns="http://www.w3.org/2000/svg" viewBox="0 0 103.84 69.41">
  <defs>
    <style>
      .cls-1 {
        fill: #e9e0b3;
      }

      .cls-1, .cls-2, .cls-3, .cls-4, .cls-5, .cls-6, .cls-7, .cls-8, .cls-9, .cls-10, .cls-11 {
        stroke-width: 0px;
      }

      .cls-2 {
        fill: #605e5f;
      }

      .cls-3 {
        opacity: .2;
      }

      .cls-3, .cls-7 {
        fill: #000;
      }

      .cls-4 {
        fill: #8cb835;
      }

      .cls-5 {
        fill: #999;
      }

      .cls-6 {
        fill: #515051;
      }

      .cls-8 {
        fill: #6a6869;
      }

      .cls-9 {
        fill: #4b4b4b;
      }

      .cls-10 {
        fill: #f2f2f2;
      }

      .cls-11 {
        fill: #f4ebc5;
      }
    </style>
  </defs>
  <path class="cls-4" d="M699.75,515.27c28.49-59.5-54.18-238.94-89.6-311.4-35.42-72.46-99.31-161.2-174.79-189.26-90.3-33.58-194.59-32.77-237.48-30.9-42.89,1.87-93.1,4.07-93.1,4.07L-129.03,6.87l-24.03,1.96s-56.16,2.4-75.69,30.97c-6.71,9.81-16.38,20.43-28.27,29.83-13.78,10.88-39.39,18.35-39.39,18.35l-29.13-9.37s-11.94-4.07-10.96-.9,18.31,12.58,18.44,15.56c.13,2.98-12.37,14.29-34.96,12.03-9.15-.92-21.33-3.28-33.48-4.18-23.56-1.75-47.15,5.09-59.36,13.57-10.35,7.18-32.9,9.16-32.9,9.16-6.44,38.33,5.76,106.07,11.91,142.45,5.14,30.4,21.38,65.17,46.03,86.84,28.13,24.72,57.57,26.63,91.86,23.23,7.15-.71,23.43-2.2,43.21-.85,13.92.95,48.06,18.99,102.01,9.5,59.09-10.4,97.23-53.48,116.74-56.98,113.83-20.43,169.77-26.66,210.8-11.19,35.96,13.56,71.64,69.79,94.2,112.05,14.69,27.52,19.82,34.68,41.29,57.21,40.42,42.4,156.79,80.32,230.79,87.01,74,6.69,162.07-.18,189.67-57.81Z"/>
  <path class="cls-5" d="M-179.28,409.67c5.6-11.89,6.52-30.33,2.48-49.33-2.11-9.88-.14-16.91,1.63-20.1,7.19-1.63,11.59-6.06,10.58-10.63,2.44-2.48,13.32-11.48,46.58-16.5l265.8-40.14c6.05,4.33,29.04,21.17,44.85,37.69,19.37,20.24,38.15,41.14,55.06,74.15l9-1.66c-17.2-33.56-36.25-54.77-55.9-75.3-14.43-15.08-34.13-30.01-42.89-36.41l99.41-15.01c5.75,3.16,24.7,13.99,30.86,22.56l.58.81c7.37,10.26,17.46,24.32,43.68,34.48,12.09,4.68,24.87,9.9,36.5,17.67,12.27,8.19,22.19,18.61,30.35,31.85,12.37,20.09,25.52,47.31,36.08,69.18,4.86,10.07,9.06,18.76,12.38,25.1,10.49,20.02,16.93,31.68,27.5,38.62,2.61,1.71,5.08,3.01,7.26,4.16,6.37,3.35,11.41,6,16.08,17.14l23.49,56.02,5.06.33-24.09-57.03c-5.02-11.97-10.81-15.02-17.51-18.54-2.19-1.15-4.46-2.34-6.9-3.95-9.91-6.51-16.22-17.94-26.51-37.59-3.31-6.32-7.5-14.99-12.35-25.04-10.58-21.91-23.75-49.19-36.18-69.37-18.17-29.5-41.85-40.5-68.66-50.89-25.05-9.7-34.42-22.76-41.96-33.25l-.59-.82c-5.92-8.24-22.17-17.99-29.76-22.27l29.6-4.47c2.38-.28,4.74-.58,7.03-.93,21.71-3.28,21.85-10.44,20.53-13.59-.19-.44-.56-1.36-1.08-2.62l10.58-1.35,4.96,12.21,7.69-.85-5.02-12.33,55.17-7.91-4.29-10.22-4.23,1.78,2.01,4.78-50.49,7.2-2.54-5.68-7.18,2.04,2.09,4.61-10.53,1.34c-3.88-9.49-10.49-25.68-13.44-32.72-4.06-9.67-22.65-10.64-28.9-9.7-6.25.94-24.67,3.73-34.21,5.17-4.56.69-7.68-1.29-9.86-3.94l-17.77-42.36c-1.83-10.9.05-28.92,18.8-33.07l8.13-1.23c21.55-3.25,53.86-.4,78.58,6.95,3.66,1.09,9.72,2.86,17.39,5.09,43.04,12.56,143.82,41.96,167.23,52.57,23.33,10.57,48.92,33.04,60.36,44.66,5.15,5.23,11.52,12.58,15.05,23.05,3.87,11.49,3.66,24.41-.66,39.51l9.28.95c9.93-34.75-3.1-53.73-15.57-66.39-3.25-3.3-32.62-32.62-62.79-46.29-24.15-10.94-121.84-39.45-168.79-53.14-7.65-2.23-13.7-4-17.33-5.08-26.97-8.02-61.15-10.98-85.05-7.37l-38.86,5.87-15.49-36.93c-4.51-10.75-21.41-20.64-39.32-23.01-18.29-2.42-34.79-.83-47.7,2.79l-7.15,1.71c-4.76,1.33-13.58,3.75-22.82,6.03l-2.99-7.12c6.41-2.14,9.91-6.68,8.03-11.15l-.39-.92,9.85-1.49-1.46-3.49-9.85,1.49-2.26-5.33,9.85-1.49-1.46-3.49-10.29,1.55c-.96-.83-2.72-2.02-4.83-2.92l-3.2-7.63-5.81.88,2.11,5.03c-2.2-.22-4.51-.18-6.81.16l-.56.08c-7.61,1.15-12.67,5.3-12.57,9.81l-10.18,1.54,1.46,3.49,9.74-1.47,1.99,4.74-9.96,1.5,1.46,3.49,9.96-1.5.39.92c1.78,4.25,7.9,7.18,14.81,7.51l3.39,8.08c-8.25,1.85-15.8,3.25-19.94,3.28-13.81.11-24.45-2.62-38.47-7.39-3.02-1.03-5.78-2.24-8.71-3.52-9.38-4.11-20-8.76-38.76-5.93l-79.93,12.07c-7.79,1.18-14.51,4.52-18.42,9.18-3.18,3.79-4.42,8.21-3.67,12.98l-2.37.36c-3.12.47-5.02,2.38-4.24,4.25l19.56,46.61c.78,1.87,3.97,3.01,7.09,2.54l1.78-.27,1.46,3.48-36.09,5.45c-1.61-1.43-4.26-2.16-6.97-1.75-2.3.35-4.12,1.44-5,3-.11.19-.2.39-.27.59l-52.16,7.88-9.22-21.97-55.55,8.39,25.96,61.87-41.3,6.24c-3.89.59-12.97-.99-18.54-2.36-.07-.74-.26-1.48-.57-2.23-2.69-6.41-13.56-10.31-24.24-8.69-10.68,1.61-17.18,8.14-14.49,14.54,2.69,6.41,13.56,10.31,24.24,8.69,6.12-.92,10.86-3.46,13.29-6.66,3.8.87,10.63,2.24,16.75,2.45.12,2.96.62,7.58,2.4,11.83.61,1.44,1.44,3.09,2.33,4.84,2.97,5.84,7.03,13.85,4.16,18.7-.33.56-.69,1.16-1.07,1.78-2.84,4.71-6.56,10.87-8.18,17.93-3.61.11-10.13.72-19.77,3.18-5.57,1.42-13.81,3.16-22.52,5.01-15.07,3.19-32.15,6.81-42.13,10.13-3.92,1.3-7.58,2.55-11.13,3.77-10.4,3.56-19.39,6.64-27.58,8.34-10.89,2.26-18.03,3.18-18.21,3.2l2.2,4.58c.18-.02,5.89-.99,16.94-3.29,8.47-1.76,17.58-4.88,28.13-8.49,3.54-1.21,7.19-2.46,11.09-3.76,9.74-3.23,26.68-6.82,41.63-9.99,8.76-1.86,17.04-3.61,22.71-5.05,8.55-2.18,14.48-2.83,17.92-3-.25,3.27.02,6.69,1.09,10.22,3.29,10.84,10.51,26.31,13.98,33.74.89,1.9,1.59,3.4,1.86,4.04.63,1.49,2.09,4.99,6.91,7.45,5.45,2.78,13.31,3.42,23.38,1.9l65-9.82,3.39,8.09c1.59,3.8,6.64,6.54,12.63,7.32-1.56,3.92-3.06,10.68-1,20.31,3.89,18.28,3.07,35.87-2.2,47.07l9.06,1.54ZM47.4,48.05l-4.36-10.4c-.97-2.32,1.38-4.67,5.24-5.26l.56-.08c3.86-.58,7.79.83,8.76,3.14l4.36,10.4c.97,2.32-1.38,4.67-5.24,5.26l-.56.08c-3.86.58-7.79-.83-8.76-3.14ZM89.08,192.68l-22.32,25.63-11.92,1.8-40.07-16.21,74.3-11.22ZM6.35,205.17l10.69,25.49,4.23-1.78-8.8-20.97,41.81,16.91,14.83-2.24,23.94-27.5,9.5,22.65,4.23-1.78-10.25-24.42,22.95-3.47,24.05,57.32-58.93,8.9-6.62-15.78-16.79,2.54,6.62,15.78-57.52,8.69-24.05-57.32,20.1-3.04ZM154.32,261.83c-.82-1.97-4.39-10.47-6.14-14.64l.93-.39-24.93-59.42,89.69-13.55,32.88,78.37-85.77,12.95c-2.79-.73-6.05-1.87-6.66-3.32ZM35.95,194.39l-20.46-48.76,175.43-26.49,20.46,48.76-175.43,26.49ZM-13.98,144.25c-1.66-3.96-11.54-27.51-12.22-29.13-.75-1.78-.42-4.76,5.83-5.71,6.25-.94,30.1-4.55,30.1-4.55l2.9,6.91,9.7-1.47s.24-1.09,1.64-1.93c1.4-.84,4.28-.65,4.28-.65l2.98,7.1s1.56.39,2.39,2.37c.83,1.97,2.53,6.02,2.53,6.02l-1.64.25,1.12,2.66,1.97-.3,1.78,4.24-22.37,3.38,2.41,5.75-33.39,5.04ZM-134.71,74.88c2.58-3.07,6.62-5.22,11.54-5.96l31.41-4.62,9.04,21.55,4.23-1.78-8.59-20.48,40.16-6.19c14.12-2.13,21.24.99,30.26,4.94,3.03,1.33,6.17,2.7,9.69,3.9,15.33,5.21,32.25,10.42,47.55,10.89,8.84.28,21.6-.73,34.32-3.02l-.03.07c1.37.53,2.75,1.05,4.12,1.58,2.61,1,5.21,2,7.82,3,2.52.97,5,2.01,7.48,3.06,1.35.57,2.53,1.52,3.75,2.34l3.68,2.48c1.01.68,2.01,1.36,3.02,2.03l4.5-2.67-11.38-7.49,26.99-4.01.67-3.07-30,4.47c-1.32.2-2.78.15-4.02-.34-2.74-1.08-5.48-2.1-8.25-3.1-.03-.01-.07-.02-.1-.04,5.74-1.3,11.29-2.88,16.26-4.72l8.92-2.5c1.37-.38,2.68-.81,3.94-1.24,2.61-.64,5.46-1.27,7.49-1.53,1.31-.17,2.5-.28,3.59-.34l-.04.38c14.1,1.36,25.33,5.31,28.81,8.36.33.44,1.1,2.1,1.66,3.62l4.3-1.6c-.72-1.94-1.8-4.46-2.86-5.4-2.71-2.42-7.99-4.72-14.55-6.51.06-.12.11-.23.16-.33.57-1.14,3.25-.6,4.4-.35,1.15.25,5.84,1.43,6.21,1.06.12-.12.27-.36.42-.65,10.06,3.48,18.57,9.66,21.25,16.05l15.49,36.93-45.8,6.92c-.94-1.96-1.99-4.35-2.2-5.46-.46-2.34-2.22-10.57-2.3-10.92l-4.49.96c.02.09,1.83,8.54,2.28,10.84.27,1.38,1.16,3.51,1.97,5.29l-6.15.93-5.62-13.39c-1.48-3.54-7.58-3.75-10.13-3.67l.13,4.59c2.41-.07,5.18.39,5.8.95l5.13,12.23-44.28,6.65-2.47-6.02-4.95.9-33.52,4.91-12.83-30.59-4.77.72-1.37-3.26-66.4,10.13,16.69,39.79-22.83,3.45c-1-2-6.26-11.09-20.53-14.52-13.28-3.19-20.08-1.17-28.31-2.44-7.61-1.18-15.92-3.56-21.2-4.41l-2.9-6.84c7.82-1.18,41.95-6.4,41.95-6.4l-3.34-4.13s-34.73,5.29-40.45,6.16l-3.9-9.5c7.82-1.18,39.94-6.04,39.94-6.04l-1.87-4.41s-34.19,5.22-39.91,6.08l-6.21-14.68c-2.75-6.55-.72-11.02,1.46-13.62ZM-170.52,150.92c1.4-.21,2.57.16,3.07.49-.27.18-.75.39-1.44.5-1.41.21-2.59-.17-3.08-.49.27-.18.75-.4,1.45-.5ZM-240.7,140.95l16.38,39.05-46.19,6.98-16.38-39.05,46.19-6.98ZM-229.15,200.36l-5.91-14.09,12.57-1.9,5.91,14.09-12.57,1.9ZM-268.68,191.34l14.11-2.13,5.91,14.09-14.11,2.13-5.91-14.09ZM-344.64,216.86c-5.65.85-11.39-1.21-12.81-4.6-1.42-3.39,2.02-6.84,7.66-7.69,5.65-.85,11.39,1.21,12.81,4.6s-2.02,6.84-7.66,7.69ZM-203.45,319.87h0l-65,9.82c-15.67,2.37-17.67-2.41-18.86-5.26-.3-.72-.98-2.17-1.92-4.19-3.43-7.35-10.57-22.64-13.78-33.23-2.59-8.55.21-16.66,3.6-23.22,4.26-.47,8.57-1.69,9.08-3.09.09-.24.24-.68.42-1.26l40.67-.67,61.17-9.45-.69-4.54-60.86,9.41-38.89.64c.82-2.88,1.6-5.93,1.6-7.1,0-2.24-2.97-3.19-4.67-3.35-.96-.09-1.82-.51-2.5-1.1-1.1-3.5-2.88-7-4.48-10.16-.85-1.68-1.65-3.26-2.2-4.57-1.7-4.05-2.07-8.64-2.13-11.25l96.12-14.52-2.3-5.48-2.81.42-14.91-35.54,51.37-7.76c1.3,1.31,3.42,2.1,5.72,2.1.5,0,1-.04,1.51-.11,2.3-.35,4.12-1.44,5-3,.16-.29.29-.59.38-.89l36.51-5.51,4.62,11.01,13.83-2.09,14.91-2.25,9.98,23.78,3.3,2.86,1.38,3.29-5.04.76,1.92,4.57-8.11,1.23,2.24,5.34,15.13-2.29c9.93-1.5,7.83-6.51,6.94-8.64l-4.47-10.66,3-.45-2.65-6.32,6.31-.99,3.65-9.19c.1-.04.2-.07.3-.11l69.91-10.56,9.79,23.35-30.79,4.69,2.1,5,30.79-4.69,8.57,20.42-47.36,7.23-2.33-5.55-7.46,1.13,2.33,5.55-74.25,11.14-2.03-4.83-2.63.4-7.53-17.96-4.93.75-4.14-22.64-39.39,5.54,1.1,5.73-8.52,2.64-4.09,22.61,23.52-3.55,5.75,13.72,11.02-1.66,1.61,3.84-43.42,6.56-1.49-3.55-12.83,1.94,1.15,2.73-4.22.64,6.07,14.47.5-.07.51,3.36,32.89-4.97-.69-4.54-25.79,3.89-2.73-6.5,9.15-1.38-.04-.09,18.55-2.8,2.8,6.68,4.23-1.78-2.35-5.61,41.15-6.21,2.8,6.68,4.23-1.78-2.35-5.61,48.75-7.36,2.32,5.54-46.35,7,.69,4.54,24.55-3.73,9.79,22.73,7.32-1.09-1-4.48-3.47.5-7.96-18.37,18.27-2.73,1.95,4.66,9.43-1.42-6.11-14.56,23.32-3.52,24.05,57.32-22.02,3.27-4.32-10.11-11.81,1.72,4.44,10.25-98.8,14.87-3.68-3.78-1.49-3.55-16.88,2.55,1.49,3.55,7.29-1.1c2.7.52,8.74,2.08,10.27,5.72,1.28,3.04.45,5.42-.86,7.19-4.44,2.68-10.6,5.23-17.59,6.29l-25.89,3.91s-8.42,1.1-16.29,2.29l-.56.08c-8.89,1.34-11.85,5.13-12.35,10.47ZM-179.32,335.11l-.56.08c-3.86.58-7.79-.83-8.76-3.14l-5.18-11.68c-.97-2.32,1.38-4.67,5.24-5.26h0c3.86-.58,8.35.74,9.32,3.06l5.18,11.68c.97,2.32-1.38,4.67-5.24,5.26ZM-167.44,322.55l-4.7-11.2,24.47-3.7c6.44-.97,13.06-3.29,18.62-6.53,2.59-1.5,4.77-3.1,6.43-4.68,1.4,3.35,2.71,6.46,3.11,7.42.52,1.23-1.2,2.83-2.96,4.09-24.85,3.98-38.17,10.12-44.98,14.58Z"/>
  <polygon class="cls-2" points="58.14 16.75 53.22 5.14 40.2 7.05 45.13 18.66 58.14 16.75"/>
  <polygon class="cls-1" points="57.77 20.74 50.98 21.72 51.38 17.73 58.14 16.75 57.77 20.74"/>
  <polygon class="cls-1" points="26.37 37.6 10.84 39.84 11.39 31.79 27.14 29.32 26.37 37.6"/>
  <polygon class="cls-11" points="10.84 39.84 5.93 28.34 6.48 20.3 11.39 31.79 10.84 39.84"/>
  <polygon class="cls-7" points="17.14 33.76 15.33 34.02 15.5 31.49 17.32 31.23 17.14 33.76"/>
  <polygon class="cls-7" points="23.46 32.79 21.64 33.05 21.82 30.52 23.64 30.25 23.46 32.79"/>
  <polygon class="cls-10" points="26.59 33.42 11.14 35.67 11.17 35.34 26.62 33.08 26.59 33.42"/>
  <polygon class="cls-7" points="10.18 37.33 9.49 35.7 9.67 33.17 10.35 34.8 10.18 37.33"/>
  <polygon class="cls-7" points="7.77 31.51 7.08 29.87 7.26 27.34 7.95 28.97 7.77 31.51"/>
  <polygon class="cls-7" points="10.45 33.18 9.77 31.54 9.94 29.01 10.63 30.64 10.45 33.18"/>
  <polygon class="cls-7" points="7.94 27.35 7.25 25.72 7.43 23.19 8.12 24.82 7.94 27.35"/>
  <polygon class="cls-10" points="11.85 31.72 11.32 39.76 10.84 39.84 11.39 31.79 11.85 31.72"/>
  <polygon class="cls-10" points="11.39 31.79 10.85 39.83 10.57 39.18 11.12 31.14 11.39 31.79"/>
  <polygon class="cls-10" points="6.75 20.95 6.21 28.99 5.93 28.34 6.48 20.3 6.75 20.95"/>
  <polygon class="cls-10" points="27.14 29.32 26.37 37.6 25.89 37.68 26.67 29.4 27.14 29.32"/>
  <polygon class="cls-9" points="27.21 37.38 25.64 33.61 12.62 35.52 14.2 39.29 27.21 37.38"/>
  <polygon class="cls-1" points="26.78 41.77 13.94 43.74 14.2 39.29 27.21 37.38 26.78 41.77"/>
  <polygon class="cls-11" points="13.94 43.74 12.37 39.72 12.62 35.52 14.2 39.29 13.94 43.74"/>
  <polygon class="cls-1" points="51.44 22.13 35.91 24.37 36.45 16.33 52.21 13.86 51.44 22.13"/>
  <polygon class="cls-11" points="35.91 24.37 31 12.88 31.55 4.83 36.45 16.33 35.91 24.37"/>
  <polygon class="cls-7" points="40.2 18.61 38.39 18.87 38.56 16.34 40.38 16.08 40.2 18.61"/>
  <polygon class="cls-7" points="39.89 22.96 38.08 23.22 38.25 20.69 40.07 20.43 39.89 22.96"/>
  <polygon class="cls-7" points="45.11 23.03 43.29 23.29 43.47 20.76 45.29 20.49 45.11 23.03"/>
  <polygon class="cls-7" points="49.53 21.63 47.71 21.89 47.89 19.36 49.71 19.1 49.53 21.63"/>
  <polygon class="cls-7" points="49.94 17.1 48.12 17.36 48.3 14.83 50.12 14.56 49.94 17.1"/>
  <polygon class="cls-7" points="45.19 17.83 43.38 18.09 43.55 15.56 45.37 15.3 45.19 17.83"/>
  <polygon class="cls-10" points="51.66 17.96 36.21 20.21 36.23 19.87 51.69 17.62 51.66 17.96"/>
  <polygon class="cls-7" points="35.24 21.87 34.56 20.24 34.73 17.71 35.42 19.34 35.24 21.87"/>
  <polygon class="cls-7" points="32.84 16.04 32.15 14.41 32.33 11.88 33.01 13.51 32.84 16.04"/>
  <polygon class="cls-7" points="35.52 17.71 34.83 16.08 35.01 13.55 35.7 15.18 35.52 17.71"/>
  <polygon class="cls-7" points="34.01 18.88 33.33 17.25 33.5 14.72 34.19 16.35 34.01 18.88"/>
  <polygon class="cls-7" points="34.29 14.72 33.61 13.09 33.78 10.56 34.47 12.19 34.29 14.72"/>
  <polygon class="cls-7" points="33 11.89 32.32 10.26 32.5 7.73 33.18 9.36 33 11.89"/>
  <polygon class="cls-10" points="36.92 16.25 36.38 24.29 35.91 24.37 36.45 16.33 36.92 16.25"/>
  <polygon class="cls-10" points="36.45 16.33 35.92 24.37 35.64 23.72 36.19 15.67 36.45 16.33"/>
  <polygon class="cls-10" points="31.82 5.49 31.28 13.53 31 12.88 31.55 4.83 31.82 5.49"/>
  <polygon class="cls-10" points="57.04 20.74 51.23 21.63 51.57 18.16 57.36 17.33 57.04 20.74"/>
  <g>
    <polygon class="cls-1" points="36.71 61.68 21.18 63.92 21.73 55.87 37.48 53.41 36.71 61.68"/>
    <polygon class="cls-11" points="21.18 63.92 16.28 52.42 16.82 44.38 21.73 55.87 21.18 63.92"/>
    <polygon class="cls-7" points="27.19 62.08 25.37 62.34 25.55 59.81 27.37 59.55 27.19 62.08"/>
    <polygon class="cls-7" points="33.51 61.11 31.69 61.37 31.87 58.84 33.69 58.57 33.51 61.11"/>
    <polygon class="cls-7" points="27.49 57.84 25.67 58.1 25.85 55.57 27.67 55.31 27.49 57.84"/>
    <polygon class="cls-7" points="33.8 56.87 31.99 57.13 32.16 54.6 33.98 54.33 33.8 56.87"/>
    <polygon class="cls-10" points="36.94 57.5 21.49 59.75 21.51 59.42 36.97 57.16 36.94 57.5"/>
    <polygon class="cls-7" points="20.52 61.42 19.84 59.78 20.01 57.25 20.7 58.88 20.52 61.42"/>
    <polygon class="cls-7" points="18.11 55.59 17.43 53.96 17.6 51.43 18.29 53.06 18.11 55.59"/>
    <polygon class="cls-7" points="20.8 57.26 20.11 55.62 20.29 53.09 20.98 54.72 20.8 57.26"/>
    <polygon class="cls-7" points="18.28 51.43 17.6 49.8 17.77 47.27 18.46 48.9 18.28 51.43"/>
    <polygon class="cls-10" points="22.2 55.8 21.66 63.84 21.18 63.92 21.73 55.87 22.2 55.8"/>
    <polygon class="cls-10" points="21.73 55.87 21.19 63.91 20.91 63.26 21.46 55.22 21.73 55.87"/>
    <polygon class="cls-10" points="17.09 45.03 16.56 53.07 16.28 52.42 16.82 44.38 17.09 45.03"/>
    <polygon class="cls-10" points="37.48 53.41 36.71 61.68 36.24 61.76 37.02 53.48 37.48 53.41"/>
    <polygon class="cls-3" points="21.73 55.87 21.58 58.3 37.25 55.99 37.48 53.41 21.73 55.87"/>
    <polygon class="cls-3" points="16.82 44.38 16.67 46.71 21.58 58.3 21.73 55.87 16.82 44.38"/>
    <path class="cls-9" d="M16.82,44.38s9.52,1.11,9.89.75l5.86-3.22-15.75,2.47Z"/>
    <path class="cls-8" d="M21.73,55.87s5.4-8.55,6.01-8.34c.61.2,9.74,5.88,9.74,5.88l-15.75,2.47Z"/>
    <polygon class="cls-2" points="16.82 44.38 21.73 55.87 27.74 47.53 26.72 45.13 16.82 44.38"/>
    <polygon class="cls-6" points="32.58 41.91 37.48 53.4 27.74 47.53 26.72 45.13 32.58 41.91"/>
    <polygon class="cls-3" points="17.8 51.22 17.28 54.87 19.19 59.22 19.35 54.74 17.8 51.22"/>
    <path class="cls-9" d="M15.39,50.87s2.43.73,2.56.6l-.39-.91-2.17.31Z"/>
    <path class="cls-8" d="M17.17,55.05s.91-2.84,1.13-2.76l1.04,2.46-2.17.31Z"/>
    <polygon class="cls-2" points="15.39 50.87 17.17 55.05 18.31 52.28 17.95 51.47 15.39 50.87"/>
  </g>
  <polygon class="cls-3" points="11.39 31.79 11.23 34.22 26.91 31.9 27.14 29.32 11.39 31.79"/>
  <polygon class="cls-3" points="6.48 20.3 6.33 22.63 11.23 34.22 11.39 31.79 6.48 20.3"/>
  <path class="cls-9" d="M6.48,20.3s9.52,1.11,9.89.75l5.86-3.22-15.75,2.47Z"/>
  <path class="cls-8" d="M11.39,31.79s5.4-8.55,6.01-8.34c.61.2,9.74,5.88,9.74,5.88l-15.75,2.47Z"/>
  <polygon class="cls-2" points="6.48 20.3 11.39 31.79 17.4 23.45 16.37 21.04 6.48 20.3"/>
  <polygon class="cls-6" points="22.23 17.83 27.14 29.32 17.4 23.45 16.37 21.04 22.23 17.83"/>
  <polygon class="cls-3" points="9.04 30.9 8.52 34.55 10.43 38.9 10.58 34.42 9.04 30.9"/>
  <path class="cls-9" d="M6.63,30.54s2.43.73,2.56.6l-.39-.91-2.17.31Z"/>
  <path class="cls-8" d="M8.41,34.72s.91-2.84,1.13-2.76l1.04,2.46-2.17.31Z"/>
  <polygon class="cls-2" points="6.63 30.54 8.41 34.72 9.54 31.96 9.19 31.15 6.63 30.54"/>
  <polygon class="cls-3" points="36.45 16.33 36.3 18.76 51.98 16.44 52.21 13.86 36.45 16.33"/>
  <polygon class="cls-3" points="31.55 4.83 31.39 7.17 36.3 18.76 36.45 16.33 31.55 4.83"/>
  <polygon class="cls-3" points="51.86 17.67 51.49 21.6 53.09 21.36 53.47 17.43 51.86 17.67"/>
  <polygon class="cls-3" points="52 14.19 51.57 16.9 51.86 17.67 53.47 17.43 52 14.19"/>
  <polygon class="cls-10" points="52.21 13.86 51.44 22.13 50.96 22.21 51.74 13.94 52.21 13.86"/>
  <path class="cls-9" d="M31.55,4.83s9.52,1.11,9.89.75l5.86-3.22-15.75,2.47Z"/>
  <path class="cls-8" d="M36.45,16.33s5.4-8.55,6.01-8.34c.61.2,9.74,5.88,9.74,5.88l-15.75,2.47Z"/>
  <polygon class="cls-2" points="31.55 4.83 36.45 16.33 42.46 7.98 41.44 5.58 31.55 4.83"/>
  <polygon class="cls-6" points="47.3 2.36 52.2 13.86 42.46 7.98 41.44 5.58 47.3 2.36"/>
  <polygon class="cls-3" points="41.36 19.52 41.11 23.6 46.29 22.88 46.6 18.74 41.36 19.52"/>
  <polygon class="cls-9" points="47.33 20.49 46.6 18.74 41.36 19.52 42.09 21.26 47.33 20.49"/>
  <g>
    <polygon class="cls-1" points="87.73 27.98 72.2 30.22 72.74 22.17 88.5 19.7 87.73 27.98"/>
    <polygon class="cls-11" points="72.2 30.22 67.29 18.72 67.84 10.68 72.74 22.17 72.2 30.22"/>
    <polygon class="cls-7" points="78.5 24.14 76.69 24.4 76.86 21.87 78.68 21.61 78.5 24.14"/>
    <polygon class="cls-7" points="84.82 23.17 83 23.43 83.18 20.9 85 20.63 84.82 23.17"/>
    <polygon class="cls-10" points="87.95 23.8 72.5 26.05 72.53 25.72 87.98 23.46 87.95 23.8"/>
    <polygon class="cls-7" points="71.53 27.71 70.85 26.08 71.03 23.55 71.71 25.18 71.53 27.71"/>
    <polygon class="cls-7" points="69.13 21.89 68.44 20.25 68.62 17.72 69.31 19.35 69.13 21.89"/>
    <polygon class="cls-7" points="71.81 23.56 71.13 21.92 71.3 19.39 71.99 21.02 71.81 23.56"/>
    <polygon class="cls-7" points="69.3 17.73 68.61 16.1 68.79 13.57 69.47 15.2 69.3 17.73"/>
    <polygon class="cls-10" points="73.21 22.1 72.67 30.14 72.2 30.22 72.74 22.17 73.21 22.1"/>
    <polygon class="cls-10" points="72.74 22.17 72.21 30.21 71.93 29.56 72.48 21.52 72.74 22.17"/>
    <polygon class="cls-10" points="68.11 11.33 67.57 19.37 67.29 18.72 67.84 10.68 68.11 11.33"/>
    <polygon class="cls-10" points="88.5 19.7 87.73 27.98 87.25 28.06 88.03 19.78 88.5 19.7"/>
    <polygon class="cls-9" points="88.57 27.76 87 23.99 73.98 25.9 75.56 29.67 88.57 27.76"/>
    <polygon class="cls-1" points="88.14 32.15 75.3 34.12 75.56 29.67 88.57 27.76 88.14 32.15"/>
    <polygon class="cls-11" points="75.3 34.12 73.73 30.1 73.98 25.9 75.56 29.67 75.3 34.12"/>
    <polygon class="cls-3" points="72.74 22.17 72.59 24.6 88.27 22.28 88.5 19.7 72.74 22.17"/>
    <polygon class="cls-3" points="67.84 10.68 67.69 13.01 72.59 24.6 72.74 22.17 67.84 10.68"/>
    <path class="cls-9" d="M67.84,10.68s9.52,1.11,9.89.75l5.86-3.22-15.75,2.47Z"/>
    <path class="cls-8" d="M72.74,22.17s5.4-8.55,6.01-8.34c.61.2,9.74,5.88,9.74,5.88l-15.75,2.47Z"/>
    <polygon class="cls-2" points="67.84 10.68 72.74 22.17 78.76 13.83 77.73 11.42 67.84 10.68"/>
    <polygon class="cls-6" points="83.59 8.21 88.5 19.7 78.76 13.83 77.73 11.42 83.59 8.21"/>
    <polygon class="cls-7" points="69.92 24.88 69.24 23.25 69.41 20.72 70.1 22.35 69.92 24.88"/>
    <polygon class="cls-3" points="69.58 19.38 68.8 22.22 70.59 26.39 70.83 22.25 69.58 19.38"/>
    <polygon class="cls-9" points="68.82 22.6 70.83 22.25 69.54 19.21 67.53 19.57 68.82 22.6"/>
    <polygon class="cls-10" points="75.02 33.38 73.84 30.38 74.09 26.88 75.27 29.69 75.02 33.38"/>
  </g>
  <g>
    <polygon class="cls-1" points="97.64 51.82 82.11 54.06 82.66 46.02 98.41 43.55 97.64 51.82"/>
    <polygon class="cls-11" points="82.11 54.06 77.2 42.57 77.75 34.52 82.66 46.02 82.11 54.06"/>
    <polygon class="cls-7" points="88.42 47.99 86.6 48.25 86.78 45.72 88.59 45.45 88.42 47.99"/>
    <polygon class="cls-7" points="94.73 47.01 92.92 47.27 93.09 44.74 94.91 44.48 94.73 47.01"/>
    <polygon class="cls-7" points="88.1 52.28 86.29 52.55 86.46 50.02 88.28 49.75 88.1 52.28"/>
    <polygon class="cls-7" points="94.42 51.31 92.61 51.57 92.78 49.04 94.6 48.78 94.42 51.31"/>
    <polygon class="cls-10" points="97.87 47.65 82.42 49.9 82.44 49.56 97.89 47.31 97.87 47.65"/>
    <polygon class="cls-7" points="81.45 51.56 80.76 49.93 80.94 47.4 81.63 49.03 81.45 51.56"/>
    <polygon class="cls-7" points="79.04 45.73 78.35 44.1 78.53 41.57 79.22 43.2 79.04 45.73"/>
    <polygon class="cls-7" points="81.73 47.4 81.04 45.77 81.22 43.24 81.9 44.87 81.73 47.4"/>
    <polygon class="cls-7" points="79.21 41.58 78.52 39.95 78.7 37.42 79.39 39.04 79.21 41.58"/>
    <polygon class="cls-10" points="83.13 45.94 82.59 53.98 82.11 54.06 82.66 46.02 83.13 45.94"/>
    <polygon class="cls-10" points="82.66 46.02 82.12 54.06 81.84 53.41 82.39 45.36 82.66 46.02"/>
    <polygon class="cls-10" points="78.02 35.18 77.48 43.22 77.2 42.57 77.75 34.52 78.02 35.18"/>
    <polygon class="cls-10" points="98.41 43.55 97.64 51.82 97.16 51.9 97.94 43.63 98.41 43.55"/>
    <polygon class="cls-3" points="82.66 46.02 82.51 48.45 98.18 46.13 98.41 43.55 82.66 46.02"/>
    <polygon class="cls-3" points="77.75 34.52 77.6 36.86 82.51 48.45 82.66 46.02 77.75 34.52"/>
    <path class="cls-9" d="M77.75,34.52s9.52,1.11,9.89.75l5.86-3.22-15.75,2.47Z"/>
    <path class="cls-8" d="M82.66,46.02s5.4-8.55,6.01-8.34c.61.2,9.74,5.88,9.74,5.88l-15.75,2.47Z"/>
    <polygon class="cls-2" points="77.75 34.52 82.66 46.02 88.67 37.67 87.64 35.27 77.75 34.52"/>
    <polygon class="cls-6" points="93.5 32.05 98.41 43.55 88.67 37.67 87.64 35.27 93.5 32.05"/>
    <polygon class="cls-7" points="79.84 48.73 79.15 47.1 79.33 44.57 80.02 46.2 79.84 48.73"/>
    <polygon class="cls-3" points="79.5 43.22 78.71 46.07 80.5 50.23 80.74 46.09 79.5 43.22"/>
    <polygon class="cls-9" points="78.73 46.45 80.74 46.09 79.45 43.06 77.44 43.41 78.73 46.45"/>
  </g>
</svg>