<?xml version="1.0" encoding="UTF-8"?>
<svg id="map" xmlns="http://www.w3.org/2000/svg" viewBox="0 0 80.67 46.91">
  <defs>
    <style>
      .cls-1 {
        fill: #c8af94;
      }

      .cls-1, .cls-2, .cls-3, .cls-4, .cls-5, .cls-6, .cls-7, .cls-8, .cls-9, .cls-10, .cls-11, .cls-12, .cls-13, .cls-14 {
        stroke-width: 0px;
      }

      .cls-15 {
        fill: #c7d0d8;
        stroke: #fff;
        stroke-miterlimit: 10;
        stroke-width: .25px;
      }

      .cls-2 {
        fill: #605e5f;
      }

      .cls-3 {
        fill: #a5afb7;
      }

      .cls-4 {
        fill: #8cb835;
      }

      .cls-5 {
        fill: #d0d1d1;
      }

      .cls-6 {
        fill: #f1f2f2;
      }

      .cls-7 {
        fill: #999;
      }

      .cls-8 {
        fill: #515051;
      }

      .cls-9 {
        fill: #6a6869;
      }

      .cls-10 {
        fill: #b59f86;
      }

      .cls-11 {
        fill: #7b7d7e;
      }

      .cls-12 {
        fill: #686a6a;
      }

      .cls-13 {
        fill: #231f20;
      }

      .cls-14 {
        fill: #e5e5e5;
      }
    </style>
  </defs>
  <path class="cls-4" d="M952.59,242.27c28.49-59.5-54.18-238.94-89.6-311.4-35.42-72.46-99.31-161.2-174.79-189.26-90.3-33.58-194.59-32.77-237.48-30.9-42.89,1.87-93.1,4.07-93.1,4.07l-233.81,19.08-24.03,1.96s-56.16,2.4-75.69,30.97c-6.71,9.81-16.38,20.43-28.27,29.83-13.78,10.88-39.39,18.35-39.39,18.35l-29.13-9.37s-11.94-4.07-10.96-.9,18.31,12.58,18.44,15.56c.13,2.98-12.37,14.29-34.96,12.03-9.15-.92-21.33-3.28-33.48-4.18-23.56-1.75-47.15,5.09-59.36,13.57-10.35,7.18-32.9,9.16-32.9,9.16-6.44,38.33,5.76,106.07,11.91,142.45,5.14,30.4,21.38,65.17,46.03,86.84,28.13,24.72,57.57,26.63,91.86,23.23,7.15-.71,23.43-2.2,43.21-.85,13.92.95,48.06,18.99,102.01,9.5,59.09-10.4,97.23-53.48,116.74-56.98,113.83-20.43,169.77-26.66,210.8-11.19,35.96,13.56,71.64,69.79,94.2,112.05,14.69,27.52,19.82,34.68,41.29,57.21,40.42,42.4,156.79,80.32,230.79,87.01,74,6.69,162.07-.18,189.67-57.81Z"/>
  <path class="cls-7" d="M73.55,136.67c5.6-11.89,6.52-30.33,2.48-49.33-2.11-9.88-.14-16.91,1.63-20.1,7.19-1.63,11.59-6.06,10.58-10.63,2.44-2.48,13.32-11.48,46.58-16.5L400.62-.03c6.05,4.33,29.04,21.17,44.85,37.69,19.37,20.24,38.15,41.14,55.06,74.15l9-1.66c-17.2-33.56-36.25-54.77-55.9-75.3-14.43-15.08-34.13-30.01-42.89-36.41l99.41-15.01c5.75,3.16,24.7,13.99,30.86,22.56l.58.81c7.37,10.26,17.46,24.32,43.68,34.48,12.09,4.68,24.87,9.9,36.5,17.67,12.27,8.19,22.19,18.61,30.35,31.85,12.37,20.09,25.52,47.31,36.08,69.18,4.86,10.07,9.06,18.76,12.38,25.1,10.49,20.02,16.93,31.68,27.5,38.62,2.61,1.71,5.08,3.01,7.26,4.16,6.37,3.35,11.41,6,16.08,17.14l23.49,56.02,5.06.33-24.09-57.03c-5.02-11.97-10.81-15.02-17.51-18.54-2.19-1.15-4.46-2.34-6.9-3.95-9.91-6.51-16.22-17.94-26.51-37.59-3.31-6.32-7.5-14.99-12.35-25.04-10.58-21.91-23.75-49.19-36.18-69.37-18.17-29.5-41.85-40.5-68.66-50.89-25.05-9.7-34.42-22.76-41.96-33.25l-.59-.82c-5.92-8.24-22.17-17.99-29.76-22.27l29.6-4.47c2.38-.28,4.74-.58,7.03-.93,21.71-3.28,21.85-10.44,20.53-13.59-.19-.44-.56-1.36-1.08-2.62l10.58-1.35,4.96,12.21,7.69-.85-5.02-12.33,55.17-7.91-4.29-10.22-4.23,1.78,2.01,4.78-50.49,7.2-2.54-5.68-7.18,2.04,2.09,4.61-10.53,1.34c-3.88-9.49-10.49-25.68-13.44-32.72-4.06-9.67-22.65-10.64-28.9-9.7-6.25.94-24.67,3.73-34.21,5.17-4.56.69-7.68-1.29-9.86-3.94l-17.77-42.36c-1.83-10.9.05-28.92,18.8-33.07l8.13-1.23c21.55-3.25,53.86-.4,78.58,6.95,3.66,1.09,9.72,2.86,17.39,5.09,43.04,12.56,143.82,41.96,167.23,52.57,23.33,10.57,48.92,33.04,60.36,44.66,5.15,5.23,11.52,12.58,15.05,23.05,3.87,11.49,3.66,24.41-.66,39.51l9.28.95c9.93-34.75-3.1-53.73-15.57-66.39-3.25-3.3-32.62-32.62-62.79-46.29-24.15-10.94-121.84-39.45-168.79-53.14-7.65-2.23-13.7-4-17.33-5.08-26.97-8.02-61.15-10.98-85.05-7.37l-38.86,5.87-15.49-36.93c-4.51-10.75-21.41-20.64-39.32-23.01-18.29-2.42-34.79-.83-47.7,2.79l-7.15,1.71c-4.76,1.33-13.58,3.75-22.82,6.03l-2.99-7.12c6.41-2.14,9.91-6.68,8.03-11.15l-.39-.92,9.85-1.49-1.46-3.49-9.85,1.49-2.26-5.33,9.85-1.49-1.46-3.49-10.29,1.55c-.96-.83-2.72-2.02-4.83-2.92l-3.2-7.63-5.81.88,2.11,5.03c-2.2-.22-4.51-.18-6.81.16l-.56.08c-7.61,1.15-12.67,5.3-12.57,9.81l-10.18,1.54,1.46,3.49,9.74-1.47,1.99,4.74-9.96,1.5,1.46,3.49,9.96-1.5.39.92c1.78,4.25,7.9,7.18,14.81,7.51l3.39,8.08c-8.25,1.85-15.8,3.25-19.94,3.28-13.81.11-24.45-2.62-38.47-7.39-3.02-1.03-5.78-2.24-8.71-3.52-9.38-4.11-20-8.76-38.76-5.93l-79.93,12.07c-7.79,1.18-14.51,4.52-18.42,9.18-3.18,3.79-4.42,8.21-3.67,12.98l-2.37.36c-3.12.47-5.02,2.38-4.24,4.25l19.56,46.61c.78,1.87,3.97,3.01,7.09,2.54l1.78-.27,1.46,3.48-36.09,5.45c-1.61-1.43-4.26-2.16-6.97-1.75-2.3.35-4.12,1.44-5,3-.11.19-.2.39-.27.59l-52.16,7.88-9.22-21.97-55.55,8.39,25.96,61.87-41.3,6.24c-3.89.59-12.97-.99-18.54-2.36-.07-.74-.26-1.48-.57-2.23-2.69-6.41-13.56-10.31-24.24-8.69-10.68,1.61-17.18,8.14-14.49,14.54,2.69,6.41,13.56,10.31,24.24,8.69,6.12-.92,10.86-3.46,13.29-6.66,3.8.87,10.63,2.24,16.75,2.45.12,2.96.62,7.58,2.4,11.83.61,1.44,1.44,3.09,2.33,4.84,2.97,5.84,7.03,13.85,4.16,18.7-.33.56-.69,1.16-1.07,1.78-2.84,4.71-6.56,10.87-8.18,17.93-3.61.11-10.13.72-19.77,3.18-5.57,1.42-13.81,3.16-22.52,5.01-15.07,3.19-32.15,6.81-42.13,10.13-3.92,1.3-7.58,2.55-11.13,3.77-10.4,3.56-19.39,6.64-27.58,8.34-10.89,2.26-18.03,3.18-18.21,3.2l2.2,4.58c.18-.02,5.89-.99,16.94-3.29,8.47-1.76,17.58-4.88,28.13-8.49,3.54-1.21,7.19-2.46,11.09-3.76,9.74-3.23,26.68-6.82,41.63-9.99,8.76-1.86,17.04-3.61,22.71-5.05,8.55-2.18,14.48-2.83,17.92-3-.25,3.27.02,6.69,1.09,10.22,3.29,10.84,10.51,26.31,13.98,33.74.89,1.9,1.59,3.4,1.86,4.04.63,1.49,2.09,4.99,6.91,7.45,5.45,2.78,13.31,3.42,23.38,1.9l65-9.82,3.39,8.09c1.59,3.8,6.64,6.54,12.63,7.32-1.56,3.92-3.06,10.68-1,20.31,3.89,18.28,3.07,35.87-2.2,47.07l9.06,1.54ZM300.24-224.95l-4.36-10.4c-.97-2.32,1.38-4.67,5.24-5.26l.56-.08c3.86-.58,7.79.83,8.76,3.14l4.36,10.4c.97,2.32-1.38,4.67-5.24,5.26l-.56.08c-3.86.58-7.79-.83-8.76-3.14ZM341.92-80.32l-22.32,25.63-11.92,1.8-40.07-16.21,74.3-11.22ZM259.19-67.83l10.69,25.49,4.23-1.78-8.8-20.97,41.81,16.91,14.83-2.24,23.94-27.5,9.5,22.65,4.23-1.78-10.25-24.42,22.95-3.47,24.05,57.32-58.93,8.9-6.62-15.78-16.79,2.54,6.62,15.78-57.52,8.69-24.05-57.32,20.1-3.04ZM407.16-11.17c-.82-1.97-4.39-10.47-6.14-14.64l.93-.39-24.93-59.42,89.69-13.55,32.88,78.37-85.77,12.95c-2.79-.73-6.05-1.87-6.66-3.32ZM288.79-78.61l-20.46-48.76,175.43-26.49,20.46,48.76-175.43,26.49ZM238.86-128.75c-1.66-3.96-11.54-27.51-12.22-29.13-.75-1.78-.42-4.76,5.83-5.71,6.25-.94,30.1-4.55,30.1-4.55l2.9,6.91,9.7-1.47s.24-1.09,1.64-1.93c1.4-.84,4.28-.65,4.28-.65l2.98,7.1s1.56.39,2.39,2.37c.83,1.97,2.53,6.02,2.53,6.02l-1.64.25,1.12,2.66,1.97-.3,1.78,4.24-22.37,3.38,2.41,5.75-33.39,5.04ZM118.13-198.12c2.58-3.07,6.62-5.22,11.54-5.96l31.41-4.62,9.04,21.55,4.23-1.78-8.59-20.48,40.16-6.19c14.12-2.13,21.24.99,30.26,4.94,3.03,1.33,6.17,2.7,9.69,3.9,15.33,5.21,32.25,10.42,47.55,10.89,8.84.28,21.6-.73,34.32-3.02l-.03.07c1.37.53,2.75,1.05,4.12,1.58,2.61,1,5.21,2,7.82,3,2.52.97,5,2.01,7.48,3.06,1.35.57,2.53,1.52,3.75,2.34l3.68,2.48c1.01.68,2.01,1.36,3.02,2.03l4.5-2.67-11.38-7.49,26.99-4.01.67-3.07-30,4.47c-1.32.2-2.78.15-4.02-.34-2.74-1.08-5.48-2.1-8.25-3.1-.03-.01-.07-.02-.1-.04,5.74-1.3,11.29-2.88,16.26-4.72l8.92-2.5c1.37-.38,2.68-.81,3.94-1.24,2.61-.64,5.46-1.27,7.49-1.53,1.31-.17,2.5-.28,3.59-.34l-.04.38c14.1,1.36,25.33,5.31,28.81,8.36.33.44,1.1,2.1,1.66,3.62l4.3-1.6c-.72-1.94-1.8-4.46-2.86-5.4-2.71-2.42-7.99-4.72-14.55-6.51.06-.12.11-.23.16-.33.57-1.14,3.25-.6,4.4-.35,1.15.25,5.84,1.43,6.21,1.06.12-.12.27-.36.42-.65,10.06,3.48,18.57,9.66,21.25,16.05l15.49,36.93-45.8,6.92c-.94-1.96-1.99-4.35-2.2-5.46-.46-2.34-2.22-10.57-2.3-10.92l-4.49.96c.02.09,1.83,8.54,2.28,10.84.27,1.38,1.16,3.51,1.97,5.29l-6.15.93-5.62-13.39c-1.48-3.54-7.58-3.75-10.13-3.67l.13,4.59c2.41-.07,5.18.39,5.8.95l5.13,12.23-44.28,6.65-2.47-6.02-4.95.9-33.52,4.91-12.83-30.59-4.77.72-1.37-3.26-66.4,10.13,16.69,39.79-22.83,3.45c-1-2-6.26-11.09-20.53-14.52-13.28-3.19-20.08-1.17-28.31-2.44-7.61-1.18-15.92-3.56-21.2-4.41l-2.9-6.84c7.82-1.18,41.95-6.4,41.95-6.4l-3.34-4.13s-34.73,5.29-40.45,6.16l-3.9-9.5c7.82-1.18,39.94-6.04,39.94-6.04l-1.87-4.41s-34.19,5.22-39.91,6.08l-6.21-14.68c-2.75-6.55-.72-11.02,1.46-13.62ZM82.32-122.08c1.4-.21,2.57.16,3.07.49-.27.18-.75.39-1.44.5-1.41.21-2.59-.17-3.08-.49.27-.18.75-.4,1.45-.5ZM12.13-132.05l16.38,39.05-46.19,6.98-16.38-39.05,46.19-6.98ZM23.69-72.64l-5.91-14.09,12.57-1.9,5.91,14.09-12.57,1.9ZM-15.85-81.66l14.11-2.13,5.91,14.09-14.11,2.13-5.91-14.09ZM-91.81-56.14c-5.65.85-11.39-1.21-12.81-4.6-1.42-3.39,2.02-6.84,7.66-7.69,5.65-.85,11.39,1.21,12.81,4.6s-2.02,6.84-7.66,7.69ZM49.38,46.87h0L-15.62,56.69c-15.67,2.37-17.67-2.41-18.86-5.26-.3-.72-.98-2.17-1.92-4.19-3.43-7.35-10.57-22.64-13.78-33.23-2.59-8.55.21-16.66,3.6-23.22,4.26-.47,8.57-1.69,9.08-3.09.09-.24.24-.68.42-1.26l40.67-.67,61.17-9.45-.69-4.54L3.21-18.8l-38.89.64c.82-2.88,1.6-5.93,1.6-7.1,0-2.24-2.97-3.19-4.67-3.35-.96-.09-1.82-.51-2.5-1.1-1.1-3.5-2.88-7-4.48-10.16-.85-1.68-1.65-3.26-2.2-4.57-1.7-4.05-2.07-8.64-2.13-11.25l96.12-14.52-2.3-5.48-2.81.42-14.91-35.54,51.37-7.76c1.3,1.31,3.42,2.1,5.72,2.1.5,0,1-.04,1.51-.11,2.3-.35,4.12-1.44,5-3,.16-.29.29-.59.38-.89l36.51-5.51,4.62,11.01,13.83-2.09,14.91-2.25,9.98,23.78,3.3,2.86,1.38,3.29-5.04.76,1.92,4.57-8.11,1.23,2.24,5.34,15.13-2.29c9.93-1.5,7.83-6.51,6.94-8.64l-4.47-10.66,3-.45-2.65-6.32,6.31-.99,3.65-9.19c.1-.04.2-.07.3-.11l69.91-10.56,9.79,23.35-30.79,4.69,2.1,5,30.79-4.69,8.57,20.42-47.36,7.23-2.33-5.55-7.46,1.13,2.33,5.55-74.25,11.14-2.03-4.83-2.63.4-7.53-17.96-4.93.75-4.14-22.64-39.39,5.54,1.1,5.73-8.52,2.64-4.09,22.61,23.52-3.55,5.75,13.72,11.02-1.66,1.61,3.84-43.42,6.56-1.49-3.55-12.83,1.94,1.15,2.73-4.22.64,6.07,14.47.5-.07.51,3.36,32.89-4.97-.69-4.54-25.79,3.89-2.73-6.5,9.15-1.38-.04-.09,18.55-2.8,2.8,6.68,4.23-1.78-2.35-5.61,41.15-6.21,2.8,6.68,4.23-1.78-2.35-5.61,48.75-7.36,2.32,5.54-46.35,7,.69,4.54,24.55-3.73,9.79,22.73,7.32-1.09-1-4.48-3.47.5-7.96-18.37,18.27-2.73,1.95,4.66,9.43-1.42-6.11-14.56,23.32-3.52,24.05,57.32-22.02,3.27-4.32-10.11-11.81,1.72,4.44,10.25-98.8,14.87-3.68-3.78-1.49-3.55-16.88,2.55,1.49,3.55,7.29-1.1c2.7.52,8.74,2.08,10.27,5.72,1.28,3.04.45,5.42-.86,7.19-4.44,2.68-10.6,5.23-17.59,6.29l-25.89,3.91s-8.42,1.1-16.29,2.29l-.56.08c-8.89,1.34-11.85,5.13-12.35,10.47ZM73.52,62.11l-.56.08c-3.86.58-7.79-.83-8.76-3.14l-5.18-11.68c-.97-2.32,1.38-4.67,5.24-5.26h0c3.86-.58,8.35.74,9.32,3.06l5.18,11.68c.97,2.32-1.38,4.67-5.24,5.26ZM85.39,49.55l-4.7-11.2,24.47-3.7c6.44-.97,13.06-3.29,18.62-6.53,2.59-1.5,4.77-3.1,6.43-4.68,1.4,3.35,2.71,6.46,3.11,7.42.52,1.23-1.2,2.83-2.96,4.09-24.85,3.98-38.17,10.12-44.98,14.58Z"/>
  <polygon class="cls-7" points="61.1 11.21 39.77 14.14 14.14 -48.55 35.48 -51.48 61.1 11.21"/>
  <path class="cls-7" d="M25.95,1.01c-.06-.6-.21-1.2-.46-1.8-2.17-5.18-10.97-8.34-19.61-7.03C-2.75-6.52-8.01-1.25-5.83,3.94c2.17,5.18,10.97,8.34,19.61,7.03,4.95-.75,8.78-2.8,10.75-5.39,0,0,.95-1.24,1.25-2.38.34-1.3.18-2.2.18-2.2Z"/>
  <g>
    <polygon class="cls-1" points="73.99 19.74 64.73 -1.91 64.77 -14.31 73.99 7.56 73.99 19.74"/>
    <polygon class="cls-10" points="104.47 15.38 73.99 19.74 73.99 7.56 104.53 3.08 104.47 15.38"/>
    <polygon class="cls-5" points="78.21 22.23 52.36 25.91 52.37 16.8 78.29 13 78.21 22.23"/>
    <polygon class="cls-13" points="77.73 22.3 71.59 23.2 71.57 14.67 77.71 13.78 77.73 22.3"/>
    <polygon class="cls-14" points="42.78 26.44 41.16 23.01 41.2 10.62 42.78 14.26 42.78 26.44"/>
    <polygon class="cls-5" points="44.27 27.29 18.41 30.97 18.42 21.86 44.34 18.06 44.27 27.29"/>
    <polygon class="cls-13" points="43.69 27.39 37.55 28.29 37.53 19.76 43.66 18.87 43.69 27.39"/>
    <polygon class="cls-5" points="43.96 22.92 15.94 26.94 15.94 26.31 43.96 22.28 43.96 22.92"/>
    <polygon class="cls-5" points="78.01 17.96 49.98 21.98 49.98 21.35 78.01 17.32 78.01 17.96"/>
    <g>
      <polygon class="cls-14" points="38.53 18.91 44.34 18.06 42.6 13.93 36.78 14.8 38.53 18.91"/>
      <polygon class="cls-14" points="73.48 13.79 79.29 12.94 77.35 8.33 71.54 9.18 73.48 13.79"/>
      <g>
        <polygon class="cls-3" points="41.56 10.82 70.18 6.63 76.59 21.81 47.97 26.01 41.56 10.82"/>
        <path class="cls-6" d="M70.02,6.91l6.2,14.7-28.1,4.12-6.2-14.7,28.1-4.12M70.34,6.34l-29.14,4.27,6.61,15.67,29.14-4.27-6.61-15.67h0Z"/>
      </g>
      <g>
        <polygon class="cls-3" points="6.42 23.88 14.96 22.66 12.33 16.42 3.79 17.66 .53 9.93 32.49 5.25 35.72 12.91 27.28 14.24 29.94 20.46 38.37 19.19 41.41 26.39 9.45 31.07 6.42 23.88"/>
        <path class="cls-6" d="M32.33,5.53l3.03,7.18-7.8,1.23-.65.1.26.6,2.46,5.74.16.36.39-.06,8.04-1.21,2.83,6.71-31.43,4.61-2.83-6.71,7.89-1.13.65-.09-.26-.61-2.42-5.75-.15-.36-.39.06-8.14,1.19L.9,10.14l31.43-4.61M32.65,4.97L.17,9.73l3.47,8.22,8.53-1.25,2.42,5.75-8.54,1.22,3.24,7.68,32.48-4.76-3.24-7.68-8.43,1.27-2.46-5.74,8.44-1.33-3.44-8.15h0Z"/>
      </g>
      <g>
        <polygon class="cls-3" points="78.65 13.2 87.25 11.94 84.63 5.74 74.15 7.27 65.13 -14.1 75.61 -15.64 73 -21.84 64.39 -20.58 59.7 -31.69 85.1 -35.42 89.79 -24.31 81.35 -23.07 83.97 -16.86 95.15 -18.5 104.17 2.87 92.98 4.51 95.6 10.72 104.04 9.48 108.73 20.59 83.34 24.32 78.65 13.2"/>
        <path class="cls-6" d="M84.94-35.14l4.48,10.63-7.79,1.14-.65.1.26.61,2.42,5.72.15.36.39-.06,10.79-1.58,8.81,20.89-10.53,1.54-.65.1.26.61,2.41,5.72.15.36.39-.06,8.05-1.18,4.48,10.63-24.87,3.65-4.48-10.63,7.95-1.17.65-.1-.26-.61-2.41-5.72-.15-.36-.39.06-10.09,1.48-8.81-20.89,9.83-1.44.65-.1-.26-.61-2.41-5.72-.15-.36-.39.06-8.21,1.2-4.48-10.63,24.87-3.65M85.26-35.7l-25.92,3.8,4.89,11.6,8.6-1.26,2.41,5.72-10.48,1.54,9.22,21.86,10.48-1.54,2.41,5.72-8.6,1.26,4.89,11.6,25.92-3.8-4.89-11.6-8.44,1.24-2.41-5.72,11.18-1.64-9.22-21.86-11.18,1.64-2.42-5.72,8.44-1.24-4.89-11.6h0Z"/>
      </g>
    </g>
    <polygon class="cls-5" points="76.89 34.32 47.81 38.48 47.81 26.29 76.95 22.02 76.89 34.32"/>
    <polygon class="cls-5" points="41.71 38.9 9.29 43.54 9.29 31.36 41.77 26.59 41.71 38.9"/>
    <polygon class="cls-14" points="83.18 36.78 78.18 25.16 78.29 13 83.18 24.6 83.18 36.78"/>
    <polygon class="cls-14" points="47.81 38.48 44.26 30.21 44.34 18.06 47.81 26.29 47.81 38.48"/>
    <polygon class="cls-14" points="9.29 43.54 .13 22.12 .17 9.73 9.29 31.36 9.29 43.54"/>
    <polygon class="cls-1" points="78.47 13.03 86.9 11.77 84.48 6.02 76.55 8.54 78.47 13.03"/>
    <polygon class="cls-1" points="30.1 20.18 38.53 18.91 36.78 14.8 27.64 14.44 30.1 20.18"/>
    <polygon class="cls-10" points="27.64 14.44 36.78 14.8 36.08 13.12 27.64 14.44 27.64 14.44"/>
    <polygon class="cls-10" points="84.48 6.02 76.55 8.54 75.98 7.24 84.48 6.02 84.48 6.02"/>
    <polygon class="cls-1" points="6.08 23.73 14.59 22.45 12.17 16.7 4.19 19.23 6.08 23.73"/>
    <polygon class="cls-10" points="12.17 16.7 4.19 19.23 3.63 17.93 12.17 16.7 12.17 16.7"/>
    <polygon class="cls-13" points="38.42 39.35 35.29 39.82 35.29 27.54 38.42 27.08 38.42 39.35"/>
    <polygon class="cls-13" points="55.11 37.42 48.97 38.31 48.94 26.7 55.08 25.81 55.11 37.42"/>
    <polygon class="cls-13" points="62.02 36.44 55.88 37.34 55.86 25.72 61.99 24.83 62.02 36.44"/>
    <polygon class="cls-13" points="68.89 35.42 62.75 36.32 62.72 24.7 68.86 23.81 68.89 35.42"/>
    <polygon class="cls-13" points="75.8 34.45 69.66 35.34 69.63 23.73 75.77 22.84 75.8 34.45"/>
    <polygon class="cls-13" points="16.91 42.43 13.78 42.91 13.78 30.71 16.91 30.24 16.91 42.43"/>
    <polygon class="cls-5" points="76.27 29.11 48.24 33.13 48.24 32.5 76.27 28.47 76.27 29.11"/>
    <g>
      <polygon class="cls-15" points="17.8 20.02 25.14 18.95 24.15 16.62 16.81 17.7 17.8 20.02"/>
      <path class="cls-15" d="M18.48,17.45s.9.34.89,2.33"/>
      <path class="cls-15" d="M20.6,17.15s.9.34.89,2.33"/>
      <path class="cls-15" d="M22.58,16.83s.9.34.89,2.33"/>
    </g>
    <g>
      <polygon class="cls-5" points="80.11 29.29 78.96 29.55 78.96 19.73 80.17 19.6 80.11 29.29"/>
      <polygon class="cls-14" points="78.96 29.55 78.17 27.67 78.24 17.86 78.96 19.73 78.96 29.55"/>
      <polygon class="cls-13" points="80.17 19.6 78.96 19.73 78.24 17.86 79.3 17.73 80.17 19.6"/>
    </g>
    <g>
      <polygon class="cls-5" points="81.38 32.54 80.23 32.8 80.23 22.97 81.44 22.85 81.38 32.54"/>
      <polygon class="cls-14" points="80.23 32.8 79.44 30.91 79.51 21.1 80.23 22.97 80.23 32.8"/>
      <polygon class="cls-13" points="81.44 22.85 80.23 22.97 79.51 21.1 80.56 20.98 81.44 22.85"/>
    </g>
  </g>
  <polygon class="cls-11" points="13.99 3.4 7.98 4.31 5.56 -1.46 5.56 -2.01 11.57 -2.37 13.99 2.85 13.99 3.4"/>
  <polygon class="cls-14" points="13.99 2.85 7.98 3.76 5.56 -2.01 11.57 -2.92 13.99 2.85"/>
  <path class="cls-12" d="M11.82.33c0-.07-.03-.15-.06-.22-.27-.64-1.36-1.04-2.44-.88-.9.14-1.5.62-1.52,1.15,0,.1.02.21.06.31.27.64,1.36,1.04,2.44.88.62-.09,1.09-.35,1.34-.67,0,0,.12-.15.16-.3.04-.16.02-.27.02-.27Z"/>
  <polygon class="cls-12" points="7.8 -.56 11.82 -.56 11.83 .42 9.65 .85 7.81 .38 7.8 -.56"/>
  <path class="cls-7" d="M11.82-.56c0-.07-.03-.15-.06-.22-.27-.64-1.36-1.04-2.44-.88-1.07.16-1.73.82-1.46,1.46s1.36,1.04,2.44.88c.62-.09,1.09-.35,1.34-.67,0,0,.12-.15.16-.3.04-.16.02-.27.02-.27Z"/>
  <g>
    <polygon class="cls-2" points="8.55 -1.08 9.82 -.96 9.15 .32 8.55 -1.08"/>
    <polygon class="cls-9" points="9.15 .32 9.82 -.96 11.08 .02 9.15 .32"/>
    <polygon class="cls-8" points="11.08 .02 9.82 -.96 10.49 -1.38 11.08 .02"/>
  </g>
</svg>